<svg width="383" height="96" viewBox="0 0 383 96" fill="none" xmlns="http://www.w3.org/2000/svg">
<path d="M45.9479 68.9515L53.1179 69.2203C53.6262 69.2336 54.128 69.0949 54.5581 68.8224C54.9882 68.5499 55.3267 68.1561 55.5296 67.6921C55.7326 67.2282 55.7906 66.7156 55.6962 66.221C55.6017 65.7263 55.3592 65.2724 55 64.9183L25.1549 35.0732C24.2208 34.1378 23.6962 32.8699 23.6962 31.548C23.6962 30.226 24.2208 28.9582 25.1549 28.0227L48.547 4.6306C49.0388 4.13821 49.6245 3.74757 50.2703 3.48101C50.9162 3.21445 51.6098 3.0772 52.3113 3.0771H108.775C109.219 3.07377 109.656 3.18542 110.044 3.40141C110.433 3.6174 110.759 3.93053 110.993 4.31095C111.226 4.69137 111.359 5.1264 111.379 5.57459C111.399 6.02277 111.305 6.46916 111.105 6.87122L90.4915 48.3078C90.2875 48.7104 89.9914 49.0592 89.6272 49.3257C89.2631 49.5923 88.8411 49.7692 88.3957 49.8419C87.9503 49.9147 87.494 49.8813 87.064 49.7446C86.6339 49.6078 86.2422 49.3714 85.9206 49.0547L66.4123 29.5165C66.1458 29.2491 65.8292 29.037 65.4806 28.8922C65.132 28.7474 64.7582 28.6729 64.3808 28.6729C64.0033 28.6729 63.6295 28.7474 63.2809 28.8922C62.9323 29.037 62.6157 29.2491 62.3493 29.5165L61.2439 30.592C60.6054 31.2355 60.2471 32.1053 60.2471 33.0118C60.2471 33.9184 60.6054 34.7882 61.2439 35.4317L86.8468 61.0047C87.9979 62.1585 88.6444 63.7217 88.6444 65.3515C88.6444 66.9813 87.9979 68.5446 86.8468 69.6983L66.95 89.5652C66.0083 90.517 64.8771 91.2632 63.6276 91.7568C62.3781 92.2504 61.0375 92.4807 59.6904 92.4332L6.93114 90.5511C6.40758 90.5367 5.90242 90.3548 5.48979 90.0323C5.07716 89.7097 4.77878 89.2633 4.63842 88.7587C4.49807 88.2541 4.52314 87.7178 4.70995 87.2285C4.89675 86.7392 5.23547 86.3227 5.67639 86.04C15.0571 76.3206 21.5998 69.5888 25.3043 65.8445C30.0245 61.0844 32.773 58.9035 33.5498 59.3018C35.2626 60.1583 38.041 62.7375 41.8849 67.0395C42.3947 67.615 43.0177 68.0812 43.7161 68.4099C44.4144 68.7385 45.1737 68.9228 45.9479 68.9515Z" fill="#0E0E0E"/>
<path d="M151.795 61.6022C152.39 61.3556 152.893 60.9301 153.236 60.3847C153.579 59.8393 153.743 59.201 153.707 58.5579C153.671 57.9148 153.436 57.2989 153.035 56.7952C152.633 56.2916 152.085 55.9252 151.466 55.7467C139.307 52.3708 129.478 52.5501 125.325 43.5577C120.306 32.7728 129.986 22.8244 140.293 21.5099C148.279 20.4743 155.927 21.2311 163.237 23.7804C163.642 23.9179 164.011 24.1433 164.318 24.4403C164.626 24.7372 164.864 25.0986 165.015 25.4983C165.166 25.898 165.227 26.3263 165.194 26.7524C165.16 27.1785 165.032 27.5919 164.82 27.9629C163.804 29.7355 163.097 31.7272 162.699 33.9379C162.631 34.3172 162.474 34.675 162.242 34.9823C162.009 35.2896 161.708 35.5378 161.361 35.7066C161.015 35.8754 160.634 35.9602 160.248 35.9539C159.863 35.9477 159.485 35.8506 159.144 35.6707C153.647 32.8226 148.011 31.8666 142.235 32.8027C141.454 32.9304 140.732 33.2992 140.171 33.8574C139.61 34.4156 139.238 35.1353 139.106 35.9156C138.974 36.696 139.09 37.4981 139.437 38.2095C139.783 38.9209 140.344 39.5061 141.04 39.8831C150.749 45.0216 162.161 41.3768 166.971 53.4463C167.887 55.7567 167.937 58.5052 167.121 61.6918C165.109 69.4593 159.194 73.8111 149.375 74.7472C139.715 75.6634 131.211 73.9505 123.862 69.6087C123.669 69.4937 123.527 69.3111 123.466 69.0993C123.405 68.8876 123.429 68.6632 123.533 68.4734L128.104 59.2421C128.139 59.1711 128.187 59.1078 128.247 59.0558C128.307 59.0038 128.376 58.9641 128.451 58.9391C128.526 58.9141 128.605 58.9042 128.684 58.9101C128.763 58.9159 128.84 58.9374 128.91 58.9732C138.012 63.2154 145.64 64.0918 151.795 61.6022Z" fill="#0E0E0E"/>
<path d="M188.78 41.1977L206.854 23.1532C207.262 22.7454 207.743 22.4219 208.271 22.2015C208.799 21.981 209.364 21.8679 209.932 21.8685H220.328C220.658 21.867 220.98 21.9647 221.254 22.1489C221.527 22.3331 221.739 22.5953 221.861 22.9014C221.984 23.2075 222.011 23.5434 221.94 23.8653C221.869 24.1872 221.703 24.4804 221.463 24.7067C212.262 33.5895 206.466 39.8035 204.076 43.3487C202.841 45.1611 203.887 47.9793 207.213 51.8033C210.4 55.468 214.343 60.5368 219.043 67.0097C219.16 67.1748 219.319 67.3058 219.503 67.3892C219.687 67.4726 219.89 67.5053 220.091 67.484C220.292 67.4627 220.483 67.3881 220.646 67.268C220.808 67.1478 220.936 66.9865 221.015 66.8005L239.926 23.3623C240.113 22.9267 240.423 22.5557 240.816 22.2954C241.209 22.0352 241.668 21.8971 242.137 21.8984H253.4C253.852 21.8979 254.295 22.0309 254.672 22.2806C255.049 22.5304 255.345 22.8858 255.521 23.3025L276.344 70.2959C276.548 70.7504 276.635 71.2488 276.598 71.7457C276.56 72.2425 276.399 72.7221 276.129 73.1408C275.859 73.5595 275.488 73.9039 275.051 74.1428C274.613 74.3816 274.123 74.5073 273.625 74.5083H266.604C265.141 74.507 263.726 73.9869 262.61 73.0407C261.494 72.0944 260.75 70.7831 260.51 69.3399C259.813 65.3367 258.608 63.335 256.895 63.335C255.103 63.355 249.655 63.3749 240.553 63.3948C239.472 63.3947 238.415 63.7117 237.512 64.3064C236.61 64.9011 235.901 65.7475 235.475 66.7408L232.816 72.8054C232.646 73.2039 232.363 73.5437 232.002 73.7827C231.641 74.0217 231.217 74.1493 230.784 74.1498H209.573C209.043 74.1488 208.52 74.0272 208.044 73.7943C207.568 73.5614 207.151 73.2233 206.825 72.8054L193.978 56.5534C193.809 56.3382 193.592 56.1647 193.344 56.0464C193.097 55.9281 192.826 55.868 192.552 55.8709C192.278 55.8738 192.008 55.9395 191.763 56.063C191.519 56.1865 191.305 56.3645 191.14 56.5833C186.838 62.2297 187.495 64.1417 187.675 71.6403C187.679 71.9724 187.617 72.3019 187.492 72.6098C187.368 72.9177 187.184 73.1979 186.95 73.4341C186.717 73.6703 186.439 73.8579 186.133 73.9858C185.826 74.1138 185.497 74.1797 185.165 74.1797H175.396C174.699 74.1797 174.03 73.9058 173.537 73.4184C173.044 72.931 172.767 72.2699 172.767 71.5805V23.661C172.767 23.4335 172.812 23.2082 172.899 22.998C172.986 22.7877 173.114 22.5967 173.275 22.4358C173.435 22.2749 173.627 22.1473 173.837 22.0602C174.047 21.9731 174.272 21.9283 174.5 21.9283H185.972C186.192 21.9283 186.409 21.9723 186.612 22.0579C186.815 22.1435 186.999 22.2689 187.155 22.4271C187.31 22.5852 187.433 22.7729 187.517 22.9795C187.602 23.1861 187.645 23.4075 187.645 23.6312V40.7495C187.645 40.8809 187.685 41.0091 187.76 41.1175C187.834 41.226 187.939 41.3097 188.061 41.3579C188.183 41.4062 188.317 41.4167 188.445 41.3881C188.573 41.3595 188.69 41.2932 188.78 41.1977ZM247.514 52.9087C248.968 52.9485 250.402 52.8987 251.816 52.7593C252.04 52.7356 252.255 52.6618 252.446 52.5435C252.637 52.4252 252.798 52.2653 252.919 52.0758C253.04 51.8864 253.116 51.6721 253.142 51.4491C253.169 51.226 253.144 50.9999 253.071 50.7875L248.53 37.9114C248.511 37.8596 248.448 37.8111 248.351 37.7734C248.254 37.7356 248.128 37.7106 247.992 37.7023C247.953 37.7023 247.903 37.7023 247.843 37.7023C247.803 37.7023 247.753 37.7023 247.694 37.7023C247.561 37.705 247.438 37.7238 247.341 37.756C247.245 37.7882 247.18 37.8322 247.156 37.8815L242.047 50.5485C241.969 50.7561 241.938 50.9784 241.957 51.1994C241.975 51.4204 242.043 51.6345 242.154 51.8261C242.266 52.0178 242.419 52.1822 242.602 52.3075C242.785 52.4327 242.993 52.5156 243.212 52.5502C244.626 52.7493 246.06 52.8688 247.514 52.9087Z" fill="#0E0E0E"/>
<path d="M294.956 72.3572C294.956 72.8484 294.761 73.3196 294.413 73.6669C294.066 74.0143 293.595 74.2094 293.104 74.2094H282.797C282.163 74.2094 281.555 73.9545 281.107 73.5007C280.659 73.0469 280.407 72.4314 280.407 71.7896V23.2726C280.407 23.0817 280.445 22.8928 280.519 22.7168C280.593 22.5409 280.701 22.3814 280.837 22.2479C280.974 22.1143 281.135 22.0093 281.313 21.939C281.49 21.8687 281.68 21.8346 281.871 21.8386C289.379 22.0377 296.768 22.0477 304.038 21.8684C310.69 21.729 316.665 23.9199 321.963 28.4409C322.849 29.2091 323.562 30.167 324.054 31.2492C328.974 42.2432 326.872 50.9468 317.75 57.3599C316.938 57.9146 316.063 58.3472 315.151 58.6446C310.033 60.2777 303.948 60.7259 296.898 59.9889C296.65 59.9682 296.4 59.9984 296.165 60.0776C295.93 60.1568 295.714 60.2834 295.531 60.4492C295.349 60.6149 295.203 60.8164 295.104 61.0406C295.005 61.2648 294.955 61.5069 294.956 61.7516V72.3572ZM294.896 35.0134L295.075 47.9194C295.075 48.0632 295.104 48.2056 295.16 48.338C295.216 48.4705 295.298 48.5904 295.401 48.6907C295.504 48.791 295.626 48.8696 295.76 48.9218C295.894 48.9741 296.037 48.9989 296.181 48.9949L302.903 48.8754C305.408 48.8363 307.798 48.0692 309.55 46.7422C311.303 45.4152 312.275 43.6363 312.253 41.7951V40.6598C312.243 39.7432 311.987 38.8386 311.499 37.9982C311.01 37.1577 310.301 36.3978 309.41 35.7621C308.518 35.1264 307.464 34.6275 306.306 34.2939C305.149 33.9604 303.911 33.7988 302.664 33.8184L295.972 33.9379C295.686 33.9379 295.413 34.0513 295.211 34.2529C295.009 34.4546 294.896 34.7282 294.896 35.0134Z" fill="#0E0E0E"/>
<path d="M368.956 47.6806C368.956 47.8797 368.976 49.0946 369.016 51.3253C369.024 51.5853 368.979 51.8442 368.884 52.0867C368.788 52.3292 368.644 52.5503 368.46 52.737C368.276 52.9237 368.056 53.0721 367.813 53.1735C367.57 53.2748 367.308 53.327 367.044 53.3269H348.552C348.328 53.3269 348.107 53.371 347.9 53.4566C347.693 53.5421 347.506 53.6676 347.348 53.8257C347.189 53.9838 347.064 54.1715 346.978 54.3781C346.893 54.5847 346.849 54.8062 346.849 55.0298V60.3774C346.849 60.6011 346.893 60.8225 346.978 61.0291C347.064 61.2357 347.189 61.4234 347.348 61.5815C347.506 61.7397 347.693 61.8651 347.9 61.9507C348.107 62.0363 348.328 62.0803 348.552 62.0803H371.137C371.684 62.0803 372.208 62.2975 372.595 62.6841C372.981 63.0706 373.198 63.595 373.198 64.1417V72.0884C373.198 72.5955 372.997 73.0818 372.638 73.4404C372.28 73.799 371.794 74.0004 371.286 74.0004H333.256C333.039 74.0002 332.831 73.9129 332.675 73.7569C332.519 73.6008 332.427 73.3883 332.419 73.1639C332.379 71.8693 332.28 63.5043 332.12 48.0689C331.961 32.6335 331.881 24.2785 331.881 23.0038C331.881 22.774 331.97 22.5537 332.126 22.3912C332.283 22.2287 332.496 22.1375 332.718 22.1374L370.749 21.3308C371 21.3268 371.249 21.3724 371.483 21.4649C371.716 21.5573 371.929 21.6948 372.11 21.8696C372.29 22.0444 372.434 22.253 372.534 22.4835C372.633 22.714 372.687 22.9618 372.691 23.2129L372.84 31.1597C372.848 31.7013 372.643 32.2244 372.268 32.6158C371.893 33.0071 371.38 33.2353 370.838 33.2509L348.253 33.7289C348.029 33.7328 347.809 33.7807 347.603 33.8699C347.398 33.9591 347.213 34.0878 347.057 34.2487C346.902 34.4096 346.78 34.5996 346.698 34.8077C346.616 35.0158 346.576 35.238 346.58 35.4617L346.699 40.8093C346.703 41.0329 346.751 41.2536 346.84 41.4587C346.93 41.6638 347.058 41.8494 347.219 42.0047C347.38 42.1601 347.57 42.2822 347.778 42.3642C347.986 42.4461 348.208 42.4863 348.432 42.4823L366.925 42.0939C367.189 42.0899 367.451 42.1381 367.696 42.2357C367.94 42.3334 368.163 42.4784 368.35 42.6624C368.536 42.8463 368.683 43.0652 368.783 43.3063C368.882 43.5474 368.931 43.8056 368.926 44.0657C368.946 46.2963 368.956 47.5013 368.956 47.6806Z" fill="#0E0E0E"/>
</svg>
