<svg width="469" height="101" viewBox="0 0 469 101" fill="none" xmlns="http://www.w3.org/2000/svg">
<path d="M161.264 70.5103H204.632V69.4942H161.264V70.5103Z" fill="#131313"/>
<path d="M385.704 70.5103H445.222V69.4942H385.704V70.5103Z" fill="#131313"/>
<path d="M171.724 53.9431C171.025 53.0719 170.301 52.1589 169.547 51.2045C168.796 50.2529 168.073 49.3388 167.372 48.4647C166.675 47.5921 166.045 46.7929 165.481 46.0683C164.916 45.3438 164.472 44.7792 164.151 44.3771C164.93 44.2697 165.796 44.0453 166.749 43.7123C167.704 43.3762 168.594 42.9056 169.428 42.3018C170.26 41.6983 170.964 40.9337 171.545 40.0056C172.122 39.0796 172.41 37.9695 172.41 36.6832C172.41 35.473 172.187 34.4675 171.745 33.661C171.301 32.8555 170.699 32.2041 169.933 31.7053C169.166 31.2095 168.273 30.8536 167.253 30.6371C166.232 30.4249 165.157 30.3172 164.03 30.3172C163.251 30.3172 162.485 30.3488 161.733 30.4191C160.981 30.4861 160.216 30.5178 159.436 30.5178C158.658 30.5178 157.893 30.4966 157.142 30.458C156.39 30.4191 155.625 30.3697 154.842 30.3172C154.926 32.0908 154.998 33.8268 155.065 35.5328C155.132 37.2389 155.168 38.9762 155.168 40.7499V47.6803C155.168 49.4505 155.132 51.1972 155.065 52.9166C154.998 54.6363 154.926 56.3275 154.842 57.9915C155.462 57.938 156.12 57.9139 156.819 57.9139C157.515 57.9139 158.174 57.938 158.792 57.9915C158.713 56.3275 158.638 54.6363 158.573 52.9166C158.503 51.1972 158.471 49.4505 158.471 47.6803V44.7385H160.001C160.859 45.6248 161.807 46.7061 162.842 47.9822C163.875 49.2578 164.891 50.5397 165.884 51.8292C166.875 53.1183 167.783 54.3254 168.602 55.4563C169.424 56.583 170.033 57.43 170.436 57.9915C170.811 57.938 171.201 57.9139 171.605 57.9139H172.773H173.981C174.383 57.9139 174.787 57.938 175.189 57.9915C174.812 57.6181 174.316 57.0686 173.698 56.3409C173.079 55.6148 172.422 54.8154 171.724 53.9431ZM161.169 43.249C160.633 43.249 160.144 43.2342 159.699 43.2087C159.257 43.182 158.846 43.128 158.471 43.0461V40.7499C158.471 39.3008 158.498 37.8499 158.55 36.3993C158.604 34.9485 158.658 33.4845 158.713 32.0084C159.14 31.9532 159.665 31.9071 160.285 31.8682C160.9 31.8275 161.68 31.8069 162.621 31.8069C163.318 31.8069 164.03 31.8801 164.753 32.0296C165.481 32.1759 166.15 32.4523 166.769 32.8555C167.387 33.2575 167.889 33.8012 168.282 34.4857C168.671 35.1729 168.863 36.0376 168.863 37.085C168.863 38.2938 168.617 39.293 168.119 40.0878C167.62 40.8782 166.997 41.5102 166.246 41.9779C165.495 42.4499 164.668 42.7802 163.769 42.9654C162.868 43.155 162.003 43.249 161.169 43.249Z" fill="#131313"/>
<path d="M191.505 30.4572C189.811 30.4961 188.078 30.5199 186.306 30.5199C184.536 30.5199 182.801 30.4961 181.109 30.4572C179.417 30.4183 177.684 30.3704 175.913 30.3167C176.047 30.8528 176.114 31.27 176.114 31.5641C176.114 31.9406 176.047 32.3711 175.913 32.8564C176.479 32.774 177.114 32.7087 177.826 32.6547C178.537 32.5995 179.277 32.5534 180.04 32.5113C180.807 32.4709 181.572 32.4457 182.338 32.4306C183.106 32.4187 183.833 32.41 184.536 32.41C184.616 35.1782 184.655 37.9583 184.655 40.7491V47.6795C184.655 49.4515 184.621 51.1979 184.554 52.9173C184.486 54.6355 184.413 56.3267 184.334 57.991C184.949 57.9387 185.607 57.9132 186.306 57.9132C187.005 57.9132 187.661 57.9387 188.28 57.991C188.199 56.3267 188.124 54.6355 188.058 52.9173C187.991 51.1979 187.96 49.4515 187.96 47.6795V40.7491C187.96 37.9583 187.999 35.1782 188.078 32.41C188.777 32.41 189.509 32.4187 190.274 32.4306C191.04 32.4457 191.807 32.4709 192.572 32.5113C193.335 32.5534 194.075 32.5995 194.787 32.6547C195.498 32.7087 196.136 32.774 196.701 32.8564C196.565 32.3711 196.499 31.9525 196.499 31.6044C196.499 31.2848 196.565 30.8528 196.701 30.3167C194.928 30.3704 193.195 30.4183 191.505 30.4572Z" fill="#131313"/>
<path d="M239.49 33.8816C238.415 32.7402 237.037 31.8589 235.362 31.2432C233.682 30.6263 231.662 30.3172 229.298 30.3172C228.276 30.3172 227.264 30.3485 226.257 30.4185C225.25 30.4858 224.235 30.5172 223.215 30.5172C222.193 30.5172 221.179 30.4963 220.173 30.4574C219.165 30.4185 218.15 30.3709 217.13 30.3172C217.212 32.0903 217.285 33.8265 217.353 35.534C217.418 37.2386 217.454 38.9762 217.454 40.7493V47.6797C217.454 49.452 217.418 51.1981 217.353 52.9178C217.285 54.6357 217.212 56.3269 217.13 57.9915C218.044 57.9389 218.944 57.9137 219.831 57.9137H222.531C223.442 57.9137 224.343 57.927 225.227 57.9526C226.116 57.9778 227.015 57.9915 227.93 57.9915C229.512 57.9915 231.172 57.7566 232.903 57.286C234.635 56.8201 236.221 56.0178 237.655 54.8914C239.094 53.7634 240.276 52.2814 241.202 50.4392C242.129 48.6003 242.593 46.3383 242.593 43.6523C242.593 41.5831 242.345 39.7232 241.846 38.0694C241.35 36.4182 240.566 35.0248 239.49 33.8816ZM237.536 50.1568C236.797 51.8347 235.843 53.1581 234.675 54.1262C233.507 55.0914 232.183 55.7519 230.709 56.0999C229.231 56.448 227.754 56.6227 226.276 56.6227C225.254 56.6227 224.261 56.5885 223.294 56.5211C222.329 56.4555 221.564 56.3539 220.999 56.221C220.837 53.4272 220.759 50.5812 220.759 47.6797V40.7493C220.759 39.3002 220.777 37.8705 220.815 36.4588C220.859 35.0498 220.917 33.7025 220.999 32.4102C221.831 32.3054 222.773 32.2099 223.82 32.1292C224.866 32.0514 225.994 32.0084 227.204 32.0084C228.868 32.0084 230.398 32.1756 231.795 32.51C233.19 32.8476 234.394 33.4529 235.401 34.3252C236.408 35.1978 237.2 36.3871 237.778 37.89C238.355 39.3943 238.646 41.3142 238.646 43.6523C238.646 46.3087 238.274 48.4807 237.536 50.1568Z" fill="#131313"/>
<path d="M263.059 55.6982C262.413 55.8311 261.653 55.9298 260.782 56.0001C259.908 56.0671 258.982 56.1197 258.002 56.1615C257.022 56.2001 256.021 56.2198 255 56.2198H252.181C252.151 55.7118 252.133 54.9588 252.12 53.9637C252.105 52.9717 252.101 51.7096 252.101 50.178V47.7607V46.1891C252.101 45.7606 252.105 45.4033 252.12 45.1223C252.133 44.8419 252.141 44.5771 252.141 44.3365C252.622 44.3365 253.275 44.3426 254.093 44.3548C254.914 44.371 255.786 44.3829 256.712 44.3963C257.639 44.4099 258.566 44.4442 259.491 44.4964C260.419 44.5504 261.23 44.6189 261.929 44.6982C261.85 44.295 261.81 43.8929 261.81 43.4894C261.81 43.0609 261.85 42.6438 261.929 42.242C261.341 42.2943 260.713 42.3422 260.054 42.3825C259.399 42.4214 258.679 42.4647 257.903 42.5036C257.122 42.5454 256.263 42.5767 255.325 42.6049C254.383 42.629 253.321 42.6438 252.141 42.6438C252.141 42.1343 252.133 41.3816 252.12 40.3882C252.105 39.3946 252.101 38.3727 252.101 37.3254C252.101 36.3334 252.12 35.4475 252.16 34.6677C252.202 33.8877 252.235 33.0706 252.26 32.2087C253.576 32.2087 254.705 32.231 255.644 32.2699C256.587 32.3088 257.453 32.3596 258.244 32.4116C259.036 32.4642 259.788 32.5179 260.498 32.5733C261.209 32.6256 261.997 32.6793 262.857 32.7347C262.775 32.3297 262.736 31.9277 262.736 31.5245C262.736 31.1242 262.775 30.7207 262.857 30.3172C261.649 30.3712 260.452 30.4188 259.272 30.4577C258.09 30.4966 256.893 30.5175 255.687 30.5175C254.478 30.5175 253.275 30.4966 252.08 30.4577C250.886 30.4188 249.682 30.3712 248.473 30.3172C248.555 32.0351 248.629 33.7548 248.696 35.473C248.762 37.1924 248.797 38.9376 248.797 40.7107V47.6382C248.797 49.4116 248.762 51.1522 248.696 52.8568C248.629 54.5614 248.555 56.275 248.473 57.9915C249.71 57.9378 250.932 57.9139 252.141 57.9139H255.806H259.453C260.648 57.9139 261.85 57.9378 263.059 57.9915C262.975 57.7255 262.936 57.3775 262.936 56.9458C262.936 56.7589 262.944 56.5513 262.957 56.32C262.971 56.0927 263.004 55.8851 263.059 55.6982Z" fill="#131313"/>
<path d="M293.841 56.1595C292.094 56.2016 290.269 56.2193 288.361 56.2193C288.337 54.2592 288.309 52.0362 288.283 49.5533C288.255 47.0702 288.243 44.1345 288.243 40.7509C288.243 38.9775 288.276 37.2398 288.345 35.5337C288.409 33.8277 288.484 32.0889 288.563 30.3169C288.216 30.3706 287.879 30.4171 287.557 30.4574C287.233 30.4978 286.912 30.5187 286.589 30.5187C286.268 30.5187 285.945 30.4978 285.622 30.4574C285.303 30.4171 284.965 30.3706 284.616 30.3169C284.698 32.0889 284.77 33.8277 284.838 35.5337C284.903 37.2398 284.94 38.9775 284.94 40.7509V47.6798C284.94 49.4529 284.903 51.1981 284.838 52.9175C284.77 54.6358 284.698 56.327 284.616 57.9927C285.906 57.939 287.146 57.912 288.345 57.912H292.069H295.776C297.011 57.912 298.248 57.939 299.481 57.9927C299.348 57.5639 299.281 57.2008 299.281 56.9064C299.281 56.5824 299.348 56.1804 299.481 55.6965C297.465 55.9667 295.587 56.1191 293.841 56.1595Z" fill="#131313"/>
<path d="M324.117 50.9628C323.433 49.3926 322.699 47.6924 321.922 45.8668C321.143 44.0397 320.366 42.2007 319.584 40.3483C318.806 38.4942 318.041 36.6599 317.289 34.8488C316.535 33.0368 315.839 31.3487 315.195 29.7919H314.429C312.333 34.6012 310.253 39.328 308.185 43.9741C306.115 48.6205 303.994 53.2933 301.818 57.9937C302.275 57.9382 302.771 57.9127 303.309 57.9127C303.849 57.9127 304.344 57.9382 304.798 57.9937C305.148 56.7579 305.673 55.1952 306.372 53.2994C307.071 51.4064 307.849 49.4106 308.71 47.3176C309.54 47.2909 310.362 47.2712 311.166 47.2561C311.973 47.243 312.79 47.2369 313.624 47.2369C314.509 47.2369 315.397 47.243 316.281 47.2561C317.169 47.2712 318.041 47.2909 318.9 47.3176C319.251 48.2036 319.625 49.1372 320.03 50.1172C320.43 51.099 320.827 52.0653 321.217 53.0186C321.607 53.9717 321.963 54.8832 322.285 55.7587C322.607 56.6281 322.861 57.3765 323.052 57.9937C323.427 57.9382 323.781 57.9127 324.117 57.9127H325.185H326.253C326.588 57.9127 326.944 57.9382 327.32 57.9937C326.972 57.348 326.521 56.4101 325.973 55.1729C325.421 53.9389 324.803 52.533 324.117 50.9628ZM316.081 45.5233C315.328 45.5396 314.578 45.5442 313.825 45.5442C313.128 45.5442 312.401 45.5309 311.65 45.5022C310.897 45.4772 310.172 45.4635 309.473 45.4635L313.864 35.2314L318.337 45.4635C317.586 45.492 316.831 45.5114 316.081 45.5233Z" fill="#131313"/>
<path d="M363.601 32.371C363.08 31.8598 362.493 31.47 361.851 31.2026C361.205 30.9353 360.555 30.735 359.895 30.5976C359.236 30.4647 358.613 30.384 358.023 30.3573C357.431 30.3317 356.936 30.3166 356.531 30.3166C356.236 30.3166 355.873 30.3317 355.444 30.3573C355.013 30.384 354.563 30.4049 354.092 30.4182C353.625 30.4301 353.162 30.4513 352.705 30.478C352.249 30.5033 351.859 30.5184 351.536 30.5184C350.893 30.5184 350.242 30.4975 349.584 30.4571C348.922 30.4182 348.275 30.3703 347.626 30.3166C347.71 32.09 347.784 33.8263 347.849 35.5337C347.916 37.2395 347.952 38.9757 347.952 40.7491V47.6795C347.952 49.4515 347.916 51.1978 347.849 52.9158C347.784 54.6355 347.71 56.3264 347.626 57.9927C348.247 57.9387 348.904 57.9117 349.603 57.9117C350.299 57.9117 350.958 57.9387 351.576 57.9927C351.497 56.3264 351.423 54.6355 351.357 52.9158C351.287 51.1978 351.255 49.4515 351.255 47.6795V45.4626C351.792 45.5177 352.316 45.552 352.827 45.5642C353.336 45.5775 353.9 45.5851 354.517 45.5851C355.486 45.5851 356.593 45.4788 357.842 45.2608C359.091 45.0489 360.271 44.6318 361.386 44.0131C362.5 43.3963 363.442 42.5359 364.207 41.4348C364.972 40.3354 365.355 38.8979 365.355 37.1231C365.355 35.9953 365.194 35.0481 364.87 34.2832C364.549 33.5183 364.126 32.8819 363.601 32.371ZM360.944 40.7311C360.473 41.6052 359.87 42.2894 359.13 42.7838C358.391 43.2845 357.579 43.6236 356.692 43.8117C355.807 44.0001 354.947 44.0941 354.113 44.0941C353.121 44.0941 352.167 43.9882 351.255 43.7728V31.8064H354.88C355.927 31.8064 356.867 31.881 357.702 32.0302C358.531 32.1751 359.236 32.4529 359.814 32.8549C360.394 33.2584 360.842 33.8216 361.166 34.5462C361.486 35.2722 361.649 36.2104 361.649 37.3652C361.649 38.7354 361.413 39.857 360.944 40.7311Z" fill="#131313"/>
<path d="M373.755 35.5347C373.821 33.8272 373.895 32.0898 373.975 30.3179C373.627 30.3702 373.292 30.4181 372.97 30.4584C372.645 30.4985 372.324 30.5197 372.002 30.5197C371.679 30.5197 371.358 30.4985 371.035 30.4584C370.712 30.4181 370.375 30.3702 370.028 30.3179C370.11 32.0898 370.182 33.8272 370.251 35.5347C370.315 37.2411 370.352 38.9767 370.352 40.7504V47.6793C370.352 49.4524 370.315 51.1991 370.251 52.917C370.182 54.6367 370.11 56.3262 370.028 57.9937C370.645 57.9385 371.302 57.913 372.002 57.913C372.701 57.913 373.357 57.9385 373.975 57.9937C373.895 56.3262 373.821 54.6367 373.755 52.917C373.688 51.1991 373.655 49.4524 373.655 47.6793V40.7504C373.655 38.9767 373.688 37.2411 373.755 35.5347Z" fill="#131313"/>
<path d="M395.813 55.6982C395.168 55.8311 394.408 55.9298 393.538 56.0001C392.663 56.0671 391.737 56.1197 390.757 56.1615C389.777 56.2001 388.776 56.2198 387.755 56.2198H384.936C384.906 55.7118 384.888 54.9588 384.876 53.9637C384.861 52.9717 384.857 51.7096 384.857 50.178V47.7607V46.1891C384.857 45.7606 384.861 45.4033 384.876 45.1223C384.888 44.8419 384.896 44.5771 384.896 44.3365C385.38 44.3365 386.029 44.3426 386.848 44.3548C387.668 44.371 388.541 44.3829 389.466 44.3963C390.395 44.4099 391.321 44.4442 392.247 44.4964C393.175 44.5504 393.988 44.6189 394.686 44.6982C394.605 44.295 394.565 43.8929 394.565 43.4894C394.565 43.0609 394.605 42.6438 394.686 42.242C394.095 42.2943 393.47 42.3422 392.811 42.3825C392.153 42.4214 391.435 42.4647 390.658 42.5036C389.877 42.5454 389.017 42.5767 388.079 42.6049C387.138 42.629 386.077 42.6438 384.896 42.6438C384.896 42.1343 384.888 41.3816 384.876 40.3882C384.861 39.3946 384.857 38.3727 384.857 37.3254C384.857 36.3334 384.876 35.4475 384.915 34.6677C384.957 33.8877 384.99 33.0706 385.017 32.2087C386.331 32.2087 387.459 32.231 388.399 32.2699C389.342 32.3088 390.208 32.3596 390.998 32.4116C391.79 32.4642 392.54 32.5179 393.253 32.5733C393.965 32.6256 394.753 32.6793 395.613 32.7347C395.529 32.3297 395.491 31.9277 395.491 31.5245C395.491 31.1242 395.529 30.7207 395.613 30.3172C394.403 30.3712 393.207 30.4188 392.026 30.4577C390.845 30.4966 389.648 30.5175 388.442 30.5175C387.232 30.5175 386.029 30.4966 384.834 30.4577C383.641 30.4188 382.438 30.3712 381.228 30.3172C381.31 32.0351 381.383 33.7548 381.45 35.473C381.516 37.1924 381.552 38.9376 381.552 40.7107V47.6382C381.552 49.4116 381.516 51.1522 381.45 52.8568C381.383 54.5614 381.31 56.275 381.228 57.9915C382.465 57.9378 383.687 57.9139 384.896 57.9139H388.56H392.207C393.4 57.9139 394.605 57.9378 395.813 57.9915C395.732 57.7255 395.691 57.3775 395.691 56.9458C395.691 56.7589 395.698 56.5513 395.712 56.32C395.725 56.0927 395.758 55.8851 395.813 55.6982Z" fill="#131313"/>
<path d="M418.249 53.9431C417.552 53.0719 416.825 52.1589 416.072 51.2045C415.321 50.2529 414.598 49.3388 413.897 48.4647C413.199 47.5921 412.57 46.7929 412.006 46.0683C411.441 45.3438 410.998 44.7792 410.676 44.3771C411.455 44.2697 412.321 44.0453 413.276 43.7123C414.227 43.3762 415.119 42.9056 415.953 42.3018C416.785 41.6983 417.489 40.9337 418.07 40.0056C418.646 39.0796 418.935 37.9695 418.935 36.6832C418.935 35.473 418.712 34.4675 418.27 33.661C417.826 32.8555 417.223 32.2041 416.458 31.7053C415.691 31.2095 414.798 30.8536 413.779 30.6371C412.757 30.4249 411.682 30.3172 410.555 30.3172C409.777 30.3172 409.009 30.3488 408.259 30.4191C407.506 30.4861 406.741 30.5178 405.963 30.5178C405.185 30.5178 404.418 30.4966 403.667 30.458C402.915 30.4191 402.15 30.3697 401.37 30.3172C401.451 32.0908 401.524 33.8268 401.59 35.5328C401.657 37.2389 401.691 38.9762 401.691 40.7499V47.6803C401.691 49.4505 401.657 51.1972 401.59 52.9166C401.524 54.6363 401.451 56.3275 401.37 57.9915C401.987 57.938 402.645 57.9139 403.344 57.9139C404.04 57.9139 404.699 57.938 405.317 57.9915C405.238 56.3275 405.164 54.6363 405.098 52.9166C405.027 51.1972 404.996 49.4505 404.996 47.6803V44.7385H406.526C407.383 45.6248 408.332 46.7061 409.367 47.9822C410.4 49.2578 411.416 50.5397 412.408 51.8292C413.4 53.1183 414.308 54.3254 415.127 55.4563C415.945 56.583 416.558 57.43 416.96 57.9915C417.335 57.938 417.726 57.9139 418.13 57.9139H419.296H420.506C420.908 57.9139 421.312 57.938 421.714 57.9915C421.337 57.6181 420.841 57.0686 420.221 56.3409C419.604 55.6148 418.948 54.8154 418.249 53.9431ZM407.694 43.249C407.158 43.249 406.668 43.2342 406.224 43.2087C405.782 43.182 405.371 43.128 404.996 43.0461V40.7499C404.996 39.3008 405.023 37.8499 405.075 36.3993C405.129 34.9485 405.185 33.4845 405.238 32.0084C405.666 31.9532 406.19 31.9071 406.808 31.8682C407.424 31.8275 408.205 31.8069 409.147 31.8069C409.843 31.8069 410.555 31.8801 411.278 32.0296C412.006 32.1759 412.677 32.4523 413.294 32.8555C413.912 33.2575 414.414 33.8012 414.807 34.4857C415.194 35.1729 415.388 36.0376 415.388 37.085C415.388 38.2938 415.142 39.293 414.644 40.0878C414.145 40.8782 413.522 41.5102 412.771 41.9779C412.019 42.4499 411.193 42.7802 410.292 42.9654C409.391 43.155 408.526 43.249 407.694 43.249Z" fill="#131313"/>
<path d="M442.864 53.9431C442.165 53.0719 441.44 52.1589 440.687 51.2045C439.936 50.2529 439.213 49.3388 438.512 48.4647C437.814 47.5921 437.185 46.7929 436.621 46.0683C436.056 45.3438 435.612 44.7792 435.291 44.3771C436.069 44.2697 436.936 44.0453 437.89 43.7123C438.841 43.3762 439.734 42.9056 440.568 42.3018C441.4 41.6983 442.105 40.9337 442.684 40.0056C443.261 39.0796 443.549 37.9695 443.549 36.6832C443.549 35.473 443.327 34.4675 442.885 33.661C442.441 32.8555 441.837 32.2041 441.072 31.7053C440.306 31.2095 439.413 30.8536 438.392 30.6371C437.37 30.4249 436.296 30.3172 435.17 30.3172C434.39 30.3172 433.625 30.3488 432.872 30.4191C432.122 30.4861 431.356 30.5178 430.576 30.5178C429.798 30.5178 429.031 30.4966 428.281 30.458C427.53 30.4191 426.765 30.3697 425.983 30.3172C426.066 32.0908 426.139 33.8268 426.204 35.5328C426.272 37.2389 426.308 38.9762 426.308 40.7499V47.6803C426.308 49.4505 426.272 51.1972 426.204 52.9166C426.139 54.6363 426.066 56.3275 425.983 57.9915C426.602 57.938 427.261 57.9139 427.958 57.9139C428.655 57.9139 429.313 57.938 429.932 57.9915C429.853 56.3275 429.778 54.6363 429.712 52.9166C429.642 51.1972 429.612 49.4505 429.612 47.6803V44.7385H431.14C431.998 45.6248 432.945 46.7061 433.982 47.9822C435.014 49.2578 436.03 50.5397 437.024 51.8292C438.015 53.1183 438.923 54.3254 439.741 55.4563C440.562 56.583 441.173 57.43 441.576 57.9915C441.951 57.938 442.339 57.9139 442.744 57.9139H443.912H445.121C445.523 57.9139 445.926 57.938 446.328 57.9915C445.952 57.6181 445.456 57.0686 444.836 56.3409C444.219 55.6148 443.563 54.8154 442.864 53.9431ZM432.307 43.249C431.773 43.249 431.282 43.2342 430.839 43.2087C430.397 43.182 429.986 43.128 429.612 43.0461V40.7499C429.612 39.3008 429.638 37.8499 429.69 36.3993C429.744 34.9485 429.798 33.4845 429.853 32.0084C430.28 31.9532 430.805 31.9071 431.425 31.8682C432.04 31.8275 432.82 31.8069 433.761 31.8069C434.457 31.8069 435.17 31.8801 435.894 32.0296C436.621 32.1759 437.29 32.4523 437.908 32.8555C438.525 33.2575 439.029 33.8012 439.422 34.4857C439.81 35.1729 440.003 36.0376 440.003 37.085C440.003 38.2938 439.756 39.293 439.259 40.0878C438.76 40.8782 438.137 41.5102 437.385 41.9779C436.634 42.4499 435.808 42.7802 434.907 42.9654C434.006 43.155 433.143 43.249 432.307 43.249Z" fill="#131313"/>
<path d="M468.532 68.5807C468.547 68.3087 468.586 68.0593 468.65 67.8381C467.883 67.9963 466.978 68.1159 465.943 68.1966C464.901 68.2759 463.8 68.34 462.632 68.3879C461.465 68.4358 460.276 68.4611 459.06 68.4611H455.702C455.671 67.8529 455.646 66.9565 455.63 65.775C455.615 64.5918 455.606 58.5697 455.606 56.7452V53.8679V51.4268C455.606 50.9159 455.615 50.4929 455.63 50.1571C455.646 49.8209 455.655 49.5086 455.655 49.2203C456.23 49.2203 457.006 49.2293 457.981 49.2458C458.954 49.2635 459.994 49.2772 461.098 49.2937C462.2 49.3114 463.303 49.3503 464.405 49.413C465.511 49.4787 466.476 49.5579 467.311 49.6537C467.213 49.1738 467.165 48.6943 467.165 48.215C467.165 47.7038 467.213 47.208 467.311 46.7284C466.604 46.7909 465.862 46.8463 465.079 46.8956C464.293 46.9435 463.437 46.9929 462.514 47.039C461.585 47.0869 460.563 47.1287 459.444 47.1601C458.323 47.1897 457.063 47.208 455.655 47.208C455.655 46.5998 455.646 43.0278 455.63 41.846C455.615 40.6628 455.606 39.4482 455.606 38.2023C455.606 37.0191 455.63 35.9613 455.678 35.0349C455.727 34.1089 455.767 33.135 455.797 32.1097C457.364 32.1097 458.707 32.1352 459.826 32.1814C460.944 32.2293 461.979 32.2879 462.92 32.3503C463.861 32.413 464.759 32.4775 465.605 32.5416C466.452 32.6072 467.387 32.6702 468.414 32.7329C468.317 32.2531 468.269 31.7738 468.269 31.2957C468.269 30.8144 468.317 30.3366 468.414 29.8556C466.973 29.9212 465.548 29.9752 464.142 30.026C462.735 30.0707 461.316 30.0959 459.874 30.0959C458.437 30.0959 457.006 30.0707 455.582 30.026C454.156 29.9752 452.729 29.9212 451.29 29.8556C451.386 31.9021 451.474 33.949 451.554 35.9958C451.635 38.0424 451.674 40.1191 451.674 42.2301V53.7262C451.674 55.8357 451.635 62.4256 451.554 64.4542C451.474 66.4859 451.386 68.5241 451.29 70.5703C452.76 70.505 454.214 70.4748 455.655 70.4748H460.021H464.358C465.781 70.4748 467.213 70.505 468.65 70.5703C468.555 70.2524 468.508 69.8338 468.508 69.3218C468.508 69.0991 468.515 68.8512 468.532 68.5807Z" fill="#131313"/>
<path d="M146.302 50.4112C145.304 48.0761 144.311 45.7244 143.311 43.3536C142.317 40.9828 141.337 38.637 140.374 36.3216C139.412 34.0042 138.522 31.8456 137.7 29.8557H136.719C134.038 36.0049 131.379 42.0508 128.735 47.9925C126.086 53.9324 123.373 59.9115 120.591 65.9185C121.177 65.8485 121.81 65.8155 122.499 65.8155C123.186 65.8155 123.821 65.8485 124.403 65.9185C124.85 64.3393 125.523 62.3407 126.413 59.9159C127.31 57.4972 128.303 54.9438 129.401 52.2696C130.468 52.2322 131.517 52.2084 132.546 52.1907C133.578 52.1709 134.623 52.1637 135.689 52.1637C136.82 52.1637 137.956 52.1709 139.087 52.1907C140.222 52.2084 141.337 52.2322 142.438 52.2696C142.884 53.4006 143.234 54.2372 143.648 55.3531C144.058 56.4678 151.058 70.0435 151.301 70.8308C151.779 70.762 152.235 70.7275 152.662 70.7275H154.029H155.393C155.822 70.7275 156.278 70.762 156.76 70.8308C156.312 70.0061 148.923 56.1987 148.218 54.6181C147.515 53.0377 147.296 52.7463 146.302 50.4112ZM138.83 49.9749C137.869 49.9929 136.907 50.0004 135.946 50.0004C135.054 50.0004 134.125 49.9839 133.163 49.9479C132.202 49.9136 131.275 49.8959 130.383 49.8959L135.996 36.8116L141.716 49.8959C140.757 49.9334 139.79 49.9572 138.83 49.9749Z" fill="#131313"/>
<path d="M308.712 59.9364C308.549 59.8902 308.391 59.8902 308.242 59.9364C308.089 59.9828 307.932 60.0304 307.77 60.0754C307.214 60.3547 306.725 60.755 306.307 61.2781C305.888 61.8009 305.505 62.3074 305.157 62.7946C304.785 63.3293 304.436 63.8625 304.111 64.3973C303.785 64.9323 303.461 65.4687 303.135 66.0005C302.669 66.7922 302.216 67.587 301.776 68.3893C301.335 69.19 300.915 69.9984 300.521 70.8109L298.883 72.2752C298.51 72.5306 298.151 72.7861 297.803 73.043C297.454 73.2984 297.082 73.542 296.686 73.7736C296.641 73.7974 296.553 73.8497 296.426 73.9304C296.297 74.014 296.158 74.0947 296.008 74.1754C295.857 74.2576 295.706 74.3142 295.553 74.3487C295.402 74.3833 295.292 74.3667 295.223 74.2965C295.154 74.2277 295.135 74.1217 295.171 73.9844C295.205 73.8422 295.257 73.6929 295.328 73.5301C295.398 73.3672 295.473 73.2105 295.553 73.0595C295.635 72.9086 295.688 72.8116 295.71 72.7623C296.036 72.299 296.396 71.9257 296.792 71.6478C297.092 71.3938 297.413 71.1773 297.749 71.0037C298.087 70.8289 298.417 70.7305 298.743 70.7064H299.213C299.388 70.7064 299.562 70.7003 299.736 70.6899C299.911 70.678 300.07 70.6423 300.207 70.5857C300.346 70.5285 300.45 70.4272 300.521 70.2881C300.637 70.0788 300.625 69.8817 300.486 69.6951C300.346 69.5099 300.171 69.417 299.963 69.417C299.427 69.417 298.928 69.498 298.465 69.6605C298.069 69.7787 297.673 69.8939 297.279 70.0103C296.884 70.1267 296.499 70.2777 296.13 70.4629C295.549 70.7198 294.984 70.9964 294.439 71.298C293.919 71.5863 293.371 71.8255 292.798 72.027C292.742 72.0363 292.692 72.0244 292.626 72.0586C292.383 72.1855 292.18 72.2842 292.017 72.3527C291.158 72.7936 290.227 73.1867 289.229 73.533C288.996 73.6032 288.693 73.69 288.323 73.7943C287.949 73.8991 287.637 73.8796 287.381 73.7423C287.287 73.4883 287.295 73.1971 287.398 72.874C287.502 72.5501 287.613 72.2961 287.729 72.1094C287.846 71.9001 287.979 71.6986 288.131 71.5027C288.282 71.3056 288.379 71.1024 288.426 70.8931C288.473 70.6167 288.387 70.4074 288.166 70.2687C287.944 70.1296 287.729 70.1296 287.52 70.2687C287.032 70.6408 286.487 71.0098 285.883 71.3802C284.789 72.0284 283.687 72.6067 282.572 73.1161C282.223 73.2552 281.816 73.4299 281.35 73.6375C280.886 73.8453 280.445 73.9499 280.026 73.9499C280.026 73.4883 280.189 73.0476 280.514 72.6305C280.839 72.2139 281.177 71.8316 281.525 71.4833C281.618 71.3921 281.757 71.2696 281.943 71.1201C282.13 70.9709 282.303 70.8066 282.466 70.6347C282.629 70.4614 282.75 70.2867 282.832 70.1134C282.914 69.9401 282.897 69.7592 282.78 69.5755C282.641 69.3662 282.438 69.2918 282.17 69.3499C281.901 69.4068 281.618 69.5174 281.317 69.6788C281.013 69.8399 280.717 70.0208 280.428 70.2164C280.136 70.4138 279.922 70.5468 279.783 70.6167C279.2 70.8707 278.621 71.132 278.039 71.3967C277.458 71.6641 276.865 71.8914 276.262 72.0749C276.232 72.0868 276.229 72.1138 276.204 72.1286C276.136 72.1451 276.072 72.1422 276.002 72.1707C275.827 72.2409 275.658 72.3274 275.497 72.4319C275.332 72.5379 275.204 72.5994 275.113 72.6247C274.741 72.8102 274.299 73.0131 273.788 73.2343C273.275 73.4552 272.76 73.6465 272.237 73.8094C271.714 73.9725 271.208 74.0994 270.721 74.1917C270.233 74.2846 269.826 74.3084 269.502 74.2608C269.385 74.2396 269.303 74.1873 269.257 74.1054C269.21 74.023 269.233 73.902 269.327 73.7408C269.397 73.5539 269.484 73.409 269.587 73.3031C269.693 73.1997 269.802 73.0894 269.92 72.9727C270.033 72.8563 270.116 72.7173 270.164 72.5544C270.256 72.2514 270.18 72.0136 269.936 71.8389C269.693 71.6656 269.466 71.694 269.257 71.9271C268.838 72.3916 268.293 72.834 267.618 73.2505C267.525 73.3222 267.34 73.4314 267.06 73.5823C266.782 73.733 266.479 73.8782 266.155 74.0172C265.829 74.1589 265.51 74.2608 265.196 74.3325C264.882 74.4024 264.656 74.3786 264.516 74.2608C264.353 74.1217 264.353 73.8961 264.516 73.5823C264.679 73.2685 264.9 72.9431 265.178 72.6067C265.457 72.2691 265.741 71.9567 266.033 71.6656C266.322 71.3756 266.526 71.1831 266.642 71.0905C266.922 70.905 267.171 70.7468 267.391 70.6199C267.613 70.4913 267.885 70.3807 268.211 70.2881L269.779 70.1134C270.033 70.0684 270.25 69.9401 270.423 69.7308C270.598 69.5203 270.546 69.2887 270.268 69.0332C270.081 68.9168 269.785 68.8822 269.379 68.9299C268.971 68.9766 268.536 69.057 268.072 69.1734C267.606 69.2887 267.167 69.417 266.747 69.5563C266.328 69.6951 266.038 69.7999 265.876 69.8698C265.574 69.9862 265.196 70.1375 264.743 70.3238C264.291 70.5093 263.82 70.7064 263.332 70.9172C262.843 71.1262 262.383 71.3398 261.956 71.5596C261.575 71.7553 261.267 71.9138 261.005 72.0435C260.94 72.0615 260.887 72.063 260.805 72.1001C260.653 72.1707 260.496 72.2453 260.333 72.3274C260.172 72.4096 260.013 72.4975 259.863 72.589C259.712 72.6813 259.589 72.7515 259.498 72.798L258.068 73.4256C257.952 73.4717 257.783 73.542 257.563 73.6346C257.34 73.7289 257.109 73.814 256.866 73.8961C256.622 73.9766 256.377 74.041 256.133 74.0872C255.89 74.1351 255.685 74.1351 255.524 74.0872C255.546 73.9725 255.611 73.8395 255.715 73.6868C255.82 73.5362 255.936 73.3852 256.065 73.2343C256.19 73.0833 256.313 72.9489 256.429 72.834C256.546 72.7173 256.626 72.6247 256.674 72.5544C256.93 72.2514 257.179 71.975 257.423 71.7178C257.666 71.4624 257.893 71.1709 258.104 70.8455C258.288 70.5674 258.382 70.3047 258.382 70.0611C258.382 69.8176 258.318 69.6202 258.191 69.4681C258.062 69.3186 257.881 69.214 257.65 69.1557C257.418 69.0988 257.149 69.102 256.848 69.1734C256.033 69.4068 255.233 69.7427 254.442 70.1836C253.654 70.6257 252.886 71.044 252.143 71.4385C251.84 71.5788 251.537 71.7178 251.236 71.8566C250.934 71.9974 250.631 72.1588 250.329 72.3437L250.749 71.3697C250.818 71.1831 250.929 70.9813 251.08 70.7587C251.232 70.5389 251.26 70.3119 251.167 70.0803C251.027 69.7787 250.679 69.6846 250.12 69.7999C249.563 69.9177 248.953 70.1267 248.292 70.4272C247.628 70.7305 246.984 71.0501 246.357 71.386C245.827 71.6717 245.459 71.8702 245.195 72.0136H245.19C245.06 72.0496 244.927 72.108 244.788 72.1884C244.649 72.2691 244.545 72.3231 244.475 72.3437C244.171 72.4845 243.875 72.6293 243.586 72.7814C243.294 72.9327 243.01 73.0668 242.732 73.1806C241.896 73.5077 241.227 73.7408 240.728 73.8782C240.227 74.0172 239.919 74.0172 239.804 73.8782C239.618 73.7167 239.531 73.4955 239.543 73.2163C239.554 72.937 239.612 72.6485 239.716 72.3437C239.821 72.0435 239.949 71.7463 240.102 71.4565C240.251 71.1651 240.385 70.9273 240.5 70.7424C240.71 70.4153 240.756 70.1375 240.641 69.9058C240.523 69.6727 240.257 69.6263 239.839 69.7668C239.421 70.0222 238.944 70.26 238.409 70.4791C237.876 70.7003 237.363 70.7886 236.876 70.7424C236.643 70.7424 236.446 70.696 236.285 70.6019C236.585 70.4153 236.83 70.1836 237.015 69.9058C237.202 69.6504 237.247 69.3827 237.154 69.102C237.063 68.8256 236.852 68.6613 236.528 68.6149C236.04 68.5922 235.639 68.7777 235.325 69.1734C235.012 69.5682 234.879 69.988 234.924 70.4272C234.366 70.7529 233.85 71.044 233.373 71.298C232.896 71.5564 232.414 71.8119 231.927 72.0659C230.764 72.6935 229.63 73.3553 228.529 74.0529C227.425 74.7505 226.35 75.5052 225.304 76.3195C224.608 76.8525 223.968 77.4217 223.387 78.0267C222.806 78.6302 222.191 79.2564 221.541 79.9078C221.447 79.4207 221.412 78.9083 221.436 78.375C221.459 77.8403 221.511 77.2995 221.593 76.7541C221.674 76.2072 221.778 75.662 221.905 75.1151C222.034 74.5699 222.168 74.0529 222.307 73.5658L222.446 72.8325C222.702 72.8801 222.947 72.9144 223.178 72.937C223.411 72.9608 223.632 72.9489 223.84 72.9025C224.119 72.8116 224.264 72.6174 224.276 72.3274C224.288 72.0377 224.155 71.8328 223.876 71.7195C223.737 71.6702 223.578 71.6374 223.405 71.6133C223.23 71.5895 223.051 71.5776 222.864 71.5776C223.166 70.696 223.493 69.8356 223.84 68.9989C224.188 68.1623 224.55 67.324 224.921 66.4873C225.34 65.5372 225.763 64.608 226.194 63.7014C226.625 62.7946 227.071 61.8877 227.534 60.9808L228.198 59.6228L229 57.9836C229.045 57.8466 229.109 57.6866 229.191 57.513C229.272 57.3385 229.29 57.1725 229.244 57.0082C229.151 56.7542 228.964 56.614 228.685 56.5902C228.407 56.5675 228.104 56.5942 227.78 56.6767C227.454 56.7588 227.134 56.8694 226.82 57.0082C226.507 57.1472 226.28 57.2532 226.141 57.322C225.606 57.6013 225.084 57.9151 224.572 58.2646C224.061 58.6115 223.562 58.9833 223.075 59.3793C222.074 60.1936 221.128 61.0688 220.233 62.0102C219.339 62.9513 218.474 63.9101 217.637 64.8861C216.776 65.9076 215.952 66.9298 215.163 67.953C214.371 68.9766 213.593 70.0341 212.826 71.1262L211.955 72.4845C211.072 72.6935 210.188 72.9327 209.306 73.1986C208.422 73.4656 207.574 73.7974 206.761 74.1917C206.646 74.2608 206.574 74.3487 206.552 74.4535C206.529 74.5577 206.534 74.6564 206.57 74.7505C206.605 74.8434 206.674 74.9119 206.779 74.9583C206.883 75.0059 206.994 74.994 207.11 74.9241C207.505 74.7371 207.895 74.5656 208.279 74.401C208.661 74.2384 209.063 74.1008 209.48 73.9829C209.806 73.866 210.113 73.769 210.403 73.6868C210.695 73.6061 211.002 73.5301 211.328 73.4613C211.211 73.6465 211.105 73.8094 211.014 73.9484C210.92 74.0889 210.827 74.2503 210.735 74.4352C210.479 74.9241 210.206 75.4469 209.916 76.0042C209.625 76.5628 209.468 77.1303 209.445 77.7132C209.422 77.8984 209.474 78.0627 209.602 78.2003C209.729 78.3393 209.898 78.4093 210.107 78.4093C210.363 78.3869 210.52 78.2822 210.578 78.0958C210.635 77.9103 210.677 77.7236 210.7 77.5384C210.769 76.9349 210.956 76.3418 211.258 75.7607C211.56 75.181 211.849 74.6222 212.13 74.0889L212.617 73.1806L214.22 72.937C215.034 72.8221 215.858 72.7396 216.696 72.6935C217.532 72.647 218.368 72.647 219.204 72.6935C219.6 72.6935 219.994 72.6996 220.39 72.7115C220.785 72.7234 221.179 72.7396 221.575 72.7623C221.25 73.7391 220.948 74.7505 220.668 75.7949C220.39 76.8406 220.24 77.876 220.215 78.8993C220.192 79.131 220.192 79.3864 220.215 79.6642C220.24 79.942 220.302 80.1992 220.407 80.432C220.511 80.6637 220.656 80.8506 220.843 80.9894C221.028 81.1285 221.284 81.1746 221.609 81.1285C221.865 81.082 222.056 80.9894 222.186 80.8506C222.312 80.7101 222.434 80.5473 222.551 80.3603C223.992 78.5945 225.606 77.0618 227.397 75.7607C227.953 75.3421 228.529 74.9537 229.122 74.5937C229.714 74.2338 230.312 73.8796 230.917 73.5301L232.246 72.816C232.302 72.798 232.354 72.7878 232.414 72.7457C232.6 72.6186 232.763 72.5306 232.902 72.4845C233.065 72.3916 233.28 72.2633 233.548 72.1001C233.815 71.9376 234.075 71.7881 234.331 71.6478C234.588 71.5085 234.912 71.334 235.307 71.1262C235.493 71.3816 235.778 71.5326 236.162 71.5776C236.545 71.6252 236.946 71.6313 237.363 71.5953C237.783 71.5596 238.171 71.4966 238.532 71.4043C238.892 71.3129 239.131 71.2516 239.246 71.2292L238.968 72.3797C238.92 72.5681 238.868 72.7591 238.811 72.955C238.753 73.1518 238.706 73.3492 238.672 73.5466C238.636 73.7452 238.63 73.9423 238.654 74.1397C238.677 74.3383 238.746 74.5174 238.863 74.6805C239.071 74.9836 239.362 75.1331 239.734 75.1331C240.106 75.1331 240.49 75.0643 240.884 74.9241C241.279 74.7836 241.669 74.6103 242.053 74.4024C242.437 74.1917 242.755 74.0172 243.01 73.8782L244.475 73.2163C244.545 73.1925 244.649 73.1579 244.788 73.1118C244.927 73.0668 245.06 73.0055 245.19 72.937C245.293 72.8819 245.383 72.8116 245.471 72.7396C245.5 72.7292 245.526 72.7425 245.555 72.7292C245.741 72.6575 245.909 72.5785 246.061 72.4845C246.212 72.3916 246.379 72.299 246.566 72.2067C246.89 72.0435 247.216 71.8987 247.542 71.7703C247.866 71.6415 248.192 71.5085 248.517 71.3697C248.658 71.3236 248.855 71.2531 249.11 71.1607C249.364 71.0667 249.621 70.9857 249.877 70.9172C249.854 71.1009 249.818 71.2832 249.774 71.4565C249.726 71.6296 249.68 71.8 249.633 71.9631C249.587 72.0078 249.506 72.1527 249.39 72.3977C249.273 72.6412 249.157 72.8563 249.04 73.0415C248.762 73.2044 248.587 73.3913 248.517 73.5986C248.471 73.7855 248.477 73.935 248.535 74.0529C248.592 74.1693 248.68 74.2576 248.797 74.3142C248.913 74.3725 249.034 74.3952 249.163 74.3833C249.291 74.3725 249.412 74.3206 249.527 74.2277C250.062 73.6691 250.691 73.1867 251.411 72.7814C252.129 72.3753 252.827 72.0078 253.503 71.6821C254.036 71.4043 254.623 71.1381 255.262 70.8797C255.9 70.6257 256.534 70.4614 257.161 70.3929C257.069 70.7198 256.859 71.0667 256.534 71.4385C256.208 71.8119 255.976 72.0554 255.838 72.1707C255.697 72.3109 255.54 72.4618 255.367 72.6247C255.192 72.7861 255.029 72.9565 254.879 73.1295C254.728 73.3031 254.593 73.4854 254.476 73.6691C254.362 73.8558 254.303 74.0648 254.303 74.2965C254.303 74.7609 254.454 75.0466 254.757 75.1511C255.058 75.2556 255.412 75.266 255.82 75.1868C256.228 75.1032 256.632 74.9763 257.04 74.8013C257.447 74.628 257.743 74.495 257.929 74.4024C258.253 74.2396 258.567 74.0872 258.87 73.9469C259.172 73.8094 259.486 73.6465 259.81 73.4598C260.065 73.3434 260.309 73.2343 260.542 73.1295C260.775 73.025 260.996 72.9161 261.204 72.798C261.212 72.7936 261.214 72.7861 261.221 72.7814C261.262 72.7695 261.303 72.7878 261.344 72.7623C261.761 72.5544 262.221 72.3274 262.72 72.0839C263.221 71.8389 263.698 71.6014 264.15 71.3697C264.604 71.1381 265.009 70.9395 265.371 70.7767C265.729 70.6138 265.992 70.5093 266.155 70.4614C265.852 70.6257 265.526 70.8693 265.178 71.195C264.831 71.519 264.51 71.8749 264.22 72.2572C263.929 72.6412 263.69 73.0131 263.505 73.3748C263.319 73.733 263.227 74.0291 263.227 74.2608C263.251 74.7029 263.424 75.0283 263.75 75.2376C264.075 75.4454 264.446 75.5395 264.864 75.5171C265.33 75.4707 265.777 75.3244 266.207 75.0808C266.636 74.8373 267.048 74.5998 267.444 74.3667L268.385 73.8094C268.293 74.1351 268.28 74.4413 268.349 74.7328C268.421 75.0242 268.653 75.2512 269.047 75.4126C269.349 75.5276 269.681 75.5633 270.042 75.5171C270.401 75.4707 270.757 75.3885 271.103 75.2736C271.453 75.1572 271.789 75.0181 272.115 74.8538C272.44 74.6924 272.743 74.5519 273.02 74.4352C273.438 74.2503 273.846 74.0706 274.24 73.8961C274.636 73.7211 275.031 73.542 275.426 73.3553C275.519 73.3103 275.658 73.2505 275.845 73.1806C276.03 73.1118 276.215 73.0372 276.402 72.9565C276.486 72.919 276.531 72.8653 276.598 72.8221C276.827 72.7713 277.127 72.665 277.517 72.4917C277.935 72.308 278.621 72.0406 279.574 71.694L280.41 71.3102C280.131 71.6804 279.864 72.063 279.608 72.4575C279.351 72.8488 279.156 73.2209 279.015 73.569C278.876 73.917 278.812 74.2233 278.824 74.4892C278.836 74.7566 278.981 74.936 279.259 75.0254C279.539 75.1435 279.864 75.1598 280.236 75.0794C280.606 74.9987 280.984 74.8701 281.37 74.6953C281.752 74.522 282.118 74.3383 282.466 74.1412C282.816 73.9438 283.116 73.7765 283.373 73.6375C283.977 73.3835 284.562 73.1042 285.133 72.8055C285.702 72.5036 286.289 72.2139 286.893 71.9361L286.37 73.1867C286.253 73.5121 286.224 73.8514 286.283 74.2114C286.34 74.5699 286.579 74.8077 286.997 74.9241C287.579 75.0614 288.16 74.9987 288.741 74.7328C289.322 74.4654 289.855 74.2277 290.344 74.0201L292.644 72.9431C292.703 72.919 292.757 72.8787 292.813 72.8502C292.878 72.8517 292.948 72.8383 293.027 72.798C293.283 72.7742 293.572 72.6636 293.898 72.4662C294.224 72.2691 294.501 72.1123 294.736 71.9956L295.606 71.6478C295.28 71.975 294.98 72.3274 294.7 72.7115C294.421 73.0938 294.216 73.4732 294.091 73.8422C293.962 74.2158 293.95 74.5519 294.055 74.8538C294.16 75.1572 294.445 75.3763 294.908 75.5171C295.189 75.5856 295.467 75.5856 295.746 75.5171C296.024 75.4454 296.297 75.3377 296.565 75.1868C296.832 75.0347 297.082 74.8628 297.315 74.664C297.546 74.4654 297.755 74.2741 297.942 74.0872L299.684 72.5872C299.638 72.7054 299.602 72.8038 299.58 72.8845C299.557 72.9669 299.533 73.0549 299.509 73.1478C299.441 73.3327 299.366 73.5466 299.284 73.7916C299.202 74.0349 299.143 74.2918 299.11 74.5577C299.075 74.8254 299.085 75.0762 299.143 75.3078C299.202 75.5395 299.336 75.7383 299.545 75.9009C299.755 76.0385 299.982 76.1102 300.225 76.1102C300.469 76.1102 300.718 76.0623 300.975 75.9697C301.23 75.8771 301.474 75.7665 301.707 75.6382C301.938 75.5125 302.148 75.4004 302.334 75.3078C302.961 74.9583 303.6 74.6103 304.25 74.2608C304.901 73.9139 305.552 73.5777 306.202 73.2505C306.364 73.1806 306.562 73.1057 306.794 73.025C307.027 72.9446 307.2 72.8116 307.318 72.6247C307.411 72.4618 307.445 72.3332 307.423 72.2409C307.399 72.148 307.335 72.0882 307.23 72.0659C307.126 72.0435 307.009 72.0377 306.882 72.0496C306.753 72.0615 306.657 72.0882 306.586 72.1361C305.981 72.4618 305.349 72.8038 304.686 73.164C304.024 73.5243 303.367 73.8317 302.717 74.0872C302.343 74.2503 301.945 74.4129 301.514 74.5775C301.084 74.7386 300.66 74.8315 300.243 74.8538C300.219 74.7386 300.225 74.5879 300.259 74.4024C300.294 74.2158 300.342 74.0291 300.398 73.8422C300.457 73.6587 300.516 73.4854 300.573 73.3222C300.631 73.1579 300.682 73.0177 300.731 72.9042C300.846 72.5785 300.957 72.2633 301.06 71.9631C301.166 71.6597 301.275 71.3459 301.393 71.0202C302.275 70.1836 303.117 69.3186 303.919 68.4236C304.72 67.5304 305.517 66.6055 306.307 65.6522C306.818 65.0487 307.323 64.4452 307.823 63.8402C308.322 63.2367 308.769 62.5986 309.165 61.9219C309.258 61.7605 309.334 61.5692 309.39 61.348C309.45 61.1271 309.473 60.9181 309.462 60.7207C309.45 60.5233 309.386 60.3547 309.269 60.2142C309.153 60.0754 308.968 59.9828 308.712 59.9364ZM221.296 71.6478C220.413 71.6014 219.542 71.5968 218.681 71.6313C217.822 71.6656 216.962 71.7195 216.103 71.7881L213.21 72.2067C214.278 70.5778 215.407 68.9766 216.59 67.3957C218.264 65.2342 220.077 63.2605 222.028 61.4708C222.4 61.1451 222.8 60.7971 223.23 60.4252C223.661 60.0528 224.119 59.6928 224.608 59.3447C225.095 58.9952 225.606 58.6875 226.141 58.4199C226.675 58.154 227.21 57.9717 227.745 57.8808C227.466 58.6245 227.174 59.3494 226.873 60.0574C226.571 60.7669 226.257 61.4708 225.931 62.1655C225.258 63.7238 224.59 65.2699 223.928 66.8026C223.265 68.3368 222.633 69.9041 222.028 71.5085C222.005 71.5326 221.994 71.5776 221.994 71.6478H221.296ZM307.823 62.0639C307.626 62.3641 307.493 62.5838 307.423 62.7255C307.214 63.0738 306.993 63.4053 306.759 63.7177C306.528 64.0312 306.295 64.3525 306.063 64.6768C305.528 65.3744 304.97 66.0528 304.39 66.7158C303.809 67.378 303.216 68.0218 302.612 68.6509L302.403 68.8584L303.797 66.4188C304.215 65.7451 304.658 65.0951 305.122 64.4675C305.587 63.8402 306.086 63.2367 306.621 62.6555C306.782 62.4703 307.005 62.2148 307.282 61.8891C307.562 61.5631 307.864 61.3422 308.189 61.2273C308.143 61.481 308.02 61.7605 307.823 62.0639Z" fill="#131313"/>
<path d="M339.923 66.9603C340.354 66.4837 340.708 65.967 340.987 65.4082C341.265 64.8508 341.405 64.2592 341.405 63.6319C341.405 62.9581 341.259 62.365 340.969 61.8538C340.678 61.3418 340.295 60.9188 339.819 60.5809C339.342 60.245 338.807 59.982 338.216 59.7968C337.623 59.6116 337.024 59.4949 336.42 59.4488C335.676 59.4009 334.939 59.416 334.208 59.4859C333.475 59.5562 332.737 59.6639 331.994 59.8087C332.645 59.1782 333.341 58.6165 334.085 58.1279C334.829 57.6365 335.606 57.4034 336.42 57.4257C336.699 57.4257 336.897 57.2989 337.013 57.0434C337.13 56.788 337.094 56.5668 336.908 56.3801C336.768 56.2187 336.572 56.1366 336.317 56.1366C336.061 56.1366 335.793 56.183 335.513 56.2771C335.235 56.3697 334.97 56.4861 334.712 56.6248C334.457 56.7642 334.26 56.8701 334.121 56.9389C333.585 57.2646 333.091 57.617 332.639 58.0025C332.186 58.3849 331.75 58.7974 331.331 59.2395L330.531 60.1446C330.205 60.2151 329.872 60.2973 329.536 60.3882C329.2 60.481 328.868 60.587 328.544 60.7034C327.289 61.0982 326.039 61.5464 324.795 62.0451C323.552 62.5441 322.386 63.1674 321.294 63.9097C321.061 64.0487 320.968 64.2534 321.014 64.5193C321.061 64.7884 321.225 64.9556 321.501 65.0255C321.641 65.0705 321.805 65.0421 321.99 64.9376C322.176 64.8345 322.357 64.712 322.531 64.5715C322.704 64.4325 322.874 64.2876 323.037 64.1367C323.199 63.986 323.337 63.8754 323.454 63.8037C324.941 62.8983 326.522 62.1795 328.194 61.6448C328.426 61.5508 328.665 61.4701 328.91 61.3984C329.153 61.3299 329.403 61.2727 329.658 61.2265C329.055 61.9467 328.486 62.6785 327.951 63.4226C327.416 64.1651 326.893 64.9091 326.382 65.6517C325.592 66.8378 324.831 68.0272 324.099 69.2252C323.366 70.4235 322.629 71.6259 321.887 72.8318L321.119 74.0539C320.562 74.1224 319.991 74.1761 319.411 74.2092C318.83 74.2449 318.261 74.251 317.704 74.2269C317.494 74.2031 317.32 74.2899 317.179 74.4884C317.042 74.6856 317.018 74.8783 317.111 75.0621C317.227 75.3431 317.412 75.476 317.668 75.4641C317.923 75.4522 318.168 75.4339 318.4 75.4116C318.727 75.3654 319.062 75.3251 319.411 75.2891C319.759 75.2563 320.109 75.2026 320.457 75.1338C319.991 75.8763 319.528 76.6099 319.062 77.3287C318.597 78.0486 318.168 78.7821 317.772 79.5247C317.656 79.7337 317.668 79.9488 317.808 80.1715C317.947 80.3898 318.144 80.4885 318.4 80.4658C318.679 80.4179 318.883 80.2522 319.011 79.9593C319.138 79.6696 319.26 79.4304 319.377 79.2466L321.294 75.6551L321.676 74.9936L322.305 74.8528C324.883 74.39 327.44 73.716 329.972 72.8318C332.504 71.9501 334.863 70.7893 337.049 69.3477C337.512 69.0461 338.001 68.6887 338.512 68.2841C339.022 67.8777 339.493 67.4355 339.923 66.9603ZM336.961 68.1976C336.508 68.5456 336.106 68.8368 335.758 69.0684C334.27 70.0903 332.691 70.9402 331.018 71.614C329.345 72.288 327.637 72.8318 325.894 73.2501C324.663 73.5772 323.43 73.8208 322.2 73.9833C322.758 73.0303 323.309 72.0892 323.856 71.1585C324.401 70.2293 324.964 69.3012 325.547 68.372C326.289 67.2097 327.046 66.0758 327.812 64.9718C328.578 63.8696 329.403 62.795 330.286 61.7479L330.984 60.9113C331.517 60.7963 332.034 60.7098 332.534 60.6514C333.033 60.5928 333.55 60.5423 334.085 60.4929C334.899 60.448 335.742 60.4764 336.613 60.5809C337.482 60.6857 338.256 60.9711 338.93 61.4358C339.509 61.8315 339.883 62.2649 340.046 62.743C340.209 63.2179 340.231 63.7007 340.115 64.1889C340 64.6778 339.767 65.1646 339.417 65.6517C339.071 66.1403 338.686 66.5989 338.268 67.0288C337.85 67.4593 337.414 67.8478 336.961 68.1976Z" fill="#131313"/>
<path d="M382.638 72.2755C382.569 72.1365 382.452 72.0662 382.29 72.0662C382.126 72.0662 381.959 72.1005 381.786 72.1693C381.611 72.2395 381.441 72.3278 381.279 72.4323C381.115 72.5368 380.988 72.5995 380.896 72.625C380.524 72.8102 380.081 73.0134 379.572 73.2346C379.061 73.4544 378.544 73.6469 378.021 73.8097C377.497 73.9726 376.993 74.0994 376.505 74.1923C376.016 74.2849 375.609 74.3087 375.284 74.2608C375.169 74.2385 375.085 74.1877 375.039 74.1055C374.995 74.0234 375.017 73.9023 375.109 73.7395C375.18 73.5542 375.268 73.4091 375.373 73.3031C375.475 73.1986 375.586 73.0898 375.701 72.9731C375.819 72.8567 375.9 72.7173 375.946 72.5548C376.039 72.2514 375.964 72.014 375.719 71.8392C375.475 71.6656 375.25 71.6941 375.039 71.9257C374.622 72.3919 374.077 72.8326 373.402 73.2494C373.309 73.3211 373.122 73.4315 372.845 73.5827C372.567 73.7334 372.264 73.8782 371.938 74.0173C371.612 74.1578 371.294 74.2608 370.979 74.3311C370.665 74.4013 370.439 74.379 370.3 74.2608C370.137 74.1218 370.137 73.8962 370.3 73.5827C370.462 73.2689 370.683 72.9432 370.962 72.607C371.241 72.2694 371.526 71.9556 371.815 71.6656C372.107 71.3745 372.31 71.1832 372.426 71.0891C372.704 70.9039 372.955 70.7468 373.175 70.62C373.396 70.4914 373.669 70.3811 373.995 70.2882L375.564 70.1137C375.819 70.0676 376.034 69.9404 376.208 69.7311C376.382 69.5207 376.33 69.289 376.051 69.0335C375.864 68.9171 375.568 68.8826 375.162 68.9305C374.755 68.9752 374.321 69.0574 373.855 69.1738C373.39 69.289 372.949 69.4173 372.529 69.5564C372.113 69.6951 371.823 69.7999 371.66 69.8702C371.357 69.9851 370.979 70.1375 370.527 70.3227C370.073 70.5094 369.603 70.7068 369.114 70.9158C368.627 71.1265 368.167 71.3402 367.738 71.5597C367.359 71.7556 367.05 71.9124 366.789 72.0439C366.724 72.0604 366.67 72.0633 366.588 72.1005C366.436 72.1693 366.28 72.2453 366.117 72.3278C365.956 72.4099 365.798 72.4964 365.647 72.5876C365.496 72.6816 365.375 72.7504 365.282 72.7983L363.852 73.4242C363.734 73.4721 363.567 73.5421 363.346 73.6349C363.125 73.729 362.893 73.8143 362.65 73.8962C362.406 73.9769 362.161 74.0414 361.918 74.0875C361.674 74.1354 361.47 74.1354 361.307 74.0875C361.331 73.9726 361.395 73.8396 361.5 73.6872C361.604 73.5348 361.72 73.3853 361.848 73.2346C361.974 73.0837 362.097 72.949 362.214 72.8326C362.329 72.7173 362.411 72.625 362.458 72.5548C362.712 72.2514 362.964 71.9736 363.207 71.7182C363.451 71.4627 363.678 71.1713 363.887 70.8455C364.072 70.5663 364.165 70.3047 364.165 70.0612C364.165 69.8176 364.101 69.6205 363.975 69.4681C363.845 69.3186 363.666 69.2127 363.434 69.1561C363.203 69.0994 362.934 69.1021 362.632 69.1738C361.817 69.4054 361.017 69.7416 360.227 70.184C359.438 70.6258 358.67 71.0444 357.927 71.4386C357.624 71.5777 357.321 71.7182 357.021 71.8572C356.717 71.996 356.415 72.1574 356.114 72.344L356.534 71.3701C356.602 71.1832 356.713 70.9817 356.864 70.7587C357.015 70.5396 357.044 70.3123 356.952 70.0795C356.811 69.7787 356.463 69.6847 355.904 69.7999C355.347 69.9163 354.738 70.1271 354.076 70.4275C353.413 70.7306 352.768 71.0502 352.14 71.3852C351.514 71.7243 351.072 71.9632 350.816 72.1005C350.716 72.1423 350.655 72.1948 350.611 72.2514C350.511 72.2993 350.419 72.3516 350.311 72.398C350.068 72.5008 349.829 72.6114 349.597 72.7281C349.085 72.9609 348.563 73.1644 348.028 73.3374C347.494 73.5124 346.948 73.6573 346.391 73.7737C345.995 73.8425 345.559 73.8901 345.084 73.9145C344.607 73.9369 344.149 73.8843 343.706 73.756C343.264 73.6289 342.882 73.4242 342.556 73.1464C342.232 72.8686 342.021 72.4726 341.928 71.9632H342.069C342.578 72.0079 343.085 71.9675 343.585 71.8392C344.084 71.7124 344.543 71.5208 344.961 71.2641C345.076 71.1951 345.258 71.0845 345.502 70.9323C345.745 70.7828 345.967 70.6139 346.164 70.4275C346.361 70.242 346.5 70.0446 346.582 69.8359C346.663 69.6266 346.623 69.4292 346.46 69.2426C346.228 68.9424 345.896 68.7676 345.466 68.7197C345.036 68.6736 344.659 68.6736 344.332 68.7197C343.706 68.8362 343.113 69.0634 342.556 69.3996C341.999 69.7372 341.568 70.1718 341.267 70.7068C340.802 70.8934 340.343 71.1146 339.889 71.3701C339.437 71.6256 339 71.8572 338.582 72.0645C338.443 72.1124 338.368 72.2172 338.356 72.3797C338.344 72.5429 338.409 72.6712 338.547 72.7626C338.734 72.8805 338.92 72.8729 339.105 72.7461C339.292 72.6175 339.442 72.531 339.559 72.4831C339.744 72.3678 339.959 72.2349 340.203 72.0842C340.448 71.9315 340.697 71.8003 340.953 71.6822C340.907 71.8453 340.901 72.0198 340.936 72.2067C340.969 72.3919 341.01 72.5786 341.058 72.7626C341.196 73.2735 341.429 73.6933 341.754 74.0173C342.079 74.3444 342.445 74.5941 342.853 74.7688C343.258 74.9407 343.7 75.0452 344.177 75.0812C344.652 75.1154 345.124 75.0855 345.589 74.9944C346.635 74.7148 347.691 74.3668 348.76 73.9488L350.502 73.1806C350.665 73.1121 350.85 73.0433 351.061 72.9731C351.239 72.9133 351.377 72.8015 351.488 72.6564C351.612 72.6027 351.738 72.5501 351.845 72.4831C351.996 72.3919 352.163 72.2993 352.35 72.2067C352.674 72.0439 353 71.8987 353.324 71.7704C353.65 71.6418 353.976 71.5074 354.303 71.3701C354.442 71.3222 354.639 71.2522 354.893 71.1593C355.149 71.0667 355.405 70.9846 355.661 70.9158C355.639 71.101 355.603 71.2819 355.556 71.4569C355.51 71.6299 355.464 71.8003 355.417 71.9632C355.371 72.0079 355.29 72.1527 355.174 72.398C355.057 72.6416 354.941 72.8567 354.824 73.0419C354.546 73.2044 354.372 73.3914 354.303 73.5992C354.255 73.7856 354.261 73.9351 354.319 74.0533C354.376 74.1697 354.464 74.2579 354.581 74.3145C354.697 74.3714 354.818 74.3955 354.945 74.3833C355.075 74.3714 355.196 74.3192 355.311 74.228C355.846 73.6678 356.474 73.1867 357.195 72.7803C357.914 72.3739 358.611 72.0079 359.285 71.6822C359.82 71.4029 360.407 71.137 361.047 70.8798C361.684 70.6258 362.318 70.4618 362.945 70.393C362.853 70.7187 362.642 71.0667 362.318 71.4386C361.992 71.8122 361.761 72.0558 361.622 72.1693C361.482 72.3112 361.324 72.4622 361.151 72.625C360.976 72.7864 360.814 72.9551 360.663 73.1284C360.512 73.3031 360.379 73.484 360.261 73.6678C360.144 73.8559 360.088 74.0637 360.088 74.2968C360.088 74.7613 360.238 75.0452 360.542 75.1511C360.842 75.2559 361.196 75.2664 361.604 75.1871C362.01 75.1035 362.417 74.9767 362.824 74.8016C363.231 74.6269 363.527 74.4939 363.712 74.4013C364.038 74.2385 364.351 74.0875 364.653 73.9473C364.957 73.8097 365.27 73.6469 365.594 73.4602C365.85 73.3438 366.093 73.2346 366.326 73.1284C366.558 73.0239 366.78 72.9147 366.988 72.7983C366.996 72.7937 366.997 72.7864 367.005 72.7818C367.046 72.7699 367.087 72.7879 367.127 72.7626C367.547 72.5548 368.006 72.3278 368.505 72.0842C369.005 71.8392 369.48 71.6018 369.934 71.3701C370.387 71.137 370.793 70.9396 371.153 70.777C371.513 70.6139 371.775 70.5094 371.938 70.4618C371.636 70.6258 371.31 70.8693 370.962 71.1951C370.614 71.5196 370.294 71.8749 370.003 72.2575C369.713 72.6416 369.474 73.0134 369.289 73.3734C369.102 73.7334 369.011 74.0292 369.011 74.2608C369.033 74.7029 369.207 75.0286 369.532 75.2379C369.858 75.4455 370.23 75.5395 370.648 75.5172C371.113 75.471 371.56 75.3247 371.99 75.0812C372.42 74.8376 372.833 74.6002 373.228 74.3668L374.17 73.8097C374.077 74.1354 374.065 74.4417 374.134 74.7331C374.204 75.0228 374.436 75.2498 374.831 75.4112C375.132 75.5276 375.463 75.5636 375.825 75.5172C376.185 75.471 376.539 75.3889 376.887 75.2736C377.237 75.1572 377.573 75.0182 377.899 74.8539C378.224 74.6925 378.526 74.5523 378.804 74.4356C379.222 74.2504 379.629 74.0713 380.023 73.8962C380.42 73.7215 380.815 73.5421 381.209 73.3557C381.302 73.3107 381.441 73.2494 381.628 73.1806C381.814 73.1121 382 73.0358 382.185 72.9551C382.372 72.8729 382.517 72.7745 382.621 72.6578C382.724 72.5429 382.732 72.4128 382.638 72.2755ZM342.59 70.411C342.801 70.1898 343.038 70.0104 343.306 69.8702C343.572 69.7294 343.863 69.6385 344.177 69.5924C344.491 69.5445 344.81 69.5802 345.136 69.6951C344.74 70.0914 344.283 70.4153 343.758 70.6725C343.236 70.9277 342.695 71.0653 342.137 71.0891C342.232 70.8574 342.382 70.6322 342.59 70.411Z" fill="#131313"/>
<path d="M100.124 49.909L86.6248 36.4097C82.6734 26.0233 74.4041 17.753 64.0181 13.8027L50.2154 -6.86646e-05L49.912 0.303284L36.4126 13.8027C26.0251 17.753 17.7559 26.0233 13.8045 36.4097L0.304811 49.909H0.301905L0 50.2109L13.8059 64.0166C17.7559 74.4012 26.0252 82.6701 36.4112 86.6215L50.2154 100.426L64.0181 86.6215C74.4041 82.6701 82.6734 74.4012 86.6248 64.0166L100.428 50.2121L100.124 49.909ZM36.5456 14.5272L39.6409 22.9921C35.9255 24.4398 32.5776 26.624 29.7777 29.3701L25.7561 25.3168L36.5456 14.5272ZM35.3339 14.8814L25.3273 24.8866L23.3507 22.8949C26.7811 19.5202 30.837 16.7816 35.3339 14.8814ZM22.9205 23.3236L24.8985 25.3153L14.8829 35.3309C16.7893 30.825 19.5351 26.7584 22.9205 23.3236ZM25.3258 25.747L29.349 29.7986C26.5941 32.6147 24.4056 35.9838 22.9623 39.7216L14.5633 36.5095L25.3258 25.747ZM14.2138 37.0251L22.7443 40.2876C21.6537 43.2968 21.0472 46.5356 21.0127 49.909H11.8845C11.9205 45.3883 12.7362 41.0482 14.2138 37.0251ZM13.3293 37.7435C12.0325 41.5696 11.3109 45.6586 11.2781 49.909H1.16407L13.3293 37.7435ZM1.16407 50.5155H11.2781C11.3109 54.7674 12.0325 58.8549 13.3293 62.681L1.16407 50.5155ZM11.8845 50.5155H21.0127C21.0487 53.9383 21.6702 57.2235 22.7907 60.2713L14.2167 63.4041C12.7362 59.3806 11.9205 55.0394 11.8845 50.5155ZM23.0131 60.8359C24.4654 64.5394 26.6496 67.8783 29.3925 70.6692L25.3543 74.7074L14.5691 63.9222L23.0131 60.8359ZM14.8829 65.0936L24.9255 75.1362L22.9399 77.1215C19.5456 73.6827 16.7925 69.6099 14.8829 65.0936ZM23.3702 77.5488L25.3543 75.5649L35.3325 85.5431C30.846 83.6458 26.7973 80.9147 23.3702 77.5488ZM36.3424 85.6955L25.7845 75.1362L29.8227 71.0979C32.5851 73.7945 35.8762 75.9473 39.5274 77.3877L36.3424 85.6955ZM49.912 99.2637L37.7451 87.0985C41.5728 88.3952 45.6601 89.1166 49.912 89.1494V99.2637ZM49.912 88.543C45.3138 88.507 40.9063 87.6587 36.8248 86.1333L40.0924 77.6118C43.1564 78.7471 46.4639 79.3791 49.912 79.4148V88.543ZM49.912 78.8069C34.3809 78.6441 21.7837 66.0451 21.6209 50.5155H31.5511C31.7125 60.57 39.8578 68.7135 49.912 68.8749V78.8069ZM40.6256 41.0529C39.4557 42.2764 38.5175 43.7209 37.8827 45.3195L33.4142 43.5865C34.2987 41.353 35.6149 39.3361 37.2611 37.6405L40.6256 41.0529ZM37.6914 37.2132C39.3631 35.6026 41.3412 34.3106 43.5314 33.435L45.2537 37.9064C43.6821 38.5413 42.26 39.4708 41.0544 40.6224L37.6914 37.2132ZM37.6705 45.8874C37.2327 47.1524 36.9833 48.5046 36.9502 49.909H32.1593C32.1921 47.8936 32.5552 45.9591 33.1991 44.1543L37.6705 45.8874ZM36.9502 50.5155C36.9833 51.935 37.2373 53.2988 37.6824 54.5746L33.22 56.3317C32.561 54.5104 32.1921 52.5533 32.1593 50.5155H36.9502ZM37.2388 62.7617C35.6178 61.0838 34.3182 59.0967 33.438 56.8963L37.896 55.1424C38.5251 56.705 39.4409 58.1214 40.5806 59.3269L37.2388 62.7617ZM41.0079 59.7572C42.2048 60.9119 43.615 61.8444 45.1762 62.4882L43.4043 66.9387C41.2547 66.0602 39.3123 64.7801 37.6676 63.1904L41.0079 59.7572ZM49.912 68.2685C47.8266 68.2339 45.8262 67.8484 43.9692 67.1613L45.7426 62.7062C47.0495 63.1753 48.4524 63.443 49.912 63.4758V68.2685ZM49.912 62.8618C43.1715 62.7001 37.7256 57.2563 37.5659 50.5155H39.7965L42.6336 53.3525V57.7928H47.075L49.912 60.6298V62.8618ZM42.6336 50.5155V52.495L40.6555 50.5155H42.6336ZM40.6555 49.909L42.6336 47.931V49.909H40.6555ZM43.2414 57.1861V53.9592L46.4671 57.1861H43.2414ZM49.912 59.7723L47.9325 57.7928H49.912V59.7723ZM49.912 57.1861H47.3261L43.2414 53.1017V50.5155H49.912V57.1861ZM49.912 49.909H43.2414V47.3228L47.3261 43.2384H49.912V49.909ZM43.2414 46.4653V43.2384H46.4686L43.2414 46.4653ZM49.912 42.632H47.9325L49.912 40.6523V42.632ZM49.912 39.7947L47.075 42.632H42.6336V47.072L39.7965 49.909H37.5659C37.7256 43.1682 43.1715 37.7241 49.912 37.563V39.7947ZM49.912 36.9487C48.4809 36.9801 47.1064 37.2387 45.8215 37.6913L44.0975 33.217C45.9185 32.5595 47.8742 32.1906 49.912 32.1563V36.9487ZM49.912 31.5496C39.8578 31.711 31.7125 39.8545 31.5511 49.909H21.6209C21.7837 34.3791 34.3809 21.7807 49.912 21.6179V31.5496ZM49.912 21.0112C46.5072 21.0454 43.2385 21.6608 40.2059 22.7712L37.0713 14.1957C41.0811 12.7271 45.4061 11.9172 49.912 11.8815V21.0112ZM49.912 11.2751C45.6601 11.3079 41.5728 12.0296 37.7468 13.3263L49.912 1.1608V11.2751ZM88.5445 49.909H79.4163C79.3806 46.4639 78.7501 43.1607 77.6162 40.0981L86.1734 36.9188C87.6765 40.9722 88.5085 45.3465 88.5445 49.909ZM77.3935 39.5335C75.9311 35.8253 73.7379 32.4849 70.9813 29.6973L75.075 25.7171L85.7763 36.4184L77.3935 39.5335ZM85.5461 35.3309L75.5096 25.2944L77.5236 23.3373C80.9014 26.7705 83.6429 30.8311 85.5461 35.3309ZM77.0934 22.9085L75.0808 24.8657L65.0951 14.8814C69.5981 16.7848 73.6601 19.5275 77.0934 22.9085ZM64.0617 14.7052L74.646 25.2883L70.5482 29.2714C67.7829 26.5851 64.4887 24.4427 60.8389 23.0116L64.0617 14.7052ZM50.5184 1.1608L62.6828 13.3263C58.8565 12.0296 54.7692 11.3079 50.5184 11.2751V1.1608ZM50.5184 11.8815C55.105 11.9172 59.5032 12.7614 63.576 14.2808L60.2742 22.7889C57.2268 21.6669 53.9413 21.0454 50.5184 21.0112V11.8815ZM50.5184 21.6179C66.0484 21.7807 78.647 34.3791 78.8099 49.909H68.8779C68.7168 39.8545 60.5715 31.711 50.5184 31.5496V21.6179ZM59.8527 59.3226C61.0046 58.1048 61.928 56.6693 62.5556 55.0855L67.0133 56.8424C66.1381 59.052 64.8396 61.0481 63.2172 62.7332L59.8527 59.3226ZM62.7887 63.1634C61.0946 64.81 59.0788 66.1244 56.8471 67.0089L55.1544 62.5271C56.7559 61.8818 58.2036 60.9343 59.4257 59.7543L62.7887 63.1634ZM62.7664 54.5165C63.1995 53.257 63.4474 51.9138 63.4788 50.5155H68.2712C68.2369 52.5324 67.874 54.4701 67.2287 56.2748L62.7664 54.5165ZM63.4788 49.909C63.4457 48.4657 63.1829 47.0778 62.7228 45.7811L67.2064 44.0841C67.8665 45.9083 68.2369 47.8683 68.2712 49.909H63.4788ZM63.1771 37.6495C64.8025 39.3256 66.1053 41.3141 66.9866 43.5177L62.5063 45.215C61.8621 43.6359 60.9225 42.2091 59.7572 41.0018L63.1771 37.6495ZM59.3256 40.5747C58.147 39.46 56.7664 38.5578 55.2426 37.9319L56.9141 33.4411C59.1015 34.3181 61.078 35.6102 62.7466 37.2207L59.3256 40.5747ZM50.5184 32.1563C52.5606 32.1906 54.5224 32.561 56.3481 33.2228L54.6763 37.7136C53.372 37.2477 51.9737 36.9815 50.5184 36.9487V32.1563ZM50.5184 37.563C57.2596 37.7241 62.7034 43.1682 62.8645 49.909H60.6327L57.7957 47.072V42.632H53.3543L50.5184 39.7947V37.563ZM57.7957 49.909V47.931L59.7738 49.909H57.7957ZM59.7738 50.5155L57.7957 52.495V50.5155H59.7738ZM57.1893 43.2384V46.4653L53.9622 43.2384H57.1893ZM50.5184 40.6523L52.4968 42.632H50.5184V40.6523ZM50.5184 43.2384H53.1032L57.1893 47.3228V49.909H50.5184V43.2384ZM50.5184 50.5155H57.1893V53.1017L53.1032 57.1861H50.5184V50.5155ZM57.1893 53.9592V57.1861H53.9622L57.1893 53.9592ZM50.5184 57.7928H52.4968L50.5184 59.7723V57.7928ZM50.5184 60.6298L53.3557 57.7928H57.7957V53.3525L60.6327 50.5155H62.8645C62.7034 57.2563 57.2596 62.7001 50.5184 62.8618V60.6298ZM50.5184 63.4758C51.9409 63.4441 53.3078 63.1872 54.5869 62.7408L56.281 67.2255C54.4745 67.8708 52.5354 68.2339 50.5184 68.2685V63.4758ZM50.5184 68.8749C60.5715 68.7135 68.7168 60.57 68.8779 50.5155H78.8099C78.647 66.0451 66.0484 78.6441 50.5184 78.8069V68.8749ZM50.5184 99.2637V89.1494C54.7692 89.1166 58.8579 88.3952 62.6839 87.0985L50.5184 99.2637ZM50.5184 88.543V79.4148C53.9235 79.3791 57.1919 78.7634 60.2266 77.6536L63.3862 86.2186C59.3674 87.6945 55.0333 88.507 50.5184 88.543ZM63.9061 85.8764L60.7912 77.4324C64.5067 75.9833 67.8546 73.7991 70.653 71.0547L74.6912 75.0915L63.9061 85.8764ZM65.0968 85.5431L75.1197 75.5202L77.1053 77.5055C73.6691 80.8909 69.6039 83.6382 65.0968 85.5431ZM77.5326 77.0753L75.5485 75.0915L85.5461 65.0936C83.6458 69.5905 80.9075 73.6467 77.5326 77.0753ZM75.1197 74.6624L71.0815 70.6242C73.8125 67.8322 75.9877 64.4962 77.431 60.7955L85.8811 63.9016L75.1197 74.6624ZM86.2227 63.38L77.6536 60.2309C78.7652 57.1951 79.382 53.9232 79.4163 50.5155H88.5445C88.5102 55.0304 87.6974 59.3627 86.2227 63.38ZM87.1015 62.681C88.3979 58.8549 89.1198 54.7674 89.1526 50.5155H99.2652L87.1015 62.681ZM89.1526 49.909C89.1198 45.6586 88.3979 41.5696 87.1015 37.7435L99.2652 49.909H89.1526Z" fill="#131313"/>
</svg>
