<svg width="13" height="13" viewBox="0 0 13 13" fill="none" xmlns="http://www.w3.org/2000/svg">
<path d="M8.04187 6.14579C7.89274 7.38767 7.07935 7.88389 6.72806 8.24411C6.37624 8.60539 6.43925 8.67733 6.46288 9.20716C6.46682 9.27271 6.4573 9.33838 6.4349 9.40011C6.4125 9.46184 6.3777 9.51833 6.33263 9.5661C6.28757 9.61387 6.2332 9.65191 6.17288 9.67787C6.11255 9.70382 6.04755 9.71715 5.98188 9.71704H4.58615C4.52053 9.71692 4.45561 9.70344 4.39537 9.67741C4.33512 9.65138 4.28082 9.61335 4.23576 9.56563C4.1907 9.51792 4.15583 9.46153 4.13329 9.3999C4.11074 9.33826 4.10099 9.27268 4.10463 9.20716C4.10463 8.6873 4.15294 8.56653 3.83998 8.24411C3.4409 7.84503 2.50201 7.2816 2.50201 5.73201C2.49961 5.3471 2.57698 4.96588 2.72923 4.61236C2.88148 4.25884 3.10531 3.9407 3.38663 3.67798C3.66794 3.41526 4.00062 3.21367 4.36371 3.08591C4.7268 2.95815 5.11242 2.90699 5.49626 2.93566C5.8801 2.96433 6.25384 3.0722 6.59392 3.25249C6.934 3.43277 7.23305 3.68155 7.47221 3.98314C7.71137 4.28473 7.88546 4.6326 7.9835 5.00481C8.08155 5.37703 8.10142 5.76552 8.04187 6.14579Z" stroke="#005CEC" stroke-width="0.787659" stroke-linecap="round" stroke-linejoin="round"/>
<path d="M4.47464 9.68816V10.4821C4.47464 10.699 4.59541 10.877 4.74401 10.877H5.82206C5.97171 10.877 6.09196 10.6985 6.09196 10.4821V9.68816M4.87372 4.15355C4.56366 4.15369 4.26635 4.27695 4.04716 4.49625C3.82796 4.71554 3.70483 5.0129 3.70483 5.32296M9.13337 5.83809H10.0964M8.16403 2.68115L8.84719 1.99799M8.68913 8.51403L9.3723 9.19666M5.2833 0.835403V1.61414M1.73358 1.99746L2.41202 2.68115M1.20848 9.19666L1.88691 8.51403M1.43322 5.83809H0.470703" stroke="#005CEC" stroke-width="0.787659" stroke-linecap="round" stroke-linejoin="round"/>
</svg>
