<svg width="97" height="11" viewBox="0 0 97 11" fill="none" xmlns="http://www.w3.org/2000/svg">
<path d="M11.2045 0.020752L9.08783 3.50232V10.3178H11.4137V0.020752H11.2045ZM14.3756 1.69247H16.6879V10.3178H14.3756V1.69247ZM19.4119 1.69247H21.2074L26.4843 6.64416V1.69247H28.7283V10.3178H27.0694L21.6565 5.22795V10.3178H19.4119V1.69247ZM31.4529 1.69247H36.7162C38.0761 1.69247 39.1965 2.09734 40.0758 2.90765C40.9556 3.71852 41.395 4.74951 41.395 6.00176C41.395 7.254 40.9556 8.30633 40.0758 9.11608C39.2057 9.91684 38.081 10.3178 36.7027 10.3178H31.4529V1.69247ZM33.7647 3.71627V8.30858H36.4914C37.2391 8.30858 37.8491 8.09239 38.321 7.65943C38.8015 7.23098 39.0416 6.67898 39.0416 6.00232C39.0416 5.32566 38.8059 4.78433 38.3345 4.36542C37.8632 3.93303 37.2537 3.71683 36.505 3.71683L33.7647 3.71627ZM51.7213 2.27254L50.9872 4.16495C49.7492 3.62643 48.5459 3.35632 47.3762 3.35632C46.0565 3.35632 45.3977 3.58431 45.3977 4.04028C45.3977 4.37216 45.7737 4.57937 46.5262 4.66191L49.2053 4.98649C50.1534 5.10104 50.8794 5.39585 51.3848 5.87036C51.8903 6.3443 52.1433 6.96817 52.1433 7.74198C52.1433 8.66741 51.7733 9.37046 51.0349 9.8517C50.2959 10.3324 49.2167 10.5738 47.7977 10.5738C46.1253 10.5738 44.4907 10.2538 42.8947 9.61361L43.6694 7.6454C45.0347 8.28556 46.4325 8.60564 47.8655 8.60564C49.2026 8.60564 49.8717 8.34733 49.8717 7.83183C49.8717 7.65775 49.7806 7.52017 49.5997 7.42134C49.4182 7.32251 49.1148 7.24502 48.6884 7.18942L46.1247 6.86541C44.1299 6.6071 43.1325 5.73446 43.1325 4.24749C43.1325 3.33611 43.5155 2.63979 44.2816 2.15855C45.0477 1.67787 46.1583 1.43753 47.6135 1.43753C48.3211 1.43753 48.9626 1.49705 49.5385 1.61722C50.1366 1.74132 50.8647 1.95976 51.7213 2.27254ZM62.9864 2.23155L62.177 4.24749C61.2565 3.6955 60.2553 3.41922 59.1712 3.41922C58.1831 3.41922 57.4067 3.64271 56.8422 4.08914C56.2776 4.53557 55.9959 5.14091 55.9959 5.90573C55.9959 6.71155 56.3112 7.35845 56.9413 7.84643C57.5622 8.32486 58.3943 8.56464 59.4367 8.56464C60.7196 8.56464 61.8801 8.19627 62.9187 7.45952V9.76635C61.8308 10.3043 60.6411 10.5744 59.3489 10.5744C57.6353 10.5744 56.2522 10.1549 55.2006 9.31711C54.1625 8.4748 53.6435 7.35171 53.6435 5.94673C53.6435 4.54287 54.1398 3.50962 55.1323 2.68079C56.1254 1.85195 57.4809 1.43753 59.1989 1.43753C60.4916 1.43753 61.7534 1.70201 62.987 2.23211L62.9864 2.23155ZM66.119 10.3178H63.6913L67.9415 1.69247H70.6883L74.9321 10.3178H72.4291L71.7014 8.86058H66.839L66.119 10.3178ZM69.2808 3.62586L67.649 6.94066H70.9061L69.2808 3.62586ZM76.364 1.69247H78.6763V8.26702H84.0485V10.3178H76.3645V1.69247H76.364ZM85.494 1.69247H93.2945V3.72975H87.8063V4.98705H92.9337L92.1242 6.9693H87.8063V8.28162H93.7496V10.3189H85.494V1.69247Z" fill="white"/>
<path d="M96.8878 8.2766H94.8826V10.3128H96.8878V8.2766ZM8.98674 0L6.58071 4.02908L4.97272 6.72112L4.82752 6.47741L2.42041 2.44777H0.0170898V2.53874L3.74397 8.77806L3.73801 8.78929H6.20797L6.20201 8.77806L11.3911 0.0904085V0H8.98674Z" fill="#D52121"/>
<path d="M2.32591 10.3582V6.4532L0.209728 2.4696H6.10352e-05V10.3582H2.32591Z" fill="#D52121"/>
<path d="M0.0167847 2.44775L2.32583 6.40552V7.78411L0.0167847 2.44775Z" fill="#B70F0F"/>
</svg>
