<svg width="332" height="96" viewBox="0 0 332 96" fill="none" xmlns="http://www.w3.org/2000/svg">
<path d="M167.658 25.7522C171.189 25.7522 174.052 22.8898 174.052 19.3589C174.052 15.8281 171.189 12.9657 167.658 12.9657C164.127 12.9657 161.265 15.8281 161.265 19.3589C161.265 22.8898 164.127 25.7522 167.658 25.7522Z" fill="#0E0E0E"/>
<path d="M39.5844 65.4561C39.9628 65.4561 40.3113 64.8387 40.63 63.6039C45.6888 44.7627 50.19 28.8891 54.1335 15.9831C54.3073 15.3968 54.6658 14.8823 55.1557 14.5163C55.6456 14.1502 56.2406 13.9522 56.8521 13.9516H71.3116C71.8029 13.9516 72.274 14.1468 72.6214 14.4941C72.9687 14.8415 73.1639 15.3126 73.1639 15.8039V78.6609C73.1639 79.0254 73.0191 79.3749 72.7614 79.6326C72.5036 79.8904 72.1541 80.0351 71.7896 80.0351H63.9325C63.5126 80.0351 63.1098 79.8683 62.8129 79.5714C62.516 79.2744 62.3491 78.8717 62.3491 78.4518V25.7224C62.3412 25.5832 62.2848 25.4512 62.1897 25.3492C62.0946 25.2472 61.9669 25.1816 61.8286 25.1639C61.6903 25.1462 61.5502 25.1774 61.4324 25.2521C61.3147 25.3268 61.2268 25.4403 61.184 25.573L45.6191 78.153C45.4797 78.6347 45.1958 79.062 44.8058 79.3772C44.4158 79.6924 43.9385 79.8804 43.4383 79.9156C42.1835 79.9953 40.8989 80.0351 39.5844 80.0351C38.2699 80.0351 36.9952 79.9953 35.7604 79.9156C35.2549 79.8863 34.7709 79.7011 34.3751 79.3855C33.9792 79.0698 33.6908 78.6393 33.5496 78.153L18.0445 25.5431C18.0017 25.4104 17.9138 25.2969 17.7961 25.2222C17.6784 25.1475 17.5382 25.1163 17.3999 25.134C17.2616 25.1518 17.1339 25.2173 17.0388 25.3193C16.9438 25.4213 16.8874 25.5533 16.8794 25.6925L16.8196 78.4219C16.8196 78.8418 16.6528 79.2446 16.3559 79.5415C16.0589 79.8384 15.6562 80.0053 15.2363 80.0053H7.37913C7.19866 80.0053 7.01996 79.9697 6.85323 79.9007C6.6865 79.8316 6.535 79.7304 6.40739 79.6028C6.27978 79.4751 6.17855 79.3236 6.10949 79.1569C6.04043 78.9902 6.00488 78.8115 6.00488 78.631L6.06463 15.774C6.06463 15.2828 6.25978 14.8116 6.60714 14.4643C6.95451 14.1169 7.42564 13.9218 7.91688 13.9218L22.3764 13.9516C22.9879 13.9522 23.5829 14.1502 24.0728 14.5163C24.5627 14.8823 24.9212 15.3968 25.095 15.9831C29.0385 28.8891 33.5198 44.7627 38.5388 63.6039C38.8773 64.8387 39.2259 65.4561 39.5844 65.4561Z" fill="#0E0E0E"/>
<path d="M155.559 71.2818C155.817 71.2282 156.083 71.232 156.338 71.2928C156.594 71.3536 156.832 71.4699 157.035 71.6332C157.239 71.7965 157.402 72.0026 157.514 72.2365C157.626 72.4703 157.682 72.726 157.68 72.9847V78.1829C157.68 78.6504 157.495 79.0987 157.164 79.4293C156.833 79.7598 156.385 79.9455 155.918 79.9455H145.76C144.658 79.9455 143.566 79.7284 142.548 79.3065C141.529 78.8846 140.604 78.2663 139.824 77.4867C139.045 76.7072 138.426 75.7818 138.004 74.7632C137.582 73.7447 137.365 72.6531 137.365 71.5507V41.9147C137.365 41.4393 137.173 40.9833 136.832 40.6472C136.49 40.311 136.026 40.1222 135.543 40.1222H131.988C131.512 40.1222 131.056 39.9333 130.72 39.5971C130.384 39.261 130.195 38.8051 130.195 38.3297V33.3405C130.195 32.8889 130.372 32.4558 130.685 32.1364C130.999 31.8171 131.425 31.6377 131.868 31.6377H135.603C136.054 31.6377 136.487 31.4583 136.807 31.1389C137.126 30.8195 137.306 30.3864 137.306 29.9348V15.6247C137.306 15.181 137.482 14.7554 137.796 14.4417C138.109 14.1279 138.535 13.9517 138.979 13.9517H146.089C146.469 13.9517 146.834 14.1027 147.103 14.3717C147.372 14.6406 147.523 15.0053 147.523 15.3857V30.0842C147.523 30.4882 147.68 30.8758 147.96 31.1615C148.24 31.4473 148.62 31.6078 149.017 31.6078H155.977C156.429 31.6078 156.862 31.7872 157.182 32.1065C157.501 32.4259 157.68 32.859 157.68 33.3107V38.0907C157.68 38.3574 157.629 38.6216 157.528 38.8681C157.427 39.1146 157.28 39.3385 157.094 39.5271C156.908 39.7158 156.688 39.8654 156.445 39.9675C156.202 40.0696 155.942 40.1222 155.679 40.1222H149.614C149.098 40.1213 148.602 40.3165 148.229 40.6672C147.857 41.0178 147.636 41.4968 147.612 42.0043C147.413 46.6648 147.423 54.8904 147.642 66.681C147.722 70.8237 150.361 72.3573 155.559 71.2818Z" fill="#0E0E0E"/>
<path d="M104.529 30.5347C107.769 30.5799 110.969 31.2823 113.944 32.6016C116.92 33.9209 119.614 35.8314 121.872 38.224C124.131 40.6165 125.909 43.4443 127.106 46.5459C128.303 49.6474 128.895 52.962 128.848 56.3004C128.802 59.6387 128.117 62.9355 126.834 66.0024C125.551 69.0694 123.695 71.8464 121.37 74.175C119.046 76.5036 116.3 78.3382 113.289 79.5739C110.277 80.8097 107.059 81.4224 103.819 81.3772C100.579 81.3319 97.3794 80.6296 94.4036 79.3102C91.4278 77.9909 88.7339 76.0804 86.4756 73.6879C84.2173 71.2953 82.4389 68.4675 81.242 65.366C80.0451 62.2644 79.453 58.9498 79.4996 55.6115C79.5462 52.2731 80.2306 48.9763 81.5136 45.9094C82.7967 42.8425 84.6533 40.0654 86.9775 37.7368C89.3017 35.4082 92.0479 33.5737 95.0594 32.3379C98.0709 31.1022 101.289 30.4894 104.529 30.5347ZM104.061 39.6445C102.225 39.6573 100.41 40.0896 98.719 40.9166C97.0284 41.7437 95.4954 42.9493 94.2077 44.4648C92.9199 45.9802 91.9025 47.7756 91.2137 49.7487C90.5248 51.7217 90.1779 53.8337 90.1928 55.964C90.2077 58.0943 90.584 60.2011 91.3004 62.1643C92.0167 64.1276 93.0591 65.9086 94.3678 67.4059C95.6766 68.9032 97.2263 70.0873 98.9282 70.8907C100.63 71.694 102.451 72.1009 104.287 72.0881C106.123 72.0753 107.938 71.643 109.629 70.816C111.32 69.9889 112.853 68.7832 114.14 67.2678C115.428 65.7524 116.445 63.9569 117.134 61.9839C117.823 60.0108 118.17 57.8989 118.155 55.7686C118.14 53.6383 117.764 51.5314 117.048 49.5682C116.331 47.605 115.289 45.8239 113.98 44.3267C112.671 42.8294 111.122 41.6453 109.42 40.8419C107.718 40.0385 105.897 39.6316 104.061 39.6445Z" fill="#0E0E0E"/>
<path d="M171.214 31.6078H163.924C163.132 31.6078 162.49 32.2498 162.49 33.0418V78.5713C162.49 79.3633 163.132 80.0053 163.924 80.0053H171.214C172.006 80.0053 172.648 79.3633 172.648 78.5713V33.0418C172.648 32.2498 172.006 31.6078 171.214 31.6078Z" fill="#0E0E0E"/>
<path d="M203.176 30.5347C206.421 30.58 209.624 31.2824 212.603 32.6018C215.583 33.9212 218.28 35.8317 220.541 38.2243C222.802 40.617 224.583 43.4448 225.781 46.5464C226.98 49.648 227.572 52.9626 227.526 56.301C227.432 63.0431 224.739 69.4727 220.039 74.1754C215.34 78.8781 209.019 81.4686 202.467 81.3772C199.222 81.3319 196.019 80.6295 193.04 79.3101C190.06 77.9907 187.363 76.0801 185.102 73.6875C182.841 71.2949 181.06 68.467 179.862 65.3655C178.663 62.2639 178.071 58.9492 178.117 55.6109C178.211 48.8688 180.904 42.4392 185.604 37.7365C190.303 33.0338 196.624 30.4432 203.176 30.5347ZM202.671 39.6442C198.97 39.6377 195.419 41.3406 192.797 44.3782C190.175 47.4159 188.698 51.5394 188.691 55.8418C188.687 57.9721 189.044 60.0822 189.742 62.0516C190.439 64.021 191.464 65.8111 192.757 67.3198C194.05 68.8284 195.586 70.026 197.277 70.8442C198.968 71.6624 200.782 72.0852 202.614 72.0884C206.314 72.0949 209.866 70.392 212.487 67.3544C215.109 64.3167 216.586 60.1932 216.594 55.8908C216.598 53.7605 216.24 51.6504 215.543 49.681C214.845 47.7116 213.821 45.9215 212.528 44.4128C211.235 42.9042 209.699 41.7066 208.008 40.8884C206.316 40.0702 204.503 39.6474 202.671 39.6442Z" fill="#0E0E0E"/>
<path d="M244.407 36.2384C247.733 32.8525 251.617 31.0899 256.058 30.9505C270.637 30.4426 273.655 39.7338 273.685 53.1178C273.705 67.4179 273.734 75.773 273.774 78.1829C273.774 78.4183 273.729 78.6514 273.64 78.8688C273.552 79.0863 273.422 79.2839 273.258 79.4504C273.094 79.6168 272.9 79.7489 272.686 79.8389C272.472 79.929 272.243 79.9754 272.012 79.9754H265.14C264.665 79.9754 264.209 79.7865 263.873 79.4504C263.537 79.1142 263.348 78.6583 263.348 78.1829V47.6805C263.346 46.5269 263.102 45.3866 262.632 44.3337C262.162 43.2808 261.476 42.3391 260.619 41.5697C259.762 40.8003 258.754 40.2206 257.659 39.8682C256.565 39.5159 255.408 39.3988 254.266 39.5246L252.473 39.7338C249.943 40.0133 247.606 41.2165 245.908 43.1129C244.21 45.0092 243.271 47.4654 243.272 50.0108V78.3621C243.272 78.5858 243.227 78.8072 243.14 79.0138C243.053 79.2204 242.925 79.4081 242.764 79.5662C242.603 79.7244 242.412 79.8498 242.202 79.9354C241.992 80.021 241.767 80.065 241.539 80.065H234.519C234.091 80.065 233.68 79.895 233.378 79.5925C233.075 79.29 232.905 78.8796 232.905 78.4518V33.1314C232.905 32.7194 233.069 32.3242 233.36 32.0329C233.652 31.7416 234.047 31.5779 234.459 31.5779H241.748C242.065 31.5779 242.369 31.7038 242.593 31.9279C242.817 32.152 242.943 32.4559 242.943 32.7729V35.6409C242.949 35.8079 243.003 35.9697 243.098 36.1068C243.194 36.2439 243.327 36.3505 243.482 36.4136C243.636 36.4768 243.806 36.4938 243.97 36.4627C244.135 36.4316 244.286 36.3537 244.407 36.2384Z" fill="#0E0E0E"/>
<path d="M303.022 58.8238C297.664 65.0378 294.408 68.6826 293.253 69.7581C293.097 69.8918 292.987 70.0707 292.938 70.2699C292.889 70.4691 292.903 70.6787 292.979 70.8694C293.054 71.0601 293.188 71.2225 293.36 71.3339C293.532 71.4453 293.735 71.5001 293.94 71.4908H317.78C318.232 71.4908 318.665 71.6702 318.984 71.9896C319.304 72.3089 319.483 72.7421 319.483 73.1937V78.3322C319.483 78.7838 319.3 79.217 318.976 79.5363C318.651 79.8557 318.21 80.0351 317.75 80.0351H280.377C279.942 80.0337 279.522 79.8773 279.189 79.5934C278.856 79.3094 278.631 78.9159 278.554 78.4816C278.017 75.1555 278.744 72.3672 280.735 70.1166C285.894 64.3208 290.942 58.5549 295.882 52.8189C301.239 46.6249 304.496 42.9901 305.651 41.9146C305.804 41.7825 305.913 41.6064 305.963 41.4102C306.013 41.214 306.001 41.0072 305.929 40.818C305.858 40.6287 305.729 40.4661 305.562 40.3523C305.394 40.2385 305.196 40.179 304.994 40.1818H281.153C280.702 40.1818 280.269 40.0024 279.949 39.6831C279.63 39.3637 279.451 38.9306 279.451 38.4789V33.3404C279.451 32.8888 279.633 32.4557 279.958 32.1363C280.283 31.817 280.724 31.6376 281.183 31.6376H318.557C318.991 31.639 319.412 31.7953 319.745 32.0793C320.078 32.3632 320.302 32.7567 320.379 33.1911C320.917 36.5172 320.19 39.3055 318.198 41.5561C313.02 47.3518 307.961 53.1077 303.022 58.8238Z" fill="#0E0E0E"/>
</svg>
