<svg width="356" height="96" viewBox="0 0 356 96" fill="none" xmlns="http://www.w3.org/2000/svg">
<path d="M13.4439 61.6919C15.4356 73.2435 23.3425 78.6111 37.1647 77.7945C48.3977 77.1373 53.5262 71.6602 52.5503 61.3633C52.1519 57.1807 49.3238 54.2729 44.0658 52.6397C27.8735 47.6407 19.7674 45.1411 19.7475 45.1411C11.0838 41.576 7.57845 35.1031 9.23153 25.7224C12.4282 7.61812 38.5987 9.4405 49.264 16.5507C53.6855 19.4984 56.3544 24.1987 57.2705 30.6517C57.3133 30.9478 57.292 31.2497 57.2081 31.5368C57.1242 31.824 56.9797 32.0898 56.7843 32.3164C56.5889 32.5429 56.3472 32.7249 56.0755 32.85C55.8037 32.9752 55.5083 33.0405 55.2092 33.0417H52.4308C51.7661 33.0433 51.1233 32.809 50.619 32.3815C50.1147 31.9539 49.7824 31.3614 49.6823 30.7115C48.2881 21.8287 42.4227 17.5067 32.0859 17.7457C26.8279 17.8652 21.5699 18.1042 18.2837 22.227C10.1577 32.4741 21.062 40.4209 31.3092 42.1237C39.2161 43.4382 45.4301 45.2905 49.9511 47.6805C68.384 57.3899 60.1087 82.1861 41.0783 83.5006C24.2885 84.6359 9.41078 81.0509 5.64653 62.14C5.58063 61.8038 5.58969 61.4571 5.67307 61.1248C5.75645 60.7924 5.91208 60.4826 6.1289 60.2173C6.34571 59.952 6.61837 59.7377 6.92744 59.5898C7.23652 59.4419 7.5744 59.364 7.91703 59.3616H10.7253C11.3778 59.3612 12.0095 59.5954 12.5076 60.0223C13.0057 60.4492 13.3375 61.041 13.4439 61.6919Z" fill="#0E0E0E"/>
<path d="M74.2691 12.6969H70.4451C69.5871 12.6969 68.8916 13.3924 68.8916 14.2504V81.4094C68.8916 82.2674 69.5871 82.9629 70.4451 82.9629H74.2691C75.1271 82.9629 75.8226 82.2674 75.8226 81.4094V14.2504C75.8226 13.3924 75.1271 12.6969 74.2691 12.6969Z" fill="#0E0E0E"/>
<path d="M112.688 49.3535C104.622 36.3679 99.3939 28.0825 97.0039 24.4975C96.9174 24.3882 96.7997 24.3078 96.6663 24.2669C96.533 24.2261 96.3904 24.2268 96.2575 24.269C96.1245 24.3111 96.0076 24.3927 95.9221 24.5029C95.8367 24.6131 95.7868 24.7467 95.7791 24.8859V81.499C95.7791 81.8635 95.6343 82.2131 95.3766 82.4708C95.1188 82.7285 94.7693 82.8733 94.4048 82.8733H89.7144C89.4054 82.8733 89.1091 82.7474 88.8906 82.5233C88.6721 82.2992 88.5493 81.9952 88.5493 81.6783V14.1309C88.5494 13.9479 88.5852 13.7667 88.6546 13.598C88.7241 13.4293 88.8258 13.2765 88.9538 13.1485C89.0818 13.0204 89.2335 12.9198 89.4001 12.8526C89.5666 12.7853 89.7446 12.7527 89.9236 12.7567L95.9583 12.8164C96.4216 12.8178 96.8762 12.9366 97.2789 13.1614C97.6815 13.3863 98.0188 13.7097 98.2587 14.101C98.5973 14.579 105.279 25.3042 118.305 46.2764C126.351 59.2621 131.579 67.5375 133.989 71.1025C134.074 71.2107 134.189 71.291 134.32 71.333C134.451 71.375 134.591 71.3768 134.723 71.3382C134.855 71.2996 134.972 71.2224 135.06 71.1165C135.147 71.0105 135.201 70.8808 135.214 70.744V14.1309C135.214 13.9505 135.25 13.7718 135.319 13.605C135.388 13.4383 135.489 13.2868 135.617 13.1592C135.744 13.0316 135.896 12.9303 136.062 12.8613C136.229 12.7922 136.408 12.7567 136.588 12.7567H141.279C141.588 12.7567 141.884 12.8826 142.103 13.1067C142.321 13.3308 142.444 13.6347 142.444 13.9517V81.499C142.444 81.6821 142.408 81.8632 142.339 82.032C142.269 82.2007 142.167 82.3535 142.039 82.4815C141.911 82.6095 141.76 82.7101 141.593 82.7774C141.427 82.8447 141.249 82.8773 141.07 82.8733L135.035 82.8135C134.571 82.8121 134.117 82.6934 133.714 82.4685C133.312 82.2437 132.974 81.9202 132.734 81.5289C132.396 81.0509 125.714 70.3258 112.688 49.3535Z" fill="#0E0E0E"/>
<path d="M199.804 82.9031H156.097C155.772 82.9031 155.461 82.774 155.231 82.5443C155.001 82.3146 154.872 82.0031 154.872 81.6782V14.0711C154.872 13.7462 155.001 13.4347 155.231 13.2049C155.461 12.9752 155.772 12.8462 156.097 12.8462H164.223C164.548 12.8462 164.859 12.9752 165.089 13.2049C165.319 13.4347 165.448 13.7462 165.448 14.0711V72.5663C165.448 72.8912 165.577 73.2027 165.807 73.4324C166.036 73.6621 166.348 73.7912 166.673 73.7912H199.804C199.965 73.7912 200.124 73.8229 200.273 73.8844C200.421 73.946 200.556 74.0362 200.67 74.1499C200.784 74.2637 200.874 74.3987 200.936 74.5473C200.997 74.6959 201.029 74.8552 201.029 75.0161V81.6782C201.029 81.839 200.997 81.9983 200.936 82.1469C200.874 82.2955 200.784 82.4306 200.67 82.5443C200.556 82.6581 200.421 82.7483 200.273 82.8098C200.124 82.8714 199.965 82.9031 199.804 82.9031Z" fill="#0E0E0E"/>
<path d="M217.072 13.0255H208.468C207.808 13.0255 207.273 13.5605 207.273 14.2205V81.7978C207.273 82.4577 207.808 82.9928 208.468 82.9928H217.072C217.732 82.9928 218.267 82.4577 218.267 81.7978V14.2205C218.267 13.5605 217.732 13.0255 217.072 13.0255Z" fill="#0E0E0E"/>
<path d="M253.758 50.2498C251.169 46.0274 247.415 39.6939 242.495 31.2493C242.395 31.0715 242.239 30.9318 242.051 30.852C241.863 30.7721 241.654 30.7565 241.457 30.8076C241.259 30.8587 241.084 30.9737 240.959 31.1346C240.833 31.2955 240.764 31.4933 240.763 31.6974V81.2899C240.763 81.686 240.605 82.066 240.325 82.3461C240.045 82.6263 239.665 82.7836 239.269 82.7836H231.292C231.131 82.7836 230.972 82.7519 230.824 82.6904C230.675 82.6288 230.54 82.5386 230.426 82.4249C230.312 82.3111 230.222 82.1761 230.161 82.0275C230.099 81.8789 230.067 81.7196 230.067 81.5588V14.3998C230.067 14.1697 230.112 13.9419 230.2 13.7297C230.287 13.5175 230.416 13.3251 230.577 13.1638C230.738 13.0025 230.929 12.8755 231.139 12.7902C231.349 12.7049 231.574 12.663 231.8 12.667L241.3 12.8164C241.869 12.8241 242.42 13.0182 242.868 13.369C243.316 13.7197 243.636 14.2078 243.78 14.7583C244.039 15.7939 250.084 25.9614 261.914 45.2606C264.503 49.483 268.258 55.8264 273.177 64.291C273.278 64.4711 273.437 64.6121 273.628 64.6915C273.819 64.771 274.031 64.7842 274.23 64.7293C274.429 64.6743 274.605 64.5542 274.728 64.3882C274.851 64.2221 274.915 64.0197 274.91 63.813V14.2205C274.91 13.8243 275.067 13.4444 275.347 13.1643C275.627 12.8841 276.007 12.7268 276.403 12.7268H284.38C284.705 12.7268 285.017 12.8558 285.246 13.0855C285.476 13.3152 285.605 13.6268 285.605 13.9516V81.1106C285.605 81.3407 285.56 81.5685 285.472 81.7807C285.385 81.9929 285.257 82.1853 285.096 82.3465C284.934 82.5079 284.743 82.6348 284.533 82.7202C284.323 82.8055 284.098 82.8473 283.872 82.8434L274.372 82.694C273.803 82.6863 273.252 82.4922 272.805 82.1414C272.357 81.7906 272.036 81.3026 271.892 80.7521C271.614 79.7364 265.569 69.5689 253.758 50.2498Z" fill="#0E0E0E"/>
<path d="M345.534 22.0477H309.684C309.288 22.0477 308.908 22.2051 308.628 22.4852C308.348 22.7654 308.19 23.1453 308.19 23.5415V40.5105C308.19 40.9066 308.348 41.2866 308.628 41.5667C308.908 41.8468 309.288 42.0042 309.684 42.0042H340.694C341.091 42.0042 341.47 42.1616 341.751 42.4417C342.031 42.7219 342.188 43.1018 342.188 43.498V49.5925C342.188 49.9886 342.031 50.3686 341.751 50.6487C341.47 50.9288 341.091 51.0862 340.694 51.0862H309.684C309.288 51.0862 308.908 51.2436 308.628 51.5237C308.348 51.8039 308.19 52.1838 308.19 52.58V72.2975C308.19 72.6936 308.348 73.0736 308.628 73.3537C308.908 73.6338 309.288 73.7912 309.684 73.7912H346.221C346.617 73.7912 346.997 73.9486 347.277 74.2287C347.558 74.5089 347.715 74.8888 347.715 75.285V81.4093C347.715 81.8055 347.558 82.1855 347.277 82.4656C346.997 82.7457 346.617 82.9031 346.221 82.9031H299.317C298.921 82.9031 298.541 82.7457 298.261 82.4656C297.981 82.1855 297.824 81.8055 297.824 81.4093V14.3698C297.824 13.9737 297.981 13.5937 298.261 13.3136C298.541 13.0335 298.921 12.8761 299.317 12.8761H345.534C345.93 12.8761 346.31 13.0335 346.59 13.3136C346.87 13.5937 347.028 13.9737 347.028 14.3698V20.554C347.028 20.9501 346.87 21.3301 346.59 21.6102C346.31 21.8903 345.93 22.0477 345.534 22.0477Z" fill="#0E0E0E"/>
</svg>
