<?xml version="1.0" standalone="no"?>
<!DOCTYPE svg PUBLIC "-//W3C//DTD SVG 20010904//EN"
 "http://www.w3.org/TR/2001/REC-SVG-20010904/DTD/svg10.dtd">
<svg version="1.0" xmlns="http://www.w3.org/2000/svg"
 width="512.000000pt" height="512.000000pt" viewBox="0 0 512.000000 512.000000"
 preserveAspectRatio="xMidYMid meet">

<g transform="translate(0.000000,512.000000) scale(0.100000,-0.100000)"
fill="#000000" stroke="none">
<path d="M2148 4259 c-16 -9 -18 -28 -18 -168 0 -220 12 -207 -212 -213 -204
-6 -237 -16 -310 -97 -34 -38 -49 -65 -57 -102 -7 -31 -11 -202 -11 -453 0
-468 2 -479 78 -555 85 -84 46 -81 945 -81 767 0 788 1 841 20 60 23 128 87
152 145 11 28 14 117 14 482 0 436 -1 449 -21 488 -31 59 -75 101 -133 126
-44 20 -74 24 -224 28 -157 5 -175 8 -188 25 -11 15 -14 57 -14 177 0 130 -3
160 -16 173 -12 13 -38 16 -119 16 -138 0 -135 4 -135 -195 0 -203 7 -195
-159 -195 -109 0 -130 3 -144 18 -12 14 -16 49 -19 180 -4 199 1 192 -137 192
-53 0 -104 -5 -113 -11z m-63 -585 c38 -15 45 -56 45 -248 0 -219 -8 -206 132
-206 137 0 132 -7 136 193 4 211 -3 202 164 202 162 0 158 5 158 -199 0 -200
-3 -196 132 -196 145 0 138 -11 138 223 0 247 -7 237 164 237 109 0 122 -2
143 -22 l23 -21 0 -369 0 -369 -25 -24 -24 -25 -709 0 c-702 0 -710 0 -736 21
l-26 20 0 379 0 379 22 15 c17 12 49 16 134 16 62 0 120 -3 129 -6z"/>
<path d="M1466 2138 c-9 -12 -16 -26 -16 -31 0 -7 -26 -66 -90 -202 -70 -150
-111 -239 -131 -288 -12 -28 -26 -56 -31 -61 -18 -21 -4 -26 77 -26 l85 0 17
35 17 35 122 0 123 0 12 -35 13 -35 89 0 c49 0 87 4 85 9 -1 5 -66 147 -143
315 l-140 306 -37 0 c-27 0 -41 -6 -52 -22z m83 -336 c31 -80 30 -82 -39 -82
l-59 0 13 38 c23 64 50 113 57 105 4 -5 17 -32 28 -61z"/>
<path d="M3706 2108 c-106 -236 -240 -525 -247 -532 -5 -6 -9 -18 -9 -28 0
-16 10 -18 83 -18 l83 0 17 35 17 35 120 0 121 0 15 -35 14 -35 85 0 c47 0 85
4 85 8 0 5 -8 26 -19 48 -10 21 -33 71 -51 109 -17 39 -42 93 -55 120 -77 166
-105 227 -130 283 -27 61 -29 62 -66 62 -38 0 -40 -2 -63 -52z m98 -309 c14
-33 26 -65 26 -70 0 -5 -27 -9 -61 -9 -60 0 -61 1 -55 24 11 43 45 116 54 116
5 0 21 -27 36 -61z"/>
<path d="M520 1840 l0 -310 80 0 79 0 3 118 3 117 89 3 c65 2 92 -1 98 -10 4
-7 8 -62 8 -121 l0 -108 78 3 77 3 0 305 0 305 -77 3 -78 3 0 -105 c0 -57 -3
-111 -6 -120 -9 -23 -179 -23 -188 0 -3 9 -6 63 -6 120 l0 104 -80 0 -80 0 0
-310z"/>
<path d="M1990 1839 l0 -311 168 4 c188 3 227 15 270 78 61 90 45 189 -40 246
l-46 31 21 21 c14 14 22 38 25 74 5 64 -21 110 -83 145 -36 20 -54 23 -177 23
l-138 0 0 -311z m235 169 c60 -27 34 -98 -37 -98 l-38 0 0 48 c0 27 3 52 7 55
10 10 39 8 68 -5z m67 -225 c10 -9 18 -28 18 -43 0 -42 -29 -61 -96 -63 l-59
-2 -3 63 -3 62 62 0 c44 0 68 -5 81 -17z"/>
<path d="M2625 2137 c-3 -7 -4 -145 -3 -307 l3 -295 78 -3 77 -3 0 311 0 310
-75 0 c-52 0 -77 -4 -80 -13z"/>
<path d="M2942 2078 l3 -73 70 -3 c40 -2 73 -8 77 -15 4 -7 8 -112 8 -234 l0
-223 75 0 75 0 0 235 0 234 78 3 77 3 0 70 0 70 -233 3 -233 2 3 -72z"/>
<path d="M4130 2075 l0 -74 78 -3 77 -3 3 -232 2 -233 75 0 75 0 0 235 0 235
75 0 75 0 0 75 0 75 -230 0 -230 0 0 -75z"/>
<path d="M595 1308 c-35 -20 -46 -41 -40 -80 4 -27 -1 -47 -15 -70 -23 -37
-25 -66 -9 -101 20 -45 96 -61 150 -33 14 7 32 10 40 6 8 -4 24 -11 37 -14 33
-11 30 31 -3 46 -17 8 -24 17 -20 27 4 9 9 28 12 44 5 24 3 27 -21 27 -19 0
-26 -5 -26 -19 0 -38 -19 -31 -60 20 -42 53 -50 88 -25 109 13 10 19 10 33 -4
25 -22 52 -21 52 4 0 11 -12 26 -30 35 -34 18 -48 18 -75 3z m35 -203 c29 -30
32 -37 20 -45 -23 -15 -45 -12 -70 8 -18 14 -22 25 -16 45 9 36 25 34 66 -8z"/>
<path d="M997 1314 c-4 -4 -7 -108 -7 -231 l0 -223 135 0 135 0 0 25 0 25
-110 0 -110 0 0 80 0 80 95 0 c94 0 95 0 95 25 0 24 -2 24 -92 27 l-93 3 0 70
0 70 108 3 c105 3 108 3 105 25 -3 21 -8 22 -129 25 -69 1 -128 -1 -132 -4z"/>
<path d="M1400 1091 l0 -231 25 0 25 0 0 165 c0 91 3 165 8 165 4 0 70 -70
147 -156 77 -85 145 -160 152 -166 10 -8 13 36 13 221 l0 231 -25 0 -25 0 0
-166 c0 -91 -4 -164 -8 -162 -5 2 -72 74 -150 160 -78 86 -147 160 -152 163
-7 4 -10 -75 -10 -224z"/>
<path d="M1897 1314 c-4 -4 -7 -15 -7 -25 0 -15 10 -19 68 -21 l67 -3 3 -202
2 -203 25 0 25 0 2 203 3 202 68 3 c64 3 68 4 65 25 -3 21 -7 22 -159 25 -85
1 -158 -1 -162 -4z"/>
<path d="M2347 1313 c-4 -3 -7 -107 -7 -230 l0 -223 25 0 c24 0 24 2 27 88 l3
87 33 3 c42 4 58 -10 125 -105 43 -61 55 -73 79 -73 15 0 28 3 28 8 0 4 -27
43 -60 87 -33 44 -60 82 -60 85 0 3 13 12 29 22 92 52 73 201 -31 243 -38 15
-178 21 -191 8z m173 -58 c67 -35 77 -90 26 -141 -31 -31 -39 -34 -95 -34
l-61 0 0 88 c0 49 3 92 7 95 12 13 94 7 123 -8z"/>
<path d="M2787 1314 c-4 -4 -7 -108 -7 -231 l0 -223 141 0 c140 0 140 0 137
23 -3 21 -8 22 -110 25 -123 3 -122 2 -116 103 l3 54 93 3 c90 3 92 3 92 27 0
24 -2 24 -92 27 l-93 3 0 70 0 70 110 5 c102 5 110 7 110 25 0 19 -8 20 -131
23 -71 1 -133 -1 -137 -4z"/>
<path d="M3167 1314 c-4 -4 -7 -15 -7 -25 0 -15 10 -19 68 -21 l67 -3 3 -202
2 -203 25 0 25 0 2 203 3 202 63 3 c59 3 63 5 60 25 -3 21 -7 22 -154 25 -82
1 -153 -1 -157 -4z"/>
<path d="M3610 1091 l0 -231 25 0 25 0 -2 228 c-3 227 -3 227 -25 230 l-23 3
0 -230z"/>
<path d="M3820 1090 l0 -230 130 0 130 0 0 25 0 25 -105 0 -105 0 0 80 0 80
90 0 c89 0 90 0 90 25 0 25 -1 25 -90 25 l-90 0 0 75 0 75 105 0 105 0 0 25 0
25 -130 0 -130 0 0 -230z"/>
<path d="M4230 1093 l0 -233 25 0 25 0 2 167 3 167 130 -145 c72 -79 140 -155
152 -168 18 -20 23 -22 28 -10 3 8 4 111 3 229 l-3 215 -25 0 -25 0 -5 -164
-5 -163 -121 133 c-66 74 -135 150 -152 169 l-31 35 -1 -232z"/>
<path d="M520 885 l0 -25 130 0 130 0 0 25 0 25 -130 0 -130 0 0 -25z"/>
</g>
</svg>
