<svg width="349" height="167" viewBox="0 0 349 167" fill="none" xmlns="http://www.w3.org/2000/svg">
<path d="M223.93 49.909L210.431 36.4097C206.48 26.0233 198.21 17.753 187.824 13.8027L174.022 -7.10429e-05L173.718 0.303287L160.219 13.8027C149.831 17.753 141.562 26.0233 137.611 36.4097L124.111 49.909H124.108L123.806 50.2109L137.612 64.0166C141.562 74.4012 149.831 82.6701 160.217 86.6215L174.022 100.426L187.824 86.6215C198.21 82.6701 206.48 74.4012 210.431 64.0166L224.234 50.2121L223.93 49.909ZM160.352 14.5272L163.447 22.9921C159.732 24.4398 156.384 26.624 153.584 29.3701L149.562 25.3168L160.352 14.5272ZM159.14 14.8814L149.133 24.8866L147.157 22.8949C150.587 19.5202 154.643 16.7816 159.14 14.8814ZM146.727 23.3236L148.705 25.3153L138.689 35.3309C140.595 30.825 143.341 26.7584 146.727 23.3236ZM149.132 25.747L153.155 29.7986C150.4 32.6147 148.212 35.9838 146.768 39.7216L138.369 36.5095L149.132 25.747ZM138.02 37.0251L146.55 40.2876C145.46 43.2968 144.853 46.5356 144.819 49.909H135.691C135.727 45.3883 136.542 41.0482 138.02 37.0251ZM137.135 37.7435C135.839 41.5696 135.117 45.6586 135.084 49.909H124.97L137.135 37.7435ZM124.97 50.5155H135.084C135.117 54.7674 135.839 58.8549 137.135 62.681L124.97 50.5155ZM135.691 50.5155H144.819C144.855 53.9383 145.476 57.2235 146.597 60.2713L138.023 63.4041C136.542 59.3807 135.727 55.0394 135.691 50.5155ZM146.819 60.8359C148.272 64.5394 150.456 67.8783 153.199 70.6692L149.16 74.7074L138.375 63.9222L146.819 60.8359ZM138.689 65.0936L148.732 75.1362L146.746 77.1215C143.352 73.6827 140.599 69.6099 138.689 65.0936ZM147.176 77.5488L149.16 75.5649L159.139 85.5431C154.652 83.6458 150.603 80.9147 147.176 77.5488ZM160.149 85.6955L149.591 75.1362L153.629 71.0979C156.391 73.7945 159.682 75.9473 163.334 77.3877L160.149 85.6955ZM173.718 99.2637L161.551 87.0985C165.379 88.3952 169.466 89.1166 173.718 89.1494V99.2637ZM173.718 88.543C169.12 88.507 164.712 87.6587 160.631 86.1333L163.899 77.6118C166.963 78.7471 170.27 79.3791 173.718 79.4148V88.543ZM173.718 78.8069C158.187 78.6441 145.59 66.0451 145.427 50.5155H155.357C155.519 60.57 163.664 68.7135 173.718 68.8749V78.8069ZM164.432 41.0529C163.262 42.2764 162.324 43.7209 161.689 45.3195L157.22 43.5865C158.105 41.353 159.421 39.3361 161.067 37.6405L164.432 41.0529ZM161.498 37.2132C163.169 35.6026 165.147 34.3106 167.338 33.435L169.06 37.9064C167.488 38.5413 166.066 39.4708 164.861 40.6224L161.498 37.2132ZM161.477 45.8874C161.039 47.1524 160.789 48.5046 160.756 49.909H155.965C155.998 47.8936 156.361 45.9591 157.005 44.1543L161.477 45.8874ZM160.756 50.5155C160.789 51.935 161.043 53.2988 161.489 54.5746L157.026 56.3317C156.367 54.5104 155.998 52.5533 155.965 50.5155H160.756ZM161.045 62.7617C159.424 61.0838 158.124 59.0967 157.244 56.8963L161.702 55.1424C162.331 56.705 163.247 58.1214 164.387 59.3269L161.045 62.7617ZM164.814 59.7572C166.011 60.9119 167.421 61.8444 168.982 62.4882L167.21 66.9387C165.061 66.0602 163.118 64.7801 161.474 63.1904L164.814 59.7572ZM173.718 68.2685C171.633 68.2339 169.632 67.8484 167.775 67.1613L169.549 62.7062C170.856 63.1753 172.259 63.443 173.718 63.4758V68.2685ZM173.718 62.8618C166.978 62.7001 161.532 57.2563 161.372 50.5155H163.603L166.44 53.3525V57.7928H170.881L173.718 60.6298V62.8618ZM166.44 50.5155V52.495L164.462 50.5155H166.44ZM164.462 49.909L166.44 47.931V49.909H164.462ZM167.048 57.1861V53.9592L170.273 57.1861H167.048ZM173.718 59.7723L171.739 57.7928H173.718V59.7723ZM173.718 57.1861H171.132L167.048 53.1017V50.5155H173.718V57.1861ZM173.718 49.909H167.048V47.3228L171.132 43.2385H173.718V49.909ZM167.048 46.4653V43.2385H170.275L167.048 46.4653ZM173.718 42.632H171.739L173.718 40.6523V42.632ZM173.718 39.7947L170.881 42.632H166.44V47.072L163.603 49.909H161.372C161.532 43.1682 166.978 37.7241 173.718 37.563V39.7947ZM173.718 36.9487C172.287 36.9801 170.913 37.2387 169.628 37.6913L167.904 33.217C169.725 32.5595 171.68 32.1906 173.718 32.1563V36.9487ZM173.718 31.5496C163.664 31.711 155.519 39.8545 155.357 49.909H145.427C145.59 34.3791 158.187 21.7807 173.718 21.6179V31.5496ZM173.718 21.0112C170.313 21.0454 167.045 21.6608 164.012 22.7712L160.877 14.1957C164.887 12.7271 169.212 11.9172 173.718 11.8815V21.0112ZM173.718 11.2751C169.466 11.3079 165.379 12.0296 161.553 13.3263L173.718 1.16081V11.2751ZM212.351 49.909H203.222C203.187 46.4639 202.556 43.1607 201.422 40.0981L209.98 36.9188C211.483 40.9722 212.315 45.3465 212.351 49.909ZM201.2 39.5335C199.737 35.8253 197.544 32.4849 194.787 29.6973L198.881 25.7171L209.582 36.4184L201.2 39.5335ZM209.352 35.3309L199.316 25.2944L201.33 23.3373C204.708 26.7705 207.449 30.8311 209.352 35.3309ZM200.9 22.9085L198.887 24.8657L188.901 14.8814C193.404 16.7848 197.466 19.5275 200.9 22.9085ZM187.868 14.7052L198.452 25.2883L194.354 29.2714C191.589 26.5851 188.295 24.4427 184.645 23.0116L187.868 14.7052ZM174.325 1.16081L186.489 13.3263C182.663 12.0296 178.575 11.3079 174.325 11.2751V1.16081ZM174.325 11.8815C178.911 11.9172 183.309 12.7614 187.382 14.2808L184.08 22.7889C181.033 21.6669 177.747 21.0454 174.325 21.0112V11.8815ZM174.325 21.6179C189.855 21.7807 202.453 34.3791 202.616 49.909H192.684C192.523 39.8545 184.378 31.711 174.325 31.5496V21.6179ZM183.659 59.3226C184.811 58.1048 185.734 56.6693 186.362 55.0855L190.819 56.8423C189.944 59.052 188.646 61.0481 187.023 62.7332L183.659 59.3226ZM186.595 63.1634C184.901 64.81 182.885 66.1244 180.653 67.0089L178.961 62.5271C180.562 61.8818 182.01 60.9343 183.232 59.7543L186.595 63.1634ZM186.573 54.5165C187.006 53.257 187.254 51.9138 187.285 50.5155H192.077C192.043 52.5324 191.68 54.4701 191.035 56.2748L186.573 54.5165ZM187.285 49.909C187.252 48.4657 186.989 47.0778 186.529 45.7811L191.013 44.0841C191.673 45.9083 192.043 47.8683 192.077 49.909H187.285ZM186.983 37.6495C188.609 39.3256 189.911 41.3141 190.793 43.5177L186.312 45.215C185.668 43.6359 184.729 42.2091 183.563 41.0018L186.983 37.6495ZM183.132 40.5747C181.953 39.46 180.573 38.5578 179.049 37.9319L180.72 33.4411C182.908 34.3181 184.884 35.6102 186.553 37.2207L183.132 40.5747ZM174.325 32.1563C176.367 32.1906 178.329 32.561 180.154 33.2228L178.482 37.7136C177.178 37.2477 175.78 36.9815 174.325 36.9487V32.1563ZM174.325 37.563C181.066 37.7241 186.51 43.1682 186.671 49.909H184.439L181.602 47.072V42.632H177.16L174.325 39.7947V37.563ZM181.602 49.909V47.931L183.58 49.909H181.602ZM183.58 50.5155L181.602 52.495V50.5155H183.58ZM180.995 43.2385V46.4653L177.768 43.2385H180.995ZM174.325 40.6523L176.303 42.632H174.325V40.6523ZM174.325 43.2385H176.909L180.995 47.3228V49.909H174.325V43.2385ZM174.325 50.5155H180.995V53.1017L176.909 57.1861H174.325V50.5155ZM180.995 53.9592V57.1861H177.768L180.995 53.9592ZM174.325 57.7928H176.303L174.325 59.7723V57.7928ZM174.325 60.6298L177.162 57.7928H181.602V53.3525L184.439 50.5155H186.671C186.51 57.2563 181.066 62.7001 174.325 62.8618V60.6298ZM174.325 63.4758C175.747 63.4441 177.114 63.1872 178.393 62.7408L180.087 67.2255C178.281 67.8708 176.342 68.2339 174.325 68.2685V63.4758ZM174.325 68.8749C184.378 68.7135 192.523 60.57 192.684 50.5155H202.616C202.453 66.0451 189.855 78.6441 174.325 78.8069V68.8749ZM174.325 99.2637V89.1494C178.575 89.1166 182.664 88.3952 186.49 87.0985L174.325 99.2637ZM174.325 88.543V79.4148C177.73 79.3791 180.998 78.7634 184.033 77.6536L187.192 86.2186C183.174 87.6945 178.839 88.507 174.325 88.543ZM187.712 85.8764L184.597 77.4324C188.313 75.9833 191.661 73.7991 194.459 71.0547L198.497 75.0915L187.712 85.8764ZM188.903 85.5431L198.926 75.5202L200.911 77.5055C197.475 80.8909 193.41 83.6382 188.903 85.5431ZM201.339 77.0753L199.355 75.0915L209.352 65.0936C207.452 69.5905 204.714 73.6467 201.339 77.0753ZM198.926 74.6624L194.888 70.6242C197.619 67.8322 199.794 64.4962 201.237 60.7955L209.687 63.9016L198.926 74.6624ZM210.029 63.38L201.46 60.2309C202.571 57.1951 203.188 53.9232 203.222 50.5155H212.351C212.316 55.0304 211.504 59.3627 210.029 63.38ZM210.908 62.681C212.204 58.8549 212.926 54.7674 212.959 50.5155H223.071L210.908 62.681ZM212.959 49.909C212.926 45.6586 212.204 41.5696 210.908 37.7435L223.071 49.909H212.959Z" fill="#0E0E0E"/>
<path d="M40.6729 156.164H84.0411V155.148H40.6729V156.164Z" fill="#0E0E0E"/>
<path d="M265.112 156.164H324.63V155.148H265.112V156.164Z" fill="#0E0E0E"/>
<path d="M51.1328 139.597C50.4335 138.725 49.7093 137.812 48.9559 136.858C48.2047 135.906 47.4816 134.992 46.7808 134.118C46.0832 133.246 45.4542 132.446 44.8896 131.722C44.3249 130.997 43.8811 130.433 43.56 130.031C44.3383 129.923 45.2048 129.699 46.1578 129.366C47.1126 129.03 48.0029 128.559 48.8366 127.955C49.6689 127.352 50.3723 126.587 50.9534 125.659C51.5302 124.733 51.8185 123.623 51.8185 122.337C51.8185 121.127 51.5961 120.121 51.1537 119.315C50.7099 118.509 50.1081 117.858 49.3417 117.359C48.5751 116.863 47.6819 116.507 46.6615 116.291C45.6411 116.078 44.5653 115.971 43.439 115.971C42.6592 115.971 41.894 116.002 41.1413 116.073C40.3898 116.14 39.6248 116.171 38.8448 116.171C38.0666 116.171 37.3016 116.15 36.5504 116.112C35.7988 116.073 35.0339 116.023 34.251 115.971C34.3346 117.744 34.4063 119.48 34.4736 121.186C34.541 122.892 34.5767 124.63 34.5767 126.403V133.334C34.5767 135.104 34.541 136.851 34.4736 138.57C34.4063 140.29 34.3346 141.981 34.251 143.645C34.871 143.592 35.5285 143.568 36.2276 143.568C36.9237 143.568 37.5826 143.592 38.201 143.645C38.122 141.981 38.0471 140.29 37.9815 138.57C37.9113 136.851 37.8799 135.104 37.8799 133.334V130.392H39.4097C40.2673 131.278 41.2159 132.36 42.2511 133.636C43.2834 134.911 44.2994 136.193 45.2931 137.483C46.2835 138.772 47.1918 139.979 48.0105 141.11C48.8323 142.237 49.4416 143.084 49.8451 143.645C50.2199 143.592 50.61 143.568 51.0132 143.568H52.1817H53.3901C53.7922 143.568 54.1954 143.592 54.5975 143.645C54.2209 143.272 53.7248 142.722 53.1062 141.994C52.4879 141.268 51.8304 140.469 51.1328 139.597ZM40.5782 128.903C40.0417 128.903 39.5531 128.888 39.1078 128.862C38.6657 128.836 38.255 128.782 37.8799 128.7V126.403C37.8799 124.954 37.9066 123.503 37.9592 122.053C38.0129 120.602 38.0666 119.138 38.122 117.662C38.549 117.607 39.0736 117.561 39.6936 117.522C40.3091 117.481 41.0888 117.46 42.0302 117.46C42.7263 117.46 43.439 117.534 44.1621 117.683C44.8896 117.829 45.559 118.106 46.1773 118.509C46.7959 118.911 47.2978 119.455 47.6909 120.139C48.0793 120.826 48.272 121.691 48.272 122.739C48.272 123.947 48.0253 124.947 47.528 125.741C47.029 126.532 46.406 127.164 45.6545 127.631C44.9032 128.103 44.0767 128.434 43.1774 128.619C42.2766 128.809 41.4116 128.903 40.5782 128.903Z" fill="#0E0E0E"/>
<path d="M70.9137 116.111C69.2195 116.15 67.4865 116.173 65.7146 116.173C63.9444 116.173 62.2099 116.15 60.5172 116.111C58.826 116.072 57.0929 116.024 55.3213 115.97C55.4557 116.506 55.5228 116.924 55.5228 117.218C55.5228 117.594 55.4557 118.025 55.3213 118.51C55.8874 118.428 56.5222 118.362 57.2349 118.308C57.9461 118.253 58.6855 118.207 59.4489 118.165C60.2153 118.124 60.9802 118.099 61.7466 118.084C62.5147 118.072 63.2422 118.064 63.9444 118.064C64.0251 120.832 64.064 123.612 64.064 126.403V133.333C64.064 135.105 64.0294 136.851 63.9624 138.571C63.895 140.289 63.8219 141.98 63.7426 143.645C64.358 143.592 65.0155 143.567 65.7146 143.567C66.4139 143.567 67.0696 143.592 67.6883 143.645C67.6076 141.98 67.533 140.289 67.4671 138.571C67.4 136.851 67.3686 135.105 67.3686 133.333V126.403C67.3686 123.612 67.4073 120.832 67.4865 118.064C68.1858 118.064 68.9179 118.072 69.6826 118.084C70.4489 118.099 71.2156 118.124 71.9805 118.165C72.744 118.207 73.4833 118.253 74.196 118.308C74.9069 118.362 75.545 118.428 76.1096 118.51C75.9737 118.025 75.9081 117.606 75.9081 117.258C75.9081 116.938 75.9737 116.506 76.1096 115.97C74.3365 116.024 72.6035 116.072 70.9137 116.111Z" fill="#0E0E0E"/>
<path d="M118.899 119.535C117.823 118.394 116.446 117.512 114.771 116.897C113.09 116.28 111.071 115.971 108.707 115.971C107.685 115.971 106.672 116.002 105.665 116.072C104.658 116.139 103.644 116.171 102.624 116.171C101.602 116.171 100.587 116.15 99.582 116.111C98.5735 116.072 97.5589 116.024 96.5386 115.971C96.6207 117.744 96.6939 119.48 96.7612 121.188C96.8268 122.892 96.8628 124.63 96.8628 126.403V133.333C96.8628 135.106 96.8268 136.852 96.7612 138.571C96.6939 140.289 96.6207 141.98 96.5386 143.645C97.453 143.592 98.3523 143.567 99.2397 143.567H101.939C102.851 143.567 103.751 143.581 104.636 143.606C105.525 143.631 106.424 143.645 107.339 143.645C108.921 143.645 110.581 143.41 112.312 142.94C114.043 142.474 115.63 141.671 117.064 140.545C118.503 139.417 119.685 137.935 120.611 136.093C121.537 134.254 122.002 131.992 122.002 129.306C122.002 127.237 121.754 125.377 121.255 123.723C120.759 122.072 119.975 120.678 118.899 119.535ZM116.945 135.81C116.205 137.488 115.252 138.812 114.084 139.78C112.916 140.745 111.592 141.405 110.118 141.753C108.64 142.102 107.162 142.276 105.685 142.276C104.663 142.276 103.669 142.242 102.703 142.175C101.738 142.109 100.973 142.007 100.408 141.875C100.245 139.081 100.167 136.235 100.167 133.333V126.403C100.167 124.954 100.185 123.524 100.224 122.112C100.268 120.703 100.326 119.356 100.408 118.064C101.24 117.959 102.182 117.863 103.229 117.783C104.275 117.705 105.402 117.662 106.613 117.662C108.277 117.662 109.807 117.829 111.203 118.164C112.599 118.501 113.803 119.106 114.81 119.979C115.817 120.851 116.609 122.041 117.187 123.544C117.763 125.048 118.055 126.968 118.055 129.306C118.055 131.962 117.683 134.134 116.945 135.81Z" fill="#0E0E0E"/>
<path d="M142.467 141.352C141.822 141.485 141.062 141.583 140.191 141.654C139.317 141.721 138.391 141.773 137.41 141.815C136.43 141.854 135.429 141.873 134.409 141.873H131.59C131.56 141.365 131.542 140.612 131.529 139.617C131.514 138.625 131.509 137.363 131.509 135.832V133.414V131.843C131.509 131.414 131.514 131.057 131.529 130.776C131.542 130.495 131.55 130.231 131.55 129.99C132.031 129.99 132.684 129.996 133.502 130.008C134.322 130.025 135.195 130.036 136.121 130.05C137.047 130.063 137.975 130.098 138.9 130.15C139.828 130.204 140.639 130.272 141.338 130.352C141.259 129.949 141.219 129.546 141.219 129.143C141.219 128.714 141.259 128.297 141.338 127.896C140.75 127.948 140.122 127.996 139.463 128.036C138.807 128.075 138.087 128.118 137.312 128.157C136.53 128.199 135.671 128.23 134.733 128.258C133.792 128.283 132.73 128.297 131.55 128.297C131.55 127.788 131.542 127.035 131.529 126.042C131.514 125.048 131.509 124.026 131.509 122.979C131.509 121.987 131.529 121.101 131.569 120.321C131.611 119.541 131.644 118.724 131.669 117.862C132.985 117.862 134.113 117.885 135.053 117.924C135.996 117.962 136.862 118.013 137.652 118.065C138.444 118.118 139.197 118.171 139.907 118.227C140.618 118.279 141.405 118.333 142.266 118.388C142.184 117.983 142.145 117.581 142.145 117.178C142.145 116.778 142.184 116.374 142.266 115.971C141.057 116.025 139.861 116.072 138.68 116.111C137.499 116.15 136.302 116.171 135.096 116.171C133.886 116.171 132.684 116.15 131.488 116.111C130.295 116.072 129.09 116.025 127.882 115.971C127.964 117.689 128.037 119.408 128.104 121.127C128.17 122.846 128.206 124.591 128.206 126.364V133.292C128.206 135.065 128.17 136.806 128.104 138.51C128.037 140.215 127.964 141.929 127.882 143.645C129.119 143.591 130.341 143.568 131.55 143.568H135.214H138.861C140.056 143.568 141.259 143.591 142.467 143.645C142.384 143.379 142.345 143.031 142.345 142.599C142.345 142.412 142.353 142.205 142.366 141.974C142.379 141.746 142.412 141.539 142.467 141.352Z" fill="#0E0E0E"/>
<path d="M173.25 141.813C171.503 141.855 169.678 141.873 167.77 141.873C167.746 139.913 167.717 137.69 167.692 135.207C167.664 132.724 167.652 129.788 167.652 126.404C167.652 124.631 167.685 122.893 167.753 121.187C167.818 119.481 167.892 117.742 167.971 115.97C167.625 116.024 167.287 116.071 166.966 116.111C166.642 116.151 166.321 116.172 165.998 116.172C165.677 116.172 165.354 116.151 165.031 116.111C164.712 116.071 164.374 116.024 164.024 115.97C164.107 117.742 164.178 119.481 164.247 121.187C164.311 122.893 164.349 124.631 164.349 126.404V133.333C164.349 135.106 164.311 136.852 164.247 138.571C164.178 140.289 164.107 141.981 164.024 143.646C165.315 143.593 166.555 143.566 167.753 143.566H171.478H175.184C176.42 143.566 177.657 143.593 178.889 143.646C178.756 143.217 178.689 142.854 178.689 142.56C178.689 142.236 178.756 141.834 178.889 141.35C176.874 141.62 174.996 141.773 173.25 141.813Z" fill="#0E0E0E"/>
<path d="M203.526 136.616C202.842 135.046 202.108 133.346 201.331 131.52C200.551 129.693 199.774 127.854 198.993 126.002C198.215 124.148 197.45 122.313 196.698 120.502C195.944 118.69 195.248 117.002 194.604 115.445H193.837C191.741 120.255 189.662 124.982 187.594 129.628C185.523 134.274 183.402 138.947 181.227 143.647C181.684 143.592 182.18 143.566 182.718 143.566C183.257 143.566 183.753 143.592 184.207 143.647C184.557 142.411 185.081 140.849 185.78 138.953C186.48 137.06 187.258 135.064 188.119 132.971C188.949 132.944 189.771 132.925 190.575 132.91C191.381 132.897 192.198 132.89 193.032 132.89C193.918 132.89 194.805 132.897 195.69 132.91C196.577 132.925 197.45 132.944 198.309 132.971C198.66 133.857 199.033 134.791 199.438 135.771C199.839 136.753 200.236 137.719 200.626 138.672C201.016 139.625 201.371 140.537 201.694 141.412C202.015 142.282 202.269 143.03 202.461 143.647C202.835 143.592 203.19 143.566 203.526 143.566H204.594H205.662C205.997 143.566 206.352 143.592 206.729 143.647C206.381 143.002 205.93 142.064 205.381 140.826C204.83 139.592 204.211 138.187 203.526 136.616ZM195.49 131.177C194.737 131.193 193.987 131.198 193.234 131.198C192.536 131.198 191.81 131.184 191.059 131.156C190.306 131.131 189.581 131.117 188.882 131.117L193.273 120.885L197.746 131.117C196.994 131.146 196.239 131.165 195.49 131.177Z" fill="#0E0E0E"/>
<path d="M243.01 118.025C242.489 117.513 241.902 117.124 241.259 116.856C240.614 116.589 239.964 116.389 239.303 116.251C238.645 116.118 238.022 116.038 237.432 116.011C236.84 115.985 236.344 115.97 235.939 115.97C235.645 115.97 235.282 115.985 234.853 116.011C234.421 116.038 233.972 116.058 233.501 116.072C233.033 116.084 232.57 116.105 232.113 116.132C231.658 116.157 231.268 116.172 230.945 116.172C230.301 116.172 229.651 116.151 228.992 116.111C228.331 116.072 227.684 116.024 227.035 115.97C227.119 117.744 227.192 119.48 227.258 121.187C227.325 122.893 227.361 124.629 227.361 126.403V133.333C227.361 135.105 227.325 136.851 227.258 138.569C227.192 140.289 227.119 141.98 227.035 143.646C227.655 143.592 228.312 143.565 229.012 143.565C229.708 143.565 230.367 143.592 230.985 143.646C230.906 141.98 230.831 140.289 230.766 138.569C230.695 136.851 230.664 135.105 230.664 133.333V131.116C231.2 131.171 231.725 131.206 232.236 131.218C232.745 131.231 233.308 131.239 233.925 131.239C234.895 131.239 236.002 131.132 237.251 130.914C238.5 130.702 239.68 130.285 240.795 129.667C241.909 129.05 242.85 128.189 243.615 127.088C244.38 125.989 244.764 124.551 244.764 122.777C244.764 121.649 244.603 120.702 244.278 119.937C243.957 119.172 243.535 118.536 243.01 118.025ZM240.353 126.385C239.882 127.259 239.278 127.943 238.539 128.437C237.799 128.938 236.988 129.277 236.101 129.465C235.216 129.654 234.356 129.748 233.522 129.748C232.53 129.748 231.575 129.642 230.664 129.426V117.46H234.288C235.336 117.46 236.275 117.535 237.111 117.684C237.94 117.829 238.645 118.106 239.223 118.509C239.803 118.912 240.251 119.475 240.575 120.2C240.895 120.926 241.057 121.864 241.057 123.019C241.057 124.389 240.822 125.511 240.353 126.385Z" fill="#0E0E0E"/>
<path d="M253.164 121.188C253.23 119.481 253.303 117.743 253.384 115.971C253.036 116.024 252.701 116.072 252.378 116.112C252.054 116.152 251.733 116.173 251.41 116.173C251.088 116.173 250.766 116.152 250.444 116.112C250.121 116.072 249.783 116.024 249.437 115.971C249.519 117.743 249.59 119.481 249.659 121.188C249.723 122.895 249.761 124.63 249.761 126.404V133.333C249.761 135.106 249.723 136.853 249.659 138.571C249.59 140.29 249.519 141.98 249.437 143.647C250.054 143.592 250.711 143.567 251.41 143.567C252.109 143.567 252.765 143.592 253.384 143.647C253.303 141.98 253.23 140.29 253.164 138.571C253.097 136.853 253.064 135.106 253.064 133.333V126.404C253.064 124.63 253.097 122.895 253.164 121.188Z" fill="#0E0E0E"/>
<path d="M275.222 141.352C274.577 141.485 273.816 141.583 272.947 141.654C272.071 141.721 271.145 141.773 270.165 141.815C269.185 141.854 268.184 141.873 267.164 141.873H264.345C264.315 141.365 264.297 140.612 264.285 139.617C264.27 138.625 264.265 137.363 264.265 135.832V133.414V131.843C264.265 131.414 264.27 131.057 264.285 130.776C264.297 130.495 264.304 130.231 264.304 129.99C264.788 129.99 265.438 129.996 266.257 130.008C267.077 130.025 267.949 130.036 268.874 130.05C269.804 130.063 270.73 130.098 271.656 130.15C272.584 130.204 273.397 130.272 274.094 130.352C274.014 129.949 273.973 129.546 273.973 129.143C273.973 128.714 274.014 128.297 274.094 127.896C273.504 127.948 272.878 127.996 272.219 128.036C271.562 128.075 270.843 128.118 270.067 128.157C269.285 128.199 268.426 128.23 267.488 128.258C266.547 128.283 265.486 128.297 264.304 128.297C264.304 127.788 264.297 127.035 264.285 126.042C264.27 125.048 264.265 124.026 264.265 122.979C264.265 121.987 264.285 121.101 264.324 120.321C264.366 119.541 264.398 118.724 264.425 117.862C265.74 117.862 266.868 117.885 267.808 117.924C268.75 117.962 269.617 118.013 270.407 118.065C271.199 118.118 271.949 118.171 272.662 118.227C273.374 118.279 274.162 118.333 275.022 118.388C274.938 117.983 274.9 117.581 274.9 117.178C274.9 116.778 274.938 116.374 275.022 115.971C273.812 116.025 272.615 116.072 271.435 116.111C270.253 116.15 269.057 116.171 267.851 116.171C266.641 116.171 265.438 116.15 264.243 116.111C263.049 116.072 261.847 116.025 260.637 115.971C260.719 117.689 260.792 119.408 260.859 121.127C260.925 122.846 260.961 124.591 260.961 126.364V133.292C260.961 135.065 260.925 136.806 260.859 138.51C260.792 140.215 260.719 141.929 260.637 143.645C261.874 143.591 263.096 143.568 264.304 143.568H267.969H271.616C272.809 143.568 274.014 143.591 275.222 143.645C275.14 143.379 275.1 143.031 275.1 142.599C275.1 142.412 275.107 142.205 275.12 141.974C275.134 141.746 275.167 141.539 275.222 141.352Z" fill="#0E0E0E"/>
<path d="M297.658 139.597C296.96 138.725 296.234 137.812 295.481 136.858C294.73 135.906 294.007 134.992 293.306 134.118C292.608 133.246 291.979 132.446 291.414 131.722C290.85 130.997 290.406 130.433 290.085 130.031C290.864 129.923 291.73 129.699 292.685 129.366C293.636 129.03 294.528 128.559 295.362 127.955C296.194 127.352 296.897 126.587 297.479 125.659C298.055 124.733 298.343 123.623 298.343 122.337C298.343 121.127 298.121 120.121 297.679 119.315C297.235 118.509 296.632 117.858 295.867 117.359C295.1 116.863 294.207 116.507 293.188 116.291C292.166 116.078 291.091 115.971 289.964 115.971C289.185 115.971 288.418 116.002 287.668 116.073C286.915 116.14 286.15 116.171 285.371 116.171C284.593 116.171 283.827 116.15 283.075 116.112C282.324 116.073 281.559 116.023 280.779 115.971C280.86 117.744 280.933 119.48 280.999 121.186C281.066 122.892 281.1 124.63 281.1 126.403V133.334C281.1 135.104 281.066 136.851 280.999 138.57C280.933 140.29 280.86 141.981 280.779 143.645C281.396 143.592 282.053 143.568 282.752 143.568C283.449 143.568 284.108 143.592 284.726 143.645C284.647 141.981 284.572 140.29 284.506 138.57C284.436 136.851 284.405 135.104 284.405 133.334V130.392H285.935C286.792 131.278 287.741 132.36 288.776 133.636C289.809 134.911 290.825 136.193 291.817 137.483C292.808 138.772 293.717 139.979 294.535 141.11C295.354 142.237 295.967 143.084 296.369 143.645C296.744 143.592 297.135 143.568 297.538 143.568H298.705H299.915C300.317 143.568 300.721 143.592 301.122 143.645C300.746 143.272 300.25 142.722 299.63 141.994C299.013 141.268 298.357 140.469 297.658 139.597ZM287.103 128.903C286.567 128.903 286.077 128.888 285.633 128.862C285.191 128.836 284.78 128.782 284.405 128.7V126.403C284.405 124.954 284.432 123.503 284.484 122.053C284.538 120.602 284.593 119.138 284.647 117.662C285.074 117.607 285.599 117.561 286.217 117.522C286.833 117.481 287.614 117.46 288.555 117.46C289.251 117.46 289.964 117.534 290.687 117.683C291.414 117.829 292.085 118.106 292.703 118.509C293.321 118.911 293.823 119.455 294.216 120.139C294.603 120.826 294.797 121.691 294.797 122.739C294.797 123.947 294.55 124.947 294.053 125.741C293.554 126.532 292.931 127.164 292.179 127.631C291.428 128.103 290.602 128.434 289.701 128.619C288.8 128.809 287.935 128.903 287.103 128.903Z" fill="#0E0E0E"/>
<path d="M322.273 139.597C321.573 138.725 320.849 137.812 320.096 136.858C319.344 135.906 318.621 134.992 317.92 134.118C317.223 133.246 316.594 132.446 316.029 131.722C315.465 130.997 315.021 130.433 314.699 130.031C315.478 129.923 316.344 129.699 317.299 129.366C318.249 129.03 319.143 128.559 319.976 127.955C320.808 127.352 321.514 126.587 322.093 125.659C322.67 124.733 322.958 123.623 322.958 122.337C322.958 121.127 322.736 120.121 322.293 119.315C321.85 118.509 321.246 117.858 320.481 117.359C319.715 116.863 318.821 116.507 317.801 116.291C316.779 116.078 315.705 115.971 314.578 115.971C313.799 115.971 313.034 116.002 312.281 116.073C311.531 116.14 310.764 116.171 309.984 116.171C309.206 116.171 308.44 116.15 307.69 116.112C306.938 116.073 306.174 116.023 305.392 115.971C305.474 117.744 305.548 119.48 305.613 121.186C305.681 122.892 305.716 124.63 305.716 126.403V133.334C305.716 135.104 305.681 136.851 305.613 138.57C305.548 140.29 305.474 141.981 305.392 143.645C306.01 143.592 306.669 143.568 307.367 143.568C308.063 143.568 308.722 143.592 309.341 143.645C309.262 141.981 309.187 140.29 309.121 138.57C309.051 136.851 309.021 135.104 309.021 133.334V130.392H310.549C311.407 131.278 312.354 132.36 313.391 133.636C314.423 134.911 315.439 136.193 316.433 137.483C317.423 138.772 318.332 139.979 319.15 141.11C319.97 142.237 320.581 143.084 320.984 143.645C321.36 143.592 321.748 143.568 322.153 143.568H323.321H324.53C324.932 143.568 325.335 143.592 325.737 143.645C325.361 143.272 324.865 142.722 324.244 141.994C323.628 141.268 322.972 140.469 322.273 139.597ZM311.716 128.903C311.181 128.903 310.691 128.888 310.247 128.862C309.805 128.836 309.395 128.782 309.021 128.7V126.403C309.021 124.954 309.046 123.503 309.099 122.053C309.153 120.602 309.206 119.138 309.262 117.662C309.689 117.607 310.213 117.561 310.833 117.522C311.449 117.481 312.228 117.46 313.17 117.46C313.866 117.46 314.578 117.534 315.303 117.683C316.029 117.829 316.699 118.106 317.317 118.509C317.934 118.911 318.437 119.455 318.831 120.139C319.219 120.826 319.412 121.691 319.412 122.739C319.412 123.947 319.165 124.947 318.667 125.741C318.168 126.532 317.546 127.164 316.794 127.631C316.043 128.103 315.216 128.434 314.316 128.619C313.415 128.809 312.551 128.903 311.716 128.903Z" fill="#0E0E0E"/>
<path d="M347.94 154.234C347.955 153.962 347.994 153.713 348.058 153.492C347.292 153.65 346.386 153.769 345.351 153.85C344.31 153.929 343.209 153.994 342.041 154.041C340.874 154.089 339.685 154.115 338.468 154.115H335.11C335.08 153.506 335.055 152.61 335.039 151.429C335.024 150.245 335.015 144.223 335.015 142.399V139.521V137.08C335.015 136.569 335.024 136.146 335.039 135.811C335.055 135.474 335.064 135.162 335.064 134.874C335.639 134.874 336.414 134.883 337.39 134.899C338.362 134.917 339.402 134.931 340.507 134.947C341.609 134.965 342.711 135.004 343.814 135.067C344.92 135.132 345.885 135.211 346.72 135.307C346.621 134.827 346.573 134.348 346.573 133.869C346.573 133.357 346.621 132.862 346.72 132.382C346.013 132.444 345.271 132.5 344.488 132.549C343.702 132.597 342.846 132.646 341.923 132.693C340.993 132.741 339.972 132.782 338.853 132.814C337.732 132.843 336.471 132.862 335.064 132.862C335.064 132.253 335.055 128.681 335.039 127.5C335.024 126.316 335.015 125.102 335.015 123.856C335.015 122.673 335.039 121.615 335.086 120.689C335.136 119.762 335.176 118.789 335.206 117.763C336.773 117.763 338.116 117.789 339.235 117.835C340.352 117.883 341.388 117.941 342.329 118.004C343.27 118.067 344.168 118.131 345.014 118.195C345.861 118.261 346.796 118.324 347.822 118.387C347.725 117.907 347.678 117.427 347.678 116.949C347.678 116.468 347.725 115.99 347.822 115.509C346.382 115.575 344.957 115.629 343.551 115.68C342.144 115.724 340.725 115.75 339.283 115.75C337.846 115.75 336.414 115.724 334.991 115.68C333.565 115.629 332.137 115.575 330.698 115.509C330.794 117.556 330.882 119.603 330.963 121.649C331.044 123.696 331.083 125.773 331.083 127.884V139.38C331.083 141.489 331.044 148.079 330.963 150.108C330.882 152.139 330.794 154.178 330.698 156.224C332.169 156.159 333.622 156.128 335.064 156.128H339.429H343.766C345.19 156.128 346.621 156.159 348.058 156.224C347.964 155.906 347.917 155.487 347.917 154.975C347.917 154.753 347.924 154.505 347.94 154.234Z" fill="#0E0E0E"/>
<path d="M25.7111 136.065C24.713 133.73 23.7197 131.378 22.7202 129.007C21.7254 126.636 20.7453 124.291 19.783 121.975C18.821 119.658 17.9304 117.499 17.1089 115.509H16.1274C13.4471 121.658 10.7878 127.704 8.14353 133.646C5.49462 139.586 2.78186 145.565 0 151.572C0.585517 151.502 1.21893 151.469 1.90779 151.469C2.59491 151.469 3.22977 151.502 3.81123 151.572C4.25915 149.993 4.93146 147.994 5.82178 145.569C6.7182 143.151 7.71187 140.597 8.80975 137.923C9.87656 137.886 10.9254 137.862 11.9548 137.844C12.987 137.824 14.0312 137.817 15.098 137.817C16.2287 137.817 17.3643 137.824 18.4953 137.844C19.6306 137.862 20.7453 137.886 21.8464 137.923C22.2929 139.054 22.6424 139.891 23.0563 141.007C23.4671 142.121 30.4663 155.697 30.7099 156.484C31.188 156.416 31.6437 156.381 32.071 156.381H33.438H34.8018C35.2306 156.381 35.6863 156.416 36.1688 156.484C35.7206 155.66 28.3315 141.852 27.6264 140.272C26.9242 138.691 26.7044 138.4 25.7111 136.065ZM18.2384 135.628C17.2775 135.646 16.3155 135.654 15.3549 135.654C14.4629 135.654 13.5336 135.637 12.5716 135.601C11.6111 135.567 10.6833 135.549 9.79151 135.549L15.4043 122.465L21.1248 135.549C20.1653 135.587 19.199 135.611 18.2384 135.628Z" fill="#0E0E0E"/>
<path d="M188.121 145.59C187.958 145.544 187.8 145.544 187.65 145.59C187.498 145.636 187.341 145.684 187.178 145.729C186.623 146.008 186.134 146.409 185.716 146.932C185.297 147.454 184.913 147.961 184.565 148.448C184.193 148.983 183.845 149.516 183.519 150.051C183.194 150.586 182.869 151.122 182.544 151.654C182.078 152.446 181.625 153.241 181.184 154.043C180.744 154.844 180.324 155.652 179.929 156.465L178.292 157.929C177.919 158.184 177.56 158.44 177.212 158.697C176.862 158.952 176.491 159.196 176.094 159.427C176.05 159.451 175.961 159.503 175.835 159.584C175.706 159.668 175.567 159.748 175.416 159.829C175.265 159.911 175.114 159.968 174.962 160.002C174.811 160.037 174.701 160.02 174.632 159.95C174.563 159.881 174.544 159.775 174.58 159.638C174.614 159.496 174.666 159.347 174.737 159.184C174.807 159.021 174.881 158.864 174.962 158.713C175.044 158.562 175.097 158.465 175.119 158.416C175.445 157.953 175.805 157.579 176.201 157.301C176.501 157.047 176.822 156.831 177.158 156.657C177.496 156.483 177.826 156.384 178.152 156.36H178.622C178.797 156.36 178.971 156.354 179.145 156.343C179.32 156.332 179.479 156.296 179.616 156.239C179.755 156.182 179.859 156.081 179.929 155.942C180.046 155.732 180.034 155.535 179.895 155.349C179.755 155.163 179.58 155.071 179.372 155.071C178.836 155.071 178.337 155.152 177.874 155.314C177.478 155.432 177.082 155.547 176.687 155.664C176.293 155.78 175.908 155.931 175.539 156.116C174.958 156.373 174.393 156.65 173.847 156.952C173.328 157.24 172.779 157.479 172.207 157.681C172.15 157.69 172.101 157.678 172.035 157.712C171.792 157.839 171.589 157.938 171.426 158.006C170.567 158.447 169.636 158.84 168.638 159.187C168.405 159.257 168.102 159.344 167.731 159.448C167.358 159.553 167.045 159.533 166.79 159.396C166.696 159.142 166.703 158.851 166.806 158.528C166.911 158.204 167.022 157.95 167.138 157.763C167.255 157.554 167.388 157.352 167.54 157.156C167.691 156.959 167.788 156.756 167.834 156.547C167.882 156.27 167.795 156.061 167.574 155.922C167.353 155.783 167.138 155.783 166.929 155.922C166.44 156.294 165.895 156.663 165.291 157.034C164.198 157.682 163.095 158.26 161.981 158.77C161.631 158.909 161.225 159.084 160.759 159.291C160.294 159.499 159.854 159.603 159.435 159.603C159.435 159.142 159.598 158.701 159.922 158.284C160.248 157.867 160.586 157.485 160.934 157.137C161.026 157.046 161.165 156.923 161.352 156.774C161.539 156.624 161.712 156.46 161.875 156.288C162.038 156.115 162.159 155.94 162.241 155.767C162.323 155.594 162.305 155.413 162.189 155.229C162.049 155.02 161.847 154.945 161.579 155.003C161.31 155.06 161.026 155.171 160.726 155.332C160.421 155.493 160.125 155.674 159.837 155.87C159.544 156.067 159.331 156.2 159.192 156.27C158.609 156.524 158.029 156.786 157.448 157.05C156.867 157.318 156.274 157.545 155.67 157.728C155.64 157.74 155.638 157.767 155.612 157.782C155.545 157.799 155.481 157.796 155.411 157.824C155.236 157.894 155.067 157.981 154.905 158.085C154.741 158.191 154.613 158.253 154.521 158.278C154.15 158.464 153.707 158.667 153.196 158.888C152.684 159.109 152.169 159.3 151.646 159.463C151.123 159.626 150.616 159.753 150.129 159.845C149.642 159.938 149.234 159.962 148.91 159.914C148.794 159.893 148.711 159.841 148.665 159.759C148.619 159.677 148.641 159.556 148.735 159.394C148.806 159.207 148.892 159.063 148.995 158.957C149.101 158.853 149.21 158.743 149.329 158.626C149.442 158.51 149.524 158.371 149.572 158.208C149.665 157.905 149.588 157.667 149.345 157.492C149.101 157.319 148.874 157.348 148.665 157.581C148.247 158.045 147.702 158.488 147.026 158.904C146.934 158.976 146.748 159.085 146.469 159.236C146.191 159.387 145.888 159.532 145.564 159.671C145.238 159.812 144.918 159.914 144.604 159.986C144.291 160.056 144.065 160.032 143.925 159.914C143.762 159.775 143.762 159.55 143.925 159.236C144.088 158.922 144.309 158.597 144.587 158.26C144.866 157.923 145.15 157.61 145.441 157.319C145.731 157.029 145.934 156.837 146.051 156.744C146.33 156.559 146.58 156.4 146.799 156.273C147.022 156.145 147.294 156.034 147.619 155.942L149.188 155.767C149.442 155.722 149.659 155.594 149.832 155.384C150.007 155.174 149.955 154.942 149.677 154.687C149.49 154.57 149.194 154.536 148.788 154.583C148.38 154.63 147.945 154.711 147.48 154.827C147.014 154.942 146.575 155.071 146.155 155.21C145.737 155.349 145.447 155.453 145.284 155.523C144.982 155.64 144.604 155.791 144.152 155.977C143.699 156.163 143.228 156.36 142.74 156.571C142.252 156.78 141.792 156.993 141.364 157.213C140.983 157.409 140.675 157.567 140.414 157.697C140.348 157.715 140.296 157.717 140.214 157.754C140.061 157.824 139.905 157.899 139.742 157.981C139.58 158.063 139.422 158.151 139.271 158.243C139.12 158.335 138.998 158.405 138.907 158.452L137.477 159.079C137.36 159.125 137.192 159.196 136.972 159.288C136.749 159.383 136.518 159.468 136.274 159.55C136.031 159.63 135.786 159.695 135.542 159.741C135.299 159.789 135.094 159.789 134.933 159.741C134.955 159.626 135.019 159.493 135.124 159.34C135.228 159.19 135.345 159.039 135.473 158.888C135.599 158.737 135.722 158.602 135.838 158.488C135.954 158.371 136.035 158.278 136.083 158.208C136.338 157.905 136.588 157.629 136.831 157.371C137.075 157.116 137.302 156.824 137.513 156.499C137.696 156.221 137.791 155.958 137.791 155.715C137.791 155.471 137.726 155.274 137.599 155.122C137.471 154.972 137.29 154.868 137.059 154.809C136.827 154.752 136.558 154.756 136.256 154.827C135.442 155.06 134.641 155.396 133.851 155.837C133.062 156.279 132.294 156.698 131.552 157.092C131.248 157.232 130.945 157.371 130.645 157.51C130.343 157.651 130.04 157.812 129.738 157.997L130.158 157.023C130.227 156.837 130.337 156.635 130.488 156.412C130.641 156.192 130.669 155.965 130.576 155.734C130.436 155.432 130.088 155.338 129.529 155.453C128.972 155.571 128.362 155.78 127.7 156.081C127.037 156.384 126.393 156.704 125.766 157.04C125.235 157.325 124.868 157.524 124.603 157.667H124.599C124.469 157.703 124.336 157.762 124.197 157.842C124.058 157.923 123.953 157.977 123.883 157.997C123.58 158.138 123.284 158.283 122.994 158.435C122.703 158.586 122.419 158.72 122.141 158.834C121.305 159.161 120.635 159.394 120.136 159.532C119.636 159.671 119.328 159.671 119.213 159.532C119.026 159.37 118.94 159.149 118.952 158.87C118.962 158.591 119.02 158.302 119.125 157.997C119.23 157.697 119.358 157.4 119.51 157.11C119.66 156.819 119.794 156.581 119.909 156.396C120.118 156.069 120.165 155.791 120.05 155.559C119.932 155.326 119.666 155.28 119.248 155.42C118.829 155.676 118.353 155.914 117.818 156.133C117.284 156.354 116.772 156.442 116.285 156.396C116.052 156.396 115.855 156.35 115.693 156.255C115.994 156.069 116.239 155.837 116.424 155.559C116.611 155.304 116.655 155.036 116.563 154.756C116.472 154.479 116.261 154.315 115.937 154.268C115.448 154.246 115.048 154.431 114.734 154.827C114.421 155.222 114.287 155.642 114.332 156.081C113.775 156.406 113.258 156.698 112.782 156.952C112.305 157.21 111.822 157.465 111.335 157.719C110.173 158.347 109.039 159.009 107.938 159.706C106.834 160.404 105.758 161.159 104.713 161.973C104.016 162.506 103.377 163.075 102.796 163.68C102.215 164.284 101.599 164.91 100.949 165.561C100.855 165.074 100.821 164.562 100.845 164.029C100.867 163.494 100.919 162.953 101.002 162.408C101.082 161.861 101.187 161.316 101.314 160.769C101.442 160.223 101.577 159.706 101.716 159.219L101.855 158.486C102.11 158.534 102.355 158.568 102.587 158.591C102.82 158.614 103.041 158.602 103.248 158.556C103.528 158.465 103.673 158.271 103.685 157.981C103.697 157.691 103.564 157.486 103.284 157.373C103.145 157.324 102.987 157.291 102.814 157.267C102.639 157.243 102.46 157.231 102.273 157.231C102.575 156.35 102.902 155.489 103.248 154.653C103.597 153.816 103.958 152.978 104.33 152.141C104.748 151.191 105.171 150.262 105.603 149.355C106.033 148.448 106.48 147.541 106.943 146.634L107.607 145.276L108.409 143.637C108.454 143.5 108.518 143.34 108.6 143.167C108.681 142.992 108.699 142.826 108.652 142.662C108.56 142.408 108.373 142.268 108.093 142.244C107.816 142.221 107.512 142.248 107.188 142.33C106.863 142.412 106.543 142.523 106.229 142.662C105.915 142.801 105.688 142.907 105.549 142.976C105.014 143.255 104.493 143.569 103.981 143.918C103.47 144.265 102.971 144.637 102.484 145.033C101.483 145.847 100.537 146.722 99.6422 147.664C98.7472 148.605 97.8824 149.564 97.0455 150.54C96.1851 151.561 95.3604 152.583 94.5717 153.607C93.7798 154.63 93.0015 155.688 92.2351 156.78L91.364 158.138C90.4812 158.347 89.5967 158.586 88.7151 158.852C87.8308 159.119 86.9823 159.451 86.1695 159.845C86.0545 159.914 85.9828 160.002 85.9605 160.107C85.9381 160.211 85.9425 160.31 85.9782 160.404C86.0142 160.497 86.083 160.565 86.1875 160.612C86.292 160.659 86.4026 160.648 86.519 160.578C86.9135 160.391 87.3034 160.219 87.6874 160.055C88.0697 159.892 88.4718 159.754 88.8886 159.637C89.2144 159.52 89.5221 159.423 89.8118 159.34C90.1032 159.26 90.4109 159.184 90.7366 159.115C90.6199 159.3 90.514 159.463 90.4228 159.602C90.3288 159.742 90.2362 159.904 90.1436 160.089C89.8878 160.578 89.6147 161.1 89.325 161.658C89.0335 162.216 88.8768 162.784 88.8541 163.367C88.8303 163.552 88.8826 163.716 89.0109 163.854C89.138 163.993 89.307 164.063 89.516 164.063C89.7714 164.041 89.9285 163.936 89.9865 163.749C90.0434 163.564 90.0852 163.377 90.109 163.192C90.1778 162.588 90.3648 161.995 90.6664 161.414C90.9683 160.835 91.258 160.276 91.5387 159.742L92.0258 158.834L93.6288 158.591C94.4431 158.476 95.2663 158.393 96.1044 158.347C96.941 158.301 97.7762 158.301 98.6128 158.347C99.0088 158.347 99.403 158.353 99.7989 158.365C100.193 158.377 100.588 158.393 100.984 158.416C100.658 159.393 100.356 160.404 100.077 161.449C99.7989 162.494 99.6483 163.53 99.6242 164.553C99.6004 164.785 99.6004 165.04 99.6242 165.318C99.6483 165.596 99.7107 165.853 99.8155 166.086C99.92 166.317 100.065 166.504 100.252 166.643C100.437 166.782 100.692 166.828 101.018 166.782C101.274 166.736 101.465 166.643 101.595 166.504C101.72 166.364 101.843 166.201 101.959 166.014C103.401 164.248 105.014 162.715 106.806 161.414C107.361 160.996 107.938 160.607 108.531 160.247C109.123 159.887 109.72 159.533 110.325 159.184L111.655 158.47C111.71 158.452 111.763 158.441 111.822 158.399C112.009 158.272 112.172 158.184 112.311 158.138C112.474 158.045 112.689 157.917 112.956 157.754C113.224 157.591 113.484 157.442 113.739 157.301C113.996 157.162 114.32 156.988 114.716 156.78C114.901 157.035 115.187 157.186 115.571 157.231C115.953 157.279 116.355 157.285 116.772 157.249C117.192 157.213 117.58 157.15 117.94 157.058C118.3 156.966 118.539 156.905 118.654 156.883L118.376 158.033C118.329 158.222 118.276 158.413 118.22 158.609C118.161 158.805 118.115 159.003 118.081 159.2C118.045 159.399 118.039 159.596 118.063 159.793C118.085 159.992 118.155 160.171 118.272 160.334C118.48 160.637 118.771 160.787 119.143 160.787C119.515 160.787 119.899 160.718 120.293 160.578C120.688 160.437 121.078 160.264 121.462 160.056C121.845 159.845 122.164 159.671 122.419 159.532L123.883 158.87C123.953 158.846 124.058 158.812 124.197 158.765C124.336 158.72 124.469 158.659 124.599 158.591C124.702 158.535 124.792 158.465 124.88 158.393C124.908 158.383 124.935 158.396 124.963 158.383C125.15 158.311 125.318 158.232 125.47 158.138C125.621 158.045 125.788 157.953 125.975 157.86C126.299 157.697 126.625 157.552 126.95 157.424C127.275 157.295 127.6 157.162 127.926 157.023C128.066 156.977 128.264 156.907 128.519 156.814C128.773 156.72 129.03 156.639 129.286 156.571C129.263 156.755 129.227 156.937 129.182 157.11C129.135 157.283 129.088 157.454 129.042 157.617C128.996 157.661 128.915 157.806 128.798 158.051C128.682 158.295 128.565 158.51 128.449 158.695C128.171 158.858 127.996 159.045 127.926 159.252C127.88 159.439 127.885 159.589 127.944 159.706C128.001 159.823 128.089 159.911 128.205 159.968C128.322 160.026 128.443 160.049 128.571 160.037C128.7 160.026 128.821 159.974 128.936 159.881C129.471 159.323 130.099 158.84 130.82 158.435C131.538 158.029 132.236 157.661 132.911 157.336C133.445 157.058 134.032 156.792 134.671 156.533C135.309 156.279 135.942 156.115 136.57 156.046C136.477 156.373 136.268 156.72 135.942 157.092C135.617 157.465 135.385 157.709 135.246 157.824C135.106 157.964 134.949 158.115 134.776 158.278C134.601 158.44 134.438 158.61 134.287 158.783C134.136 158.957 134.002 159.139 133.885 159.323C133.77 159.509 133.712 159.718 133.712 159.95C133.712 160.414 133.863 160.7 134.166 160.805C134.466 160.909 134.82 160.92 135.228 160.84C135.636 160.757 136.041 160.63 136.449 160.455C136.855 160.282 137.151 160.149 137.338 160.056C137.662 159.893 137.976 159.741 138.279 159.601C138.581 159.463 138.895 159.3 139.219 159.113C139.474 158.997 139.718 158.888 139.951 158.783C140.184 158.679 140.405 158.57 140.613 158.452C140.62 158.447 140.623 158.44 140.629 158.435C140.671 158.423 140.711 158.441 140.753 158.416C141.17 158.208 141.63 157.981 142.129 157.737C142.63 157.492 143.106 157.255 143.559 157.023C144.013 156.792 144.418 156.593 144.779 156.43C145.138 156.267 145.401 156.163 145.564 156.115C145.261 156.279 144.935 156.523 144.587 156.849C144.24 157.173 143.919 157.528 143.629 157.911C143.338 158.295 143.099 158.667 142.914 159.028C142.728 159.387 142.636 159.683 142.636 159.914C142.66 160.356 142.833 160.682 143.159 160.891C143.484 161.099 143.855 161.193 144.273 161.171C144.739 161.124 145.186 160.978 145.616 160.734C146.045 160.491 146.457 160.253 146.853 160.02L147.794 159.463C147.702 159.789 147.688 160.095 147.758 160.386C147.83 160.678 148.062 160.905 148.456 161.066C148.758 161.181 149.089 161.217 149.451 161.171C149.81 161.124 150.165 161.042 150.512 160.927C150.861 160.811 151.198 160.672 151.523 160.507C151.849 160.346 152.152 160.205 152.428 160.089C152.847 159.904 153.255 159.724 153.649 159.55C154.045 159.375 154.439 159.196 154.835 159.009C154.928 158.964 155.067 158.904 155.253 158.834C155.439 158.765 155.624 158.691 155.811 158.61C155.894 158.573 155.939 158.519 156.006 158.476C156.235 158.425 156.535 158.319 156.925 158.145C157.344 157.962 158.029 157.694 158.983 157.348L159.819 156.964C159.54 157.334 159.272 157.717 159.017 158.111C158.76 158.502 158.564 158.874 158.424 159.223C158.285 159.571 158.221 159.877 158.233 160.143C158.245 160.41 158.389 160.59 158.667 160.679C158.948 160.797 159.272 160.813 159.644 160.733C160.015 160.652 160.393 160.524 160.778 160.349C161.161 160.176 161.527 159.992 161.875 159.795C162.225 159.597 162.525 159.43 162.782 159.291C163.385 159.037 163.971 158.758 164.542 158.459C165.111 158.157 165.698 157.867 166.301 157.59L165.779 158.84C165.662 159.166 165.632 159.505 165.692 159.865C165.749 160.223 165.988 160.461 166.406 160.578C166.987 160.715 167.568 160.652 168.15 160.386C168.731 160.119 169.264 159.881 169.753 159.674L172.053 158.597C172.112 158.573 172.165 158.532 172.222 158.504C172.286 158.505 172.357 158.492 172.436 158.452C172.691 158.428 172.981 158.317 173.307 158.12C173.632 157.923 173.91 157.766 174.145 157.649L175.014 157.301C174.689 157.629 174.388 157.981 174.109 158.365C173.83 158.747 173.625 159.127 173.499 159.496C173.371 159.869 173.359 160.205 173.463 160.507C173.568 160.811 173.854 161.03 174.317 161.171C174.598 161.239 174.875 161.239 175.155 161.171C175.432 161.099 175.706 160.991 175.973 160.84C176.241 160.688 176.491 160.516 176.723 160.318C176.955 160.119 177.164 159.928 177.351 159.741L179.093 158.241C179.047 158.359 179.011 158.457 178.988 158.538C178.966 158.62 178.942 158.708 178.918 158.801C178.849 158.986 178.775 159.2 178.692 159.445C178.61 159.688 178.552 159.945 178.519 160.211C178.483 160.479 178.494 160.73 178.552 160.961C178.61 161.193 178.745 161.392 178.954 161.554C179.163 161.692 179.39 161.764 179.634 161.764C179.877 161.764 180.127 161.716 180.384 161.623C180.639 161.531 180.882 161.42 181.115 161.292C181.347 161.166 181.556 161.054 181.743 160.961C182.369 160.612 183.008 160.264 183.658 159.914C184.31 159.567 184.961 159.231 185.611 158.904C185.772 158.834 185.971 158.759 186.203 158.679C186.436 158.598 186.609 158.465 186.727 158.278C186.82 158.115 186.854 157.987 186.832 157.894C186.808 157.802 186.743 157.742 186.639 157.719C186.534 157.697 186.418 157.691 186.291 157.703C186.162 157.715 186.065 157.742 185.995 157.79C185.39 158.115 184.758 158.457 184.095 158.818C183.433 159.178 182.775 159.485 182.126 159.741C181.752 159.904 181.353 160.066 180.923 160.231C180.493 160.392 180.068 160.485 179.652 160.507C179.628 160.392 179.634 160.241 179.668 160.056C179.702 159.869 179.75 159.683 179.807 159.496C179.865 159.312 179.925 159.139 179.982 158.976C180.04 158.812 180.091 158.671 180.14 158.558C180.255 158.232 180.366 157.917 180.469 157.617C180.575 157.313 180.684 157 180.802 156.674C181.683 155.837 182.526 154.972 183.328 154.077C184.129 153.184 184.925 152.259 185.716 151.306C186.227 150.702 186.731 150.099 187.232 149.494C187.731 148.89 188.178 148.252 188.574 147.576C188.666 147.414 188.743 147.223 188.799 147.002C188.859 146.781 188.881 146.572 188.871 146.374C188.859 146.177 188.795 146.008 188.678 145.868C188.562 145.729 188.376 145.636 188.121 145.59ZM100.704 157.301C99.8213 157.255 98.9504 157.25 98.09 157.285C97.2307 157.319 96.3703 157.373 95.5113 157.442L92.6189 157.86C93.6872 156.231 94.8152 154.63 95.9985 153.049C97.6731 150.888 99.4854 148.914 101.436 147.124C101.808 146.799 102.209 146.451 102.639 146.079C103.069 145.706 103.528 145.346 104.016 144.998C104.504 144.649 105.014 144.341 105.549 144.073C106.084 143.808 106.619 143.625 107.154 143.534C106.874 144.278 106.583 145.003 106.281 145.711C105.98 146.42 105.666 147.124 105.34 147.819C104.666 149.377 103.999 150.923 103.337 152.456C102.673 153.99 102.041 155.558 101.436 157.162C101.414 157.186 101.402 157.231 101.402 157.301H100.704ZM187.232 147.717C187.035 148.018 186.902 148.237 186.832 148.379C186.623 148.727 186.401 149.059 186.168 149.371C185.937 149.685 185.704 150.006 185.472 150.33C184.937 151.028 184.378 151.706 183.799 152.369C183.217 153.032 182.624 153.675 182.021 154.304L181.812 154.512L183.206 152.072C183.624 151.399 184.066 150.749 184.531 150.121C184.996 149.494 185.495 148.89 186.029 148.309C186.191 148.124 186.413 147.868 186.691 147.543C186.97 147.217 187.272 146.996 187.598 146.881C187.552 147.135 187.429 147.414 187.232 147.717Z" fill="#0E0E0E"/>
<path d="M219.332 152.614C219.762 152.137 220.116 151.621 220.396 151.062C220.674 150.504 220.814 149.913 220.814 149.285C220.814 148.612 220.668 148.019 220.378 147.507C220.087 146.995 219.704 146.572 219.228 146.234C218.751 145.899 218.216 145.636 217.624 145.45C217.031 145.265 216.432 145.148 215.829 145.102C215.085 145.054 214.348 145.07 213.616 145.139C212.884 145.21 212.146 145.317 211.402 145.462C212.054 144.832 212.75 144.27 213.494 143.782C214.237 143.29 215.015 143.057 215.829 143.079C216.108 143.079 216.305 142.952 216.422 142.697C216.538 142.442 216.503 142.22 216.317 142.034C216.177 141.872 215.981 141.79 215.726 141.79C215.47 141.79 215.202 141.837 214.922 141.931C214.644 142.023 214.378 142.14 214.121 142.278C213.866 142.418 213.669 142.524 213.53 142.592C212.993 142.918 212.5 143.271 212.048 143.656C211.595 144.038 211.159 144.451 210.74 144.893L209.94 145.798C209.614 145.869 209.281 145.951 208.945 146.042C208.608 146.135 208.277 146.241 207.953 146.357C206.698 146.752 205.447 147.2 204.204 147.699C202.961 148.198 201.794 148.821 200.702 149.563C200.469 149.702 200.377 149.907 200.423 150.173C200.469 150.442 200.634 150.609 200.91 150.679C201.05 150.724 201.213 150.696 201.399 150.591C201.585 150.488 201.766 150.366 201.939 150.225C202.113 150.086 202.283 149.941 202.446 149.79C202.607 149.64 202.746 149.529 202.863 149.457C204.349 148.552 205.931 147.833 207.603 147.298C207.835 147.204 208.074 147.124 208.319 147.052C208.562 146.983 208.812 146.926 209.067 146.88C208.464 147.6 207.894 148.332 207.36 149.076C206.825 149.819 206.302 150.563 205.791 151.305C205 152.491 204.24 153.681 203.508 154.879C202.774 156.077 202.038 157.279 201.295 158.485L200.528 159.707C199.97 159.776 199.4 159.83 198.82 159.863C198.239 159.898 197.67 159.905 197.112 159.88C196.903 159.857 196.728 159.943 196.588 160.142C196.451 160.339 196.427 160.532 196.519 160.716C196.636 160.997 196.821 161.13 197.076 161.118C197.332 161.106 197.577 161.087 197.808 161.065C198.136 161.019 198.47 160.979 198.82 160.943C199.168 160.91 199.518 160.856 199.865 160.787C199.4 161.53 198.936 162.263 198.47 162.982C198.006 163.702 197.577 164.436 197.181 165.178C197.064 165.387 197.076 165.602 197.217 165.825C197.356 166.043 197.553 166.142 197.808 166.119C198.088 166.071 198.291 165.906 198.42 165.613C198.546 165.323 198.669 165.084 198.786 164.9L200.702 161.309L201.085 160.647L201.714 160.506C204.292 160.044 206.848 159.37 209.381 158.485C211.913 157.604 214.272 156.443 216.458 155.001C216.921 154.7 217.409 154.342 217.92 153.938C218.431 153.531 218.902 153.089 219.332 152.614ZM216.37 153.851C215.917 154.199 215.515 154.49 215.167 154.722C213.679 155.744 212.1 156.594 210.427 157.268C208.753 157.942 207.046 158.485 205.302 158.904C204.071 159.231 202.839 159.474 201.609 159.637C202.166 158.684 202.718 157.743 203.264 156.812C203.81 155.883 204.373 154.955 204.956 154.026C205.698 152.863 206.454 151.729 207.22 150.625C207.987 149.523 208.812 148.449 209.695 147.401L210.392 146.565C210.926 146.45 211.442 146.363 211.943 146.305C212.442 146.246 212.959 146.196 213.494 146.147C214.308 146.102 215.15 146.13 216.022 146.234C216.891 146.339 217.665 146.625 218.339 147.089C218.918 147.485 219.292 147.918 219.455 148.397C219.617 148.871 219.64 149.354 219.523 149.842C219.408 150.331 219.175 150.818 218.826 151.305C218.479 151.794 218.095 152.252 217.677 152.682C217.258 153.113 216.822 153.501 216.37 153.851Z" fill="#0E0E0E"/>
<path d="M262.046 157.929C261.978 157.79 261.861 157.72 261.698 157.72C261.535 157.72 261.368 157.754 261.195 157.823C261.02 157.893 260.849 157.981 260.688 158.086C260.524 158.19 260.397 158.253 260.304 158.279C259.932 158.464 259.49 158.667 258.981 158.888C258.47 159.108 257.953 159.3 257.43 159.463C256.906 159.626 256.402 159.753 255.913 159.846C255.425 159.938 255.017 159.962 254.693 159.914C254.578 159.892 254.494 159.841 254.448 159.759C254.403 159.677 254.426 159.556 254.518 159.393C254.588 159.208 254.676 159.063 254.781 158.957C254.884 158.852 254.995 158.743 255.11 158.627C255.228 158.51 255.308 158.371 255.355 158.208C255.447 157.905 255.373 157.668 255.128 157.493C254.884 157.319 254.659 157.348 254.448 157.579C254.031 158.045 253.486 158.486 252.811 158.903C252.718 158.975 252.531 159.085 252.253 159.236C251.976 159.387 251.672 159.532 251.346 159.671C251.021 159.811 250.703 159.914 250.387 159.985C250.074 160.055 249.848 160.033 249.709 159.914C249.546 159.775 249.546 159.55 249.709 159.236C249.87 158.922 250.091 158.597 250.371 158.261C250.65 157.923 250.934 157.609 251.224 157.319C251.515 157.028 251.718 156.837 251.835 156.743C252.113 156.557 252.364 156.4 252.583 156.274C252.805 156.145 253.078 156.035 253.404 155.942L254.972 155.767C255.228 155.721 255.443 155.594 255.616 155.385C255.791 155.174 255.739 154.943 255.459 154.687C255.273 154.571 254.977 154.536 254.57 154.584C254.164 154.629 253.729 154.711 253.263 154.827C252.799 154.943 252.358 155.071 251.938 155.21C251.521 155.349 251.231 155.453 251.069 155.524C250.765 155.639 250.387 155.791 249.936 155.976C249.482 156.163 249.011 156.36 248.523 156.569C248.036 156.78 247.576 156.994 247.147 157.213C246.767 157.409 246.458 157.566 246.198 157.697C246.133 157.714 246.079 157.717 245.996 157.754C245.844 157.823 245.689 157.899 245.526 157.981C245.364 158.063 245.206 158.15 245.055 158.241C244.904 158.335 244.783 158.404 244.691 158.452L243.261 159.078C243.143 159.126 242.976 159.196 242.755 159.289C242.534 159.383 242.302 159.468 242.059 159.55C241.815 159.63 241.57 159.695 241.327 159.741C241.083 159.789 240.878 159.789 240.715 159.741C240.739 159.626 240.803 159.493 240.908 159.341C241.013 159.188 241.129 159.039 241.256 158.888C241.383 158.737 241.506 158.603 241.622 158.486C241.737 158.371 241.819 158.279 241.867 158.208C242.121 157.905 242.372 157.627 242.615 157.372C242.859 157.116 243.087 156.825 243.295 156.499C243.481 156.22 243.573 155.958 243.573 155.715C243.573 155.471 243.509 155.274 243.384 155.122C243.254 154.972 243.074 154.866 242.843 154.81C242.611 154.753 242.342 154.756 242.041 154.827C241.226 155.059 240.426 155.395 239.635 155.838C238.846 156.279 238.079 156.698 237.336 157.092C237.033 157.231 236.729 157.372 236.429 157.511C236.126 157.65 235.824 157.811 235.522 157.998L235.942 157.024C236.011 156.837 236.121 156.635 236.272 156.412C236.423 156.193 236.453 155.966 236.361 155.733C236.22 155.432 235.872 155.338 235.313 155.453C234.756 155.57 234.146 155.781 233.484 156.081C232.821 156.384 232.177 156.704 231.548 157.039C230.922 157.378 230.48 157.617 230.225 157.754C230.124 157.796 230.063 157.848 230.02 157.905C229.92 157.953 229.828 158.005 229.72 158.052C229.476 158.154 229.237 158.265 229.006 158.382C228.493 158.614 227.972 158.818 227.437 158.991C226.902 159.166 226.357 159.311 225.8 159.427C225.403 159.496 224.967 159.544 224.493 159.568C224.016 159.59 223.557 159.538 223.115 159.41C222.673 159.282 222.29 159.078 221.965 158.8C221.64 158.522 221.43 158.126 221.337 157.617H221.478C221.987 157.661 222.493 157.621 222.994 157.493C223.493 157.366 223.952 157.174 224.37 156.918C224.485 156.849 224.667 156.738 224.911 156.586C225.154 156.436 225.375 156.267 225.572 156.081C225.77 155.896 225.909 155.698 225.991 155.489C226.071 155.28 226.031 155.083 225.868 154.896C225.637 154.596 225.305 154.421 224.875 154.373C224.445 154.327 224.068 154.327 223.741 154.373C223.115 154.49 222.522 154.717 221.965 155.053C221.407 155.391 220.977 155.825 220.675 156.36C220.211 156.547 219.752 156.768 219.298 157.024C218.845 157.279 218.409 157.511 217.991 157.718C217.852 157.766 217.777 157.871 217.765 158.033C217.753 158.196 217.817 158.325 217.956 158.416C218.143 158.534 218.328 158.526 218.513 158.4C218.7 158.271 218.851 158.185 218.968 158.137C219.153 158.021 219.368 157.888 219.612 157.738C219.857 157.585 220.106 157.454 220.361 157.336C220.315 157.499 220.309 157.673 220.345 157.86C220.378 158.045 220.418 158.232 220.466 158.416C220.605 158.927 220.838 159.347 221.162 159.671C221.488 159.998 221.854 160.248 222.262 160.422C222.667 160.594 223.109 160.699 223.586 160.735C224.061 160.769 224.533 160.739 224.997 160.648C226.043 160.368 227.099 160.02 228.169 159.602L229.911 158.834C230.074 158.766 230.259 158.697 230.47 158.627C230.648 158.567 230.785 158.455 230.897 158.31C231.021 158.256 231.147 158.204 231.254 158.137C231.405 158.045 231.572 157.953 231.759 157.86C232.083 157.697 232.409 157.552 232.733 157.424C233.059 157.295 233.384 157.161 233.712 157.024C233.851 156.976 234.048 156.906 234.302 156.813C234.557 156.72 234.814 156.638 235.07 156.569C235.047 156.755 235.011 156.935 234.965 157.11C234.919 157.283 234.872 157.454 234.826 157.617C234.78 157.661 234.699 157.806 234.583 158.052C234.466 158.295 234.35 158.51 234.233 158.695C233.955 158.858 233.78 159.045 233.712 159.253C233.664 159.439 233.67 159.589 233.728 159.707C233.785 159.823 233.873 159.911 233.99 159.968C234.106 160.025 234.227 160.049 234.354 160.037C234.484 160.025 234.605 159.973 234.72 159.882C235.255 159.321 235.882 158.84 236.604 158.434C237.323 158.027 238.02 157.661 238.694 157.336C239.229 157.056 239.816 156.791 240.455 156.533C241.093 156.279 241.727 156.115 242.354 156.047C242.262 156.372 242.051 156.72 241.727 157.092C241.401 157.466 241.169 157.709 241.03 157.823C240.89 157.965 240.733 158.116 240.56 158.279C240.385 158.44 240.222 158.609 240.072 158.782C239.92 158.957 239.787 159.138 239.67 159.321C239.553 159.509 239.496 159.717 239.496 159.95C239.496 160.415 239.647 160.699 239.951 160.805C240.251 160.909 240.605 160.92 241.013 160.841C241.419 160.757 241.826 160.63 242.233 160.455C242.64 160.28 242.935 160.147 243.121 160.055C243.447 159.892 243.76 159.741 244.062 159.601C244.365 159.463 244.679 159.3 245.003 159.114C245.259 158.997 245.502 158.888 245.735 158.782C245.967 158.677 246.189 158.568 246.397 158.452C246.404 158.447 246.406 158.44 246.413 158.435C246.455 158.423 246.496 158.441 246.536 158.416C246.956 158.208 247.415 157.981 247.913 157.738C248.414 157.493 248.889 157.255 249.343 157.024C249.796 156.791 250.202 156.593 250.562 156.431C250.922 156.267 251.184 156.163 251.346 156.115C251.045 156.279 250.719 156.523 250.371 156.849C250.023 157.173 249.703 157.528 249.412 157.911C249.122 158.295 248.883 158.667 248.698 159.027C248.511 159.387 248.42 159.683 248.42 159.914C248.442 160.356 248.615 160.682 248.941 160.891C249.267 161.099 249.639 161.193 250.057 161.171C250.522 161.125 250.969 160.978 251.399 160.735C251.829 160.491 252.241 160.254 252.637 160.02L253.578 159.463C253.486 159.789 253.474 160.095 253.543 160.387C253.613 160.676 253.844 160.903 254.24 161.065C254.541 161.181 254.872 161.217 255.234 161.171C255.594 161.125 255.948 161.042 256.296 160.927C256.646 160.811 256.982 160.672 257.307 160.507C257.633 160.346 257.935 160.206 258.213 160.089C258.631 159.904 259.037 159.725 259.432 159.55C259.829 159.375 260.224 159.196 260.618 159.009C260.71 158.964 260.849 158.903 261.036 158.834C261.223 158.766 261.408 158.689 261.593 158.609C261.78 158.526 261.925 158.428 262.03 158.311C262.133 158.196 262.14 158.066 262.046 157.929ZM221.999 156.065C222.21 155.843 222.447 155.664 222.715 155.524C222.98 155.383 223.272 155.292 223.586 155.246C223.899 155.198 224.219 155.234 224.545 155.349C224.149 155.745 223.692 156.069 223.167 156.326C222.645 156.581 222.103 156.719 221.546 156.743C221.64 156.511 221.791 156.286 221.999 156.065Z" fill="#0E0E0E"/>
</svg>
