<svg width="888" height="336" viewBox="0 0 888 336" fill="none" xmlns="http://www.w3.org/2000/svg">
<path d="M344.055 0.364856C342.591 0.723001 340.314 1.15278 339.012 1.36766C337.385 1.65418 337.06 1.9407 337.792 2.37047C338.605 2.80025 338.036 3.01513 336.328 3.01513C334.864 3.01513 333.643 2.65699 333.643 2.29884C333.643 1.36766 324.94 1.36766 324.289 2.22721C324.045 2.65699 324.533 3.23002 325.265 3.65979C326.485 4.30446 326.241 4.37609 323.882 4.37609C322.337 4.37609 319.49 4.08957 317.619 3.80305C315.504 3.44491 313.877 3.51654 313.389 3.94631C312.413 4.80586 303.628 5.16401 303.058 4.30446C302.407 3.44491 293.134 3.58817 292.565 4.44771C292.24 4.87749 291.263 5.02075 290.45 4.80586C289.555 4.51934 288.01 4.80586 286.952 5.45052C285.895 6.02355 283.21 6.66822 281.095 6.81147C278.899 7.02636 276.052 7.38451 274.669 7.74265L272.229 8.38731L275.483 8.74546L278.736 9.10361L275.889 10.6078C274.019 11.6106 271.009 12.3269 267.186 12.6134C264.013 12.8283 260.516 13.3297 259.539 13.6879L257.587 14.2609L259.458 14.7623C260.516 15.0488 263.769 15.5502 266.779 15.8367L272.229 16.3381L267.755 16.9828C264.989 17.341 264.013 17.6991 265.152 17.8424C266.128 18.0572 266.942 18.487 266.942 18.9168C266.942 19.4898 269.219 19.5615 274.181 19.2749C278.33 18.9884 283.454 19.1317 286.139 19.5615C291.101 20.3494 297.852 23.3578 297.852 24.7187C297.934 25.2202 298.991 26.7244 300.293 28.0137C302.082 29.876 302.489 30.664 301.675 31.1654C301.106 31.5235 301.757 31.5951 303.221 31.3086C304.848 31.0221 306.149 31.237 306.881 31.8817C307.532 32.3831 308.671 33.0277 309.484 33.3142C312.006 34.1738 311.111 35.4631 308.264 34.9617C306.312 34.6752 305.905 34.7468 306.8 35.2482C307.451 35.6064 309.078 35.9645 310.379 35.9645C312.25 35.9645 312.494 36.1078 311.762 36.9673C311.193 37.5404 310.623 38.9013 310.46 40.0474C310.298 41.1218 310.135 42.1962 310.054 42.4111C310.054 42.626 309.484 42.1246 308.834 41.4083C307.613 40.0474 307.613 40.0474 305.905 41.5516C304.034 43.3423 304.36 45.0614 307.044 48.2847C308.346 49.7889 309.159 50.1471 310.623 49.8606C312.657 49.3592 313.226 50.5769 311.274 51.2931C309.322 51.9378 309.81 52.7257 314.365 56.6653C317.619 59.5305 319.002 60.3184 320.547 60.1035C321.605 59.8886 323.638 60.39 325.021 61.1063C326.404 61.8226 327.949 62.4673 328.437 62.4673C329.739 62.4673 332.098 57.8114 331.528 56.4504C331.203 55.6625 331.447 55.3044 332.342 55.3044C333.074 55.3044 333.643 54.8746 333.643 54.3016C333.643 53.7285 334.213 52.7974 334.864 52.1527C335.596 51.5797 336.002 50.7201 335.921 50.2903C335.596 49.1443 343.486 45.4912 344.787 46.2075C346.333 47.067 352.027 44.9898 354.955 42.5544C356.582 41.1934 358.29 40.3339 358.779 40.5488C359.917 41.1934 372.363 39.1878 376.349 37.6836C379.603 36.5376 379.603 36.4659 377.569 35.8213C376.43 35.4631 374.722 35.3199 373.746 35.4631C371.631 35.8213 371.224 34.8901 373.095 34.2454C373.746 34.0305 374.315 33.6008 374.234 33.3142C373.908 31.7384 374.559 31.6668 377.081 33.0277C379.033 34.1022 380.335 34.3887 381.636 33.9589L383.507 33.3859L381.229 31.81C380.009 30.9505 378.545 30.2342 377.976 30.2342C377.406 30.2342 376.511 29.7328 375.942 29.1598C375.291 28.5151 375.21 28.0853 375.779 28.0853C376.267 28.0853 376.918 28.3718 377.162 28.8016C377.813 29.7328 380.823 29.7328 380.823 28.8016C380.823 28.4435 379.928 27.9421 378.789 27.6555C375.21 26.8676 376.593 26.0081 381.067 26.2946C383.344 26.4378 384.646 26.4378 383.914 26.223C381.799 25.6499 382.124 24.5039 384.402 24.5039C385.947 24.5039 386.273 24.2173 385.947 23.1429C385.622 22.1401 386.029 21.7103 387.493 21.4954C389.282 21.2089 389.282 21.1373 387.737 20.6359C381.717 18.6303 381.717 18.6303 385.215 17.7707C387.9 17.1261 388.225 16.8395 387.167 16.0516C386.435 15.5502 385.215 15.407 384.402 15.6935C383.1 16.1233 383.1 16.0516 384.564 14.2609C385.378 13.2581 386.842 12.2553 387.656 12.0404C388.876 11.7539 389.038 11.4674 388.306 10.6794C387.005 9.31849 387.9 8.74546 391.153 8.74546C392.617 8.74546 393.838 8.45894 393.838 8.1008C393.838 7.81428 396.278 7.31288 399.288 7.09799C402.297 6.81147 405.063 6.23844 405.551 5.80867C406.771 4.73423 388.225 5.73704 383.507 6.95473C379.603 8.02917 378.708 7.16962 382.45 5.95193C383.832 5.59378 384.89 5.02075 384.89 4.73423C384.89 4.30446 382.775 4.44771 373.99 5.52215C371.631 5.80867 371.631 5.80867 373.502 5.16401C374.966 4.73423 372.77 4.51934 366.018 4.6626C353.41 4.87749 355.932 3.80305 369.109 3.37328C374.803 3.15839 379.603 2.87187 379.765 2.72862C379.928 2.58536 377.976 2.22721 375.373 1.9407C372.77 1.65418 370.492 1.15278 370.248 0.86626C369.679 0.0783395 347.309 -0.351435 344.055 0.364856ZM370.248 33.8156C368.621 34.7468 367.564 34.7468 368.214 33.8156C368.458 33.3859 369.353 33.0994 370.085 33.0994C371.305 33.0994 371.305 33.2426 370.248 33.8156Z" fill="url(#paint0_linear_2_113)" fill-opacity="0.1"/>
<path d="M247.013 1.58271C244.816 1.94085 240.993 2.22737 238.553 2.22737C235.055 2.299 234.323 2.51388 234.73 3.37343C235.136 4.44787 232.777 4.44787 226.514 3.3018C225.538 3.15855 224.48 3.3018 224.236 3.73158C223.992 4.08972 222.121 4.44787 220.169 4.44787C217.81 4.44787 216.509 4.80602 216.183 5.52231C215.614 6.95489 217.485 7.59955 220.983 7.09815C222.528 6.88326 223.83 6.95489 223.992 7.31303C224.236 7.9577 237.821 7.16978 241.725 6.31023C242.864 6.09534 243.271 6.02371 242.701 6.31023C242.213 6.52511 241.888 7.02652 242.132 7.31303C242.376 7.67118 240.342 8.17258 237.658 8.4591C233.347 8.88887 232.94 9.03213 234.16 9.89168C236.113 11.181 235.136 11.1094 231.232 9.74842C229.524 9.17539 226.677 8.74562 224.968 8.88887C222.447 9.10376 222.121 9.24702 223.423 9.74842C224.318 10.0349 226.514 10.8945 228.304 11.6824L231.557 13.0434H226.107C223.016 13.0434 220.576 13.3299 220.576 13.6164C220.576 13.9745 221.715 14.1178 223.016 14.0462C224.562 13.9745 225.457 14.2611 225.457 14.8341C225.457 15.4071 226.107 15.9802 226.921 16.1234C227.653 16.3383 226.595 16.3383 224.48 16.1234C222.121 15.9802 220.576 16.1234 220.576 16.6248C220.576 16.983 220.007 17.3411 219.356 17.3411C218.705 17.3411 218.136 17.6276 218.136 17.9858C218.136 18.6304 235.869 19.4184 238.797 18.9169C239.529 18.7737 240.098 18.2723 240.098 17.6993C240.098 16.4816 243.108 14.7625 246.443 14.1178C249.046 13.6164 249.128 13.5448 247.745 12.2554C246.443 10.9661 246.443 10.8945 248.477 10.8945C249.616 10.8945 250.836 10.5363 251.161 10.1066C251.486 9.60516 252.869 9.46191 254.984 9.74842C257.099 10.1066 258.807 9.89168 259.946 9.24702C260.841 8.67399 262.956 8.02933 264.583 7.74281C266.291 7.52792 267.999 6.81163 268.569 6.2386C269.057 5.73719 271.578 5.0209 274.1 4.80602C276.622 4.5195 279.469 4.16135 280.363 3.94647C281.99 3.51669 281.99 3.51669 280.363 3.01529C279.469 2.72877 274.344 2.299 268.975 2.01248C263.607 1.79759 257.425 1.43945 255.147 1.29619C252.951 1.15293 249.29 1.29619 247.013 1.58271Z" fill="url(#paint1_linear_2_113)" fill-opacity="0.1"/>
<path d="M202.518 7.95754C200.728 9.53338 201.948 10.8943 205.283 10.8943C206.91 10.8943 207.398 11.1809 207.073 11.8971C206.341 13.473 213.499 14.1176 217.322 12.8999C217.973 12.6851 219.844 12.1837 221.389 11.7539C223.504 11.2525 223.748 11.0376 222.365 10.966C221.389 10.8943 220.332 10.3929 220.088 9.8199C219.762 9.10361 218.461 8.74546 216.427 8.74546C214.638 8.74546 211.872 8.24406 210.245 7.67102C206.503 6.31007 204.226 6.3817 202.518 7.95754Z" fill="url(#paint2_linear_2_113)" fill-opacity="0.1"/>
<path d="M673.416 7.09798C670.813 7.45613 670.894 8.96034 673.497 9.31848C674.473 9.46174 675.287 9.96315 675.287 10.5362C675.287 11.7539 685.536 12.8999 686.838 11.7539C688.139 10.6078 686.838 9.39011 684.723 9.89152C683.503 10.1064 682.282 9.67663 680.737 8.45893C678.459 6.59658 677.89 6.52495 673.416 7.09798Z" fill="url(#paint3_linear_2_113)" fill-opacity="0.1"/>
<path d="M488.033 9.24696C488.603 9.46185 489.335 9.39022 489.579 9.17533C489.904 8.96044 489.416 8.74556 488.521 8.81719C487.627 8.81719 487.383 9.03207 488.033 9.24696Z" fill="url(#paint4_linear_2_113)" fill-opacity="0.1"/>
<path d="M493.24 9.24682C492.264 9.39008 491.613 9.89148 491.857 10.2496C492.508 11.1092 501.781 11.1092 502.35 10.2496C503.245 9.03193 497.958 8.4589 493.24 9.24682Z" fill="url(#paint5_linear_2_113)" fill-opacity="0.1"/>
<path d="M471.196 10.8945L467.698 11.2526L469.406 12.6852C470.951 13.8313 471.521 13.9029 473.636 13.2583C475.019 12.7568 476.727 12.6136 477.378 12.8285C478.272 13.115 478.516 12.9717 478.11 12.4703C477.052 10.9661 474.856 10.4647 471.196 10.8945Z" fill="url(#paint6_linear_2_113)" fill-opacity="0.1"/>
<path d="M478.435 10.7511C478.435 11.0376 478.842 11.6823 479.33 12.1121C479.981 12.6851 479.737 13.1149 478.516 13.7595C477.54 14.1893 476.971 14.834 477.215 15.2637C477.54 15.6219 477.215 15.9084 476.646 15.9084C476.076 15.98 476.646 16.4814 477.947 17.1261C479.981 18.0573 480.469 18.0573 481.201 17.2694C481.689 16.6963 483.316 15.3354 484.78 14.2609L487.546 12.3269L484.617 11.2525C481.445 10.1064 478.435 9.81993 478.435 10.7511Z" fill="url(#paint7_linear_2_113)" fill-opacity="0.1"/>
<path d="M179.986 12.7568C180.474 13.3298 181.775 13.7596 182.833 13.7596C183.809 13.7596 185.598 14.0461 186.737 14.4759C187.876 14.834 188.852 14.9056 188.852 14.5475C188.852 13.7596 186.981 13.1149 182.507 12.3986C179.66 11.8972 179.253 11.9688 179.986 12.7568Z" fill="url(#paint8_linear_2_113)" fill-opacity="0.1"/>
<path d="M690.986 12.6851C689.684 13.6163 690.091 13.6879 694.809 13.7595C700.259 13.7595 700.666 12.8283 695.46 12.1121C693.589 11.8972 691.962 12.1121 690.986 12.6851Z" fill="url(#paint9_linear_2_113)" fill-opacity="0.1"/>
<path d="M196.824 14.2609C197.393 14.4758 198.125 14.4041 198.369 14.1892C198.694 13.9744 198.206 13.7595 197.312 13.8311C196.417 13.8311 196.173 14.046 196.824 14.2609Z" fill="url(#paint10_linear_2_113)" fill-opacity="0.1"/>
<path d="M493.077 15.1922C493.077 15.5503 493.646 15.9084 494.297 15.9084C494.948 15.9084 495.517 15.5503 495.517 15.1922C495.517 14.7624 494.948 14.4759 494.297 14.4759C493.646 14.4759 493.077 14.7624 493.077 15.1922Z" fill="url(#paint11_linear_2_113)" fill-opacity="0.1"/>
<path d="M157.779 15.6936C158.267 15.8368 159.243 15.8368 159.812 15.6936C160.3 15.4787 159.894 15.3354 158.755 15.3354C157.616 15.3354 157.209 15.4787 157.779 15.6936Z" fill="url(#paint12_linear_2_113)" fill-opacity="0.1"/>
<path d="M694.809 16.4815C694.158 16.768 692.531 17.6276 691.23 18.4155C689.359 19.4899 687.244 19.8481 681.469 19.9913C670.487 20.2778 655.764 22.6416 655.764 24.1458C655.764 25.7933 654.056 26.2947 647.304 26.6528C640.472 27.011 638.438 28.2287 642.261 29.518C644.376 30.1626 645.189 31.6668 643.481 31.6668C643.075 31.6668 640.96 31.3087 638.926 30.8073C636.16 30.2343 634.859 30.2343 633.72 30.8073C632.907 31.3087 631.686 31.452 630.954 31.2371C630.304 31.0222 629.734 31.0222 629.734 31.2371C629.734 31.5236 630.548 32.025 631.605 32.3831C633.069 32.8845 632.825 33.0278 630.06 33.0278C627.782 33.0994 626.48 32.7413 626.155 32.025C625.667 30.8073 624.935 30.664 623.227 31.6668C622.332 32.1683 622.251 32.5264 622.983 33.1711C623.552 33.6725 623.715 34.8902 623.471 36.0362C623.064 37.8986 623.227 38.1135 625.179 38.1135C626.318 38.1135 627.294 38.4 627.294 38.8298C627.294 39.1879 626.724 39.546 626.074 39.546C625.342 39.546 624.935 40.1191 625.098 41.1219C625.342 42.9842 620.786 45.9927 617.695 45.9927H615.58L618.346 43.4856C620.786 41.2651 621.03 40.7637 620.136 39.546C619.648 38.7581 619.16 37.039 619.16 35.7497C619.16 34.4604 618.753 33.0278 618.265 32.598C617.614 32.025 617.614 31.6668 618.265 31.3803C618.753 31.0938 619.16 30.3775 619.16 29.8045C619.16 29.0882 618.183 28.8017 615.58 28.8017C612.571 28.8017 611.513 29.2315 609.317 31.1654C606.307 33.8157 606.145 35.3916 608.829 37.9702C611.595 40.6205 609.561 41.0503 603.298 39.1879C596.871 37.2539 590.689 36.8241 590.689 38.3284C590.689 39.6177 587.029 41.0503 586.053 40.1907C585.565 39.7609 583.206 39.7609 579.627 40.1907C576.536 40.6205 572.631 40.7637 570.923 40.6205C567.913 40.334 561.65 41.9098 557.094 44.0587C553.353 45.7778 548.96 43.9871 552.051 41.9814C553.434 41.0503 553.434 40.9786 552.132 40.5489C550.18 39.9042 548.96 41.1935 548.879 43.9871C548.797 46.1359 548.635 46.3508 546.438 46.1359C543.103 45.8494 539.443 47.3536 538.548 49.4309C537.735 51.2216 537.816 51.2216 531.715 49.8606C530.088 49.5025 530.088 49.5025 531.634 50.6486C532.773 51.4365 533.017 51.9379 532.366 52.5109C530.82 53.8719 525.696 51.3648 524.394 48.5713C523.744 47.2104 522.767 45.9927 522.198 45.7778C521.629 45.6345 521.385 45.2047 521.71 44.9182C522.035 44.6317 524.394 44.7033 526.916 45.2047C532.691 46.2076 536.596 46.2076 538.711 45.2764C541.476 43.9154 540.419 42.6261 535.213 40.9786C530.739 39.6177 526.997 38.8298 515.284 37.039C513.332 36.7525 512.762 36.3227 513.169 35.4632C513.576 34.532 513.169 34.3888 511.135 34.6753C509.671 34.8185 508.451 34.6753 508.288 34.2455C508.044 33.7441 507.556 33.8157 506.661 34.3888C505.929 34.9618 504.953 35.1767 504.465 34.8902C503.977 34.6036 503.001 34.8185 502.35 35.3199C501.293 36.0362 500.967 36.0362 500.398 35.2483C499.829 34.4604 499.259 34.3888 497.795 35.0334C495.843 35.893 491.857 36.6809 488.115 36.8958C485.675 37.039 479.981 39.4744 479.005 40.7637C478.679 41.2651 477.947 41.6949 477.378 41.6949C475.995 41.7666 471.684 45.2047 469.894 47.6401C469.081 48.7146 467.372 50.1472 466.071 50.7202C464.525 51.4365 463.793 52.2244 464.119 52.8691C464.444 53.5854 463.875 53.8719 462.085 53.8719C460.784 53.8719 457.855 54.6598 455.659 55.6626C452.161 57.2384 451.592 57.8115 451.592 59.6022C451.592 60.7483 451.998 61.8943 452.405 62.1092C452.893 62.3241 453.219 63.4702 453.219 64.6162C453.219 67.9828 456.472 68.4126 461.434 65.619C463.305 64.6162 465.095 64.0432 465.42 64.4013C465.746 64.6879 467.291 67.0516 468.755 69.6303C470.219 72.2089 471.44 74.3578 471.521 74.4294C471.602 74.501 473.148 73.928 475.019 73.1401C477.703 71.9224 478.598 71.0629 479.33 68.8423C479.899 67.2665 480.957 65.9056 481.852 65.6907C482.665 65.4042 483.641 64.6879 484.129 63.9716C484.699 62.8971 484.455 62.539 482.909 61.8943C478.761 60.2469 481.201 55.2328 487.302 52.7974C489.173 52.0811 490.637 51.0783 490.637 50.5769C490.637 49.0011 494.053 46.709 496.412 46.709C502.757 46.709 502.757 49.0727 496.412 52.5825C491.613 55.2328 491.531 55.3044 492.02 57.9547C492.589 61.6078 494.297 62.6822 498.364 62.1808C507.556 60.9631 509.915 60.8915 510.566 61.7511C511.705 63.3269 508.532 64.6162 503.57 64.6162C500.805 64.6162 498.608 64.9744 498.283 65.4758C497.958 65.9056 498.12 66.4786 498.608 66.6218C500.073 67.0516 499.829 70.3466 498.283 70.848C497.632 71.0629 496.656 70.9196 496.087 70.4182C493.646 68.2693 491.45 69.9884 491.45 73.9996C491.45 76.5783 487.22 78.9421 484.861 77.6527C483.722 77.0081 482.258 77.1513 478.679 78.2974C474.856 79.4435 473.636 79.5151 472.172 78.8704C471.196 78.4406 469.325 78.2258 468.023 78.4406C464.769 79.0137 461.597 76.2918 462.899 74.0713C463.387 73.2117 463.793 71.9224 463.793 71.1345C463.793 69.8452 463.549 69.7735 461.841 70.4898C459.319 71.421 458.669 72.8536 459.807 74.7159C460.214 75.5039 460.54 77.0081 460.377 78.0825C460.133 79.8016 459.726 80.0165 456.879 80.2314C454.357 80.4463 453.056 81.0909 450.778 83.1682C449.233 84.6724 447.037 86.1766 445.898 86.4631C444.84 86.7496 442.888 87.9673 441.749 89.0418C440.366 90.3311 438.739 91.119 437.438 91.119C436.218 91.119 435.079 91.6204 434.835 92.1934C434.51 92.9097 433.208 93.2679 431.175 93.2679C427.677 93.2679 426.945 94.4139 430.036 95.1302C431.093 95.3451 432.964 96.6344 434.103 97.9954C435.892 100.001 436.136 100.861 435.648 103.081C434.754 107.594 434.347 107.809 425.562 107.307C421.332 107.021 417.509 107.092 417.021 107.379C416.614 107.665 416.126 109.957 416.126 112.393C416.045 114.9 415.882 117.335 415.882 117.765C415.801 118.266 416.045 119.771 416.289 120.988C416.695 122.994 417.183 123.352 419.136 123.352C420.519 123.352 421.82 123.925 422.552 124.785C423.61 126.146 423.854 126.146 426.05 125.143C427.351 124.57 429.304 124.068 430.442 124.068C433.045 124.068 436.95 120.917 436.95 118.839C436.95 116.476 439.553 113.396 442.725 112.035C444.271 111.39 445.491 110.316 445.572 109.743C445.735 107.307 445.979 106.949 447.443 106.519C448.257 106.304 449.884 106.448 451.104 106.877C452.893 107.45 453.869 107.236 456.472 105.803C458.262 104.8 460.214 104.012 460.784 104.012C461.434 104.012 463.468 105.66 465.42 107.665C467.372 109.671 470.057 111.748 471.44 112.25C472.822 112.751 475.263 114.327 476.89 115.759C478.923 117.479 479.737 117.837 479.493 116.977C479.249 116.189 479.493 115.401 479.981 115.186C481.038 114.542 481.201 113.324 480.143 113.324C478.679 113.324 472.741 109.456 472.253 108.167C472.009 107.45 471.114 106.519 470.219 106.161C468.267 105.23 468.105 101.505 469.975 100.861C471.358 100.359 473.148 101.29 476.564 104.299C477.784 105.445 480.713 107.379 482.909 108.596C486.163 110.387 487.058 111.247 487.22 113.038C487.546 115.831 491.125 119.484 494.134 120.057C496.168 120.487 496.331 120.415 495.599 119.126C493.24 115.401 496.737 112.751 502.838 113.682C506.987 114.327 508.939 113.181 507.637 111.032C506.499 109.241 508.695 105.087 512.843 100.789L515.609 97.9954L518.863 98.9266C520.652 99.428 522.117 100.216 522.117 100.717C522.035 103.654 522.361 104.084 524.069 103.224C525.208 102.723 525.614 102.007 525.37 101.075C524.882 99.3563 527.241 97.8521 531.553 97.2075C534.969 96.6344 535.294 97.1358 533.261 100.646C532.529 101.863 532.203 102.938 532.61 103.081C533.017 103.224 535.457 104.585 538.06 106.233C543.429 109.599 544.242 111.891 540.5 113.252C537.653 114.255 530.739 113.754 527.567 112.25C524.557 110.889 520.652 110.889 518.619 112.25C517.805 112.823 516.179 113.324 514.958 113.324C513.82 113.324 512.518 113.682 512.03 114.112C511.542 114.542 509.752 114.971 508.044 114.971C505.035 115.115 504.872 115.258 505.116 117.264C505.523 121.203 506.987 123.352 510.078 124.498C512.355 125.358 513.332 125.358 514.714 124.713C516.097 124.068 516.911 124.14 518.538 125.143C520.327 126.146 520.896 126.217 522.93 125.286C524.15 124.785 525.858 124.427 526.753 124.641C528.055 124.856 528.217 125.429 527.892 128.939C527.729 131.231 526.753 134.598 525.777 136.532L523.988 140.042L519.351 139.612C516.667 139.397 514.064 139.54 513.169 139.97C510.729 141.116 502.92 139.54 496.087 136.532C494.785 135.959 493.077 135.529 492.264 135.529C490.474 135.529 487.952 137.535 488.684 138.466C488.928 138.824 488.847 139.827 488.603 140.615C488.196 141.761 487.546 142.047 485.919 141.761C481.77 141.044 477.378 139.254 476.076 137.75C475.263 136.818 473.473 136.03 471.521 135.744C468.593 135.386 462.98 133.022 462.98 132.234C462.98 132.019 463.549 131.088 464.281 130.085C465.339 128.724 465.42 128.08 464.688 127.435C464.2 127.005 463.793 126.074 463.793 125.429C463.793 124.355 462.98 124.212 457.123 124.498C445.247 125.071 442.156 125.573 438.17 127.363C433.94 129.226 426.619 129.727 424.992 128.295C424.26 127.65 423.691 128.08 422.633 129.942C421.901 131.303 420.274 133.022 418.973 133.667C416.126 135.099 414.174 138.251 414.174 141.116C414.174 143.766 411.408 146.846 407.91 148.136C406.446 148.709 405.226 149.568 405.226 150.141C405.226 150.643 404.494 151.646 403.599 152.362C402.704 153.078 401.972 154.009 401.972 154.367C401.972 154.797 400.671 157.376 399.044 160.098C396.604 164.252 396.278 165.327 396.929 166.974C398.556 170.699 398.718 174.925 397.498 179.223C396.197 183.664 396.522 189.036 398.23 190.325C400.589 192.188 405.063 197.703 405.551 199.422C405.795 200.497 406.609 201.786 407.341 202.287C408.073 202.789 410.351 204.508 412.384 206.155C417.916 210.381 418.973 210.811 421.657 209.594C423.122 208.949 425.887 208.591 429.466 208.734C433.778 208.806 435.73 208.519 438.902 207.158C441.098 206.227 444.352 205.439 446.223 205.439C449.151 205.367 449.721 205.654 451.51 208.089C453.463 210.74 453.788 210.811 456.798 210.453C462.573 209.594 464.363 213.462 462.085 222.2C461.19 225.638 461.597 228.002 463.224 229.506C467.535 233.374 471.033 240.466 472.334 247.987C473.148 252.714 472.985 254.863 471.521 256.797C470.219 258.659 467.86 265.751 467.86 268.115C467.86 268.902 469.325 272.341 471.196 275.779C473.636 280.363 474.775 283.801 475.669 288.815C476.402 293.185 477.378 296.336 478.435 297.554C481.038 300.634 484.129 307.439 484.129 309.946C484.129 311.307 484.78 312.739 485.756 313.527C487.139 314.602 487.79 314.673 490.962 313.957C492.996 313.527 495.843 313.169 497.307 313.169C504.221 313.169 510.891 309.158 515.121 302.425C516.179 300.849 517.236 299.56 517.561 299.56C518.456 299.56 519.92 295.334 519.92 292.683C519.92 290.606 520.327 290.105 523.011 289.03C526.591 287.526 527.16 285.52 525.533 279.718L524.557 275.994L527.729 272.842C529.438 271.123 532.203 268.974 533.83 268.115C538.873 265.536 539.768 263.745 539.117 256.869C538.792 253.574 537.979 249.992 537.409 248.918C536.758 247.772 536.189 245.695 536.189 244.19C536.189 242.686 535.782 240.824 535.376 240.108C534.318 238.317 537.247 231.297 540.338 228.074C541.639 226.785 542.697 225.424 542.697 225.065C542.697 224.636 545.95 221.484 549.936 217.974C556.118 212.53 557.664 210.668 560.918 204.651C564.659 197.703 566.774 190.612 564.741 191.686C563.521 192.403 551.238 194.981 549.285 194.981C547.333 194.981 544.974 191.83 545.706 190.325C546.032 189.466 544.73 187.962 541.314 185.096C537.897 182.231 536.108 180.154 535.538 178.22C535.05 176.716 533.911 174.782 533.017 173.922C532.122 173.063 531.064 170.484 530.576 168.192C530.007 165.613 529.031 163.393 528.055 162.605C527.16 161.889 526.428 160.671 526.428 159.955C526.428 159.238 525.37 156.588 524.069 154.081C522.767 151.574 521.385 148.709 521.059 147.706C520.571 146.059 520.652 145.987 521.873 146.918C523.093 147.849 523.418 147.849 523.988 146.99C524.882 145.7 527.079 147.921 530.251 153.436C531.471 155.585 533.179 157.949 533.911 158.594C534.725 159.31 535.538 160.671 535.782 161.674C536.026 162.676 536.352 164.252 536.596 165.255C536.84 166.186 537.735 167.547 538.548 168.264C541.476 170.627 545.3 178.005 546.032 182.804C546.438 185.311 547.089 187.675 547.496 188.033C547.903 188.391 549.448 188.176 550.912 187.603C552.458 187.03 554.979 186.171 556.525 185.669C558.071 185.096 559.941 184.308 560.592 183.879C561.243 183.377 563.195 182.589 564.822 182.16C566.449 181.658 568.076 180.727 568.32 180.011C568.808 178.65 571.98 177.074 574.095 177.074C574.746 177.074 575.478 176.573 575.722 175.999C576.047 175.426 576.617 174.925 577.105 174.925C578.081 174.925 582.555 170.699 582.555 169.768C582.555 169.41 583.531 167.977 584.67 166.616C586.541 164.467 586.703 163.894 585.89 162.318C585.402 161.316 583.938 160.169 582.555 159.811C581.253 159.382 579.789 158.164 579.138 157.018L578.162 155.012L575.478 157.089C571.167 160.384 565.229 159.668 566.774 156.015C567.018 155.442 566.856 154.797 566.368 154.511C565.798 154.224 565.473 154.726 565.473 155.728L565.391 157.376L564.253 155.585C563.602 154.582 563.114 153.293 563.032 152.648C563.032 152.004 562.463 151.073 561.731 150.5C561.08 149.998 559.779 148.351 558.884 146.775C556.932 143.48 557.745 141.976 561.487 141.976C563.358 141.976 564.09 142.477 565.391 144.698C566.286 146.202 568.482 148.351 570.272 149.425C573.119 151.144 574.095 151.359 577.105 151.001C580.277 150.571 580.765 150.714 581.497 152.219C582.636 154.367 586.866 155.084 597.359 154.797C604.274 154.582 604.68 154.654 605.982 156.373C607.853 158.808 610.456 160.957 612.164 161.53C613.303 161.96 613.465 162.247 612.733 163.035C612.001 163.751 612.164 164.396 613.384 165.685C614.848 167.332 614.93 167.332 617.126 166.043C619.973 164.396 620.786 165.327 620.786 170.269C620.786 175.14 622.332 179.796 629.734 197.631C631.036 200.712 632.5 200.64 634.859 197.273C637.055 194.193 638.031 190.54 638.194 184.953C638.275 181.443 638.519 180.942 640.716 179.653C642.098 178.865 645.027 176.358 647.223 174.065C649.501 171.773 651.941 169.696 652.673 169.481C653.487 169.266 654.381 168.335 654.625 167.332C655.276 165.183 657.798 163.823 660.726 164.109C661.946 164.181 663.41 163.751 664.143 163.178C666.095 161.387 666.99 161.817 668.616 165.183C669.511 166.903 670.65 168.55 671.138 168.765C673.009 169.768 675.287 175.498 674.799 177.719C674.148 180.369 675.612 180.655 678.784 178.507C681.306 176.716 681.631 177.074 683.665 183.879C684.641 187.174 685.048 190.755 684.885 194.265C684.722 199.136 684.885 199.924 686.919 202.574C688.139 204.221 689.44 206.8 689.684 208.304C690.335 212.101 692.775 216.183 695.216 217.616C697.819 219.12 698.632 218.476 697.412 216.112C696.843 215.109 696.436 213.175 696.436 211.886C696.436 209.952 695.623 208.734 692.369 205.797C690.172 203.792 688.302 201.643 688.302 201.07C688.302 200.568 687.732 199.565 686.919 198.921C685.699 197.846 685.699 197.202 686.675 192.976C687.244 190.325 687.895 187.747 688.139 187.245C688.627 186.028 690.742 186.171 690.742 187.46C690.742 188.033 691.149 188.535 691.718 188.535C693.345 188.535 700.503 195.626 700.503 197.13C700.503 199.207 701.805 198.921 703.92 196.414C704.896 195.196 706.116 194.265 706.604 194.265C707.092 194.265 708.393 193.477 709.451 192.474C712.135 189.967 711.484 183.95 708.149 180.297C701.154 172.49 700.828 171.272 704.977 167.547C707.824 164.969 711.24 164.037 712.217 165.542C712.705 166.186 720.351 163.966 722.059 162.748C722.547 162.39 724.255 161.96 725.964 161.674C729.217 161.101 735.806 155.943 736.782 153.15C737.108 152.29 738.328 150.5 739.548 149.139C742.395 145.844 743.046 143.623 741.338 142.764C740.28 142.191 740.199 141.904 741.094 140.973C741.907 140.113 741.988 139.612 741.256 138.824C740.768 138.251 740.361 137.535 740.443 137.248C740.524 136.89 740.199 135.672 739.711 134.598C739.141 133.452 738.735 132.234 738.735 131.876C738.735 131.518 738.328 131.231 737.921 131.231C737.433 131.231 736.864 130.73 736.538 130.085C735.969 128.796 740.768 124.068 742.72 123.997C743.453 123.997 742.964 123.639 741.744 123.209C740.036 122.707 739.141 122.707 738.165 123.424C737.108 124.283 736.701 124.14 735.644 122.779C734.993 121.92 733.935 121.203 733.366 121.203C731.739 121.203 731.983 118.41 733.691 117.837C734.423 117.622 736.457 116.404 738.165 115.258C741.744 112.823 744.103 113.038 743.29 115.831C742.72 117.837 742.802 117.908 745.567 116.834C746.625 116.404 748.577 116.189 749.716 116.476C751.587 116.905 751.912 117.264 751.506 118.911C751.18 120.487 751.424 121.06 752.807 121.561C754.353 122.134 754.597 122.922 754.678 126.217C754.841 130.443 754.922 130.515 759.315 128.939C760.86 128.438 761.511 127.65 761.511 126.432C761.511 124.57 758.826 119.412 757.444 118.696C755.979 117.908 756.63 116.547 759.07 115.258C760.372 114.542 761.673 113.252 761.999 112.321C762.65 109.886 766.879 107.379 769.32 107.88C772.085 108.525 775.177 106.877 779.244 102.58C786.89 94.7005 788.68 92.2651 789.33 88.612C789.737 86.6064 790.225 84.0277 790.469 82.8817C790.876 81.0193 790.55 80.5179 788.842 79.6583C787.215 78.9421 786.321 78.8704 784.694 79.5151C782.416 80.4463 780.545 80.0165 779.894 78.5123C779.65 77.9392 778.918 77.5095 778.186 77.5095C775.421 77.5095 777.454 75.4322 785.67 69.9884L794.292 64.3297L804.135 63.8283C809.585 63.6134 815.035 63.6851 816.418 64.0432C820.729 65.046 822.112 64.6879 826.26 61.3929C830.165 58.2412 833.419 57.0952 837.242 57.5966C838.299 57.7398 839.113 58.2412 838.95 58.7426C838.625 60.1752 841.309 59.7455 844.156 57.8115C847.247 55.7342 849.769 55.3761 849.036 57.1668C848.792 57.8115 848.548 58.5994 848.548 58.8859C848.548 59.4589 841.553 63.8283 834.313 67.8395C827.887 71.421 827.074 73.2117 828.782 80.1597C829.514 83.2398 830.246 85.8901 830.409 86.0333C830.816 86.5347 833.907 83.8128 833.907 82.8817C833.907 82.4519 834.72 81.3774 835.777 80.5179C836.754 79.73 838.055 78.5123 838.625 77.9392C839.194 77.2946 840.414 76.7932 841.309 76.7932C842.529 76.7932 842.854 76.435 842.529 75.7187C842.285 75.0741 842.773 73.9996 843.586 73.2834C845.295 71.7791 845.376 70.3466 843.749 68.6275C842.854 67.6963 843.098 67.1233 844.969 65.046C847.084 62.7539 847.735 62.539 853.917 61.7511C857.578 61.2497 861.401 61.1064 862.295 61.3929C863.434 61.6794 865.631 61.1064 868.64 59.7455C874.66 57.0235 881.818 55.1612 884.177 55.7342C885.153 56.0207 885.966 56.0207 885.966 55.8059C885.966 54.803 884.014 51.723 883.363 51.723C881.574 51.723 883.038 50.2904 885.397 49.7174L888 49.1443V44.1303V39.1879L884.746 38.2567C882.957 37.6837 877.913 37.1107 873.602 36.8958C865.875 36.466 865.631 36.5376 865.631 38.0418C865.631 39.8326 863.109 40.0475 859.855 38.5432C858.472 37.8986 854.649 37.6121 848.223 37.6121C838.625 37.6121 837.892 37.3972 836.916 34.8902C836.754 34.4604 832.117 34.0306 826.504 33.8157C818.451 33.4576 815.686 33.0994 812.757 31.8101C810.236 30.8073 806.412 30.091 800.556 29.6612C791.283 28.9449 790.225 29.0166 788.354 31.0938C786.971 32.598 784.856 32.8129 775.583 32.3831C770.703 32.1683 769.401 32.3831 767.937 33.5292C766.31 34.8185 766.229 34.8185 763.3 33.3859C760.86 32.2399 760.372 31.6668 760.535 30.0194C760.779 27.9421 760.453 27.7989 753.132 27.0826C750.285 26.7961 748.659 27.011 747.194 27.8705C745.405 28.8733 744.429 28.9449 738.897 28.157C735.481 27.6556 729.868 27.1542 726.533 27.0826C723.198 26.9393 719.375 26.6528 717.992 26.3663C716.609 26.1514 713.599 26.3663 711.24 26.8677C706.279 28.0138 704.814 27.3691 709.288 26.0081C710.915 25.5067 714.25 24.4323 716.609 23.5728C723.849 21.0657 721.49 18.7736 711.647 18.7736C705.628 18.7736 700.503 17.7708 700.503 16.5531C700.503 15.8368 696.599 15.7652 694.809 16.4815ZM632.175 39.546C632.175 39.9042 632.012 40.2623 631.849 40.2623C631.605 40.2623 631.198 39.9042 630.954 39.546C630.71 39.1163 630.873 38.8298 631.28 38.8298C631.768 38.8298 632.175 39.1163 632.175 39.546Z" fill="url(#paint13_linear_2_113)" fill-opacity="0.1"/>
<path d="M138.012 18.0572L134.758 19.4897L138.012 19.1316C139.802 18.9167 142.323 18.6302 143.625 18.5586C144.926 18.4869 146.147 18.0572 146.309 17.699C146.797 16.4097 141.347 16.6246 138.012 18.0572Z" fill="url(#paint14_linear_2_113)" fill-opacity="0.1"/>
<path d="M199.671 18.5586C200.403 18.7018 201.704 18.7018 202.518 18.5586C203.25 18.3437 202.599 18.2004 201.053 18.2004C199.508 18.2004 198.857 18.3437 199.671 18.5586Z" fill="url(#paint15_linear_2_113)" fill-opacity="0.1"/>
<path d="M602.646 18.7735C598.254 19.4898 598.01 20.2061 602.158 20.2061C604.192 20.2061 606.551 19.7047 607.446 19.1316C608.991 18.1288 608.991 18.1288 607.364 18.1288C606.47 18.2004 604.355 18.487 602.646 18.7735Z" fill="url(#paint16_linear_2_113)" fill-opacity="0.1"/>
<path d="M165.181 20.1346C165.669 20.8509 165.75 21.7105 165.425 21.9253C165.181 22.2119 166.645 22.3551 168.841 22.2119C171.2 22.0686 172.99 21.6388 173.234 21.0658C173.478 20.4211 172.99 20.2779 171.444 20.636C170.062 20.9225 168.597 20.636 167.296 19.9197C164.693 18.4155 164.205 18.4872 165.181 20.1346Z" fill="url(#paint17_linear_2_113)" fill-opacity="0.1"/>
<path d="M188.852 20.7077C188.852 22.1402 189.259 22.4268 190.723 22.2119C191.862 22.0686 192.512 21.4956 192.512 20.636C192.512 19.7049 191.862 19.2034 190.723 19.1318C189.259 19.0602 188.852 19.4183 188.852 20.7077Z" fill="url(#paint18_linear_2_113)" fill-opacity="0.1"/>
<path d="M206.748 19.3465C206.748 19.7047 206.992 20.2061 207.398 20.4926C207.724 20.7791 207.968 21.4238 207.968 21.8536C207.968 23.1429 211.628 23.5727 223.992 23.6443C232.778 23.6443 236.194 23.4294 236.845 22.7131C238.146 21.3522 233.754 20.8508 224.887 21.3522C217.404 21.8536 210.815 20.9224 210.815 19.3465C210.815 19.06 209.92 18.7735 208.781 18.7735C207.642 18.7735 206.748 19.06 206.748 19.3465Z" fill="url(#paint19_linear_2_113)" fill-opacity="0.1"/>
<path d="M150.295 20.6359C149.563 22.2833 149.644 22.4266 151.678 22.2833C152.654 22.2117 154.362 22.2117 155.501 22.2833C157.128 22.355 157.291 22.4982 156.314 23.0713C154.281 24.2173 158.917 23.9308 162.09 22.7131C164.774 21.7103 164.774 21.7103 162.659 21.6387C161.439 21.6387 159.65 21.3522 158.592 20.994C154.2 19.5614 150.864 19.4182 150.295 20.6359Z" fill="url(#paint20_linear_2_113)" fill-opacity="0.1"/>
<path d="M587.028 20.7075C583.205 21.1373 577.837 23.1429 577.349 24.2174C577.105 24.7904 576.454 25.2202 575.884 25.2202C575.315 25.2202 573.444 26.5811 571.817 28.2286C569.052 30.9505 568.889 31.3087 570.272 31.5235C571.166 31.6668 572.305 32.2398 572.793 32.8129C573.363 33.3859 574.908 33.8157 576.21 33.8157C578.487 33.8157 578.487 33.744 577.349 32.3115C574.827 29.0882 579.952 25.2202 590.77 21.9969C596.79 20.2778 596.79 20.2778 593.129 20.3494C591.096 20.421 588.411 20.5643 587.028 20.7075Z" fill="url(#paint21_linear_2_113)" fill-opacity="0.1"/>
<path d="M782.172 20.9943C781.114 22.5701 783.961 23.0715 791.607 22.6418C798.847 22.3552 800.474 22.0687 799.66 21.3524C798.766 20.5645 782.741 20.278 782.172 20.9943Z" fill="url(#paint22_linear_2_113)" fill-opacity="0.1"/>
<path d="M199.427 22.355C199.427 22.7131 200.403 23.0713 201.542 23.0713C202.68 23.0713 203.412 22.7848 203.087 22.355C202.843 21.9252 201.867 21.6387 200.972 21.6387C200.159 21.6387 199.427 21.9252 199.427 22.355Z" fill="url(#paint23_linear_2_113)" fill-opacity="0.1"/>
<path d="M127.519 27.3691C126.299 29.0166 125.404 30.4492 125.567 30.5208C125.729 30.5924 126.949 31.0938 128.332 31.5952C130.935 32.4548 136.792 32.025 136.792 30.9506C136.792 30.3059 144.357 27.3691 146.065 27.3691C146.797 27.3691 147.367 27.0826 147.367 26.7245C147.367 25.7933 144.926 25.1486 141.998 25.2919C140.697 25.2919 137.443 25.1486 134.758 24.8621L129.796 24.3607L127.519 27.3691Z" fill="url(#paint24_linear_2_113)" fill-opacity="0.1"/>
<path d="M200.81 26.2229C199.833 26.9392 199.589 27.7271 199.915 29.303C200.24 30.7355 199.996 31.81 199.101 32.5979C198.369 33.1709 197.8 34.2454 197.8 34.89C197.8 36.0361 198.207 36.251 202.111 36.9673C205.202 37.6119 205.121 40.0473 201.786 41.265C200.403 41.7664 199.345 42.4827 199.427 42.8409C199.671 44.2018 197.637 43.9153 197.23 42.4827C196.986 41.6232 196.498 40.9785 196.092 40.9785C195.685 40.9785 195.36 40.6204 195.36 40.2622C195.36 39.8324 195.929 39.5459 196.58 39.5459C198.532 39.5459 197.963 38.185 195.848 37.6836C193.326 37.1822 191.699 37.8984 192.838 39.0445C193.326 39.6175 193.245 40.3338 192.513 41.265C191.455 42.4827 190.56 42.5543 184.378 42.2678C180.555 42.0529 176.651 41.4083 175.593 40.8352C173.478 39.6175 167.703 39.1161 167.703 40.1189C167.703 40.5487 168.435 40.692 169.33 40.4771C170.224 40.2622 170.956 40.4771 170.956 40.9069C170.956 41.3366 170.631 41.6948 170.143 41.6948C169.736 41.6948 169.33 42.5543 169.33 43.6288C169.248 45.3479 169.167 45.4911 168.272 44.4883C166.401 42.3395 164.205 41.838 158.267 42.1962C154.769 42.4827 151.922 42.2678 150.946 41.838C150.133 41.4083 149.888 40.9785 150.458 40.9785C152.736 40.9785 151.19 39.5459 148.831 39.5459C147.367 39.5459 142.893 38.9013 138.907 38.1133C134.352 37.2538 131.261 36.9673 130.366 37.3254C128.495 38.2566 122.557 37.8268 121.012 36.7524C120.198 36.1793 118.978 35.9645 117.92 36.251C112.877 37.6119 110.844 37.8984 110.111 37.2538C109.705 36.8956 108.485 36.9673 107.102 37.397C105.8 37.8268 103.929 38.0417 102.953 37.8268C101.896 37.5403 100.757 37.8268 100.188 38.4715C99.0488 39.6892 96.3644 39.8324 93.3547 38.8296C90.345 37.8268 81.9666 36.6091 76.1912 36.3226C68.1382 35.8928 52.927 34.5319 49.6732 33.8872C47.5583 33.4574 44.9553 33.6723 40.7254 34.6035C37.3903 35.3198 34.2179 35.9645 33.5672 35.9645C32.9164 35.9645 31.5336 36.6808 30.4761 37.5403C29.5 38.3282 27.2224 39.2594 25.5955 39.5459L22.5045 39.9757L25.4328 41.1218C27.0597 41.7664 28.6866 42.626 28.9306 43.0557C29.256 43.4855 30.4761 43.8437 31.6963 43.8437C32.9164 43.9153 34.7873 44.3451 35.8448 44.8465C37.797 45.7776 37.797 45.7776 34.7873 46.2791C33.1605 46.5656 30.2321 46.5656 28.3612 46.3507C26.4903 46.0642 23.8873 46.2074 22.6671 46.6372L20.3895 47.4251L22.0164 48.9293C23.4806 50.3619 24.2127 50.4335 29.8254 50.0754L36.0075 49.6456L35.7635 51.5796C35.5194 53.2987 35.0314 53.5852 31.2896 54.2299C28.9306 54.6597 26.2463 55.6625 25.2701 56.4504L23.5619 58.0262L25.4328 60.2467C27.2224 62.3956 28.1985 62.7537 31.2082 62.5389C31.9403 62.4672 32.9978 63.0403 33.6485 63.8282C34.462 64.831 36.0075 65.3324 39.5053 65.6189C42.1083 65.7622 44.4672 66.1203 44.7113 66.3352C45.606 67.1948 43.1657 70.418 40.6441 71.779C35.3567 74.6442 39.912 73.14 46.4195 69.9167C50.4053 67.911 53.0083 66.1203 53.0083 65.404C53.0083 64.7594 54.4725 63.2551 56.1807 61.9658C59.5158 59.5304 63.583 58.1695 63.583 59.5304C63.583 59.9602 63.0949 60.3184 62.4441 60.3184C60.7359 60.3184 59.3531 62.0375 60.4106 62.9686C61.468 63.8998 66.8367 62.4672 66.8367 61.2495C66.8367 60.0318 70.4972 60.1035 75.4591 61.3212C77.6554 61.8942 81.5599 62.5389 84.0815 62.6821C86.6032 62.8254 89.2062 63.2551 89.7756 63.6133C94.2495 66.4068 98.2353 67.2664 99.4555 65.7622C100.269 64.831 105.231 69.6301 104.743 70.7762C104.499 71.3492 104.824 71.779 105.394 71.779C106.858 71.779 112.145 76.4349 112.877 78.3689C113.121 79.1568 114.585 80.8043 116.131 81.9503C117.676 83.168 118.897 84.529 118.897 85.102C118.897 85.675 119.466 86.3197 120.117 86.5346C121.988 87.1793 121.581 88.3969 119.71 87.8955C117.026 87.1793 117.839 87.8955 122.557 90.6891C127.682 93.6975 131.423 94.3422 127.438 91.5486C126.136 90.6175 125.241 89.6146 125.485 89.3998C126.217 88.7551 131.749 92.4798 132.318 94.0556C132.888 95.6315 131.912 97.1357 131.342 95.5599C131.098 95.1301 130.122 94.7003 129.065 94.7003C127.275 94.7003 127.194 94.8436 128.007 96.9208C128.495 98.2818 128.658 100.86 128.251 103.511C127.112 112.249 128.576 119.77 131.586 120.773C132.237 120.988 132.725 121.776 132.725 122.492C132.725 123.28 133.62 125.071 134.759 126.504C135.897 127.936 136.792 129.369 136.792 129.655C136.874 129.942 138.582 130.873 140.697 131.733C144.113 133.165 144.764 133.81 146.797 137.893C148.099 140.471 149.97 143.265 151.109 144.196C152.329 145.199 153.061 146.631 153.061 147.992C153.061 149.711 153.63 150.499 155.501 151.431C157.128 152.29 157.941 153.221 157.941 154.367C157.941 155.37 158.592 156.588 159.324 157.089C160.544 158.02 160.626 157.877 160.138 155.657C159.568 153.15 155.989 147.634 152.491 143.91C149.888 141.044 149.97 138.394 152.654 138.394C154.362 138.394 155.094 139.039 156.64 142.119C157.779 144.196 160.138 147.348 161.927 149.067C163.798 150.858 165.262 152.648 165.262 153.15C165.262 153.651 165.75 154.367 166.401 154.654C167.052 154.94 169.086 156.946 171.038 159.023C173.722 162.032 174.536 163.608 174.861 166.329C175.349 170.77 176.895 172.06 188.12 177.002C195.36 180.225 197.068 180.655 198.451 180.011C201.298 178.65 203.006 179.151 206.26 182.016C209.107 184.595 215.126 187.102 218.461 187.102C219.112 187.102 219.844 187.675 220.169 188.463C220.413 189.179 221.308 190.325 222.203 191.041C223.098 191.758 223.83 192.832 223.83 193.405C223.83 194.551 230.256 199.923 231.639 199.995C232.127 199.995 233.51 200.64 234.648 201.428L236.763 202.86L237.007 201.356C237.333 199.136 239.692 197.989 241.563 199.064C242.295 199.494 242.864 200.282 242.701 200.711C242.62 201.213 243.027 202.287 243.678 203.218C246.118 206.513 245.223 216.47 242.539 216.47C242.051 216.47 241.725 216.971 241.725 217.544C241.725 218.117 241.075 219.192 240.343 219.908C237.414 222.487 235.462 229.363 237.658 229.363C238.96 229.363 238.634 230.796 236.845 232.73C235.055 234.735 235.299 237.314 237.577 239.749C238.39 240.537 239.61 242.328 240.343 243.689C243.84 250.135 247.175 257.227 247.745 259.089C248.558 261.954 249.372 262.742 254.578 265.607C256.937 266.968 259.865 268.974 260.922 270.048C262.956 271.982 262.956 272.054 262.468 282.369C262.224 288.099 261.655 294.044 261.248 295.62C260.841 297.196 260.272 301.565 259.946 305.29C259.54 309.874 258.645 313.957 257.099 317.825C255.879 320.977 254.822 324.701 254.822 326.062C254.903 327.423 254.659 329.644 254.334 330.861C253.846 332.724 254.008 333.225 254.984 333.225C257.099 333.225 257.181 334.3 255.635 339.743C254.496 343.826 253.764 345.044 252.707 345.044C251.893 345.044 251.08 345.474 250.917 345.904C250.673 346.405 250.917 346.835 251.405 346.835C252.788 346.835 252.463 351.849 251.08 352.279C250.429 352.565 249.86 353.353 249.86 354.141C249.86 355.215 250.266 355.43 251.405 355.072C252.625 354.714 252.951 355 252.869 356.003C252.788 357.579 254.659 363.309 255.716 364.384C256.123 364.742 256.367 364.456 256.367 363.739C256.367 362.665 256.774 362.522 258.97 362.88C262.224 363.453 265.315 361.805 264.746 359.8C264.502 358.868 265.071 357.722 266.454 356.505C267.593 355.502 268.569 354.427 268.569 354.069C268.569 353.783 269.708 352.637 271.009 351.562C273.449 349.7 273.612 348.267 271.416 348.267C270.765 348.267 269.789 347.551 269.301 346.692C268.406 345.259 268.65 344.901 271.497 342.824C274.425 340.675 274.588 340.245 274.914 335.804L275.239 331.076L278.411 331.506L281.502 331.936L282.072 328.999C282.56 326.206 282.723 326.062 285.407 326.062C290.776 326.062 297.608 321.979 295.412 320.045C294.924 319.616 294.599 318.828 294.599 318.255C294.599 317.682 294.029 316.607 293.216 315.891C291.426 314.1 292.321 313.527 295.493 314.53C299.967 315.891 301.594 315.533 304.197 312.596C305.58 311.092 306.963 309.015 307.207 308.012C307.532 306.937 309.485 304.502 311.681 302.425C315.097 299.201 315.585 298.342 315.911 294.832C316.155 292.038 316.805 290.463 318.188 289.173C320.629 286.881 326.241 284.088 329.739 283.443C333.318 282.727 334.132 282.082 336.165 278.142C338.524 273.701 339.419 270.263 340.07 263.387C340.558 257.871 340.72 257.442 344.788 252.571C349.912 246.482 350.97 244.119 350.319 240.824C349.668 237.887 348.611 236.526 346.821 236.526C346.17 236.526 344.056 235.308 342.185 233.804C339.338 231.44 338.117 230.939 333.888 230.509C331.203 230.223 328.438 230.223 327.706 230.509C326.648 230.796 326.323 230.581 326.323 229.435C326.323 227.859 323.882 226.14 320.629 225.423C319.083 225.137 318.107 225.423 317.049 226.426C316.155 227.286 315.097 227.93 314.691 227.93C314.202 227.93 314.447 227.357 315.179 226.641C317.538 224.349 316.887 223.418 313.308 223.848C309.81 224.277 309.403 223.776 311.193 221.269C312.25 219.908 312.25 219.263 310.949 215.897C308.671 210.023 304.767 207.158 299.073 207.158C295.737 207.158 291.752 205.009 290.938 202.932C290.694 202.216 289.393 201.213 288.173 200.711C286.871 200.282 285.651 199.35 285.407 198.706C285.244 198.061 283.699 196.843 282.072 196.127C279.631 194.981 278.737 194.838 277.517 195.554C276.378 196.127 275.32 196.199 273.856 195.697C272.636 195.268 270.846 194.981 269.789 194.981C268.731 194.981 267.511 194.48 267.105 193.835C266.291 192.474 262.631 192.259 261.004 193.477C260.353 193.907 260.028 195.124 260.272 196.485C260.597 198.204 260.353 198.634 259.54 198.419C258.889 198.204 258.319 197.13 258.319 195.984C258.075 191.113 258.401 191.328 253.927 192.975C251.487 193.907 249.86 194.909 249.86 195.626C249.86 196.27 248.884 197.703 247.826 198.777L245.793 200.783L243.352 199.207C241.156 197.703 240.668 197.703 237.74 198.563C233.672 199.709 232.534 199.35 229.931 195.841C227.978 193.262 227.897 192.761 228.629 188.463C229.687 181.658 228.792 180.655 221.308 180.655C216.102 180.655 215.614 180.512 216.102 179.366C216.428 178.721 216.997 176.716 217.322 174.925C217.648 173.134 218.461 170.484 219.193 168.98C220.739 165.756 220.007 165.183 215.614 166.115C213.499 166.616 212.767 167.261 212.198 169.266C211.14 172.704 210.489 173.277 206.016 173.779C200.24 174.424 198.125 173.349 195.278 168.049C192.919 163.751 192.838 163.393 193.651 158.307C194.139 155.37 194.302 152.362 194.058 151.645C193.326 148.852 196.336 145.843 202.355 143.48C203.331 143.122 205.527 143.122 207.642 143.48C212.523 144.268 212.686 144.268 212.198 143.122C211.872 142.477 212.442 141.976 213.499 141.689C216.428 141.044 223.667 141.188 224.236 141.976C224.481 142.334 225.782 142.692 227.002 142.692C229.605 142.692 231.964 145.127 231.964 147.706C231.964 149.497 233.835 152.863 235.462 154.081C237.658 155.657 237.902 152.362 236.113 147.348C233.591 140.615 233.835 138.824 237.495 135.672C239.204 134.24 241.481 132.449 242.62 131.804C245.711 130.085 247.663 126.074 246.85 123.137C246.037 120.415 246.362 117.622 247.501 117.622C247.989 117.622 248.07 118.266 247.826 119.054C247.419 120.057 247.663 120.487 248.558 120.487C249.29 120.487 249.86 119.842 249.86 119.054C249.86 118.266 250.266 117.622 250.754 117.622C251.161 117.622 251.975 116.69 252.381 115.544C253.032 113.969 254.09 113.181 256.53 112.464C259.214 111.748 260.028 111.032 260.76 109.026C261.492 106.949 262.549 106.161 266.535 104.37C273.205 101.433 276.622 100.431 278.005 100.932C279.875 101.577 279.306 102.365 276.703 102.866C275.32 103.081 274.019 103.797 273.775 104.37C272.961 106.089 274.1 106.519 275.808 105.158C276.622 104.513 278.655 103.654 280.282 103.224C283.699 102.436 284.187 101.147 281.177 101.147C279.225 101.147 278.167 100.359 273.937 96.0613C272.229 94.3422 272.311 94.1273 274.263 93.8408C277.11 93.4826 275.646 92.1933 272.473 92.3365C269.219 92.4798 265.722 94.0556 263.525 96.4194C262.793 97.2073 261.899 97.6371 261.492 97.3506C260.922 96.7776 263.363 94.5571 269.87 89.8295C271.822 88.3969 272.961 88.2537 280.201 88.2537C287.034 88.2537 288.579 88.0388 290.287 86.8211C291.426 86.0332 293.216 85.3885 294.192 85.3885C295.168 85.3885 296.551 84.8155 297.364 84.0276C298.747 82.6666 298.34 80.3745 296.714 80.3745C296.144 80.3745 294.436 79.3717 292.972 78.2256C291.508 77.0079 289.637 76.0767 288.905 76.0767C287.359 76.0767 283.211 72.0655 283.211 70.5613C283.211 69.5585 277.679 62.4672 276.866 62.4672C276.622 62.4672 275.239 63.6133 273.775 64.9742C271.253 67.4096 268.406 68.1976 267.349 66.765C267.105 66.3352 266.128 66.0487 265.315 66.0487C264.176 66.0487 263.607 65.3324 263.2 63.47C262.875 62.1091 262.061 60.7481 261.329 60.4616C260.597 60.2467 258.889 59.3155 257.425 58.5276C255.472 57.3099 253.52 56.9518 249.128 56.8802L243.352 56.7369L243.84 58.7425C244.084 59.817 244.41 61.1063 244.654 61.6077C244.816 62.1091 244.491 63.3268 244.003 64.3296C243.19 65.9054 243.271 66.3352 244.41 67.0515C246.362 68.4124 247.582 71.6357 246.606 73.2116C246.199 73.9279 244.572 75.2172 243.027 76.0051C240.343 77.5093 240.343 77.581 241.075 80.7326C242.051 84.7439 241.563 86.1048 239.041 86.1048C236.438 86.1048 232.94 82.6666 232.127 79.3001C231.557 76.6498 231.232 76.4349 228.304 76.0051C224.806 75.5753 222.284 74.7158 216.672 72.352C214.801 71.5641 211.872 70.7762 210.327 70.7046C207.805 70.4897 205.202 68.8422 205.121 67.4096C205.121 67.1231 204.226 66.6933 203.087 66.4785C199.752 65.7622 200.321 62.0375 204.389 57.883C206.178 56.0922 208.212 54.588 208.863 54.588C209.432 54.588 209.757 54.1583 209.513 53.5852C209.188 52.8689 210.164 52.5108 212.93 52.081C215.695 51.7229 217.404 50.9349 219.519 49.1442C221.064 47.7833 222.04 46.3507 221.715 45.8493C221.308 45.2762 221.959 45.2046 224.074 45.4911C225.782 45.706 227.084 45.6344 227.084 45.2046C227.084 44.8465 227.897 44.7032 228.954 44.9181C229.931 45.133 231.476 44.8465 232.371 44.3451C233.672 43.4139 233.754 43.1274 232.859 42.1246C231.964 41.1934 231.964 40.7636 232.859 39.7608C233.754 38.8296 233.754 38.5431 233.022 38.3282C232.452 38.1133 231.964 37.5403 231.964 36.9673C231.964 36.251 233.022 35.9645 235.95 35.9645C238.472 35.9645 240.098 35.6063 240.343 35.0333C240.587 34.4602 243.19 35.3198 248.721 37.7552C256.855 41.4083 258.889 43.3423 255.96 44.7032C255.228 45.0614 254.334 46.2074 253.927 47.1386C253.276 48.5712 252.625 48.8577 249.534 48.8577C245.549 48.8577 243.352 49.3591 243.352 50.3619C243.352 51.2215 246.606 51.1498 249.616 50.2903C251.731 49.6456 252.707 49.7889 256.042 51.3647C258.157 52.3675 260.19 53.442 260.434 53.7285C261.085 54.588 267.999 56.7369 269.789 56.7369C271.416 56.6653 271.416 56.6653 269.789 55.5908C268.894 55.0178 267.593 54.2299 266.942 53.8717C264.502 52.654 266.861 52.4392 270.114 53.5852C273.449 54.7313 275.89 54.588 275.89 53.2271C275.89 52.7973 274.263 51.4363 272.229 50.147C268.65 47.7833 267.837 46.4939 269.382 45.6344C270.44 45.0614 275.89 46.5656 275.89 47.4251C275.89 48.6428 278.818 48.4996 280.608 47.1386C282.723 45.4911 282.885 44.56 281.096 44.56C280.445 44.56 279.062 44.1302 278.086 43.7004C277.11 43.199 274.1 42.1246 271.416 41.3366C267.593 40.1906 266.616 39.6175 266.779 38.6147C266.942 37.7552 266.454 37.1105 265.315 36.8956C264.176 36.6091 263.769 36.1077 264.095 35.3914C264.42 34.5319 264.013 34.4602 261.98 34.8184C259.865 35.1765 259.377 34.9617 259.052 33.744C258.645 32.4546 258.157 32.3114 255.879 32.5979C253.764 32.8844 252.625 32.5979 250.836 31.3086C247.907 29.1597 244.491 28.3718 243.027 29.5178C242.376 29.9476 240.505 30.449 238.96 30.5923C236.601 30.7355 236.031 30.5206 236.031 29.5895C236.031 26.581 231.476 25.7215 226.921 27.7987C225.213 28.5867 224.725 29.0881 225.457 29.5178C226.189 29.9476 226.189 30.1625 225.457 30.5923C224.725 31.0221 224.725 31.2369 225.538 31.7383C226.107 32.0249 226.351 32.5263 226.026 32.8128C225.701 33.1709 224.399 32.5263 223.179 31.4518C221.227 29.7327 221.145 29.303 222.04 28.0136C223.423 26.008 223.179 25.8648 219.356 26.6527C214.475 27.5839 212.116 31.6667 216.102 32.2397C219.519 32.7412 220.251 33.2426 218.136 33.8156C216.346 34.2454 216.672 34.3886 220.413 35.1049C222.772 35.6063 226.189 35.9645 227.978 35.9645C230.012 35.9645 231.069 36.251 230.744 36.6808C230.419 37.1105 229.198 37.3254 228.06 37.2538C226.595 37.1105 225.863 37.397 225.863 38.1133C225.863 38.6864 224.643 40.2622 223.26 41.6948C221.064 43.772 220.332 44.0585 219.193 43.4139C218.38 42.9841 217.566 41.838 217.322 40.9069C216.834 39.1878 214.069 37.9701 214.069 39.4743C214.069 40.7636 212.116 40.3338 210.977 38.8296C210.408 38.0417 209.269 37.397 208.456 37.397C207.398 37.397 206.829 36.6808 206.422 35.2482C206.178 33.8872 205.202 32.8128 203.901 32.2397C202.762 31.81 201.948 31.0937 202.111 30.6639C202.355 29.9476 202.762 29.7327 207.968 27.6555L211.222 26.4378L207.968 25.8648C203.413 25.0768 202.436 25.1485 200.81 26.2229ZM216.183 47.4251C217.404 47.8549 218.136 48.3563 217.973 48.5712C217.322 49.1442 213.255 48.0698 213.255 47.3535C213.255 46.5656 213.499 46.5656 216.183 47.4251ZM291.345 78.8703C291.345 79.5149 289.393 80.3745 287.928 80.3745C287.44 80.3745 287.44 79.9447 288.091 79.3001C289.23 78.154 291.345 77.8675 291.345 78.8703Z" fill="url(#paint25_linear_2_113)" fill-opacity="0.1"/>
<path d="M187.795 28.0137C186.656 29.9477 186.737 30.1626 188.527 30.8072C190.479 31.6668 196.173 31.1654 196.173 30.1626C196.173 29.8044 195.197 29.0881 193.977 28.5151C192.675 27.9421 192.187 27.4407 192.757 27.3691C194.871 27.3691 193.57 25.9365 191.374 25.9365C189.503 25.9365 188.689 26.4379 187.795 28.0137Z" fill="url(#paint26_linear_2_113)" fill-opacity="0.1"/>
<path d="M792.014 26.6528C792.258 27.011 793.072 27.3691 793.722 27.3691C794.373 27.3691 794.698 27.011 794.454 26.6528C794.21 26.2231 793.397 25.9366 792.746 25.9366C792.095 25.9366 791.77 26.2231 792.014 26.6528Z" fill="url(#paint27_linear_2_113)" fill-opacity="0.1"/>
<path d="M174.047 27.1542C174.617 27.3691 175.349 27.2974 175.593 27.0826C175.918 26.8677 175.43 26.6528 174.535 26.7244C173.641 26.7244 173.397 26.9393 174.047 27.1542Z" fill="url(#paint28_linear_2_113)" fill-opacity="0.1"/>
<path d="M238.065 27.3692C238.309 27.7273 240.098 28.0854 241.969 28.0854C244.491 28.0854 245.06 27.8706 244.166 27.3692C242.539 26.438 237.414 26.438 238.065 27.3692Z" fill="url(#paint29_linear_2_113)" fill-opacity="0.1"/>
<path d="M147.367 28.2287C141.917 29.3031 140.534 31.6669 145.333 31.6669C146.879 31.6669 148.18 31.9534 148.18 32.3832C148.18 32.7413 147.367 33.0995 146.391 33.0995C144.682 33.1711 144.682 33.2427 145.984 33.8874C146.797 34.3172 148.506 34.3888 149.888 34.1739C152.329 33.6725 159.162 34.3888 158.429 35.0335C158.185 35.2484 155.664 35.4632 152.735 35.5349C149.888 35.5349 147.204 35.893 146.879 36.1795C145.821 37.1107 148.343 38.1135 151.678 38.1135C153.305 38.1135 154.688 38.4 154.688 38.8298C154.688 39.761 163.147 39.6894 167.296 38.7582C171.038 37.8986 171.688 37.827 176.65 38.4717C179.985 38.9014 180.392 38.7582 181.206 37.1823C182.019 35.6065 181.856 35.3916 179.579 34.6753C178.033 34.1739 176.65 33.0279 175.918 31.5953C175.268 30.2343 173.722 28.945 172.095 28.372C168.435 27.011 168.272 27.0826 168.841 29.518C169.167 31.0939 169.004 31.6669 168.191 31.6669C167.54 31.6669 166.808 31.1655 166.564 30.5208C166.157 29.5897 165.344 29.4464 162.415 29.7329C160.219 30.0194 158.592 29.8762 158.267 29.4464C157.941 28.945 156.559 28.8017 155.013 29.0166C152.979 29.3031 152.247 29.1599 152.247 28.372C152.247 27.2259 152.41 27.2259 147.367 28.2287Z" fill="url(#paint30_linear_2_113)" fill-opacity="0.1"/>
<path d="M302.326 36.6809C302.57 37.0391 303.709 37.3972 304.848 37.3972C305.987 37.3972 306.637 37.1107 306.393 36.6809C306.149 36.2512 305.011 35.9646 303.872 35.9646C302.733 35.9646 302.082 36.2512 302.326 36.6809Z" fill="url(#paint31_linear_2_113)" fill-opacity="0.1"/>
<path d="M559.779 38.8299C559.779 39.188 560.186 39.5461 560.592 39.5461C561.08 39.5461 561.406 39.188 561.406 38.8299C561.406 38.4001 561.08 38.1136 560.592 38.1136C560.186 38.1136 559.779 38.4001 559.779 38.8299Z" fill="url(#paint32_linear_2_113)" fill-opacity="0.1"/>
<path d="M-11.9853 43.9871C-11.904 46.4941 -11.7413 47.9267 -11.4973 47.2104C-11.0092 45.7062 -8.32487 45.5629 -7.67412 47.1388C-7.34875 47.855 -6.61665 48.0699 -5.55919 47.7834C-4.58306 47.4969 -3.03754 47.7834 -2.06141 48.3564C-1.08529 48.8578 0.948298 49.7174 2.41248 50.1472C4.77145 50.8635 5.17816 50.7918 6.31697 49.216C7.13041 48.1416 8.43191 47.4253 9.57072 47.4253C11.8483 47.4253 12.011 46.8522 10.1401 45.5629C8.26922 44.3452 4.85279 44.2736 3.55129 45.4197C2.73786 46.1359 2.16845 45.9211 0.704268 44.4885C-1.00395 42.6977 -8.48756 39.5461 -10.9279 39.5461C-11.8226 39.5461 -12.0667 40.6921 -11.9853 43.9871Z" fill="url(#paint33_linear_2_113)" fill-opacity="0.1"/>
<path d="M246.362 41.4801C245.223 42.4113 245.874 43.1992 247.582 42.9843C249.778 42.6978 250.51 40.9787 248.477 40.9787C247.582 40.9787 246.606 41.1936 246.362 41.4801Z" fill="url(#paint34_linear_2_113)" fill-opacity="0.1"/>
<path d="M396.929 46.3508C396.685 46.5656 395.058 46.8522 393.35 46.9954C391.641 47.2103 388.794 47.5684 387.167 47.855C385.053 48.1415 384.076 48.0699 384.076 47.4968C384.076 47.067 383.507 46.7089 382.856 46.7089C381.961 46.7089 381.799 46.9954 382.368 47.9266C382.775 48.6429 383.344 49.7889 383.588 50.5052C384.076 51.8662 387.249 53.1555 390.096 53.1555C392.292 53.1555 402.053 50.5052 403.029 49.6457C403.355 49.3592 402.948 48.6429 402.216 47.9982C400.508 46.7089 397.579 45.7777 396.929 46.3508Z" fill="url(#paint35_linear_2_113)" fill-opacity="0.1"/>
<path d="M223.504 47.9267C222.528 48.7863 223.016 52.2961 224.236 53.1557C225.213 53.8719 225.701 53.8719 226.677 53.1557C227.328 52.6542 229.117 52.0096 230.581 51.7947L233.184 51.2933L230.581 50.0756C226.595 48.2132 224.074 47.497 223.504 47.9267Z" fill="url(#paint36_linear_2_113)" fill-opacity="0.1"/>
<path d="M425.318 68.0545C424.504 68.7707 423.935 69.7736 423.935 70.2033C423.935 71.7792 426.782 76.0769 427.921 76.0769C430.442 76.0769 432.557 81.091 430.036 81.091C429.304 81.091 428.49 81.8072 428.083 82.6668C427.514 84.0277 427.758 84.4575 429.548 85.1022L431.663 85.8901L429.466 86.4631C428.165 86.7497 427.189 87.3227 427.189 87.6808C427.189 88.1106 427.839 88.1822 428.653 87.8957C430.361 87.2511 432.395 86.9645 436.136 86.8929C438.333 86.8213 439.309 86.3915 440.366 84.8873C441.668 82.9533 441.668 82.8817 438.333 80.0165C433.208 75.5039 431.093 72.6387 431.663 71.0629C432.069 69.9168 431.825 69.6303 430.117 69.6303C428.572 69.6303 428.002 69.2722 428.002 68.1977C428.002 66.407 427.026 66.3354 425.318 68.0545Z" fill="url(#paint37_linear_2_113)" fill-opacity="0.1"/>
<path d="M52.6013 69.6301C52.3573 69.9883 52.6826 70.3464 53.3334 70.3464C53.9841 70.3464 54.7976 69.9883 55.0416 69.6301C55.2856 69.2004 54.9602 68.9139 54.3095 68.9139C53.6588 68.9139 52.8453 69.2004 52.6013 69.6301Z" fill="url(#paint38_linear_2_113)" fill-opacity="0.1"/>
<path d="M467.047 74.6443C467.047 75.0025 467.453 75.3606 467.86 75.3606C468.348 75.3606 468.674 75.0025 468.674 74.6443C468.674 74.2145 468.348 73.928 467.86 73.928C467.453 73.928 467.047 74.2145 467.047 74.6443Z" fill="url(#paint39_linear_2_113)" fill-opacity="0.1"/>
<path d="M417.427 77.0798C417.427 77.5812 416.695 78.2259 415.8 78.4407C414.174 78.7989 413.523 80.3747 414.987 80.3747C415.475 80.3747 415.394 81.091 414.824 82.1655C413.523 84.6725 414.418 85.1023 418.322 83.9562C421.901 82.8817 421.901 82.8817 422.715 78.7273C423.203 76.077 423.203 76.077 420.274 76.077C418.403 76.077 417.427 76.4351 417.427 77.0798Z" fill="url(#paint40_linear_2_113)" fill-opacity="0.1"/>
<path d="M792.909 81.5207C792.665 82.1654 792.828 83.9561 793.316 85.5319C793.722 87.1078 794.129 89.2567 794.048 90.2595C793.804 93.4111 793.966 93.5544 796.081 91.6204C798.115 89.9013 798.115 89.7581 796.895 86.7496C796.244 85.0305 795.675 82.8817 795.675 81.9505C795.675 80.1598 793.641 79.8016 792.909 81.5207Z" fill="url(#paint41_linear_2_113)" fill-opacity="0.1"/>
<path d="M293.785 90.4026C292.484 92.7664 291.345 94.8436 291.345 95.0585C291.345 95.7748 302.651 95.4167 303.14 94.7004C304.116 93.2678 302.651 91.1189 300.699 91.1189C299.642 91.1189 298.503 90.7608 298.259 90.4026C297.934 89.9729 297.364 89.8296 296.957 90.0445C296.551 90.331 296.469 89.5431 296.713 88.2538C297.527 84.9588 296.469 85.6751 293.785 90.4026Z" fill="url(#paint42_linear_2_113)" fill-opacity="0.1"/>
<path d="M792.828 104.729C792.503 105.875 791.933 107.021 791.527 107.236C790.306 107.952 790.713 109.026 792.259 109.026C793.072 109.026 794.13 109.385 794.536 109.743C795.106 110.244 795.838 110.029 796.895 109.026C797.709 108.238 798.847 107.594 799.498 107.594C800.068 107.594 800.556 107.236 800.556 106.878C800.556 106.448 800.068 106.161 799.417 106.161C798.766 106.161 797.139 105.373 795.838 104.371L793.397 102.58L792.828 104.729Z" fill="url(#paint43_linear_2_113)" fill-opacity="0.1"/>
<path d="M459.726 115.473C459.726 117.622 460.784 118.338 461.76 116.905C462.411 115.974 461.434 113.324 460.458 113.324C460.052 113.324 459.726 114.255 459.726 115.473Z" fill="url(#paint44_linear_2_113)" fill-opacity="0.1"/>
<path d="M788.924 114.542C788.598 114.757 788.354 115.831 788.354 116.834C788.354 119.627 785.589 123.066 782.254 124.498C780.627 125.143 779.081 126.146 778.837 126.647C778.593 127.149 776.722 127.793 774.689 128.08C770.947 128.509 768.019 130.014 768.019 131.446C768.019 131.804 769.157 131.948 770.703 131.661L773.306 131.231L771.272 132.664C768.832 134.383 769.727 134.526 772.492 132.951C773.631 132.306 775.177 131.948 775.99 132.091C776.804 132.306 778.187 132.019 779 131.518C779.813 130.945 781.115 130.515 781.928 130.515C782.66 130.515 783.718 130.014 784.287 129.441C784.857 128.868 785.995 128.366 786.809 128.366C788.598 128.366 789.981 126.289 789.981 123.639C789.981 122.636 790.713 120.63 791.69 119.341C792.991 117.479 793.154 116.691 792.422 115.473C791.527 114.04 789.9 113.611 788.924 114.542Z" fill="url(#paint45_linear_2_113)" fill-opacity="0.1"/>
<path d="M471.114 121.776C471.114 122.349 473.961 123.997 475.019 124.068C477.133 124.068 475.913 122.063 473.554 121.776C472.253 121.561 471.114 121.633 471.114 121.776Z" fill="url(#paint46_linear_2_113)" fill-opacity="0.1"/>
<path d="M492.264 121.776C492.264 122.134 492.833 122.922 493.565 123.424C494.704 124.283 494.867 124.212 494.623 123.066C494.297 121.633 492.264 120.559 492.264 121.776Z" fill="url(#paint47_linear_2_113)" fill-opacity="0.1"/>
<path d="M764.764 135.529C764.764 137.033 765.089 137.678 765.821 137.463C766.309 137.32 766.798 136.46 766.798 135.529C766.798 134.598 766.309 133.738 765.821 133.524C765.089 133.38 764.764 134.025 764.764 135.529Z" fill="url(#paint48_linear_2_113)" fill-opacity="0.1"/>
<path d="M740.442 157.949C739.873 158.594 739.548 159.811 739.71 160.742C740.036 162.318 740.117 162.318 741.093 160.313C742.232 157.806 741.907 156.445 740.442 157.949Z" fill="url(#paint49_linear_2_113)" fill-opacity="0.1"/>
<path d="M234.404 161.96C234.404 162.318 236.275 163.25 238.472 164.109C240.749 164.969 242.539 165.971 242.539 166.33C242.539 166.759 243.108 167.046 243.759 167.046C244.491 167.046 245.223 167.547 245.467 168.12C246.037 169.338 250.673 169.625 250.673 168.478C250.673 168.049 250.348 167.762 249.941 167.762C249.534 167.762 247.013 166.616 244.328 165.255C239.366 162.605 234.404 161.029 234.404 161.96Z" fill="url(#paint50_linear_2_113)" fill-opacity="0.1"/>
<path d="M258.645 170.412C257.099 170.77 256.611 173.134 257.994 173.85C258.401 174.065 260.272 173.922 262.143 173.492L265.559 172.633L263.2 171.272C261.898 170.556 260.678 169.983 260.434 169.983C260.19 170.054 259.377 170.197 258.645 170.412Z" fill="url(#paint51_linear_2_113)" fill-opacity="0.1"/>
<path d="M711.322 170.412C710.753 170.556 710.265 171.2 710.265 171.845C710.265 173.349 713.844 172.776 714.169 171.129C714.413 169.911 713.356 169.624 711.322 170.412Z" fill="url(#paint52_linear_2_113)" fill-opacity="0.1"/>
<path d="M740.117 174.71C739.873 175.426 739.467 177.504 739.141 179.294C738.735 181.945 738.897 182.733 739.873 183.019C740.605 183.306 740.931 183.95 740.687 184.595C740.361 185.168 740.605 185.669 741.175 185.669C741.907 185.669 742.07 184.953 741.663 183.449C741.338 181.945 741.663 180.512 742.558 179.151C743.696 177.504 743.778 176.787 742.964 175.355C741.907 173.206 740.605 172.919 740.117 174.71Z" fill="url(#paint53_linear_2_113)" fill-opacity="0.1"/>
<path d="M638.194 200.353C637.38 203.075 638.438 205.726 640.308 205.726C642.179 205.726 642.505 203.505 641.122 200.425C640.146 198.061 638.844 198.061 638.194 200.353Z" fill="url(#paint54_linear_2_113)" fill-opacity="0.1"/>
<path d="M750.367 200.138C748.496 201.929 748.415 205.296 750.204 205.511C751.994 205.797 754.109 202.717 753.621 200.497C753.133 198.133 752.563 198.061 750.367 200.138Z" fill="url(#paint55_linear_2_113)" fill-opacity="0.1"/>
<path d="M725.719 209.45C723.279 211.814 720.269 214.178 719.049 214.679C717.829 215.252 716.69 216.398 716.365 217.186C715.958 218.189 715.145 218.619 713.355 218.619C710.915 218.619 710.833 218.619 711.403 221.627C711.728 223.346 712.298 224.994 712.786 225.352C713.192 225.782 713.518 226.785 713.518 227.644C713.518 229.721 713.843 229.865 719.7 230.796C727.753 232.085 727.59 232.085 728.485 229.363C728.973 228.002 729.787 226.355 730.193 225.782C730.681 225.209 731.413 223.705 731.82 222.559C732.308 221.341 733.122 220.481 733.691 220.553C734.911 220.839 734.911 220.696 733.366 218.046C731.739 215.181 732.064 211.456 734.098 209.952C735.562 208.877 735.481 208.806 732.878 207.015L730.193 205.224L725.719 209.45Z" fill="url(#paint56_linear_2_113)" fill-opacity="0.1"/>
<path d="M676.913 209.02C676.913 209.307 678.214 210.811 679.841 212.459C681.387 214.034 683.095 215.825 683.664 216.398C684.885 217.759 687.732 222.272 690.253 226.928C692.693 231.512 698.957 237.457 700.991 237.099C703.35 236.741 703.105 231.154 700.747 229.22C699.689 228.36 698.876 227.286 698.876 226.784C698.876 226.355 698.306 225.782 697.655 225.495C697.005 225.28 696.435 224.421 696.435 223.633C696.435 222.845 696.11 222.2 695.703 222.2C695.296 222.2 694.564 221.269 693.995 220.051C693.426 218.905 692.205 217.759 691.229 217.473C690.335 217.186 687.488 215.109 684.966 212.817C682.2 210.238 679.679 208.591 678.621 208.591C677.645 208.591 676.913 208.806 676.913 209.02Z" fill="url(#paint57_linear_2_113)" fill-opacity="0.1"/>
<path d="M768.1 224.994C767.123 225.567 767.123 225.853 767.937 226.785C769.238 228.217 772.573 228.289 773.143 226.928C774.038 224.922 770.621 223.633 768.1 224.994Z" fill="url(#paint58_linear_2_113)" fill-opacity="0.1"/>
<path d="M737.026 226.928C736.62 228.074 736.457 229.793 736.701 230.796C737.026 231.799 737.352 233.446 737.433 234.592C737.84 237.959 738.735 237.672 738.735 234.162C738.735 230.008 739.711 229.435 741.907 232.443C743.534 234.664 743.615 234.664 743.615 232.945C743.615 231.942 743.046 230.366 742.314 229.506C741.094 227.931 741.094 227.787 742.476 226.785C743.941 225.782 743.941 225.71 742.151 226.14C741.094 226.426 739.792 226.212 739.141 225.782C738.165 225.065 737.759 225.28 737.026 226.928Z" fill="url(#paint59_linear_2_113)" fill-opacity="0.1"/>
<path d="M781.359 228.145C780.545 228.575 779.325 229.506 778.756 230.223C777.454 231.798 775.095 231.87 773.712 230.509C772.573 229.22 770.458 229.793 770.458 231.369C770.458 232.157 770.703 232.3 771.353 231.727C772.004 231.154 772.817 231.44 774.282 232.658C775.42 233.589 776.885 234.377 777.454 234.377C779.65 234.377 782.823 236.168 783.962 238.03C785.263 240.251 785.507 242.973 784.368 242.973C783.962 242.973 783.392 243.474 783.148 244.119C782.741 245.121 783.067 245.265 785.263 244.835C787.215 244.477 788.273 244.763 789.656 245.909C792.177 247.987 795.756 247.485 797.139 244.907C797.709 243.832 798.522 242.973 798.929 242.973C801.044 242.973 803.728 244.548 805.518 246.841C807.633 249.634 808.853 250.279 810.724 249.706C811.618 249.419 811.13 248.488 808.69 245.694C805.111 241.755 805.03 241.468 806.412 240.251C807.144 239.606 806.982 239.319 805.762 238.89C804.948 238.603 802.671 237.027 800.8 235.308C798.929 233.589 796.651 232.228 795.838 232.228C794.943 232.228 793.804 231.727 793.235 231.154C792.665 230.581 791.608 230.079 790.876 230.079C790.144 230.079 788.679 229.65 787.541 229.148C783.962 227.501 782.985 227.357 781.359 228.145Z" fill="url(#paint60_linear_2_113)" fill-opacity="0.1"/>
<path d="M812.594 238.46C813.082 238.603 814.059 238.603 814.628 238.46C815.116 238.245 814.709 238.102 813.571 238.102C812.432 238.102 812.025 238.245 812.594 238.46Z" fill="url(#paint61_linear_2_113)" fill-opacity="0.1"/>
<path d="M703.757 239.965C703.757 241.612 706.198 242.901 709.858 243.26C712.136 243.474 716.04 243.904 718.643 244.191C721.165 244.549 723.28 244.549 723.28 244.262C723.28 243.976 722.873 243.689 722.385 243.689C721.897 243.689 720.595 243.045 719.538 242.328C718.236 241.397 716.284 240.967 713.844 240.967C711.729 240.967 709.695 240.609 709.207 240.179C708.15 239.248 703.757 239.105 703.757 239.965Z" fill="url(#paint62_linear_2_113)" fill-opacity="0.1"/>
<path d="M748.495 248.775C748.495 249.133 748.902 249.276 749.309 249.061C749.797 248.846 750.122 248.488 750.122 248.273C750.122 248.13 749.797 247.987 749.309 247.987C748.902 247.987 748.495 248.345 748.495 248.775Z" fill="url(#paint63_linear_2_113)" fill-opacity="0.1"/>
<path d="M793.316 253.932C792.828 255.078 792.421 258.015 792.421 260.45C792.421 266.61 791.201 269.475 788.679 269.475C787.54 269.475 786.483 268.974 786.239 268.401C785.913 267.828 785.019 267.327 784.205 267.327C783.392 267.327 782.66 266.968 782.66 266.61C782.66 266.181 781.358 265.178 779.813 264.39C777.291 263.029 775.745 260.164 777.616 260.164C778.023 260.164 778.348 259.233 778.348 258.158C778.348 256.367 777.942 256.009 774.688 255.221C772.573 254.72 770.702 254.648 770.133 255.006C769.645 255.365 768.262 255.866 767.042 256.152C765.577 256.439 764.357 257.513 763.137 259.806C761.185 263.315 759.802 263.817 757.931 261.525C756.304 259.447 751.993 260.235 750.692 262.886C749.553 265.321 746.868 268.043 745.648 268.043C745.079 268.043 744.428 269.046 744.103 270.192C743.533 272.914 740.442 275.707 737.351 276.28C730.762 277.57 725.556 280.363 723.523 283.801C722.059 286.237 721.896 287.096 722.628 288.672C723.035 289.747 723.441 291.967 723.36 293.543C723.279 295.19 723.848 297.411 724.499 298.557C725.15 299.703 725.719 301.207 725.719 301.852C725.719 302.568 726.289 304.43 727.102 306.078C728.159 308.513 728.241 309.445 727.509 311.307C726.695 313.169 726.695 313.671 727.915 314.387C729.868 315.748 733.04 315.533 736.7 313.886C738.571 313.026 741.5 312.453 743.777 312.453C745.892 312.453 747.682 312.166 747.682 311.737C747.682 310.089 758.826 306.723 764.195 306.723C769.645 306.723 772.898 308.084 775.257 311.379L777.535 314.53L780.138 312.381C783.31 309.874 783.798 309.803 783.148 312.023C782.904 312.954 782.904 313.886 783.31 314.029C784.368 314.459 788.354 320.046 788.354 321.192C788.354 322.768 789.818 323.627 793.885 324.63C796.895 325.346 797.708 325.275 798.928 324.272C800.148 323.269 800.393 323.269 801.369 324.272C802.507 325.489 805.11 325.704 805.843 324.63C806.087 324.272 807.795 323.627 809.503 323.197C811.943 322.624 812.757 322.051 812.757 320.977C812.757 319.258 816.58 311.092 818.044 309.588C818.695 309.015 819.752 306.293 820.566 303.571C822.437 297.053 821.379 291.394 817.719 287.956C816.336 286.666 814.953 285.019 814.709 284.303C814.465 283.658 813.896 283.085 813.489 283.085C813.082 283.085 811.943 281.724 811.049 280.005C810.072 278.286 808.12 276.137 806.575 275.277C805.029 274.346 803.565 272.77 803.321 271.696C801.857 265.679 800.067 261.31 798.847 261.095C798.034 260.88 797.22 259.734 796.895 258.516C796.651 257.227 795.919 255.221 795.349 254.075L794.21 251.926L793.316 253.932Z" fill="url(#paint64_linear_2_113)" fill-opacity="0.1"/>
<path d="M560.511 256.582C560.429 258.516 555.223 264.103 552.539 265.249C548.879 266.754 548.39 267.756 548.96 272.412C549.285 275.349 549.041 276.997 548.065 278.716C546.845 280.65 546.845 281.581 547.577 284.947C548.634 289.388 550.343 290.678 553.596 289.532C554.735 289.173 555.711 288.744 555.711 288.6C555.711 288.457 556.932 284.589 558.477 280.077C559.941 275.564 561.487 270.12 561.812 267.971C562.138 265.822 562.707 263.96 563.032 263.745C563.927 263.244 562.707 257.442 561.487 256.367C560.836 255.794 560.592 255.866 560.511 256.582Z" fill="url(#paint65_linear_2_113)" fill-opacity="0.1"/>
<path d="M875.392 324.128C875.392 325.06 874.904 326.206 874.416 326.707C873.521 327.423 873.602 327.71 874.822 328.283C875.554 328.713 876.205 329.787 876.205 330.718C876.205 331.721 876.53 332.509 876.937 332.509C877.832 332.509 880.272 329.286 880.272 328.068C880.272 327.567 881.004 326.707 881.899 326.206C884.258 324.916 883.933 323.914 881.167 323.914C879.784 323.914 878.483 323.555 878.239 323.197C877.263 321.836 875.392 322.481 875.392 324.128Z" fill="url(#paint66_linear_2_113)" fill-opacity="0.1"/>
<path d="M800.556 332.222C800.556 333.01 803.24 337.523 803.891 337.953C805.111 338.597 808.853 334.944 808.527 333.44C808.365 332.652 807.063 332.294 804.46 332.222C802.264 332.151 800.556 332.151 800.556 332.222Z" fill="url(#paint67_linear_2_113)" fill-opacity="0.1"/>
<path d="M867.42 334.586C866.362 336.162 864.247 338.168 862.539 339.027C859.286 340.746 855.056 343.97 855.056 344.686C855.056 344.972 856.357 345.546 857.984 345.975C860.424 346.62 861.319 346.548 862.865 345.617C863.922 345.044 864.817 344.113 864.817 343.54C864.817 343.038 866.688 340.89 868.884 338.812C871.162 336.735 872.951 334.73 872.951 334.371C872.951 333.727 870.511 331.864 869.616 331.793C869.372 331.793 868.396 333.082 867.42 334.586Z" fill="url(#paint68_linear_2_113)" fill-opacity="0.1"/>
<defs>
<linearGradient id="paint0_linear_2_113" x1="331.598" y1="62.4673" x2="331.598" y2="5.34058e-05" gradientUnits="userSpaceOnUse">
<stop stop-color="#999999"/>
<stop offset="1" stop-color="white"/>
</linearGradient>
<linearGradient id="paint1_linear_2_113" x1="248.833" y1="19.0759" x2="248.833" y2="1.23999" gradientUnits="userSpaceOnUse">
<stop stop-color="#999999"/>
<stop offset="1" stop-color="white"/>
</linearGradient>
<linearGradient id="paint2_linear_2_113" x1="212.462" y1="13.5344" x2="212.462" y2="6.70889" gradientUnits="userSpaceOnUse">
<stop stop-color="#999999"/>
<stop offset="1" stop-color="white"/>
</linearGradient>
<linearGradient id="paint3_linear_2_113" x1="679.431" y1="12.2268" x2="679.431" y2="6.7821" gradientUnits="userSpaceOnUse">
<stop stop-color="#999999"/>
<stop offset="1" stop-color="white"/>
</linearGradient>
<linearGradient id="paint4_linear_2_113" x1="488.673" y1="9.37671" x2="488.673" y2="8.80314" gradientUnits="userSpaceOnUse">
<stop stop-color="#999999"/>
<stop offset="1" stop-color="white"/>
</linearGradient>
<linearGradient id="paint5_linear_2_113" x1="497.128" y1="10.8943" x2="497.128" y2="8.88497" gradientUnits="userSpaceOnUse">
<stop stop-color="#999999"/>
<stop offset="1" stop-color="white"/>
</linearGradient>
<linearGradient id="paint6_linear_2_113" x1="472.999" y1="13.6653" x2="472.999" y2="10.7466" gradientUnits="userSpaceOnUse">
<stop stop-color="#999999"/>
<stop offset="1" stop-color="white"/>
</linearGradient>
<linearGradient id="paint7_linear_2_113" x1="481.985" y1="17.8435" x2="481.985" y2="10.1951" gradientUnits="userSpaceOnUse">
<stop stop-color="#999999"/>
<stop offset="1" stop-color="white"/>
</linearGradient>
<linearGradient id="paint8_linear_2_113" x1="184.26" y1="14.783" x2="184.26" y2="12.0807" gradientUnits="userSpaceOnUse">
<stop stop-color="#999999"/>
<stop offset="1" stop-color="white"/>
</linearGradient>
<linearGradient id="paint9_linear_2_113" x1="694.743" y1="13.7595" x2="694.743" y2="12.0303" gradientUnits="userSpaceOnUse">
<stop stop-color="#999999"/>
<stop offset="1" stop-color="white"/>
</linearGradient>
<linearGradient id="paint10_linear_2_113" x1="197.463" y1="14.3906" x2="197.463" y2="13.8171" gradientUnits="userSpaceOnUse">
<stop stop-color="#999999"/>
<stop offset="1" stop-color="white"/>
</linearGradient>
<linearGradient id="paint11_linear_2_113" x1="494.297" y1="15.9084" x2="494.297" y2="14.4759" gradientUnits="userSpaceOnUse">
<stop stop-color="#999999"/>
<stop offset="1" stop-color="white"/>
</linearGradient>
<linearGradient id="paint12_linear_2_113" x1="158.769" y1="15.801" x2="158.769" y2="15.3354" gradientUnits="userSpaceOnUse">
<stop stop-color="#999999"/>
<stop offset="1" stop-color="white"/>
</linearGradient>
<linearGradient id="paint13_linear_2_113" x1="642.318" y1="314.427" x2="642.318" y2="15.9787" gradientUnits="userSpaceOnUse">
<stop stop-color="#999999"/>
<stop offset="1" stop-color="white"/>
</linearGradient>
<linearGradient id="paint14_linear_2_113" x1="140.549" y1="19.4897" x2="140.549" y2="16.8461" gradientUnits="userSpaceOnUse">
<stop stop-color="#999999"/>
<stop offset="1" stop-color="white"/>
</linearGradient>
<linearGradient id="paint15_linear_2_113" x1="201.068" y1="18.666" x2="201.068" y2="18.2004" gradientUnits="userSpaceOnUse">
<stop stop-color="#999999"/>
<stop offset="1" stop-color="white"/>
</linearGradient>
<linearGradient id="paint16_linear_2_113" x1="603.894" y1="20.2061" x2="603.894" y2="18.1288" gradientUnits="userSpaceOnUse">
<stop stop-color="#999999"/>
<stop offset="1" stop-color="white"/>
</linearGradient>
<linearGradient id="paint17_linear_2_113" x1="169.004" y1="22.2681" x2="169.004" y2="18.8429" gradientUnits="userSpaceOnUse">
<stop stop-color="#999999"/>
<stop offset="1" stop-color="white"/>
</linearGradient>
<linearGradient id="paint18_linear_2_113" x1="190.682" y1="22.2756" x2="190.682" y2="19.1231" gradientUnits="userSpaceOnUse">
<stop stop-color="#999999"/>
<stop offset="1" stop-color="white"/>
</linearGradient>
<linearGradient id="paint19_linear_2_113" x1="221.909" y1="23.6443" x2="221.909" y2="18.7735" gradientUnits="userSpaceOnUse">
<stop stop-color="#999999"/>
<stop offset="1" stop-color="white"/>
</linearGradient>
<linearGradient id="paint20_linear_2_113" x1="157.027" y1="23.7949" x2="157.027" y2="19.8122" gradientUnits="userSpaceOnUse">
<stop stop-color="#999999"/>
<stop offset="1" stop-color="white"/>
</linearGradient>
<linearGradient id="paint21_linear_2_113" x1="582.528" y1="33.8157" x2="582.528" y2="20.3272" gradientUnits="userSpaceOnUse">
<stop stop-color="#999999"/>
<stop offset="1" stop-color="white"/>
</linearGradient>
<linearGradient id="paint22_linear_2_113" x1="790.905" y1="22.7888" x2="790.905" y2="20.584" gradientUnits="userSpaceOnUse">
<stop stop-color="#999999"/>
<stop offset="1" stop-color="white"/>
</linearGradient>
<linearGradient id="paint23_linear_2_113" x1="201.296" y1="23.0713" x2="201.296" y2="21.6387" gradientUnits="userSpaceOnUse">
<stop stop-color="#999999"/>
<stop offset="1" stop-color="white"/>
</linearGradient>
<linearGradient id="paint24_linear_2_113" x1="136.457" y1="32.0525" x2="136.457" y2="24.3607" gradientUnits="userSpaceOnUse">
<stop stop-color="#999999"/>
<stop offset="1" stop-color="white"/>
</linearGradient>
<linearGradient id="paint25_linear_2_113" x1="185.44" y1="364.538" x2="185.44" y2="25.3361" gradientUnits="userSpaceOnUse">
<stop stop-color="#999999"/>
<stop offset="1" stop-color="white"/>
</linearGradient>
<linearGradient id="paint26_linear_2_113" x1="191.607" y1="31.2466" x2="191.607" y2="25.9365" gradientUnits="userSpaceOnUse">
<stop stop-color="#999999"/>
<stop offset="1" stop-color="white"/>
</linearGradient>
<linearGradient id="paint27_linear_2_113" x1="793.234" y1="27.3691" x2="793.234" y2="25.9366" gradientUnits="userSpaceOnUse">
<stop stop-color="#999999"/>
<stop offset="1" stop-color="white"/>
</linearGradient>
<linearGradient id="paint28_linear_2_113" x1="174.687" y1="27.2839" x2="174.687" y2="26.7104" gradientUnits="userSpaceOnUse">
<stop stop-color="#999999"/>
<stop offset="1" stop-color="white"/>
</linearGradient>
<linearGradient id="paint29_linear_2_113" x1="241.285" y1="28.0854" x2="241.285" y2="26.6708" gradientUnits="userSpaceOnUse">
<stop stop-color="#999999"/>
<stop offset="1" stop-color="white"/>
</linearGradient>
<linearGradient id="paint30_linear_2_113" x1="162.027" y1="39.4934" x2="162.027" y2="27.4843" gradientUnits="userSpaceOnUse">
<stop stop-color="#999999"/>
<stop offset="1" stop-color="white"/>
</linearGradient>
<linearGradient id="paint31_linear_2_113" x1="304.36" y1="37.3972" x2="304.36" y2="35.9646" gradientUnits="userSpaceOnUse">
<stop stop-color="#999999"/>
<stop offset="1" stop-color="white"/>
</linearGradient>
<linearGradient id="paint32_linear_2_113" x1="560.592" y1="39.5461" x2="560.592" y2="38.1136" gradientUnits="userSpaceOnUse">
<stop stop-color="#999999"/>
<stop offset="1" stop-color="white"/>
</linearGradient>
<linearGradient id="paint33_linear_2_113" x1="-0.288383" y1="50.5833" x2="-0.288383" y2="39.5461" gradientUnits="userSpaceOnUse">
<stop stop-color="#999999"/>
<stop offset="1" stop-color="white"/>
</linearGradient>
<linearGradient id="paint34_linear_2_113" x1="247.733" y1="43.02" x2="247.733" y2="40.9787" gradientUnits="userSpaceOnUse">
<stop stop-color="#999999"/>
<stop offset="1" stop-color="white"/>
</linearGradient>
<linearGradient id="paint35_linear_2_113" x1="392.589" y1="53.1555" x2="392.589" y2="46.1781" gradientUnits="userSpaceOnUse">
<stop stop-color="#999999"/>
<stop offset="1" stop-color="white"/>
</linearGradient>
<linearGradient id="paint36_linear_2_113" x1="228.085" y1="53.6929" x2="228.085" y2="47.8059" gradientUnits="userSpaceOnUse">
<stop stop-color="#999999"/>
<stop offset="1" stop-color="white"/>
</linearGradient>
<linearGradient id="paint37_linear_2_113" x1="432.555" y1="88.0676" x2="432.555" y2="66.8087" gradientUnits="userSpaceOnUse">
<stop stop-color="#999999"/>
<stop offset="1" stop-color="white"/>
</linearGradient>
<linearGradient id="paint38_linear_2_113" x1="53.8214" y1="70.3464" x2="53.8214" y2="68.9139" gradientUnits="userSpaceOnUse">
<stop stop-color="#999999"/>
<stop offset="1" stop-color="white"/>
</linearGradient>
<linearGradient id="paint39_linear_2_113" x1="467.86" y1="75.3606" x2="467.86" y2="73.928" gradientUnits="userSpaceOnUse">
<stop stop-color="#999999"/>
<stop offset="1" stop-color="white"/>
</linearGradient>
<linearGradient id="paint40_linear_2_113" x1="418.564" y1="84.5591" x2="418.564" y2="76.077" gradientUnits="userSpaceOnUse">
<stop stop-color="#999999"/>
<stop offset="1" stop-color="white"/>
</linearGradient>
<linearGradient id="paint41_linear_2_113" x1="795.262" y1="92.8892" x2="795.262" y2="80.4029" gradientUnits="userSpaceOnUse">
<stop stop-color="#999999"/>
<stop offset="1" stop-color="white"/>
</linearGradient>
<linearGradient id="paint42_linear_2_113" x1="297.397" y1="95.449" x2="297.397" y2="86.2239" gradientUnits="userSpaceOnUse">
<stop stop-color="#999999"/>
<stop offset="1" stop-color="white"/>
</linearGradient>
<linearGradient id="paint43_linear_2_113" x1="795.684" y1="110.003" x2="795.684" y2="102.58" gradientUnits="userSpaceOnUse">
<stop stop-color="#999999"/>
<stop offset="1" stop-color="white"/>
</linearGradient>
<linearGradient id="paint44_linear_2_113" x1="460.848" y1="117.651" x2="460.848" y2="113.324" gradientUnits="userSpaceOnUse">
<stop stop-color="#999999"/>
<stop offset="1" stop-color="white"/>
</linearGradient>
<linearGradient id="paint45_linear_2_113" x1="780.437" y1="134.048" x2="780.437" y2="114.049" gradientUnits="userSpaceOnUse">
<stop stop-color="#999999"/>
<stop offset="1" stop-color="white"/>
</linearGradient>
<linearGradient id="paint46_linear_2_113" x1="473.611" y1="124.068" x2="473.611" y2="121.641" gradientUnits="userSpaceOnUse">
<stop stop-color="#999999"/>
<stop offset="1" stop-color="white"/>
</linearGradient>
<linearGradient id="paint47_linear_2_113" x1="493.492" y1="124.005" x2="493.492" y2="121.247" gradientUnits="userSpaceOnUse">
<stop stop-color="#999999"/>
<stop offset="1" stop-color="white"/>
</linearGradient>
<linearGradient id="paint48_linear_2_113" x1="765.781" y1="137.503" x2="765.781" y2="133.504" gradientUnits="userSpaceOnUse">
<stop stop-color="#999999"/>
<stop offset="1" stop-color="white"/>
</linearGradient>
<linearGradient id="paint49_linear_2_113" x1="740.723" y1="161.875" x2="740.723" y2="157.321" gradientUnits="userSpaceOnUse">
<stop stop-color="#999999"/>
<stop offset="1" stop-color="white"/>
</linearGradient>
<linearGradient id="paint50_linear_2_113" x1="242.539" y1="169.202" x2="242.539" y2="161.691" gradientUnits="userSpaceOnUse">
<stop stop-color="#999999"/>
<stop offset="1" stop-color="white"/>
</linearGradient>
<linearGradient id="paint51_linear_2_113" x1="261.37" y1="173.949" x2="261.37" y2="169.983" gradientUnits="userSpaceOnUse">
<stop stop-color="#999999"/>
<stop offset="1" stop-color="white"/>
</linearGradient>
<linearGradient id="paint52_linear_2_113" x1="712.234" y1="172.717" x2="712.234" y2="169.972" gradientUnits="userSpaceOnUse">
<stop stop-color="#999999"/>
<stop offset="1" stop-color="white"/>
</linearGradient>
<linearGradient id="paint53_linear_2_113" x1="741.219" y1="185.669" x2="741.219" y2="173.535" gradientUnits="userSpaceOnUse">
<stop stop-color="#999999"/>
<stop offset="1" stop-color="white"/>
</linearGradient>
<linearGradient id="paint54_linear_2_113" x1="639.944" y1="205.726" x2="639.944" y2="198.643" gradientUnits="userSpaceOnUse">
<stop stop-color="#999999"/>
<stop offset="1" stop-color="white"/>
</linearGradient>
<linearGradient id="paint55_linear_2_113" x1="751.302" y1="205.529" x2="751.302" y2="198.648" gradientUnits="userSpaceOnUse">
<stop stop-color="#999999"/>
<stop offset="1" stop-color="white"/>
</linearGradient>
<linearGradient id="paint56_linear_2_113" x1="723.082" y1="231.633" x2="723.082" y2="205.224" gradientUnits="userSpaceOnUse">
<stop stop-color="#999999"/>
<stop offset="1" stop-color="white"/>
</linearGradient>
<linearGradient id="paint57_linear_2_113" x1="689.778" y1="237.115" x2="689.778" y2="208.591" gradientUnits="userSpaceOnUse">
<stop stop-color="#999999"/>
<stop offset="1" stop-color="white"/>
</linearGradient>
<linearGradient id="paint58_linear_2_113" x1="770.317" y1="227.905" x2="770.317" y2="224.431" gradientUnits="userSpaceOnUse">
<stop stop-color="#999999"/>
<stop offset="1" stop-color="white"/>
</linearGradient>
<linearGradient id="paint59_linear_2_113" x1="740.101" y1="236.963" x2="740.101" y2="225.393" gradientUnits="userSpaceOnUse">
<stop stop-color="#999999"/>
<stop offset="1" stop-color="white"/>
</linearGradient>
<linearGradient id="paint60_linear_2_113" x1="790.799" y1="249.897" x2="790.799" y2="227.682" gradientUnits="userSpaceOnUse">
<stop stop-color="#999999"/>
<stop offset="1" stop-color="white"/>
</linearGradient>
<linearGradient id="paint61_linear_2_113" x1="813.585" y1="238.567" x2="813.585" y2="238.102" gradientUnits="userSpaceOnUse">
<stop stop-color="#999999"/>
<stop offset="1" stop-color="white"/>
</linearGradient>
<linearGradient id="paint62_linear_2_113" x1="713.519" y1="244.469" x2="713.519" y2="239.394" gradientUnits="userSpaceOnUse">
<stop stop-color="#999999"/>
<stop offset="1" stop-color="white"/>
</linearGradient>
<linearGradient id="paint63_linear_2_113" x1="749.309" y1="249.162" x2="749.309" y2="247.987" gradientUnits="userSpaceOnUse">
<stop stop-color="#999999"/>
<stop offset="1" stop-color="white"/>
</linearGradient>
<linearGradient id="paint64_linear_2_113" x1="771.838" y1="325.324" x2="771.838" y2="251.926" gradientUnits="userSpaceOnUse">
<stop stop-color="#999999"/>
<stop offset="1" stop-color="white"/>
</linearGradient>
<linearGradient id="paint65_linear_2_113" x1="555.209" y1="289.927" x2="555.209" y2="255.985" gradientUnits="userSpaceOnUse">
<stop stop-color="#999999"/>
<stop offset="1" stop-color="white"/>
</linearGradient>
<linearGradient id="paint66_linear_2_113" x1="878.645" y1="332.509" x2="878.645" y2="322.459" gradientUnits="userSpaceOnUse">
<stop stop-color="#999999"/>
<stop offset="1" stop-color="white"/>
</linearGradient>
<linearGradient id="paint67_linear_2_113" x1="804.551" y1="338.028" x2="804.551" y2="332.169" gradientUnits="userSpaceOnUse">
<stop stop-color="#999999"/>
<stop offset="1" stop-color="white"/>
</linearGradient>
<linearGradient id="paint68_linear_2_113" x1="864.003" y1="346.398" x2="864.003" y2="331.793" gradientUnits="userSpaceOnUse">
<stop stop-color="#999999"/>
<stop offset="1" stop-color="white"/>
</linearGradient>
</defs>
</svg>
