<svg width="124" height="32" viewBox="0 0 124 32" fill="none" xmlns="http://www.w3.org/2000/svg">
<path d="M18.9885 7.37894C19.8512 7.37894 20.3161 7.37832 20.383 7.37708C21.1625 7.35846 21.6737 7.21156 21.856 6.47139C21.8658 6.42938 21.871 6.3857 21.871 6.34121C21.872 5.28492 21.8717 3.91245 21.8691 2.22386C21.8655 0.760284 21.8838 -0.00776811 23.4795 0.00153023C24.5037 0.00772913 25.1482 0.00772913 25.4138 0.00153023C26.4532 -0.0207859 27.1115 0.191218 27.1598 1.28472C27.1771 1.68641 27.1784 3.13511 27.1637 5.63083C27.1579 6.66295 27.3143 7.37522 28.458 7.37522C29.9421 7.37522 31.398 7.3746 32.8262 7.37336C35.19 7.37336 37.2784 8.77556 37.8511 11.1076C37.9344 11.4461 37.9759 12.0895 37.9759 13.038C37.9772 20.9813 37.9739 25.5239 37.9664 26.6658C37.9553 28.7152 36.5401 30.4652 34.7065 31.1291C34.2156 31.3076 33.197 31.3993 31.6509 31.4043C30.2067 31.4093 25.9858 31.4118 18.9885 31.4118C11.9897 31.4118 7.76824 31.4093 6.32386 31.4043C4.77786 31.3993 3.75937 31.3076 3.26842 31.1291C1.43475 30.4652 0.0195184 28.7152 0.00834623 26.6658C0.000930818 25.5239 -0.00155104 20.9813 0.000931652 13.038C0.000931652 12.0895 0.0424506 11.4461 0.125523 11.1076C0.698307 8.77556 2.78674 7.37336 5.1504 7.37336C6.57867 7.3746 8.0348 7.37522 9.51883 7.37522C10.6625 7.37522 10.8187 6.66295 10.8132 5.63083C10.7983 3.13511 10.7995 1.68641 10.8169 1.28472C10.8652 0.191218 11.5236 -0.0207859 12.5631 0.00153023C12.8285 0.00772913 13.4731 0.00772913 14.4971 0.00153023C16.0929 -0.00776811 16.1115 0.760284 16.1076 2.22386C16.1053 3.91245 16.1046 5.28492 16.1059 6.34121C16.1059 6.3857 16.1108 6.42938 16.1206 6.47139C16.3029 7.21156 16.8145 7.35846 17.5936 7.37708C17.6606 7.37832 18.1254 7.37894 18.9885 7.37894ZM18.9901 26.4445C26.6224 26.4445 30.664 26.4414 31.1155 26.4352C32.2572 26.4222 33.0124 26.3162 33.0124 25.0404C33.0062 17.226 33.0056 13.2109 33.0105 12.9952C33.0346 11.9463 32.8877 11.1653 31.7606 11.1374C30.8966 11.1175 29.8042 11.1206 28.4841 11.1467C27.6198 11.1653 27.1846 11.5899 27.1784 12.4205C27.1699 13.555 27.1699 15.3353 27.1784 17.7616C27.184 18.9128 27.0873 19.7738 25.7633 19.7663C25.0319 19.7614 24.3109 19.7626 23.6004 19.7701C22.5217 19.7793 21.9079 19.519 21.8766 18.4106C21.874 18.3226 21.8727 16.6513 21.8727 13.3969C21.8727 13.3378 21.8629 13.2787 21.8429 13.2221C21.74 12.9158 21.5577 12.6766 21.2964 12.5042C20.876 12.2253 19.5853 12.3443 18.9901 12.3443C18.3933 12.3443 17.1026 12.2253 16.6825 12.5042C16.4209 12.6766 16.2386 12.9158 16.1357 13.2221C16.1161 13.2787 16.1059 13.3378 16.1059 13.3969C16.1072 16.6513 16.1066 18.3226 16.104 18.4106C16.0723 19.519 15.4588 19.7793 14.3801 19.7701C13.6697 19.7626 12.9487 19.762 12.2172 19.7682C10.8931 19.7757 10.7964 18.9146 10.802 17.7635C10.8095 15.3372 10.8089 13.5568 10.8002 12.4224C10.794 11.5917 10.3588 11.1671 9.49466 11.1485C8.17425 11.1225 7.082 11.1194 6.21786 11.1392C5.09091 11.1671 4.94398 11.9482 4.96815 12.9971C4.97311 13.2128 4.97311 17.2279 4.96815 25.0423C4.96815 26.318 5.72504 26.4241 6.86692 26.4371C7.31694 26.4433 11.3581 26.4457 18.9901 26.4445Z" fill="#515F78"/>
<path d="M65.6981 5.93091C65.9361 5.93091 66.137 5.93156 66.3006 5.93287C66.3461 5.9332 66.3907 5.94626 66.4289 5.97109C66.4671 5.99559 66.4975 6.03087 66.5163 6.07236L71.8871 17.7678C71.8921 17.7789 71.8944 17.7907 71.8935 17.8028C71.8927 17.8145 71.8888 17.8263 71.8823 17.8361C71.8758 17.8462 71.8669 17.8544 71.8563 17.8599C71.8458 17.8658 71.834 17.8684 71.822 17.8684H68.5378C68.514 17.8684 68.4908 17.8616 68.471 17.8485C68.4512 17.8358 68.4356 17.8175 68.4262 17.7959L67.8925 16.6372C67.8747 16.5983 67.846 16.5653 67.8101 16.5421C67.7741 16.5189 67.7324 16.5069 67.6898 16.5072C67.4964 16.5072 66.8325 16.5072 65.6981 16.5072C64.5637 16.5072 63.8997 16.5072 63.7063 16.5072C63.6638 16.5069 63.622 16.5189 63.5861 16.5421C63.5501 16.5653 63.5215 16.5983 63.5036 16.6372L62.9699 17.7959C62.9605 17.8175 62.9449 17.8358 62.9251 17.8485C62.9053 17.8616 62.8821 17.8684 62.8583 17.8684H59.5741C59.5621 17.8684 59.5503 17.8658 59.5398 17.8599C59.5292 17.8544 59.5203 17.8462 59.5138 17.8361C59.5073 17.8263 59.5035 17.8145 59.5026 17.8028C59.5018 17.7907 59.504 17.7789 59.509 17.7678L64.8798 6.07236C64.8987 6.03087 64.929 5.99559 64.9672 5.97109C65.0055 5.94626 65.05 5.9332 65.0955 5.93287C65.2592 5.93156 65.46 5.93091 65.6981 5.93091ZM64.6101 14.0598C64.6055 14.0706 64.6036 14.0823 64.6047 14.0941C64.6057 14.1055 64.6097 14.1169 64.6161 14.1267C64.6226 14.1362 64.6313 14.1444 64.6417 14.1499C64.652 14.1555 64.6635 14.1584 64.6752 14.1584H66.7172C66.7289 14.1584 66.7404 14.1555 66.7507 14.1499C66.7611 14.1444 66.7699 14.1362 66.7763 14.1267C66.7828 14.1169 66.7867 14.1055 66.7877 14.0941C66.7888 14.0823 66.7869 14.0706 66.7823 14.0598L65.7613 11.6607C65.7559 11.648 65.7468 11.6372 65.7353 11.6293C65.7237 11.6218 65.7101 11.6176 65.6962 11.6176C65.6823 11.6176 65.6687 11.6218 65.6572 11.6293C65.6456 11.6372 65.6365 11.648 65.6311 11.6607L64.6101 14.0598Z" fill="#515F78"/>
<path d="M107.61 16.5014C106.477 16.5014 105.814 16.5014 105.622 16.5014C105.579 16.501 105.537 16.5131 105.501 16.536C105.464 16.5592 105.436 16.5925 105.417 16.6317L104.885 17.7904C104.876 17.8116 104.861 17.8299 104.841 17.843C104.821 17.8557 104.798 17.8626 104.774 17.8629H101.493C101.482 17.8629 101.47 17.86 101.459 17.8544C101.449 17.8489 101.44 17.8407 101.433 17.8306C101.427 17.8205 101.423 17.809 101.422 17.7969C101.421 17.7852 101.423 17.7731 101.428 17.7623L106.792 6.07797C106.811 6.03648 106.841 6.0012 106.879 5.9767C106.917 5.95187 106.962 5.93848 107.008 5.93848C107.171 5.93848 107.372 5.93848 107.61 5.93848C107.847 5.93848 108.047 5.93848 108.211 5.93848C108.256 5.93848 108.301 5.95187 108.339 5.9767C108.377 6.0012 108.408 6.03648 108.427 6.07797L113.793 17.7607C113.799 17.7715 113.801 17.7832 113.8 17.7953C113.799 17.8071 113.795 17.8188 113.789 17.8286C113.782 17.8387 113.773 17.8469 113.763 17.8525C113.752 17.8583 113.74 17.861 113.728 17.861H110.448C110.424 17.861 110.401 17.8541 110.381 17.841C110.361 17.8283 110.346 17.81 110.336 17.7884L109.802 16.6317C109.785 16.5928 109.756 16.5595 109.72 16.5366C109.684 16.5134 109.642 16.5014 109.6 16.5014C109.407 16.5014 108.743 16.5014 107.61 16.5014ZM106.522 14.0654C106.518 14.0749 106.517 14.0853 106.517 14.0954C106.518 14.1059 106.522 14.1157 106.528 14.1242C106.534 14.133 106.541 14.1402 106.55 14.1451C106.559 14.15 106.569 14.1526 106.58 14.1526L108.631 14.1601C108.641 14.1601 108.651 14.1575 108.66 14.1523C108.67 14.1474 108.677 14.1405 108.683 14.1317C108.689 14.1232 108.692 14.1131 108.693 14.1029C108.694 14.0928 108.692 14.0824 108.689 14.0729L107.671 11.6441C107.666 11.633 107.658 11.6235 107.648 11.617C107.638 11.6101 107.626 11.6069 107.614 11.6069C107.601 11.6069 107.59 11.6101 107.58 11.617C107.569 11.6235 107.561 11.633 107.556 11.6441L106.522 14.0654Z" fill="#515F78"/>
<path d="M52.0091 10.5095C52.8112 10.5095 53.3387 10.5082 53.5917 10.5059C53.6287 10.5059 53.6641 10.4909 53.6903 10.4645C53.7165 10.438 53.7311 10.4021 53.7311 10.3645V6.23407C53.7311 6.20206 53.7441 6.17135 53.7671 6.14881C53.7901 6.12595 53.8213 6.11321 53.8539 6.11321L56.8071 6.11876C56.8289 6.11876 56.8498 6.12693 56.8657 6.1413C56.8816 6.156 56.8912 6.1756 56.8926 6.19683C56.8926 6.20075 56.892 8.13366 56.8908 11.9956C56.8883 15.8575 56.887 17.7904 56.887 17.794C56.8852 17.8149 56.8753 17.8345 56.8595 17.8485C56.8437 17.8626 56.8229 17.8704 56.8015 17.8704L53.8483 17.874C53.8161 17.8737 53.7853 17.8606 53.7627 17.8381C53.7401 17.8152 53.7274 17.7848 53.7274 17.7531L53.7311 13.6227C53.7311 13.6041 53.7275 13.5858 53.7205 13.5688C53.7135 13.5515 53.7032 13.5358 53.6903 13.5227C53.6773 13.5097 53.662 13.4992 53.6451 13.492C53.6281 13.4852 53.61 13.4813 53.5917 13.4813C53.3375 13.479 52.8094 13.4777 52.0072 13.4777C51.2038 13.4764 50.6757 13.477 50.4228 13.4796C50.3858 13.4796 50.3503 13.4943 50.3241 13.5208C50.298 13.5476 50.2833 13.5835 50.2833 13.6207V17.7512C50.2833 17.7832 50.2704 17.8142 50.2473 17.8367C50.2243 17.8593 50.1931 17.872 50.1605 17.872L47.2074 17.8665C47.1859 17.8661 47.1654 17.858 47.1499 17.8436C47.1344 17.8289 47.1251 17.8093 47.1237 17.7884C47.1224 17.7861 47.123 15.8532 47.1255 11.99C47.1268 8.12811 47.1274 6.19585 47.1274 6.19324C47.1288 6.17201 47.1384 6.15208 47.1543 6.13771C47.1702 6.12301 47.1912 6.11517 47.2129 6.11517L50.1661 6.11157C50.1987 6.11157 50.2299 6.12431 50.2529 6.14685C50.2759 6.16939 50.2889 6.2001 50.2889 6.23244L50.2851 10.3629C50.2849 10.3815 50.2883 10.4001 50.2952 10.4174C50.3021 10.4347 50.3124 10.4504 50.3253 10.4638C50.3383 10.4772 50.3538 10.4876 50.3708 10.4948C50.3879 10.502 50.4061 10.5059 50.4246 10.5059C50.6775 10.5072 51.2057 10.5082 52.0091 10.5095Z" fill="#515F78"/>
<path d="M81.26 11.263C82.6287 11.7079 83.3647 12.6608 83.4676 14.1213C83.5774 15.7057 82.5748 17.0205 81.0666 17.6285C80.6475 17.7974 79.97 17.879 79.034 17.8741C77.8203 17.8666 76.3424 17.8643 74.6005 17.8666C74.5744 17.8666 74.5493 17.8562 74.5308 17.8379C74.5123 17.8192 74.502 17.7941 74.502 17.768V6.18423C74.502 6.17247 74.5042 6.16136 74.5087 6.15058C74.5132 6.14013 74.5198 6.13033 74.5281 6.12216C74.5364 6.11399 74.5462 6.10779 74.5571 6.10321C74.5679 6.09897 74.5795 6.09668 74.5912 6.09668C77.1563 6.10158 78.4693 6.1055 78.53 6.10779C79.4152 6.14241 80.1627 6.37566 80.7729 6.80719C82.0949 7.74049 82.5118 9.22651 81.6804 10.6697C81.5857 10.8314 81.3622 10.9765 81.2247 11.1326C81.2159 11.1424 81.2097 11.1545 81.2064 11.1673C81.2035 11.18 81.2038 11.1937 81.2071 11.2065C81.2107 11.2195 81.2175 11.2313 81.2267 11.2411C81.2358 11.2509 81.2472 11.2584 81.26 11.263ZM77.6151 8.94394L77.576 10.5319C77.5755 10.5639 77.5875 10.5946 77.6094 10.6175C77.6314 10.6403 77.6614 10.6537 77.6932 10.6547L78.1786 10.6678C78.3378 10.6717 78.496 10.6537 78.6441 10.6149C78.7922 10.576 78.9274 10.5172 79.0419 10.4414C79.1564 10.3659 79.248 10.2751 79.3114 10.1742C79.3748 10.0732 79.4088 9.96413 79.4115 9.85339L79.4152 9.71194C79.418 9.60087 79.3894 9.49046 79.331 9.38658C79.2725 9.28237 79.1855 9.18731 79.0748 9.10597C78.9641 9.02495 78.8319 8.95929 78.6858 8.91323C78.5397 8.8675 78.3825 8.84169 78.2232 8.83777L77.7378 8.82666C77.7061 8.82634 77.6754 8.8381 77.6524 8.85998C77.6295 8.8822 77.616 8.91225 77.6151 8.94394ZM77.5835 12.9737L77.6095 14.8893C77.6097 14.9047 77.613 14.9197 77.6191 14.9341C77.6252 14.9481 77.6341 14.9609 77.6451 14.9717C77.6562 14.9824 77.6692 14.9906 77.6835 14.9965C77.6978 15.002 77.7131 15.005 77.7285 15.0047L79.1791 14.9841C79.3454 14.9818 79.5098 14.953 79.6627 14.8995C79.8157 14.8459 79.9543 14.7688 80.0706 14.6721C80.1865 14.5757 80.2783 14.4617 80.3401 14.3369C80.4018 14.2118 80.4325 14.0785 80.4306 13.9446V13.8368C80.4266 13.566 80.2894 13.3083 80.049 13.1204C79.8087 12.9323 79.4851 12.8294 79.1493 12.8343L77.6987 12.8548C77.6834 12.8552 77.6682 12.8584 77.6541 12.8643C77.6399 12.8705 77.6271 12.8793 77.6165 12.8904C77.6057 12.9015 77.5973 12.9146 77.5917 12.9287C77.586 12.943 77.5832 12.9584 77.5835 12.9737Z" fill="#515F78"/>
<path d="M96.5522 17.872C95.7659 17.8733 95.2713 17.8642 95.0681 17.8443C95.0442 17.8423 95.0217 17.8315 95.0057 17.8136C94.9894 17.7956 94.9805 17.7721 94.9805 17.7476L94.9639 9.21332C94.9639 9.19437 94.96 9.1751 94.9528 9.15745C94.9453 9.13981 94.9345 9.12381 94.9208 9.11009C94.907 9.0967 94.8907 9.08592 94.8731 9.07906C94.8551 9.07187 94.8362 9.06828 94.8169 9.06828L92.2617 9.07219C92.2306 9.07219 92.2006 9.06011 92.1784 9.03855C92.1558 9.01699 92.1431 8.98759 92.1428 8.95688L92.1372 6.26773C92.1372 6.23376 92.1503 6.20109 92.1738 6.17692C92.1976 6.15274 92.2297 6.13837 92.2636 6.13739C93.7513 6.10048 95.1788 6.08186 96.5466 6.08186C97.915 6.08055 99.3429 6.09786 100.829 6.1338C100.864 6.13412 100.896 6.14817 100.92 6.17267C100.944 6.19684 100.958 6.22984 100.958 6.26414L100.954 8.95133C100.954 8.96668 100.951 8.98171 100.945 8.99608C100.939 9.01013 100.93 9.0232 100.919 9.03398C100.908 9.04508 100.895 9.05357 100.881 9.05945C100.866 9.06533 100.85 9.06828 100.835 9.06828L98.2796 9.06664C98.2606 9.06631 98.2414 9.06991 98.2237 9.07709C98.2058 9.08428 98.1894 9.09474 98.176 9.10846C98.1623 9.12185 98.1515 9.13786 98.144 9.1555C98.1365 9.17346 98.1329 9.19241 98.1329 9.21168L98.1254 17.7476C98.1251 17.7718 98.1159 17.7946 98.0996 17.8123C98.0836 17.8299 98.0614 17.8407 98.0379 17.8423C97.8334 17.8622 97.3381 17.872 96.5522 17.872Z" fill="#515F78"/>
<path d="M118.649 6.08696C120.017 6.08598 121.444 6.10198 122.932 6.1353C122.966 6.13628 122.998 6.15066 123.022 6.17483C123.045 6.19933 123.059 6.23167 123.059 6.26564V8.95284C123.059 8.98387 123.046 9.01392 123.024 9.03581C123.001 9.0577 122.971 9.07011 122.939 9.07011H120.384C120.346 9.07011 120.309 9.08546 120.282 9.11258C120.254 9.13969 120.239 9.1766 120.239 9.21515V17.7475C120.239 17.7716 120.23 17.7945 120.214 17.8121C120.197 17.8298 120.175 17.8402 120.152 17.8422C119.948 17.8634 119.454 17.8745 118.668 17.8758C117.882 17.8768 117.387 17.8677 117.184 17.8477C117.16 17.8461 117.138 17.8353 117.122 17.8177C117.106 17.8 117.096 17.7772 117.096 17.753L117.07 9.2207C117.07 9.20176 117.066 9.18281 117.059 9.16517C117.052 9.14753 117.041 9.13152 117.028 9.11813C117.014 9.10474 116.998 9.09396 116.981 9.08677C116.963 9.07926 116.944 9.07566 116.925 9.07566L114.37 9.08318C114.354 9.08318 114.338 9.08056 114.324 9.07468C114.309 9.0688 114.296 9.06031 114.284 9.04953C114.273 9.03842 114.264 9.02536 114.258 9.01131C114.252 8.99694 114.249 8.98158 114.249 8.9659L114.242 6.27871C114.242 6.24474 114.255 6.21207 114.278 6.1879C114.302 6.16372 114.334 6.14935 114.368 6.14837C115.854 6.11015 117.282 6.08957 118.649 6.08696Z" fill="#515F78"/>
<path d="M89.1719 6.12298L86.4677 6.11841C86.3322 6.11808 86.2221 6.22784 86.2217 6.36341L86.2021 17.6182C86.2021 17.7538 86.3116 17.8638 86.4472 17.8642L89.1513 17.8687C89.2869 17.8691 89.397 17.7593 89.3973 17.6237L89.4169 6.36896C89.4172 6.2334 89.3075 6.12331 89.1719 6.12298Z" fill="#515F78"/>
<path d="M66.6729 26.291C65.5187 25.0029 64.8554 24.2614 64.683 24.0667C64.6748 24.0578 64.6642 24.0516 64.6524 24.049C64.6407 24.0464 64.6284 24.0471 64.6171 24.0513C64.6058 24.0552 64.596 24.0627 64.5889 24.0725C64.5817 24.082 64.5776 24.0938 64.577 24.1059V30.2185C64.5773 30.2371 64.5739 30.2558 64.567 30.2734C64.56 30.2907 64.5498 30.3064 64.5369 30.3198C64.5239 30.3332 64.5084 30.3436 64.4914 30.3508C64.4743 30.358 64.456 30.3619 64.4376 30.3619H63.6956C63.6561 30.3619 63.6183 30.3463 63.5904 30.3182C63.5625 30.2904 63.5468 30.2525 63.5468 30.213L63.5449 21.6137C63.5453 21.5977 63.5506 21.582 63.5599 21.5686C63.5693 21.5556 63.5824 21.5454 63.5975 21.5395C63.6127 21.5337 63.6292 21.5327 63.645 21.5363C63.6608 21.5399 63.6751 21.548 63.6862 21.5598C65.0748 23.0922 66.3109 24.4636 67.3945 25.6736C68.5487 26.9616 69.212 27.7032 69.3843 27.8975C69.3926 27.9063 69.4033 27.9126 69.415 27.9155C69.4267 27.9181 69.439 27.9175 69.4503 27.9132C69.4616 27.909 69.4714 27.9018 69.4785 27.892C69.4856 27.8822 69.4898 27.8707 69.4904 27.8587V21.744C69.4904 21.7065 69.5051 21.6705 69.5312 21.6441C69.5574 21.6176 69.5928 21.6026 69.6298 21.6026H70.3718C70.3914 21.6026 70.4107 21.6065 70.4288 21.614C70.4468 21.6215 70.4632 21.6323 70.4771 21.6464C70.4908 21.6601 70.5018 21.6764 70.5093 21.6944C70.5168 21.7127 70.5206 21.732 70.5206 21.7516L70.5225 30.3505C70.522 30.3668 70.5168 30.3825 70.5074 30.3956C70.4981 30.409 70.485 30.4191 70.4699 30.425C70.4547 30.4305 70.4382 30.4318 70.4224 30.4282C70.4066 30.4246 70.3923 30.4165 70.3812 30.4044C68.9926 28.8723 67.7565 27.501 66.6729 26.291Z" fill="#2E3142"/>
<path d="M119.919 25.6829C121.071 26.97 121.732 27.7105 121.903 27.9052C121.912 27.9147 121.922 27.9216 121.935 27.9248C121.947 27.9278 121.96 27.9271 121.971 27.9225C121.983 27.918 121.993 27.9101 122 27.8997C122.008 27.8892 122.011 27.8768 122.011 27.8644V21.7625C122.011 21.7253 122.026 21.6893 122.052 21.6629C122.078 21.6361 122.114 21.6214 122.15 21.6214H122.891C122.93 21.6214 122.968 21.6371 122.996 21.6648C123.024 21.6929 123.04 21.7305 123.04 21.77V30.3526C123.039 30.3686 123.034 30.3847 123.025 30.3977C123.015 30.4108 123.002 30.4209 122.987 30.4268C122.972 30.4327 122.955 30.4337 122.939 30.4301C122.924 30.4265 122.909 30.4183 122.898 30.4065C121.513 28.8767 120.28 27.508 119.199 26.3003C118.047 25.0135 117.385 24.2727 117.213 24.078C117.205 24.0691 117.194 24.0629 117.182 24.0603C117.17 24.0577 117.158 24.0584 117.147 24.0629C117.135 24.0672 117.125 24.075 117.118 24.0848C117.111 24.0949 117.107 24.1067 117.107 24.1188V30.2207C117.107 30.2579 117.092 30.2938 117.066 30.3206C117.04 30.3471 117.005 30.3618 116.967 30.3618H116.228C116.188 30.3618 116.15 30.3461 116.122 30.3183C116.094 30.2906 116.079 30.2527 116.079 30.2132V21.6305C116.079 21.6145 116.084 21.5989 116.094 21.5855C116.103 21.5724 116.116 21.5623 116.131 21.5564C116.147 21.5505 116.163 21.5495 116.179 21.5531C116.195 21.5567 116.209 21.5649 116.22 21.5766C117.605 23.1068 118.838 24.4752 119.919 25.6829Z" fill="#2E3142"/>
<path d="M50.2493 25.53C50.2725 25.5529 50.302 25.5686 50.334 25.5748C50.366 25.581 50.3991 25.5777 50.4291 25.5657C50.4591 25.5532 50.4847 25.5323 50.5026 25.5055C50.5206 25.4788 50.5301 25.4471 50.5301 25.4151V24.8048C50.5302 24.7683 50.5425 24.7326 50.565 24.7036C50.5876 24.6748 50.6191 24.6539 50.6547 24.6451C50.9299 24.5794 51.1382 24.5651 51.2795 24.6023C51.3296 24.6154 51.3737 24.6451 51.4045 24.6869C51.4353 24.7284 51.4509 24.7794 51.4488 24.831C51.4289 25.2661 51.3453 25.6728 51.1977 26.0508C51.1802 26.0958 51.1794 26.1455 51.1955 26.1909C51.2115 26.2363 51.2433 26.2742 51.2851 26.2984L52.0253 26.726C52.0364 26.7325 52.046 26.741 52.0534 26.7518C52.0608 26.7622 52.0658 26.7747 52.068 26.7874C52.0966 26.9498 52.0922 27.1474 52.055 27.3806C52.0525 27.395 52.0472 27.4091 52.0394 27.4215C52.0316 27.4339 52.0214 27.4447 52.0094 27.4532C51.9975 27.4616 51.9841 27.4679 51.9699 27.4708C51.9556 27.4741 51.941 27.4744 51.9267 27.4718C51.4643 27.3911 51.0973 27.2447 50.8258 27.0327C50.7877 27.003 50.741 26.986 50.6927 26.9847C50.6445 26.9834 50.5972 26.9978 50.558 27.0255C49.5147 27.7638 48.0381 27.8066 47.3426 26.6143C46.939 25.9227 47.1231 24.7957 47.8484 24.3308C48.0158 24.2217 48.0474 24.0822 47.9433 23.9124C47.3909 23.016 47.9526 21.8834 48.9549 21.7047C49.7974 21.5541 50.465 22.0657 50.7067 22.8634C50.7107 22.8768 50.7119 22.8909 50.7102 22.9046C50.7085 22.9183 50.7041 22.9317 50.6971 22.9435C50.6901 22.9556 50.6807 22.9657 50.6696 22.9735C50.6584 22.9817 50.6458 22.9872 50.6324 22.9899L50.041 23.1107C50.0052 23.1186 49.9678 23.1166 49.9331 23.1048C49.8983 23.0931 49.8675 23.0719 49.8439 23.0438C49.6901 22.869 49.5885 22.7592 49.5389 22.7145C49.1911 22.4058 48.7318 22.6273 48.6797 23.0513C48.5886 23.8173 49.6188 24.8999 50.2493 25.53ZM49.7565 26.2703L48.4919 24.9185C48.483 24.9084 48.4705 24.9025 48.4573 24.9019C48.4441 24.9012 48.4311 24.9058 48.4212 24.9146L48.3952 24.9388C48.2948 25.0325 48.2125 25.1436 48.1528 25.2658C48.0932 25.3876 48.0574 25.5183 48.0476 25.6499C48.0377 25.7816 48.054 25.9116 48.0955 26.0328C48.1369 26.154 48.2027 26.2637 48.2892 26.3559L48.3078 26.3781C48.3941 26.4705 48.4994 26.5434 48.6175 26.5927C48.7357 26.6417 48.8644 26.6665 48.9963 26.6652C49.1283 26.6642 49.2609 26.6371 49.3865 26.5855C49.5121 26.5339 49.6284 26.4591 49.7286 26.3653L49.7546 26.3412C49.7642 26.332 49.7697 26.3193 49.7701 26.3062C49.7704 26.2928 49.7655 26.2801 49.7565 26.2703Z" fill="#2E3142"/>
<path d="M55.9929 21.7088L60.8634 21.731C60.8986 21.7313 60.9322 21.7457 60.9569 21.7709C60.9816 21.796 60.9954 21.8297 60.9954 21.8649L60.9973 22.5232C60.9973 22.5549 60.9848 22.5856 60.9625 22.6081C60.9403 22.6307 60.91 22.6437 60.8783 22.644L57.0399 22.6627C57.0078 22.6627 56.9771 22.6754 56.9544 22.6979C56.9317 22.7208 56.919 22.7515 56.919 22.7835L56.9264 25.2401C56.9269 25.2724 56.9401 25.3031 56.963 25.3257C56.986 25.3486 57.0169 25.361 57.0492 25.361L60.3408 25.376C60.3795 25.3763 60.4163 25.392 60.4435 25.4191C60.4706 25.4462 60.4859 25.4828 60.4859 25.521V26.2332C60.4859 26.2714 60.471 26.3077 60.4445 26.3344C60.418 26.3616 60.382 26.3766 60.3445 26.3766L57.0585 26.3857C57.0244 26.3857 56.9918 26.3995 56.9677 26.4233C56.9437 26.4475 56.9302 26.4801 56.9302 26.5141L56.9357 29.1641C56.9357 29.1814 56.9391 29.1984 56.9456 29.214C56.9522 29.2297 56.9618 29.2441 56.9739 29.2562C56.986 29.2683 57.0003 29.2781 57.0161 29.2846C57.0319 29.2911 57.0488 29.2944 57.0659 29.2944L60.8615 29.3C60.8987 29.3003 60.9342 29.3156 60.9603 29.3421C60.9864 29.3686 61.001 29.4042 61.001 29.4414L60.9954 30.1908C60.9954 30.2244 60.982 30.2568 60.958 30.2809C60.934 30.3048 60.9013 30.3185 60.8671 30.3192L56.0152 30.3247C56.0013 30.3247 55.9875 30.3218 55.9746 30.3166C55.9617 30.3113 55.9501 30.3035 55.9402 30.2937C55.9304 30.2839 55.9226 30.2721 55.9172 30.2591C55.9119 30.2463 55.9092 30.2326 55.9092 30.2186L55.9334 21.7643C55.9336 21.7568 55.9353 21.7493 55.9384 21.7424C55.9416 21.7356 55.946 21.7294 55.9515 21.7241C55.9571 21.7189 55.9636 21.715 55.9707 21.7124C55.9777 21.7098 55.9853 21.7085 55.9929 21.7088Z" fill="#2E3142"/>
<path d="M76.2641 22.8114V30.2039C76.2641 30.2372 76.2507 30.2696 76.227 30.2931C76.2033 30.3169 76.1712 30.3303 76.1376 30.3303H75.3826C75.349 30.3303 75.3169 30.3169 75.2932 30.2931C75.2695 30.2696 75.2561 30.2372 75.2561 30.2039V22.83C75.2561 22.7967 75.2428 22.7643 75.2191 22.7408C75.1954 22.717 75.1632 22.7036 75.1297 22.7036H72.8999C72.8663 22.7036 72.8342 22.6902 72.8105 22.6667C72.7868 22.6428 72.7734 22.6108 72.7734 22.5772V21.8706C72.7734 21.8369 72.7868 21.8049 72.8105 21.7811C72.8342 21.7575 72.8663 21.7441 72.8999 21.7441H78.7412C78.7747 21.7441 78.8069 21.7575 78.8306 21.7811C78.8543 21.8049 78.8676 21.8369 78.8676 21.8706V22.5585C78.8676 22.5922 78.8543 22.6242 78.8306 22.648C78.8069 22.6719 78.7747 22.685 78.7412 22.685H76.3905C76.357 22.685 76.3248 22.6983 76.3011 22.7222C76.2774 22.7457 76.2641 22.7781 76.2641 22.8114Z" fill="#2E3142"/>
<path d="M87.1501 30.1686C87.1609 30.183 87.1674 30.2 87.1687 30.218C87.1703 30.2359 87.1667 30.2539 87.1589 30.2699C87.1507 30.2859 87.1383 30.2993 87.123 30.3088C87.1076 30.3179 87.09 30.3228 87.072 30.3228H86.2276C86.1567 30.3228 86.0868 30.3062 86.0237 30.2741C85.9604 30.2421 85.9055 30.1957 85.8633 30.1386L83.6577 27.1538C83.6217 27.1054 83.5753 27.0662 83.5218 27.0391C83.4682 27.0117 83.4087 26.9976 83.349 26.9976H82.1736C82.1399 26.9976 82.1079 27.011 82.0841 27.0349C82.0606 27.0584 82.0472 27.0907 82.0472 27.1241V30.1797C82.0472 30.217 82.0321 30.2529 82.005 30.2797C81.9782 30.3062 81.942 30.3209 81.9041 30.3209H81.1599C81.1155 30.3209 81.073 30.3032 81.0417 30.2719C81.0103 30.2405 80.9927 30.198 80.9927 30.1536V21.8111C80.9927 21.7938 80.9963 21.7768 81.0028 21.7608C81.0093 21.7448 81.0191 21.7304 81.0316 21.7183C81.0436 21.7062 81.0583 21.6968 81.0743 21.6902C81.0904 21.6837 81.1073 21.6808 81.1247 21.6808C81.8525 21.6971 82.4852 21.6971 83.0236 21.6808C83.7984 21.6572 84.4119 21.752 84.8647 21.9653C86.9623 22.9528 87.0684 25.8762 84.8461 26.8193C84.8304 26.8258 84.8164 26.8356 84.8052 26.8484C84.7941 26.8611 84.786 26.8761 84.7817 26.8925C84.7772 26.9088 84.7765 26.9258 84.7794 26.9424C84.7827 26.9591 84.7896 26.9748 84.7994 26.9885L87.1501 30.1686ZM81.9933 22.8672L81.9969 25.9471C81.9972 25.9667 82.0011 25.9859 82.0089 26.0039C82.0168 26.0219 82.0279 26.0379 82.0419 26.0516C82.0557 26.0653 82.0723 26.0761 82.0906 26.0833C82.1086 26.0905 82.1279 26.0941 82.1475 26.0937L83.5387 26.0921C84.0356 26.0911 84.5122 25.9144 84.8631 25.6011C85.2139 25.2882 85.4102 24.8638 85.4096 24.4222V24.3774C85.4089 24.1586 85.3599 23.942 85.2655 23.7401C85.1708 23.5379 85.0323 23.3546 84.8578 23.2001C84.6834 23.0459 84.4766 22.9234 84.2489 22.8401C84.0212 22.7568 83.7772 22.7143 83.5312 22.7147L82.1403 22.7166C82.1207 22.717 82.1014 22.7209 82.0834 22.7287C82.0655 22.7366 82.0491 22.7477 82.0354 22.7617C82.0217 22.7754 82.0109 22.7921 82.0037 22.8104C81.9965 22.8283 81.9929 22.8479 81.9933 22.8672Z" fill="#2E3142"/>
<path d="M94.2234 22.6438H90.3759C90.3442 22.6438 90.3138 22.6562 90.2916 22.6787C90.2694 22.7009 90.2566 22.7313 90.2566 22.7627V25.2473C90.2566 25.279 90.2694 25.3091 90.2916 25.3316C90.3138 25.3538 90.3442 25.3662 90.3759 25.3662H93.7066C93.7379 25.3662 93.7683 25.379 93.7905 25.4012C93.8131 25.4234 93.8255 25.4538 93.8255 25.4855V26.261C93.8255 26.2923 93.8131 26.3227 93.7905 26.3449C93.7683 26.3675 93.7379 26.3799 93.7066 26.3799H90.383C90.3517 26.3799 90.3213 26.3923 90.2991 26.4148C90.2766 26.4371 90.2641 26.4674 90.2641 26.4988V29.1844C90.2641 29.2157 90.2766 29.2461 90.2991 29.2683C90.3213 29.2909 90.3517 29.3033 90.383 29.3033H94.2198C94.2511 29.3033 94.2815 29.316 94.3037 29.3382C94.3263 29.3604 94.3387 29.3908 94.3387 29.4225V30.2127C94.3387 30.2444 94.3263 30.2745 94.3037 30.297C94.2815 30.3192 94.2511 30.3316 94.2198 30.3316H89.3713C89.34 30.3316 89.3096 30.3192 89.2874 30.297C89.2652 30.2745 89.2524 30.2444 89.2524 30.2127V21.8255C89.2524 21.7941 89.2652 21.7637 89.2874 21.7415C89.3096 21.719 89.34 21.7065 89.3713 21.7065H94.2234C94.2551 21.7065 94.2851 21.719 94.3077 21.7415C94.3299 21.7637 94.3426 21.7941 94.3426 21.8255V22.5249C94.3426 22.5562 94.3299 22.5866 94.3077 22.6088C94.2851 22.6313 94.2551 22.6438 94.2234 22.6438Z" fill="#2E3142"/>
<path d="M105.363 21.7061L104.716 21.7074C104.62 21.7074 104.542 21.7858 104.542 21.8825L104.556 30.1505C104.556 30.2472 104.635 30.3253 104.731 30.3249L105.378 30.3239C105.475 30.3236 105.553 30.2452 105.553 30.1488L105.539 21.8805C105.538 21.7841 105.46 21.7061 105.363 21.7061Z" fill="#2E3142"/>
<path d="M108.513 21.7088L113.378 21.7421C113.413 21.7431 113.446 21.7578 113.47 21.7826C113.495 21.8078 113.508 21.8411 113.508 21.876L113.51 22.5327C113.51 22.5647 113.498 22.5954 113.475 22.6179C113.452 22.6408 113.421 22.6535 113.389 22.6535L109.557 22.6646C109.525 22.6646 109.494 22.677 109.472 22.6993C109.449 22.7215 109.436 22.7519 109.436 22.7835L109.437 25.2385C109.438 25.2705 109.451 25.3015 109.474 25.3241C109.497 25.3466 109.528 25.3593 109.56 25.3593L112.848 25.3796C112.886 25.3806 112.923 25.3962 112.95 25.4234C112.976 25.4505 112.991 25.4871 112.991 25.5246V26.2371C112.991 26.2747 112.976 26.3106 112.949 26.3371C112.923 26.3635 112.887 26.3782 112.85 26.3782L109.568 26.3802C109.534 26.3802 109.501 26.3939 109.477 26.4177C109.453 26.4419 109.439 26.4746 109.439 26.5086V29.1549C109.439 29.1892 109.453 29.2219 109.477 29.2464C109.501 29.2706 109.533 29.2846 109.568 29.2849L113.359 29.298C113.397 29.2987 113.432 29.3137 113.458 29.3401C113.484 29.3666 113.499 29.4022 113.499 29.4394L113.492 30.1888C113.492 30.2058 113.488 30.2225 113.482 30.2378C113.475 30.2535 113.466 30.2676 113.453 30.2796C113.441 30.2914 113.427 30.3009 113.411 30.3074C113.395 30.3139 113.379 30.3172 113.361 30.3172L108.519 30.3117C108.491 30.3117 108.464 30.3005 108.444 30.2806C108.424 30.2607 108.413 30.2336 108.413 30.2055L108.454 21.7643C108.454 21.7568 108.456 21.7493 108.459 21.7424C108.462 21.7356 108.466 21.7294 108.472 21.7241C108.477 21.7189 108.484 21.715 108.491 21.7124C108.498 21.7098 108.506 21.7085 108.513 21.7088Z" fill="#2E3142"/>
<path d="M96.2345 21.9613C96.2335 21.9375 96.2375 21.9136 96.246 21.8914C96.2545 21.8692 96.2675 21.849 96.2842 21.8316C96.3008 21.8143 96.3208 21.8006 96.343 21.7915C96.3652 21.782 96.389 21.7771 96.4132 21.7771L102.228 21.7346C102.256 21.7346 102.282 21.7451 102.301 21.7643C102.321 21.7833 102.332 21.8094 102.332 21.8369L102.325 22.5807C102.325 22.6114 102.312 22.6411 102.29 22.663C102.268 22.6849 102.239 22.6973 102.208 22.6976L99.9857 22.7202C99.9543 22.7205 99.9243 22.7329 99.9021 22.7548C99.8798 22.7767 99.8671 22.8064 99.8664 22.8371L99.8537 30.2352C99.8537 30.2473 99.8511 30.2597 99.8462 30.2712C99.8416 30.2826 99.8344 30.2927 99.8256 30.3016C99.8168 30.31 99.8063 30.3169 99.7949 30.3215C99.7835 30.3261 99.7711 30.3283 99.7586 30.328L98.9478 30.3169C98.923 30.3166 98.8995 30.3061 98.8819 30.2885C98.8645 30.2708 98.8547 30.247 98.8547 30.2222L98.8476 22.8558C98.8476 22.8205 98.8338 22.7865 98.8097 22.761C98.7852 22.7359 98.7522 22.7212 98.7172 22.7202L96.4299 22.6718C96.3845 22.6709 96.341 22.6526 96.3087 22.6209C96.276 22.5892 96.2571 22.5461 96.2551 22.5007L96.2345 21.9613Z" fill="#2E3142"/>
<path d="M51.9341 29.3117L47.2589 29.2954C47.1829 29.2951 47.121 29.3565 47.1208 29.4326L47.1182 30.1804C47.1179 30.2561 47.1793 30.3182 47.2553 30.3182L51.9305 30.3345C52.0066 30.3349 52.0684 30.2735 52.0686 30.1977L52.0712 29.4499C52.0715 29.3738 52.0101 29.3121 51.9341 29.3117Z" fill="#2E3142"/>
</svg>
