<svg width="660" height="69" viewBox="0 0 660 69" fill="none" xmlns="http://www.w3.org/2000/svg">
<path d="M79.2048 0L79.2169 64.7416C79.2169 64.9563 79.1316 65.1622 78.9798 65.314C78.828 65.4659 78.6221 65.5511 78.4074 65.5511H64.4271C64.2445 65.5511 64.0693 65.4773 63.9401 65.3459C63.811 65.2144 63.7384 65.0362 63.7384 64.8503V25.713C63.7392 25.6357 63.7145 25.5604 63.6681 25.4987C63.6217 25.437 63.5562 25.3923 63.4818 25.3716C63.4074 25.351 63.3282 25.3555 63.2566 25.3844C63.1851 25.4134 63.125 25.4651 63.0859 25.5317L44.7799 55.1838C44.6763 55.3536 44.5307 55.494 44.3572 55.5913C44.1837 55.6886 43.9881 55.7397 43.7891 55.7396H28.3589C28.2554 55.7394 28.1541 55.7125 28.065 55.6616C27.976 55.6107 27.9023 55.5376 27.8514 55.4496L18.9824 41.1311C18.9596 41.0854 18.9214 41.0492 18.8746 41.0288C18.8278 41.0084 18.7753 41.0051 18.7264 41.0195C18.6774 41.0339 18.635 41.0651 18.6067 41.1076C18.5784 41.1501 18.566 41.2012 18.5715 41.2519V65.2007C18.5715 65.377 18.5015 65.546 18.3769 65.6707C18.2523 65.7953 18.0832 65.8653 17.907 65.8653H3.76966C3.57098 65.8653 3.38042 65.7851 3.23993 65.6423C3.09944 65.4996 3.02051 65.306 3.02051 65.1041V15.5752C3.02051 15.3701 3.10198 15.1734 3.24701 15.0284C3.39203 14.8833 3.58873 14.8019 3.79383 14.8019H18.4628C18.6731 14.8023 18.88 14.8569 19.064 14.9605C19.248 15.0641 19.4029 15.2133 19.514 15.3939L35.8988 41.8561C35.9324 41.9123 35.98 41.9586 36.0371 41.9907C36.0943 42.0227 36.159 42.0396 36.2254 42.0396C36.2918 42.0396 36.3576 42.0227 36.4167 41.9907C36.4758 41.9586 36.5263 41.9123 36.5634 41.8561L62.4455 0H79.2048Z" fill="#0E0E0E"/>
<path d="M343.319 25.6284C333.105 21.2301 322.604 19.7842 311.818 21.2905C310.038 21.5402 308.62 22.1766 307.565 23.1997C307.321 23.4351 307.124 23.7148 306.986 24.0225C306.848 24.3303 306.771 24.6598 306.761 24.9917C306.751 25.3237 306.807 25.6515 306.927 25.9558C307.046 26.2602 307.226 26.535 307.456 26.7642C308.02 27.32 308.918 27.8718 310.151 28.4196C310.455 28.5557 310.781 28.6414 311.117 28.6733C321.614 29.8817 329.435 30.8483 334.583 31.5733C343.089 32.7695 350.641 37.5424 351.717 46.7981C353.505 62.1679 338.896 66.6145 326.85 67.1461C314.372 67.702 302.305 65.7646 290.648 61.3341C290.553 61.2981 290.466 61.2434 290.392 61.1731C290.318 61.1027 290.259 61.0183 290.219 60.9248C290.178 60.8312 290.157 60.7305 290.156 60.6285C290.155 60.5266 290.174 60.4255 290.213 60.3312L294.914 49.0335C294.951 48.9436 295.005 48.8621 295.074 48.7937C295.143 48.7254 295.225 48.6716 295.315 48.6355C295.405 48.5994 295.502 48.5819 295.599 48.5838C295.696 48.5857 295.792 48.6072 295.88 48.6468C306.425 53.2948 317.252 55.1999 328.36 54.3621C331.139 54.1567 336.528 52.9605 336.722 49.553C336.854 47.221 332.794 45.9764 331.212 45.771C325.71 45.0782 318.818 44.2163 310.537 43.1852C302.103 42.134 293.017 38.5211 291.748 28.8908C290.093 16.3364 300.122 10.4882 311.419 8.92945C324.171 7.17336 336.597 8.76834 348.696 13.7144C348.739 13.7316 348.778 13.7572 348.811 13.7897C348.844 13.8222 348.87 13.8609 348.888 13.9036C348.906 13.9463 348.916 13.9922 348.916 14.0385C348.916 14.0848 348.907 14.1307 348.889 14.1735L344.286 25.2417C344.247 25.3315 344.191 25.4127 344.122 25.4809C344.052 25.549 343.97 25.6026 343.88 25.6386C343.79 25.6746 343.694 25.6922 343.598 25.6905C343.501 25.6887 343.407 25.6676 343.319 25.6284Z" fill="#0E0E0E"/>
<path d="M423.418 47.4626C423.472 47.4271 423.534 47.4071 423.598 47.4046C423.662 47.4021 423.726 47.4172 423.782 47.4484C423.838 47.4796 423.885 47.5255 423.916 47.5813C423.948 47.6371 423.964 47.7005 423.962 47.7646V61.0078C423.962 61.3446 423.863 61.6742 423.676 61.9557C423.489 62.2372 423.223 62.458 422.911 62.5907C409.692 68.2093 392.147 69.3572 379.025 63.2069C366.603 57.3828 360.211 46.5321 362.241 32.6123C364.308 18.4267 377.212 10.4639 390.613 8.79643C402.011 7.37868 413.099 8.84879 423.878 13.2068C423.946 13.2337 424.007 13.2738 424.06 13.3246C424.112 13.3754 424.153 13.4359 424.182 13.5024C424.21 13.569 424.224 13.6402 424.224 13.7119C424.223 13.7836 424.208 13.8543 424.18 13.9197L419.298 25.6766C419.26 25.7666 419.204 25.8477 419.134 25.9149C419.063 25.9822 418.98 26.0339 418.889 26.0669C418.797 26.0999 418.701 26.1134 418.605 26.1065C418.509 26.0997 418.416 26.0726 418.331 26.027C409.68 21.3629 400.497 20.0136 390.782 21.9792C380.547 24.0454 374.385 34.2677 379.109 43.8618C381.437 48.5823 385.493 51.6433 391.277 53.045C402.555 55.7838 413.269 53.923 423.418 47.4626Z" fill="#0E0E0E"/>
<path d="M114.21 9.98071H99.4929C99.266 9.98071 99.082 10.1646 99.082 10.3915V65.1524C99.082 65.3793 99.266 65.5633 99.4929 65.5633H114.21C114.437 65.5633 114.621 65.3793 114.621 65.1524V10.3915C114.621 10.1646 114.437 9.98071 114.21 9.98071Z" fill="#0E0E0E"/>
<path d="M147.487 65.5512H133.157C133.054 65.5512 132.956 65.5104 132.883 65.4379C132.811 65.3654 132.77 65.2671 132.77 65.1645V10.3674C132.77 10.2648 132.811 10.1665 132.883 10.094C132.956 10.0214 133.054 9.98071 133.157 9.98071H144.817C144.91 9.9812 145.001 10.0155 145.071 10.0774L179.556 41.3486C179.611 41.3966 179.679 41.428 179.751 41.4392C179.823 41.4503 179.897 41.4408 179.964 41.4118C180.031 41.3827 180.088 41.3352 180.13 41.2748C180.171 41.2145 180.194 41.1437 180.196 41.0707V10.3674C180.196 10.2648 180.237 10.1665 180.31 10.094C180.382 10.0214 180.481 9.98071 180.583 9.98071H194.757C194.859 9.98071 194.958 10.0214 195.03 10.094C195.103 10.1665 195.143 10.2648 195.143 10.3674V65.1645C195.143 65.2671 195.103 65.3654 195.03 65.4379C194.958 65.5104 194.859 65.5512 194.757 65.5512H184.136C184.042 65.5507 183.952 65.5163 183.882 65.4545L148.526 33.3737C148.472 33.3219 148.403 33.2872 148.329 33.2739C148.255 33.2606 148.178 33.2692 148.109 33.2988C148.04 33.3283 147.981 33.3774 147.939 33.4401C147.897 33.5028 147.875 33.5763 147.874 33.6516V65.1645C147.874 65.2671 147.833 65.3654 147.761 65.4379C147.688 65.5104 147.59 65.5512 147.487 65.5512Z" fill="#0E0E0E"/>
<path d="M213.353 10.5002C213.353 10.3784 213.401 10.2617 213.487 10.1755C213.573 10.0894 213.69 10.0411 213.812 10.0411L250.315 9.96856C254.192 9.96161 258.032 10.6487 261.616 11.9906C265.2 13.3326 268.458 15.303 271.204 17.7895C273.95 20.276 276.129 23.2297 277.618 26.4821C279.107 29.7345 279.877 33.2218 279.882 36.7448V38.654C279.894 45.7675 276.796 52.5949 271.269 57.6344C265.742 62.6739 258.24 65.5129 250.412 65.5269L213.908 65.5994C213.787 65.5994 213.67 65.5511 213.584 65.4649C213.498 65.3788 213.449 65.2621 213.449 65.1403L213.353 10.5002ZM228.843 23.5742V51.9213C228.843 52.0038 228.859 52.0855 228.891 52.1617C228.923 52.238 228.969 52.3072 229.027 52.3656C229.086 52.4239 229.155 52.4702 229.231 52.5018C229.307 52.5334 229.389 52.5496 229.471 52.5496H248.08C250.196 52.5496 252.292 52.1736 254.248 51.4431C256.204 50.7126 257.981 49.6419 259.477 48.2921C260.974 46.9423 262.161 45.3399 262.971 43.5763C263.782 41.8127 264.198 39.9225 264.198 38.0136V37.4819C264.198 35.573 263.782 33.6828 262.971 31.9192C262.161 30.1556 260.974 28.5532 259.477 27.2034C257.981 25.8536 256.204 24.7829 254.248 24.0524C252.292 23.3219 250.196 22.9459 248.08 22.9459H229.471C229.305 22.9459 229.145 23.0121 229.027 23.1299C228.909 23.2477 228.843 23.4076 228.843 23.5742Z" fill="#0E0E0E"/>
<path d="M457.747 9.98071H475.678C475.751 9.98158 475.822 10.0023 475.883 10.0406C475.945 10.079 475.995 10.1335 476.028 10.1982L504.025 64.9712C504.056 65.0316 504.071 65.0989 504.068 65.1667C504.066 65.2345 504.046 65.3006 504.011 65.3587C503.976 65.4167 503.927 65.4649 503.868 65.4986C503.809 65.5323 503.742 65.5504 503.675 65.5512H487.689C487.616 65.5503 487.545 65.5296 487.483 65.4912C487.421 65.4529 487.371 65.3984 487.338 65.3337L482.771 56.4042C482.738 56.3395 482.688 56.285 482.626 56.2466C482.564 56.2083 482.493 56.1876 482.42 56.1867H450.448C450.376 56.1876 450.305 56.2083 450.243 56.2466C450.181 56.285 450.131 56.3395 450.098 56.4042L445.53 65.3458C445.497 65.4105 445.447 65.465 445.386 65.5033C445.324 65.5417 445.253 65.5624 445.18 65.5633H429.798C429.729 65.5645 429.661 65.5479 429.601 65.5151C429.54 65.4823 429.489 65.4343 429.453 65.3759C429.416 65.3175 429.395 65.2506 429.392 65.1818C429.389 65.113 429.404 65.0446 429.436 64.9833L457.396 10.1982C457.429 10.1335 457.479 10.079 457.541 10.0406C457.603 10.0023 457.674 9.98158 457.747 9.98071ZM455.813 43.1973C455.78 43.2617 455.764 43.3334 455.767 43.4057C455.769 43.4781 455.79 43.5485 455.828 43.6103C455.866 43.6721 455.918 43.7233 455.981 43.7589C456.044 43.7945 456.115 43.8133 456.188 43.8136H476.802C476.874 43.8133 476.945 43.7945 477.008 43.7589C477.071 43.7233 477.124 43.6721 477.162 43.6103C477.199 43.5485 477.22 43.4781 477.223 43.4057C477.225 43.3334 477.209 43.2617 477.176 43.1973L466.869 23.3689C466.834 23.3005 466.78 23.2433 466.714 23.2033C466.648 23.1634 466.572 23.1423 466.495 23.1423C466.418 23.1423 466.342 23.1634 466.276 23.2033C466.21 23.2433 466.156 23.3005 466.12 23.3689L455.813 43.1973Z" fill="#0E0E0E"/>
<path d="M564.972 65.5513H514.211C514.115 65.5513 514.023 65.5131 513.955 65.4451C513.887 65.3771 513.849 65.2849 513.849 65.1888V10.3312C513.849 10.2836 513.858 10.2365 513.876 10.1925C513.894 10.1485 513.921 10.1086 513.955 10.0749C513.988 10.0413 514.028 10.0146 514.072 9.99634C514.116 9.97813 514.164 9.96875 514.211 9.96875H529.037C529.085 9.96875 529.132 9.97813 529.176 9.99634C529.22 10.0146 529.26 10.0413 529.293 10.0749C529.327 10.1086 529.354 10.1485 529.372 10.1925C529.39 10.2365 529.4 10.2836 529.4 10.3312V52.0544C529.4 52.102 529.409 52.1491 529.427 52.1931C529.445 52.2371 529.472 52.2771 529.506 52.3107C529.539 52.3444 529.579 52.3711 529.623 52.3893C529.667 52.4075 529.715 52.4169 529.762 52.4169H564.972C565.069 52.4169 565.161 52.4551 565.229 52.5231C565.297 52.5911 565.335 52.6833 565.335 52.7794V65.1888C565.335 65.2849 565.297 65.3771 565.229 65.4451C565.161 65.5131 565.069 65.5513 564.972 65.5513Z" fill="#0E0E0E"/>
<path d="M575.521 9.98071H626.609C626.743 9.98071 626.872 10.0342 626.968 10.1294C627.063 10.2245 627.116 10.3536 627.116 10.4882V22.6076C627.116 22.7422 627.063 22.8713 626.968 22.9665C626.872 23.0616 626.743 23.1151 626.609 23.1151H590.927C590.793 23.1151 590.664 23.1686 590.568 23.2638C590.473 23.3589 590.42 23.488 590.42 23.6226V30.7517C590.42 30.8863 590.473 31.0153 590.568 31.1105C590.664 31.2057 590.793 31.2592 590.927 31.2592H623.914C623.998 31.2588 624.08 31.2791 624.154 31.3183C624.228 31.3574 624.291 31.4141 624.337 31.4835C624.384 31.5528 624.413 31.6326 624.421 31.7157C624.43 31.7988 624.417 31.8827 624.385 31.96L619.528 43.6565C619.49 43.7498 619.424 43.8295 619.34 43.8854C619.256 43.9414 619.158 43.971 619.057 43.9706H590.915C590.848 43.9706 590.782 43.9838 590.721 44.0093C590.659 44.0348 590.603 44.0722 590.556 44.1193C590.509 44.1664 590.472 44.2224 590.446 44.2839C590.421 44.3455 590.408 44.4115 590.408 44.4781V51.9093C590.408 51.9759 590.421 52.0419 590.446 52.1035C590.472 52.1651 590.509 52.221 590.556 52.2681C590.603 52.3153 590.659 52.3526 590.721 52.3781C590.782 52.4036 590.848 52.4168 590.915 52.4168H629.775C629.909 52.4168 630.038 52.4702 630.133 52.5654C630.229 52.6606 630.282 52.7897 630.282 52.9243V65.0437C630.282 65.1783 630.229 65.3074 630.133 65.4025C630.038 65.4977 629.909 65.5512 629.775 65.5512H575.521C575.387 65.5512 575.257 65.4977 575.162 65.4025C575.067 65.3074 575.014 65.1783 575.014 65.0437V10.4882C575.014 10.3536 575.067 10.2245 575.162 10.1294C575.257 10.0342 575.387 9.98071 575.521 9.98071Z" fill="#0E0E0E"/>
<path d="M650.702 52.3442H638.402C638.128 52.3442 637.906 52.566 637.906 52.8396V65.1403C637.906 65.4139 638.128 65.6357 638.402 65.6357H650.702C650.976 65.6357 651.198 65.4139 651.198 65.1403V52.8396C651.198 52.566 650.976 52.3442 650.702 52.3442Z" fill="#0E0E0E"/>
</svg>
