<svg width="423" height="96" viewBox="0 0 423 96" fill="none" xmlns="http://www.w3.org/2000/svg">
<path d="M410.995 0.000135083C422.015 -0.0398649 422.905 8.81013 421.815 17.8401C419.522 36.7535 416.302 55.8701 412.155 75.1901C412.075 75.5635 411.792 75.7534 411.305 75.7601C410.825 75.7601 410.542 75.5701 410.455 75.1901C406.149 55.9101 402.772 36.8235 400.325 17.9301C399.155 8.91013 399.965 0.0501351 410.995 0.000135083Z" fill="#0E0E0E"/>
<path d="M186.325 40.5602C186.324 40.6289 186.344 40.696 186.382 40.7527C186.421 40.8093 186.476 40.8529 186.541 40.8778C186.606 40.9026 186.677 40.9076 186.746 40.8919C186.814 40.8763 186.877 40.8408 186.925 40.7901L191.055 36.3701C191.128 36.2844 191.216 36.2131 191.315 36.1601C202.545 29.7401 215.815 35.1301 222.235 45.7602C225.869 51.7735 227.319 58.5202 226.585 66.0002C225.365 78.4268 219.229 87.0968 208.175 92.0101C200.742 95.3235 193.565 95.0535 186.645 91.2001C185.559 90.6001 184.335 90.3101 182.975 90.3301C182.725 90.3368 182.48 90.3947 182.255 90.5002L176.835 93.0801C176.42 93.2779 175.967 93.3869 175.505 93.4001L168.055 93.7001C167.907 93.7068 167.759 93.6812 167.621 93.6253C167.484 93.5694 167.36 93.4844 167.258 93.3761C167.157 93.2678 167.08 93.1388 167.033 92.998C166.985 92.8572 166.969 92.7078 166.985 92.5602C167.285 89.7601 167.435 87.5501 167.435 85.9301C167.482 61.6635 167.455 42.5801 167.355 28.6801C167.349 27.3135 166.939 26.0301 166.125 24.8301C165.862 24.4488 165.509 24.1335 165.095 23.9101C163.742 23.1901 162.309 22.4702 160.795 21.7502C160.535 21.6302 160.305 21.4002 160.105 21.0602C160.057 20.9798 160.03 20.8881 160.027 20.7942C160.025 20.7002 160.047 20.6072 160.091 20.5244C160.135 20.4416 160.201 20.3718 160.28 20.3219C160.36 20.2721 160.451 20.2439 160.545 20.2401C169.135 19.8401 179.125 18.0001 184.785 11.0501C184.899 10.9126 185.053 10.8135 185.225 10.7662C185.397 10.7189 185.58 10.7257 185.748 10.7858C185.916 10.8459 186.062 10.9562 186.165 11.1019C186.268 11.2476 186.324 11.4216 186.325 11.6001V40.5602ZM194.865 90.0501C202.035 90.3301 205.855 77.4302 206.565 71.8202C207.675 63.1002 206.925 54.1801 203.365 46.4002C201.255 41.7901 196.575 37.7901 191.865 42.2701C188.619 45.3501 186.845 49.3135 186.545 54.1601C186.225 59.2268 186.142 66.1501 186.295 74.9301C186.405 81.0201 187.315 89.7501 194.865 90.0501Z" fill="#0E0E0E"/>
<path d="M25.4656 10.9601C25.6154 10.9036 25.7768 10.8846 25.9358 10.9048C26.0948 10.9251 26.2467 10.9839 26.3784 11.0764C26.5102 11.1688 26.6179 11.292 26.6923 11.4355C26.7667 11.579 26.8056 11.7384 26.8056 11.9001V28.9201C26.8056 29.2092 26.9204 29.4865 27.1248 29.6909C27.3292 29.8953 27.6065 30.0101 27.8956 30.0101H38.4656C38.699 30.0101 38.9228 30.1029 39.0878 30.2679C39.2528 30.4329 39.3456 30.6568 39.3456 30.8901V33.0101C39.3456 33.2303 39.2592 33.4414 39.1054 33.597C38.9516 33.7527 38.743 33.8401 38.5256 33.8401H27.5656C27.3578 33.8401 27.1583 33.922 27.0105 34.068C26.8626 34.214 26.7782 34.4124 26.7756 34.6201C26.6556 58.0735 26.6856 73.3135 26.8656 80.3401C26.9656 84.3901 32.0256 86.1001 35.2256 85.2801C36.2322 85.0201 37.0089 84.8368 37.5556 84.7301C37.7296 84.6963 37.9094 84.7081 38.0776 84.7641C38.2457 84.8202 38.3966 84.9187 38.5156 85.0501C39.9456 86.6201 39.5356 88.1601 37.9656 89.6601C33.0256 94.4068 27.2522 96.1768 20.6456 94.9701C11.8456 93.3701 7.89556 84.6601 7.83556 76.4001C7.74222 64.9468 7.7289 51.1168 7.79556 34.9101C7.79556 34.767 7.76736 34.6253 7.71259 34.493C7.65781 34.3608 7.57752 34.2406 7.4763 34.1394C7.37509 34.0382 7.25493 33.9579 7.12268 33.9031C6.99044 33.8483 6.8487 33.8201 6.70556 33.8201H1.55556C1.23594 33.8207 0.925746 33.7119 0.676521 33.5118C0.427297 33.3117 0.254051 33.0323 0.185562 32.7201C-0.187771 31.0068 0.00222856 30.0701 0.755562 29.9101C2.75556 29.4768 4.27222 29.1668 5.30556 28.9801C13.1156 27.5801 19.0856 19.6401 22.1656 12.8101C22.3832 12.3302 22.7824 11.9561 23.2756 11.7701L25.4656 10.9601Z" fill="#0E0E0E"/>
<path d="M308.355 41.0302C309.095 40.2302 309.792 39.4336 310.445 38.6402C313.615 34.7602 319.595 33.2602 324.325 33.6502C332.665 34.3302 338.625 38.7802 343.295 45.3502C343.611 45.7941 343.793 46.3204 343.818 46.8665C343.842 47.4126 343.71 47.9554 343.435 48.4302C338.275 57.3702 338.985 69.1403 343.035 78.3203C343.222 78.7387 343.297 79.1983 343.255 79.6552C343.213 80.1122 343.055 80.5511 342.795 80.9302C337.975 87.9502 331.522 92.2336 323.435 93.7802C319.035 94.6202 313.615 94.1202 309.165 91.4902C304.225 88.5602 302.335 91.4702 297.775 92.9702C297.146 93.1889 296.488 93.307 295.825 93.3203L289.685 93.4602C289.557 93.4643 289.429 93.4424 289.309 93.396C289.189 93.3495 289.079 93.2794 288.987 93.1899C288.895 93.1003 288.821 92.9931 288.771 92.8747C288.721 92.7562 288.695 92.6289 288.695 92.5002C288.755 67.9602 288.782 47.1036 288.775 29.9302C288.769 27.4502 288.259 25.5736 287.245 24.3002C287.068 24.077 286.838 23.9017 286.575 23.7902L282.645 22.1002C282.45 22.0171 282.289 21.8712 282.187 21.6858C282.084 21.5005 282.047 21.2862 282.08 21.0771C282.114 20.868 282.216 20.676 282.371 20.5316C282.526 20.3872 282.724 20.2988 282.935 20.2802C288.395 19.7702 293.755 19.4702 298.825 17.1502C301.705 15.8202 304.325 13.0202 306.845 11.1202C306.937 11.0498 307.046 11.0068 307.16 10.9959C307.275 10.985 307.391 11.0068 307.495 11.0587C307.599 11.1106 307.686 11.1906 307.748 11.2898C307.81 11.389 307.844 11.5034 307.845 11.6202V40.8302C307.843 40.8904 307.859 40.9498 307.892 41.0002C307.925 41.0507 307.973 41.0895 308.029 41.1115C308.085 41.1335 308.147 41.1375 308.205 41.1229C308.264 41.1084 308.316 41.076 308.355 41.0302ZM316.325 89.8402C323.445 90.1002 327.205 77.2902 327.895 71.7202C328.985 63.0602 328.215 54.2002 324.665 46.4902C322.565 41.9202 317.905 37.9602 313.245 42.4102C310.025 45.4769 308.272 49.4169 307.985 54.2302C307.679 59.2569 307.612 66.1302 307.785 74.8503C307.905 80.8903 308.825 89.5602 316.325 89.8402Z" fill="#0E0E0E"/>
<path d="M285.256 93.3901C285.142 93.4768 284.996 93.5202 284.816 93.5202C282.889 93.5135 278.372 93.5001 271.266 93.4801C266.876 93.4701 264.936 91.7202 261.546 88.8802C261.162 88.5586 260.679 88.3791 260.178 88.3718C259.677 88.3645 259.189 88.5299 258.796 88.8402L254.986 91.8302C254.369 92.3135 253.681 92.6949 252.946 92.9602C246.046 95.4602 236.856 94.6802 231.466 89.0902C223.246 80.5402 228.086 67.4602 237.966 62.7202C244.106 59.7802 251.176 57.0502 257.076 53.1302C261.156 50.4302 262.776 42.2802 256.236 40.7502C249.776 39.2302 245.596 42.1302 245.096 48.4402C244.866 51.2602 244.946 53.5902 242.416 55.2002C238.046 57.9702 230.006 56.4502 230.406 49.7002C231.056 38.7702 241.066 32.7202 251.256 32.1602C256.836 31.8502 263.726 31.9602 268.856 34.2002C279.296 38.7602 280.996 46.5401 280.966 57.8601C280.946 66.2201 280.966 72.1868 281.026 75.7601C281.132 81.7668 282.636 87.1302 285.536 91.8502C285.686 92.098 285.741 92.392 285.689 92.6761C285.637 92.9601 285.483 93.2143 285.256 93.3901ZM259.006 58.0802C258.961 58.014 258.904 57.9573 258.838 57.9134C258.772 57.8694 258.697 57.8392 258.619 57.8243C258.541 57.8094 258.461 57.8102 258.383 57.8266C258.305 57.8431 258.231 57.8749 258.166 57.9201C253.559 61.0535 250.092 65.1935 247.766 70.3402C245.776 74.7302 245.426 81.9502 250.456 84.4702C254.956 86.7302 259.256 84.1802 259.396 79.2402C259.556 73.5535 259.622 67.4535 259.596 60.9402C259.589 59.6068 259.392 58.6535 259.006 58.0802Z" fill="#0E0E0E"/>
<path d="M97.5254 93.5101C97.412 93.5968 97.2654 93.6401 97.0854 93.6401C95.1587 93.6335 90.652 93.6202 83.5654 93.6002C79.1754 93.5902 77.2454 91.8401 73.8654 89.0101C73.4813 88.6886 72.9983 88.5091 72.4975 88.5018C71.9966 88.4945 71.5086 88.6599 71.1154 88.9702L67.3154 91.9501C66.6993 92.4337 66.0106 92.8152 65.2754 93.0801C58.3954 95.5701 49.2154 94.7901 43.8454 89.2101C35.6354 80.6801 40.4654 67.6301 50.3254 62.9001C56.4554 59.9601 63.5154 57.2401 69.4054 53.3301C73.4754 50.6301 75.0954 42.5001 68.5654 40.9701C62.1154 39.4601 57.9454 42.3501 57.4454 48.6501C57.2154 51.4601 57.2954 53.7901 54.7754 55.3902C50.4154 58.1602 42.3854 56.6401 42.7854 49.9001C43.4354 38.9901 53.4254 32.9601 63.5954 32.4001C69.1654 32.0901 76.0454 32.2001 81.1654 34.4401C91.5754 38.9901 93.2754 46.7501 93.2454 58.0501C93.2254 66.3968 93.2454 72.3535 93.3054 75.9201C93.412 81.9135 94.912 87.2635 97.8054 91.9702C97.9557 92.218 98.0103 92.512 97.9587 92.7961C97.907 93.0801 97.7528 93.3343 97.5254 93.5101ZM71.2954 58.3202C71.2511 58.254 71.1942 58.1973 71.1278 58.1534C71.0615 58.1094 70.987 58.0792 70.9089 58.0643C70.8307 58.0494 70.7503 58.0502 70.6725 58.0666C70.5946 58.0831 70.5208 58.1149 70.4554 58.1602C65.8754 61.3202 62.442 65.4768 60.1554 70.6302C58.2054 75.0302 57.9054 82.2402 62.9454 84.7202C67.4554 86.9502 71.7254 84.3702 71.8354 79.4402C71.9487 73.7602 71.9687 67.6701 71.8954 61.1701C71.882 59.8368 71.682 58.8868 71.2954 58.3202Z" fill="#0E0E0E"/>
<path d="M128.776 92.2102C128.828 92.3655 128.843 92.5311 128.818 92.6932C128.794 92.8553 128.731 93.0093 128.636 93.1423C128.54 93.2753 128.413 93.3835 128.267 93.458C128.121 93.5324 127.96 93.5709 127.796 93.5702H101.546C101.326 93.5697 101.112 93.5082 100.926 93.3926C100.739 93.277 100.589 93.1118 100.492 92.9156C100.394 92.7194 100.353 92.4999 100.373 92.2817C100.393 92.0635 100.474 91.8552 100.606 91.6802C104.396 86.6702 104.956 81.6502 105.106 74.9302C105.132 73.3635 105.139 65.3635 105.126 50.9302C105.126 49.8102 104.889 48.7368 104.416 47.7102C104.306 47.4587 104.106 47.2559 103.856 47.1402L98.9756 44.8102C98.8053 44.7305 98.6667 44.596 98.5819 44.4282C98.4972 44.2604 98.4711 44.069 98.508 43.8846C98.5449 43.7003 98.6425 43.5337 98.7853 43.4114C98.9281 43.2891 99.1078 43.2182 99.2956 43.2102C102.936 43.0102 106.869 42.4202 111.096 41.4402C115.709 40.3802 119.546 37.9935 122.606 34.2802C122.712 34.1531 122.856 34.0619 123.016 34.0189C123.177 33.976 123.346 33.9834 123.502 34.0402C123.658 34.0969 123.793 34.2003 123.889 34.3362C123.984 34.4721 124.035 34.6341 124.036 34.8002V39.3002C124.036 39.405 124.064 39.5082 124.118 39.5982C124.172 39.6882 124.249 39.7615 124.342 39.8102C124.434 39.8588 124.537 39.8808 124.64 39.8737C124.743 39.8667 124.842 39.8308 124.926 39.7702C132.966 34.1202 139.786 30.8201 149.746 34.2201C158.176 37.1001 159.746 45.2302 159.936 53.2502C160.069 58.5902 160.239 66.6502 160.446 77.4302C160.552 82.6635 161.779 87.5335 164.126 92.0401C164.211 92.2027 164.253 92.3843 164.248 92.5677C164.244 92.7511 164.192 92.9302 164.099 93.0883C164.006 93.2464 163.874 93.3782 163.716 93.4713C163.558 93.5643 163.379 93.6156 163.196 93.6202C161.006 93.6802 154.586 94.1101 151.736 92.8901C143.676 89.4501 143.086 84.0402 143.216 75.1002C143.302 68.5402 143.282 60.9868 143.156 52.4402C143.102 49.0202 142.186 46.0635 140.406 43.5702C137.976 40.1602 133.126 39.5302 129.456 41.5802C123.786 44.7402 124.206 50.2502 124.156 57.0202C124.136 61.0802 124.136 67.0502 124.156 74.9302C124.169 78.9435 124.842 82.9068 126.176 86.8202C126.816 88.6902 128.206 90.4902 128.776 92.2102Z" fill="#0E0E0E"/>
<path d="M372.186 78.8201C372.1 78.8355 372.021 78.8748 371.957 78.9333C371.893 78.9918 371.847 79.0672 371.824 79.1509C371.801 79.2345 371.802 79.3229 371.827 79.406C371.852 79.489 371.9 79.5632 371.966 79.6201C380.046 86.6801 388.112 86.7868 396.166 79.9401C396.313 79.8137 396.489 79.7258 396.679 79.6843C396.868 79.6429 397.065 79.6493 397.251 79.7028C397.438 79.7564 397.608 79.8555 397.747 79.9912C397.885 80.1269 397.988 80.2949 398.046 80.4801C398.359 81.4601 398.256 82.3535 397.736 83.1601C389.736 95.5801 373.296 98.7001 360.436 92.5101C343.266 84.2401 337.856 60.6201 349.356 45.4501C356.116 36.5501 367.686 34.1101 378.376 36.1601C382.549 36.9601 386.232 38.8401 389.426 41.8001C395.426 47.3601 395.646 54.7601 394.056 62.4401C392.156 71.6201 380.866 77.2001 372.186 78.8201ZM369.166 75.0001C371.579 74.9668 373.969 73.6035 376.336 70.9101C381.536 64.9601 381.736 57.4401 379.766 50.2501C378.046 44.0001 371.236 36.2601 364.526 42.9401C361.336 46.1301 360.046 51.4801 360.506 56.1801C361.006 61.2201 363.586 71.6101 368.026 74.6601C368.358 74.8877 368.756 75.0065 369.166 75.0001Z" fill="#0E0E0E"/>
<path d="M411.305 94.4201C415.602 94.4201 419.085 90.9369 419.085 86.6401C419.085 82.3433 415.602 78.8601 411.305 78.8601C407.009 78.8601 403.525 82.3433 403.525 86.6401C403.525 90.9369 407.009 94.4201 411.305 94.4201Z" fill="#0E0E0E"/>
</svg>
