<svg width="345" height="96" viewBox="0 0 345 96" fill="none" xmlns="http://www.w3.org/2000/svg">
<g clip-path="url(#clip0_127_9707)">
<path d="M123.851 0C133.444 1.71421 131.994 15.263 122.698 14.5048C113.648 13.7631 113.731 3.11524 121.544 0H123.851Z" fill="#0E0E0E"/>
<path d="M0 68.1398V66.5409C0.340644 65.2223 0.340644 63.9202 0 62.6345C0 62.5686 0 62.5027 0 62.4367C0.362621 61.4478 0.362621 60.739 0 60.3105V27.4274L11.3896 27.3285C11.5043 27.3263 11.6183 27.3467 11.7252 27.3886C11.832 27.4305 11.9295 27.493 12.0122 27.5726C12.0948 27.6522 12.161 27.7473 12.2069 27.8525C12.2528 27.9577 12.2775 28.0708 12.2797 28.1856C12.3346 41.13 12.4555 54.8327 12.6423 69.2936C12.7082 74.3703 13.0049 79.0843 18.1475 81.1776C26.8504 84.7214 30.9876 77.4855 31.0535 70.0518C31.1854 53.6349 28.0207 24.6583 53.6019 26.0758C58.0413 26.3175 62.1235 27.7955 65.8486 30.5096C73.1505 35.8171 74.7493 44.8332 74.7328 53.7833C74.7218 62.0137 74.8482 68.8815 75.1119 74.3867C75.1448 74.9315 75.2789 75.4679 75.5075 75.9691C77.6283 80.4854 80.76 82.4523 84.9027 81.8699C90.2761 81.1117 93.0342 77.8536 93.177 72.0956C93.5726 55.7777 93.655 41.0916 93.4243 28.0372C93.4221 27.9341 93.4405 27.8316 93.4784 27.7357C93.5164 27.6398 93.5731 27.5524 93.6453 27.4788C93.7174 27.4051 93.8036 27.3465 93.8987 27.3066C93.9937 27.2666 94.0958 27.246 94.199 27.2461H105.144C105.353 27.2461 105.555 27.3277 105.703 27.473C105.851 27.6182 105.935 27.8153 105.935 28.0207C105.946 50.5911 105.94 63.0906 105.918 65.519C105.885 71.5682 105.753 76.9745 103.232 81.8699C93.0287 101.798 64.7772 96.2758 62.8817 74.5186C62.2334 67.0684 62.0246 58.9918 62.2554 50.2889C62.3103 48.4099 62.0356 46.3221 61.4312 44.0255C61.2793 43.451 61.0028 42.9264 60.6236 42.4926C54.4096 35.3061 43.8441 37.7456 43.7452 47.9154C43.6463 57.9919 43.487 65.5849 43.2672 70.6946C43.0255 76.2438 42.053 80.4029 40.3498 83.172C29.8668 100.166 7.00517 96.7044 1.25269 78.3756C0.395586 75.6229 0.576897 71.4693 0 68.1398Z" fill="#0E0E0E"/>
<path d="M139.147 59.9313C139.147 56.1622 139.257 53.7667 139.477 52.7448C141.4 43.5035 145.724 36.6302 152.449 32.1249C165.613 23.3121 178.772 23.6692 191.925 33.1963C195.683 35.9324 199.002 40.7069 201.881 47.5198C201.933 47.6438 201.96 47.7773 201.96 47.9121C201.959 48.0469 201.931 48.1801 201.877 48.3036C201.823 48.4271 201.744 48.5382 201.646 48.6302C201.547 48.7222 201.431 48.793 201.304 48.8384L192.04 52.2338C191.762 52.3343 191.456 52.3255 191.184 52.2093C190.912 52.0931 190.694 51.878 190.574 51.6075C180.997 29.0261 150.817 36.0643 150.768 59.9478C150.718 83.8313 180.882 91.0013 190.541 68.4529C190.661 68.1823 190.879 67.9673 191.151 67.8511C191.423 67.7348 191.729 67.7261 192.008 67.8265L201.271 71.2549C201.396 71.302 201.511 71.374 201.608 71.4667C201.704 71.5594 201.781 71.6708 201.834 71.7941C201.886 71.9174 201.913 72.0501 201.913 72.1841C201.912 72.3181 201.884 72.4506 201.831 72.5736C198.93 79.3864 195.595 84.15 191.826 86.8641C178.629 96.3362 165.465 96.6384 152.334 87.7707C145.631 83.2434 141.334 76.3536 139.444 67.1013C139.235 66.0794 139.136 63.6894 139.147 59.9313Z" fill="#0E0E0E"/>
<path d="M220.655 59.9644C220.638 83.8644 250.818 91.0014 260.444 68.4365C260.561 68.1591 260.781 67.9375 261.057 67.8177C261.333 67.698 261.645 67.6894 261.928 67.7937L271.191 71.2221C271.316 71.2691 271.431 71.3412 271.528 71.4339C271.625 71.5265 271.702 71.6379 271.754 71.7612C271.806 71.8846 271.833 72.0172 271.833 72.1512C271.832 72.2852 271.805 72.4177 271.751 72.5407C268.861 79.3536 265.532 84.1226 261.763 86.8477C248.577 96.3418 235.407 96.6605 222.254 87.8037C215.54 83.2875 211.232 76.4032 209.331 67.1508C209.122 66.1289 209.018 63.7334 209.018 59.9644C209.018 56.1953 209.128 53.7998 209.348 52.7779C211.26 43.5256 215.573 36.6467 222.287 32.1415C235.462 23.3067 248.632 23.6419 261.796 33.1469C265.565 35.883 268.889 40.6576 271.768 47.4704C271.821 47.5934 271.849 47.7259 271.849 47.8599C271.85 47.9939 271.823 48.1266 271.77 48.2499C271.718 48.3732 271.641 48.4846 271.544 48.5773C271.448 48.6699 271.333 48.742 271.208 48.789L261.944 52.201C261.664 52.3063 261.354 52.3 261.078 52.1835C260.802 52.067 260.581 51.8491 260.461 51.5746C250.868 28.9933 220.671 36.0808 220.655 59.9644Z" fill="#0E0E0E"/>
<path d="M330.133 87.9355C316.403 97.7427 298.47 95.6989 286.849 83.1225C280.993 76.7932 278.311 68.4309 278.806 58.0358C279.454 44.3551 285.822 34.5808 297.909 28.7129C308.706 23.4549 322.831 25.6472 332.111 33.6413C339.715 40.1795 343.501 48.9758 343.468 60.0302C343.435 68.3815 343.435 79.0238 343.468 91.9573C343.468 92.1103 343.407 92.257 343.299 92.3652C343.19 92.4734 343.044 92.5342 342.891 92.5342H332.292C332.03 92.5342 331.779 92.43 331.593 92.2445C331.408 92.0591 331.303 91.8075 331.303 91.5452V88.5454C331.304 88.409 331.267 88.275 331.197 88.1582C331.127 88.0413 331.025 87.9462 330.904 87.8831C330.783 87.8201 330.648 87.7916 330.511 87.8009C330.375 87.8101 330.244 87.8567 330.133 87.9355ZM311.185 37.7954C308.473 37.7765 305.783 38.3329 303.27 39.4328C300.756 40.5327 298.468 42.1546 296.536 44.2059C294.604 46.2572 293.065 48.6977 292.009 51.3881C290.952 54.0785 290.398 56.9661 290.377 59.886C290.357 62.8059 290.871 65.7009 291.89 68.4058C292.909 71.1107 294.413 73.5725 296.316 75.6506C298.22 77.7286 300.485 79.3823 302.983 80.5172C305.481 81.6521 308.162 82.246 310.874 82.2649C313.586 82.2839 316.276 81.7275 318.789 80.6276C321.303 79.5277 323.591 77.9058 325.523 75.8545C327.455 73.8032 328.994 71.3627 330.051 68.6723C331.107 65.9819 331.662 63.0943 331.682 60.1744C331.702 57.2545 331.188 54.3595 330.169 51.6546C329.15 48.9497 327.646 46.4879 325.743 44.4098C323.84 42.3318 321.574 40.6781 319.076 39.5432C316.579 38.4083 313.897 37.8144 311.185 37.7954Z" fill="#0E0E0E"/>
<path d="M128.467 27.2461H117.753C117.353 27.2461 117.028 27.5708 117.028 27.9713V91.8255C117.028 92.2261 117.353 92.5508 117.753 92.5508H128.467C128.867 92.5508 129.192 92.2261 129.192 91.8255V27.9713C129.192 27.5708 128.867 27.2461 128.467 27.2461Z" fill="#0E0E0E"/>
</g>
<defs>
<clipPath id="clip0_127_9707">
<rect width="344.49" height="95.6" fill="white"/>
</clipPath>
</defs>
</svg>
