<?xml version="1.0" encoding="UTF-8" standalone="no"?>
<!DOCTYPE svg PUBLIC "-//W3C//DTD SVG 1.1//EN" "http://www.w3.org/Graphics/SVG/1.1/DTD/svg11.dtd">
<svg xmlns="http://www.w3.org/2000/svg" version="1.1" viewBox="0.00 0.00 268.00 210.00">
<path fill="#ffffff" d="
  M 100.70 101.99
  A 0.36 0.35 -51.1 0 1 101.29 101.92
  L 144.42 156.64
  A 0.42 0.41 52.4 0 1 144.35 157.22
  L 121.28 175.41
  A 0.46 0.45 51.8 0 1 120.65 175.33
  L 98.21 146.87
  A 0.74 0.73 -28.9 0 0 97.37 146.63
  C 77.96 153.59 56.64 149.27 40.86 136.12
  Q 23.86 121.97 19.73 98.25
  Q 18.54 91.40 19.53 84.47
  C 21.52 70.50 27.51 57.49 37.72 47.95
  C 50.09 36.38 68.43 28.97 85.62 31.66
  C 101.53 34.16 115.33 43.40 126.35 55.15
  Q 140.29 70.00 153.38 87.80
  C 157.71 93.68 161.49 97.97 166.28 103.67
  C 170.75 109.00 177.99 114.19 185.01 114.78
  C 194.26 115.56 202.79 110.88 207.52 102.93
  C 215.31 89.84 209.28 74.30 196.06 67.70
  C 183.79 61.56 169.09 67.39 163.60 79.75
  A 0.61 0.61 0.0 0 1 162.56 79.88
  L 141.72 53.44
  A 0.61 0.60 49.3 0 1 141.78 52.62
  C 148.01 46.79 153.95 41.54 161.23 37.75
  Q 185.17 25.29 210.44 36.36
  Q 225.17 42.82 234.83 56.21
  C 257.98 88.32 242.99 133.31 206.75 146.45
  C 183.17 155.00 160.97 147.70 143.51 130.25
  C 125.41 112.16 111.86 88.67 96.40 74.67
  C 90.44 69.28 82.75 64.99 74.45 66.70
  C 52.55 71.20 47.16 99.26 66.04 111.21
  C 77.57 118.51 94.42 114.59 100.70 101.99
  Z"
/>
</svg>
